<svg width="56" height="56" viewBox="0 0 56 56" fill="none" xmlns="http://www.w3.org/2000/svg">
<path d="M17.9326 22.6138L11.3291 28.0002L17.9326 33.3867C18.1516 33.5624 18.333 33.7788 18.4661 34.0234C18.5993 34.268 18.6816 34.536 18.7084 34.812C18.7353 35.0879 18.706 35.3663 18.6224 35.6311C18.5387 35.8959 18.4024 36.1419 18.2212 36.3549C18.0399 36.5679 17.8174 36.7436 17.5665 36.872C17.3156 37.0004 17.0411 37.0789 16.759 37.1029C16.477 37.127 16.1928 37.0961 15.923 37.0121C15.6531 36.9282 15.4029 36.7927 15.1868 36.6136L6.60614 29.6137C6.36447 29.4166 6.17003 29.1699 6.03659 28.8911C5.90315 28.6123 5.83398 28.3081 5.83398 28.0002C5.83398 27.6923 5.90315 27.3882 6.03659 27.1093C6.17003 26.8305 6.36447 26.5838 6.60614 26.3867L15.1868 19.3868C15.6246 19.0357 16.1863 18.868 16.7498 18.9205C17.3132 18.973 17.8326 19.2413 18.1948 19.667C18.557 20.0927 18.7327 20.6413 18.6836 21.1933C18.6345 21.7452 18.3646 22.2558 17.9326 22.6138ZM49.3952 26.3867L40.8145 19.3868C40.5984 19.2077 40.3482 19.0723 40.0783 18.9883C39.8085 18.9043 39.5243 18.8735 39.2423 18.8975C38.9602 18.9216 38.6857 19.0001 38.4348 19.1284C38.1839 19.2568 37.9614 19.4326 37.7801 19.6455C37.5989 19.8585 37.4626 20.1045 37.3789 20.3693C37.2953 20.6342 37.266 20.9126 37.2929 21.1885C37.3197 21.4644 37.402 21.7324 37.5352 21.9771C37.6683 22.2217 37.8497 22.4381 38.0687 22.6138L44.6722 28.0002L38.0687 33.3867C37.8497 33.5624 37.6683 33.7788 37.5352 34.0234C37.402 34.268 37.3197 34.536 37.2929 34.812C37.266 35.0879 37.2953 35.3663 37.3789 35.6311C37.4626 35.8959 37.5989 36.1419 37.7801 36.3549C37.9614 36.5679 38.1839 36.7436 38.4348 36.872C38.6857 37.0004 38.9602 37.0789 39.2423 37.1029C39.5243 37.127 39.8085 37.0961 40.0783 37.0121C40.3482 36.9282 40.5984 36.7927 40.8145 36.6136L49.3952 29.6137C49.6368 29.4166 49.8313 29.1699 49.9647 28.8911C50.0981 28.6123 50.1673 28.3081 50.1673 28.0002C50.1673 27.6923 50.0981 27.3882 49.9647 27.1093C49.8313 26.8305 49.6368 26.5838 49.3952 26.3867ZM34.454 10.6265C34.1892 10.5322 33.9081 10.4899 33.6266 10.502C33.3451 10.5142 33.0688 10.5805 32.8135 10.6971C32.5581 10.8138 32.3288 10.9786 32.1386 11.1821C31.9483 11.3855 31.8009 11.6237 31.7046 11.8829L20.2637 42.6825C20.0698 43.2058 20.0961 43.7831 20.3367 44.2875C20.5774 44.7918 21.0128 45.182 21.5473 45.3722C21.7819 45.4571 22.0301 45.5003 22.2802 45.5C22.7206 45.5001 23.1504 45.3674 23.5112 45.1201C23.8719 44.8728 24.1462 44.5227 24.2967 44.1175L35.7376 13.3179C35.8339 13.0587 35.8771 12.7834 35.8647 12.5079C35.8523 12.2323 35.7846 11.9618 35.6654 11.7119C35.5462 11.462 35.3778 11.2375 35.17 11.0512C34.9622 10.865 34.7189 10.7206 34.454 10.6265Z" fill="#C1C1C1"/>
</svg>
