<svg width="56" height="56" viewBox="0 0 56 56" fill="none" xmlns="http://www.w3.org/2000/svg">
<path d="M37.8933 26.8565L41.5567 23.1932L32.8067 14.4432L29.1433 18.1065L19.4833 8.46985C17.6633 6.64985 14.7 6.64985 12.88 8.46985L8.44667 12.9032C6.62667 14.7232 6.62667 17.6865 8.44667 19.5065L18.0833 29.1432L7.35 39.8999C7.11667 40.1332 7 40.4132 7 40.7398V47.8332C7 48.4865 7.51333 48.9999 8.16667 48.9999H15.26C15.5633 48.9999 15.8667 48.8832 16.0767 48.6499L26.8567 37.8699L36.4933 47.5065C39.5733 50.5865 42.9333 47.6699 43.0967 47.5065L47.53 43.0732C49.35 41.2532 49.35 38.2899 47.53 36.4699L37.8933 26.8565ZM21.42 25.8299L11.76 16.1932L16.17 11.7599L19.1333 14.7232L18.0367 15.8665C17.6004 16.3028 17.3553 16.8945 17.3553 17.5115C17.3553 18.1285 17.6004 18.7202 18.0367 19.1565C18.4729 19.5928 19.0647 19.8379 19.6817 19.8379C20.2987 19.8379 20.8904 19.5928 21.3267 19.1565L22.4467 18.0365L25.83 21.4199L21.42 25.8299ZM39.8067 44.2398L30.17 34.6032L34.6033 30.1699L37.9867 33.5532L36.8667 34.6732C36.6506 34.8892 36.4793 35.1457 36.3624 35.4279C36.2455 35.7102 36.1853 36.0127 36.1853 36.3182C36.1853 36.6237 36.2455 36.9262 36.3624 37.2085C36.4793 37.4907 36.6506 37.7472 36.8667 37.9632C37.0827 38.1792 37.3391 38.3506 37.6214 38.4675C37.9036 38.5844 38.2062 38.6446 38.5117 38.6446C38.8172 38.6446 39.1197 38.5844 39.4019 38.4675C39.6842 38.3506 39.9406 38.1792 40.1567 37.9632L41.2767 36.8432L44.24 39.8065L39.8067 44.2398ZM48.3233 16.4265C48.5396 16.2107 48.7113 15.9542 48.8283 15.672C48.9454 15.3897 49.0057 15.0871 49.0057 14.7815C49.0057 14.4759 48.9454 14.1733 48.8283 13.8911C48.7113 13.6088 48.5396 13.3524 48.3233 13.1365L42.8633 7.67652C41.7667 6.57985 40.25 6.99985 39.5733 7.67652L35.3033 11.9465L44.0533 20.6965L48.3233 16.4265Z" fill="#C1C1C1"/>
</svg>
