<svg width="56" height="56" viewBox="0 0 56 56" fill="none" xmlns="http://www.w3.org/2000/svg">
<path fill-rule="evenodd" clip-rule="evenodd" d="M29.5531 16.3105L39.5106 26.2702L35.1919 39.2286L12.1603 46.0761L23.7774 34.4591C24.4608 33.7757 24.4608 32.6677 23.7774 31.9842C23.0939 31.3008 21.9859 31.3008 21.3025 31.9842L10.0446 43.2421L17.348 21.3357L29.5531 16.3105ZM17.3987 21.1836C17.3986 21.1839 17.3985 21.1842 17.3984 21.1845L17.3987 21.1836ZM5.23015 46.6167L14.0778 20.0784C14.0779 20.0781 14.078 20.0778 14.0781 20.0775C14.2208 19.6491 14.4539 19.2564 14.7617 18.926C15.0697 18.5954 15.4452 18.3349 15.8628 18.1622L28.4332 12.9865C28.433 12.9866 28.4334 12.9864 28.4332 12.9865C29.008 12.7493 29.6408 12.6872 30.2507 12.8086C30.8608 12.9301 31.4213 13.2295 31.8615 13.669L42.1382 23.9481C42.1382 23.948 42.1383 23.9482 42.1382 23.9481C42.5518 24.3617 42.8423 24.8825 42.9767 25.4517C43.1112 26.0211 43.0844 26.6166 42.8995 27.1716L38.4545 40.509L38.4541 40.5101C38.2938 40.9901 38.0202 41.4244 37.6565 41.7762C37.2928 42.128 36.8496 42.387 36.3646 42.5313L9.11564 50.6328C8.56329 50.7968 7.97603 50.8064 7.41872 50.6601C6.86138 50.5138 6.35486 50.2175 5.95426 49.8034C5.55366 49.3892 5.27432 48.8731 5.14664 48.3113C5.01898 47.7495 5.04791 47.1632 5.23015 46.6167ZM39.6633 26.423C39.6631 26.4228 39.6629 26.4226 39.6628 26.4224L39.6633 26.423Z" fill="#C1C1C1"/>
<path d="M42.9397 7.42448L48.4557 12.9405C48.8702 13.3371 49.2013 13.8124 49.4296 14.3387C49.6579 14.865 49.7787 15.4316 49.7851 16.0052C49.7914 16.5788 49.6831 17.1479 49.4665 17.6791C49.2499 18.2103 48.9294 18.6929 48.5238 19.0986C48.1181 19.5042 47.6355 19.8247 47.1043 20.0413C46.5731 20.2579 46.004 20.3662 45.4304 20.3599C44.8568 20.3536 44.2902 20.2327 43.7639 20.0044C43.2376 19.7761 42.7622 19.445 42.3657 19.0305L36.8473 13.5145C36.069 12.701 35.6402 11.615 35.6526 10.4892C35.6651 9.36339 36.1178 8.2872 36.9139 7.49108C37.7101 6.69496 38.7862 6.2422 39.9121 6.22976C41.0379 6.21731 42.1261 6.64616 42.9397 7.42448Z" fill="#C1C1C1" stroke="#C1C1C1" stroke-width="1.5" stroke-linecap="round" stroke-linejoin="round"/>
<path fill-rule="evenodd" clip-rule="evenodd" d="M24.2828 25.0001C24.885 24.7538 25.5302 24.6298 26.1809 24.6354C26.8315 24.6411 27.4745 24.7763 28.0723 25.0331C28.6701 25.2899 29.2108 25.6632 29.6628 26.1312C30.5554 27.0553 31.0493 28.2931 31.0381 29.5778C31.0269 30.8626 30.5116 32.0916 29.6031 33.0001C28.6946 33.9086 27.4656 34.4239 26.1809 34.4351C24.8961 34.4462 23.6583 33.9523 22.7342 33.0598C22.2662 32.6078 21.8929 32.0671 21.6361 31.4692C21.3793 30.8714 21.2441 30.2284 21.2385 29.5778C21.2328 28.9272 21.3568 28.282 21.6032 27.6798C21.8495 27.0776 22.2134 26.5305 22.6735 26.0704C23.1335 25.6104 23.6806 25.2465 24.2828 25.0001ZM26.1565 27.4353C25.8777 27.4329 25.6012 27.486 25.3431 27.5916C25.085 27.6972 24.8505 27.8532 24.6534 28.0503C24.4562 28.2475 24.3002 28.482 24.1947 28.7401C24.0891 28.9981 24.0359 29.2747 24.0384 29.5535C24.0408 29.8323 24.0987 30.1079 24.2088 30.3641C24.3188 30.6203 24.4788 30.852 24.6794 31.0458C25.0754 31.4283 25.6059 31.64 26.1565 31.6352C26.7071 31.6304 27.2338 31.4095 27.6232 31.0202C28.0126 30.6308 28.2334 30.1041 28.2382 29.5535C28.243 29.0029 28.0313 28.4724 27.6488 28.0764C27.4551 27.8758 27.2233 27.7158 26.9671 27.6057C26.7109 27.4957 26.4354 27.4378 26.1565 27.4353Z" fill="#C1C1C1"/>
</svg>
