<svg width="80" height="80" viewBox="0 0 80 80" fill="none" xmlns="http://www.w3.org/2000/svg">
<path d="M54.1333 38.3666L59.3667 33.1333L46.8667 20.6333L41.6333 25.8666L27.8333 12.1C25.2333 9.49997 21 9.49997 18.4 12.1L12.0667 18.4333C9.46667 21.0333 9.46667 25.2666 12.0667 27.8666L25.8333 41.6333L10.5 57C10.1667 57.3333 10 57.7333 10 58.2V68.3333C10 69.2666 10.7333 70 11.6667 70H21.8C22.2333 70 22.6667 69.8333 22.9667 69.5L38.3667 54.1L52.1333 67.8666C56.5333 72.2666 61.3333 68.1 61.5667 67.8666L67.9 61.5333C70.5 58.9333 70.5 54.7 67.9 52.1L54.1333 38.3666ZM30.6 36.9L16.8 23.1333L23.1 16.8L27.3333 21.0333L25.7667 22.6666C25.1434 23.2899 24.7933 24.1352 24.7933 25.0166C24.7933 25.8981 25.1434 26.7434 25.7667 27.3666C26.3899 27.9899 27.2352 28.34 28.1167 28.34C28.9981 28.34 29.8434 27.9899 30.4667 27.3666L32.0667 25.7666L36.9 30.6L30.6 36.9ZM56.8667 63.2L43.1 49.4333L49.4333 43.1L54.2667 47.9333L52.6667 49.5333C52.3581 49.8419 52.1133 50.2083 51.9462 50.6115C51.7792 51.0147 51.6933 51.4469 51.6933 51.8833C51.6933 52.3197 51.7792 52.7519 51.9462 53.1551C52.1133 53.5583 52.3581 53.9247 52.6667 54.2333C52.9753 54.5419 53.3416 54.7867 53.7449 54.9537C54.1481 55.1207 54.5802 55.2067 55.0167 55.2067C55.4531 55.2067 55.8853 55.1207 56.2885 54.9537C56.6917 54.7867 57.0581 54.5419 57.3667 54.2333L58.9667 52.6333L63.2 56.8666L56.8667 63.2ZM69.0333 23.4666C69.3423 23.1583 69.5875 22.792 69.7548 22.3887C69.922 21.9855 70.0081 21.5532 70.0081 21.1166C70.0081 20.6801 69.922 20.2478 69.7548 19.8446C69.5875 19.4413 69.3423 19.075 69.0333 18.7666L61.2333 10.9666C59.6667 9.39997 57.5 9.99997 56.5333 10.9666L50.4333 17.0666L62.9333 29.5666L69.0333 23.4666Z" fill="white"/>
</svg>
