<svg fill="none" height="80" viewBox="0 0 80 80" width="80" xmlns="http://www.w3.org/2000/svg"><path d="m25.6178 32.3054-9.4337 7.6949 9.4337 7.6949c.3128.251.5719.5602.7621.9096.1902.3495.3078.7324.3462 1.1266.0383.3942-.0035.7919-.123 1.1702s-.3142.7297-.5731 1.034c-.2589.3042-.5768.5553-.9353.7387s-.7505.2955-1.1535.3299c-.403.0343-.8089-.0097-1.1944-.1297s-.7429-.3135-1.0516-.5693l-12.25814-9.9999c-.34524-.2815-.62301-.634-.81364-1.0323-.19062-.3983-.28944-.8328-.28944-1.2727s.09882-.8743.28944-1.2727c.19063-.3983.4684-.7507.81364-1.0322l12.25814-9.9999c.6253-.5017 1.4279-.7411 2.2328-.6662.8048.075 1.5468.4583 2.0643 1.0665.5175.6081.7685 1.3918.6983 2.1803-.0701.7885-.4557 1.5179-1.0728 2.0293zm44.9464 5.39-12.2581-9.9999c-.3087-.2559-.6661-.4494-1.0516-.5693-.3855-.12-.7914-.1641-1.1944-.1297-.403.0343-.795.1464-1.1535.3298s-.6764.4345-.9353.7388c-.2589.3042-.4536.6556-.5731 1.034-.1195.3783-.1613.776-.123 1.1702.0384.3942.156.7771.3462 1.1265.1902.3495.4493.6586.7621.9096l9.4337 7.6949-9.4337 7.6949c-.3128.251-.5719.5602-.7621.9096-.1902.3495-.3078.7324-.3462 1.1266-.0383.3942.0035.7919.123 1.1702s.3142.7297.5731 1.034c.2589.3042.5768.5553.9353.7387s.7505.2955 1.1535.3299c.403.0343.8089-.0097 1.1944-.1297s.7429-.3135 1.0516-.5693l12.2581-9.9999c.3453-.2815.6231-.634.8137-1.0323s.2894-.8328.2894-1.2727-.0988-.8743-.2894-1.2727c-.1906-.3983-.4684-.7507-.8137-1.0322zm-21.3444-22.5148c-.3783-.1346-.78-.195-1.1821-.1777-.4022.0173-.7969.112-1.1616.2787-.3648.1667-.6924.4021-.9642.6928-.2718.2906-.4824.6309-.6198 1.0012l-16.3442 43.9994c-.277.7476-.2395 1.5723.1043 2.2928s.9658 1.2779 1.7293 1.5497c.3352.1212.6898.183 1.0471.1825.6292.0001 1.2431-.1894 1.7585-.5427s.9072-.8534 1.1221-1.4323l16.3442-43.9994c.1376-.3703.1993-.7635.1816-1.1572s-.1145-.7801-.2848-1.1371c-.1702-.3571-.4107-.6778-.7076-.9439-.2969-.266-.6445-.4722-1.0228-.6068z" fill="#fff"/></svg>