<svg width="80" height="80" viewBox="0 0 80 80" fill="none" xmlns="http://www.w3.org/2000/svg">
<path d="M65 12.5H15C13.0109 12.5 11.1032 13.2902 9.6967 14.6967C8.29018 16.1032 7.5 18.0109 7.5 20V55C7.5 56.9891 8.29018 58.8968 9.6967 60.3033C11.1032 61.7098 13.0109 62.5 15 62.5H37.5V67.5H30C29.337 67.5 28.7011 67.7634 28.2322 68.2322C27.7634 68.7011 27.5 69.337 27.5 70C27.5 70.663 27.7634 71.2989 28.2322 71.7678C28.7011 72.2366 29.337 72.5 30 72.5H50C50.663 72.5 51.2989 72.2366 51.7678 71.7678C52.2366 71.2989 52.5 70.663 52.5 70C52.5 69.337 52.2366 68.7011 51.7678 68.2322C51.2989 67.7634 50.663 67.5 50 67.5H42.5V62.5H65C66.9891 62.5 68.8968 61.7098 70.3033 60.3033C71.7098 58.8968 72.5 56.9891 72.5 55V20C72.5 18.0109 71.7098 16.1032 70.3033 14.6967C68.8968 13.2902 66.9891 12.5 65 12.5ZM15 17.5H65C65.663 17.5 66.2989 17.7634 66.7678 18.2322C67.2366 18.7011 67.5 19.337 67.5 20V45H12.5V20C12.5 19.337 12.7634 18.7011 13.2322 18.2322C13.7011 17.7634 14.337 17.5 15 17.5ZM65 57.5H15C14.337 57.5 13.7011 57.2366 13.2322 56.7678C12.7634 56.2989 12.5 55.663 12.5 55V50H67.5V55C67.5 55.663 67.2366 56.2989 66.7678 56.7678C66.2989 57.2366 65.663 57.5 65 57.5Z" fill="white"/>
</svg>
