<svg width="80" height="80" viewBox="0 0 80 80" fill="none" xmlns="http://www.w3.org/2000/svg">
<path fill-rule="evenodd" clip-rule="evenodd" d="M42.2185 23.3013L56.4435 37.5296L50.2739 56.0415L17.3716 65.8237L33.9674 49.228C34.9437 48.2516 34.9437 46.6687 33.9674 45.6924C32.9911 44.7161 31.4081 44.7161 30.4318 45.6924L14.3491 61.7751L24.7826 30.4803L42.2185 23.3013ZM24.855 30.2629C24.8549 30.2634 24.8548 30.2638 24.8546 30.2642L24.855 30.2629ZM7.47136 66.5959L20.1108 28.6841C20.111 28.6837 20.1111 28.6833 20.1113 28.6828C20.3151 28.0708 20.6482 27.5098 21.0879 27.0378C21.5279 26.5655 22.0643 26.1933 22.6608 25.9466L40.6186 18.5528C40.6183 18.5529 40.6189 18.5527 40.6186 18.5528C41.4398 18.2139 42.3437 18.1252 43.215 18.2987C44.0866 18.4722 44.8873 18.8999 45.5161 19.5278L60.1972 34.2123C60.1971 34.2121 60.1973 34.2124 60.1972 34.2123C60.788 34.8031 61.203 35.5471 61.3951 36.3603C61.5872 37.1736 61.5489 38.0244 61.2847 38.8173L54.9347 57.8706L54.9342 57.8722C54.7051 58.5579 54.3143 59.1783 53.7947 59.6809C53.2751 60.1835 52.6421 60.5536 51.9492 60.7597L13.0221 72.3332C12.233 72.5675 11.3941 72.5812 10.5979 72.3722C9.8017 72.1633 9.07809 71.7399 8.50581 71.1483C7.93352 70.5567 7.53446 69.8194 7.35206 69.0167C7.16969 68.2142 7.21101 67.3767 7.47136 66.5959ZM56.6616 37.7478C56.6614 37.7475 56.6611 37.7472 56.6608 37.7469L56.6616 37.7478Z" fill="white"/>
<path d="M61.3421 10.6068L69.2221 18.4868C69.8143 19.0533 70.2873 19.7324 70.6134 20.4843C70.9395 21.2361 71.1122 22.0455 71.1213 22.865C71.1303 23.6844 70.9756 24.4975 70.6662 25.2563C70.3567 26.0152 69.8989 26.7046 69.3194 27.2841C68.7399 27.8635 68.0505 28.3214 67.2916 28.6309C66.5328 28.9403 65.7197 29.095 64.9003 29.086C64.0808 29.0769 63.2714 28.9042 62.5196 28.5781C61.7677 28.252 61.0886 27.7789 60.5221 27.1868L52.6388 19.3068C51.5269 18.1446 50.9142 16.5933 50.932 14.985C50.9498 13.3767 51.5966 11.8392 52.7339 10.7019C53.8712 9.56462 55.4086 8.91782 57.0169 8.90003C58.6252 8.88225 60.1799 9.4949 61.3421 10.6068Z" fill="white" stroke="white" stroke-width="1.5" stroke-linecap="round" stroke-linejoin="round"/>
<path fill-rule="evenodd" clip-rule="evenodd" d="M34.6892 35.7149C35.5495 35.3629 36.4712 35.1858 37.4007 35.1939C38.3301 35.2019 39.2487 35.3951 40.1027 35.7619C40.9567 36.1288 41.7291 36.6621 42.3749 37.3306C43.65 38.6508 44.3555 40.4191 44.3396 42.2544C44.3236 44.0898 43.5874 45.8455 42.2896 47.1434C40.9917 48.4412 39.236 49.1774 37.4007 49.1933C35.5653 49.2093 33.7971 48.5037 32.4769 47.2286C31.8083 46.5829 31.275 45.8105 30.9082 44.9565C30.5413 44.1024 30.3482 43.1839 30.3401 42.2544C30.332 41.325 30.5091 40.4032 30.8611 39.5429C31.2131 38.6827 31.7328 37.9011 32.3901 37.2439C33.0473 36.5866 33.8289 36.0668 34.6892 35.7149ZM37.3659 39.1937C36.9676 39.1903 36.5725 39.2662 36.2038 39.417C35.8352 39.5678 35.5002 39.7906 35.2185 40.0723C34.9368 40.354 34.7141 40.6889 34.5632 41.0576C34.4124 41.4263 34.3365 41.8213 34.34 42.2197C34.3434 42.618 34.4262 43.0117 34.5834 43.3777C34.7406 43.7437 34.9692 44.0747 35.2557 44.3515C35.8215 44.8979 36.5793 45.2003 37.3659 45.1935C38.1525 45.1867 38.9049 44.8712 39.4612 44.3149C40.0174 43.7587 40.3329 43.0063 40.3397 42.2197C40.3466 41.4331 40.0442 40.6753 39.4977 40.1095C39.221 39.8229 38.8899 39.5944 38.5239 39.4372C38.1579 39.2799 37.7642 39.1972 37.3659 39.1937Z" fill="white"/>
</svg>
