<svg width="56" height="56" viewBox="0 0 56 56" fill="none" xmlns="http://www.w3.org/2000/svg">
<path fill-rule="evenodd" clip-rule="evenodd" d="M45.1906 13.9252C47.0837 14.4345 48.5744 15.9353 49.0804 17.8403C50 21.2943 50 28.4998 50 28.4998C50 28.4998 50 35.7057 49.0804 39.1593C48.5744 41.0644 47.0837 42.5655 45.1906 43.0744C41.7592 44 27.9998 44 27.9998 44C27.9998 44 14.2408 44 10.8095 43.0744C8.91631 42.5655 7.42556 41.0644 6.91959 39.1593C6 35.7057 6 28.4998 6 28.4998C6 28.4998 6 21.2943 6.91959 17.8403C7.42556 15.9353 8.91631 14.4345 10.8095 13.9252C14.2408 13 27.9998 13 27.9998 13C27.9998 13 41.7592 13 45.1906 13.9252ZM35.0309 28.5002L23.6 35.1428V21.8568L35.0309 28.5002Z" fill="#5B5B5B"/>
</svg>
