<svg width="96" height="84" viewBox="0 0 96 84" fill="none" xmlns="http://www.w3.org/2000/svg">
<path d="M74.1289 8.19861C86.2078 8.19861 95.9999 17.9986 96 30.0873V54.3353L95.998 54.6371C95.9179 60.552 93.491 65.9027 89.6133 69.7933V82.0004H87.0967C86.119 82.0003 85.0865 81.719 84.167 81.3842C83.2024 81.0328 82.1563 80.5446 81.0918 79.975C79.2139 78.97 77.1625 77.6477 75.2236 76.1957C74.9491 76.2094 74.673 76.2187 74.3955 76.222L74.1289 76.224H60C54.8961 76.2239 50.2015 74.4723 46.4805 71.5394C47.9663 70.5009 49.2118 69.2986 50.2256 68.057C52.9816 70.0269 56.3552 71.1868 60 71.1869H74.1289L74.334 71.1859C74.8114 71.1801 75.2852 71.1546 75.7539 71.1097L76.75 71.014L77.5391 71.6293C79.5009 73.1587 81.6153 74.5443 83.4639 75.5336C83.8555 75.7432 84.2296 75.9309 84.5811 76.097V67.5961L85.4102 66.8461C86.805 65.5853 87.9865 64.0951 88.8975 62.4359H66V57.2054H90.7246C90.8718 56.3467 90.9547 55.4658 90.9668 54.5677L90.9678 54.3353V50.4261H71.8066V45.1967H90.9678V38.4164H77.0332V33.1869H90.9678V30.0873C90.9677 20.7801 83.4286 13.2347 74.1289 13.2347H60C59.8871 13.2347 59.7745 13.2364 59.6621 13.2386C59.1363 11.5113 58.4152 9.86934 57.5244 8.33826C58.337 8.24662 59.163 8.19862 60 8.19861H74.1289Z" fill="#141A1F"/>
<path d="M36.5801 2C46.2723 2 54.3644 8.85589 56.2793 17.9863C59.0886 27.4206 62.3061 44.2399 62.3223 44.3242H52.4512V49.5547H43.1611C43.1612 52.7508 46.3763 57.1387 50.6143 57.1387C50.6143 60.6253 45.7158 69.6024 35.0322 69.6025H20.1289C9.01212 69.6025 0.000168115 60.5838 0 49.458V22.1455C0 11.0196 9.01202 2 20.1289 2H36.5801ZM42.9668 24.4697C40.8291 24.4699 39.0967 26.2043 39.0967 28.3438C39.0967 30.4832 40.8291 32.2176 42.9668 32.2178C45.1047 32.2178 46.8379 30.4834 46.8379 28.3438C46.8378 26.2042 45.1046 24.4697 42.9668 24.4697Z" fill="#4A69E8"/>
</svg>
