<svg width="40" height="36" viewBox="0 0 40 36" fill="none" xmlns="http://www.w3.org/2000/svg">
<path d="M30.8877 2.60303C35.9206 2.60303 40.0009 6.71915 40.001 11.7964V21.981L40 22.1069C39.9667 24.5913 38.9556 26.839 37.3398 28.4731V33.6001H36.291C35.8837 33.6 35.4534 33.482 35.0703 33.3413C34.6684 33.1937 34.2326 32.9888 33.7891 32.7495C33.0066 32.3274 32.1516 31.7724 31.3438 31.1626C31.2295 31.1683 31.1145 31.1719 30.999 31.1733H25.001C22.8735 31.1733 20.9179 30.4362 19.3672 29.2036C19.986 28.7674 20.5056 28.2641 20.9277 27.7427C22.0762 28.5704 23.4819 29.0581 25.001 29.0581H30.9736C31.1723 29.0557 31.3694 29.0447 31.5645 29.0259L31.9795 28.9858L32.3086 29.2446C33.126 29.8869 34.0071 30.4688 34.7773 30.8843C34.9405 30.9723 35.0967 31.0508 35.2432 31.1206V27.5503L35.5889 27.2349C36.1697 26.7056 36.6607 26.0797 37.04 25.3833H27.501V23.187H37.8018C37.8632 22.8258 37.8983 22.4553 37.9033 22.0776L37.9043 21.981V20.3384H29.9199V18.1421H37.9043V15.2954H32.0967V13.0991H37.9043V11.7964C37.9042 7.88738 34.7626 4.71826 30.8877 4.71826H25.001C24.9537 4.71826 24.9064 4.72025 24.8594 4.72119C24.6403 3.99556 24.338 3.30677 23.9668 2.66357C24.3063 2.62489 24.6513 2.60303 25.001 2.60303H30.8877Z" fill="#FCFCFD"/>
<path d="M15.2422 0C19.2806 0.000117114 22.6524 2.88007 23.4502 6.71484C24.6213 10.6795 25.9625 17.7485 25.9678 17.7764H21.8545V19.9727H17.9844C17.9844 21.315 19.324 23.1582 21.0898 23.1582C21.0898 24.6226 19.0483 28.3936 14.5967 28.3936H8.38672C3.75485 28.3934 0.00013738 24.6053 0 19.9326V8.46094C7.60327e-05 3.78818 3.75481 0.000176942 8.38672 0H15.2422ZM17.9033 9.43652C17.0127 9.43652 16.2903 10.165 16.29 11.0635C16.29 11.9621 17.0125 12.6914 17.9033 12.6914C18.7941 12.6913 19.5166 11.9621 19.5166 11.0635C19.5164 10.1651 18.7939 9.43658 17.9033 9.43652Z" fill="#FCFCFD"/>
</svg>
