<svg width="56" height="56" viewBox="0 0 56 56" fill="none" xmlns="http://www.w3.org/2000/svg">
<path d="M23.0828 34.667C23.5099 35.0957 24.6239 36.3132 25.0795 36.515C25.2233 36.5787 25.3929 36.5817 25.548 36.5812C25.7057 36.5808 25.8821 36.5739 26.0231 36.4972C26.5079 36.2339 27.2927 35.3551 27.7041 34.9431L29.8762 32.7724C29.9309 32.718 30.114 32.5125 30.1924 32.5407L36.5496 43.2061L38.1465 45.8754C38.4104 46.3156 38.7322 46.7656 38.9315 47.2369C39.0442 47.5035 39.0543 47.8853 38.9843 48.1636C38.9154 48.4373 38.7651 48.6433 38.5203 48.7873C38.3832 48.868 38.2241 48.9158 38.092 48.9997H7.96208C7.8879 48.9485 7.79288 48.9177 7.71244 48.8754C7.3795 48.7 7.18895 48.4849 7.05469 48.1358C7.06615 48.1139 7.07906 48.0915 7.08109 48.0661C7.08755 47.9853 7.06678 47.883 7.06767 47.7982C7.06932 47.6407 7.09435 47.4885 7.08475 47.3312C7.26236 46.8233 7.72122 46.1874 8.01324 45.7167C8.3868 45.1146 8.74484 44.5015 9.10943 43.8939L13.7705 36.154L15.2919 33.6163C15.5016 33.2625 15.7312 32.9217 15.9222 32.5575C15.935 32.5332 15.9314 32.541 15.9561 32.5183C16.1439 32.5841 16.4789 32.9838 16.6356 33.141L18.6837 35.1932C19.0346 35.5444 19.3768 35.9288 19.7546 36.2496C19.887 36.362 20.0436 36.4705 20.2036 36.5393C20.4074 36.627 20.8842 36.5962 21.0825 36.5022C21.7024 36.2081 22.4906 35.1326 23.0828 34.667Z" fill="#667F99"/>
<path d="M22.7992 7H35.631C35.7467 7.04657 35.8651 7.09955 35.9745 7.15933C36.2234 7.2954 36.4408 7.51631 36.517 7.7956C36.5867 8.0505 36.5896 8.41929 36.5158 8.67401C36.4409 8.93272 36.2988 9.17773 36.1777 9.41723L35.7005 10.3661L34.8284 12.1121C34.6554 12.4571 34.4904 12.8103 34.2957 13.1437C34.4454 13.5158 34.6584 13.8823 34.8379 14.2418L35.9516 16.4658C36.1251 16.812 36.3295 17.1657 36.465 17.5277C36.5186 17.671 36.5594 17.8241 36.5636 17.9775C36.5739 18.3523 36.5339 18.6583 36.2597 18.9386C36.1235 19.0779 35.9399 19.2053 35.7464 19.2382C35.3046 19.3134 34.8244 19.2798 34.3765 19.28L32.2754 19.2803L24.2907 19.2841C24.2452 19.9797 24.2721 20.6886 24.2704 21.3858C24.2695 21.7633 24.2303 22.1692 24.2604 22.543C24.2642 22.5894 24.2756 22.6298 24.2946 22.6722C24.2995 22.6834 24.305 22.6942 24.3101 22.7052C24.4348 22.9739 24.6044 23.2264 24.7568 23.4803L25.5107 24.7376L27.9628 28.8246C28.1302 29.1028 28.7748 30.0796 28.8176 30.33C28.6899 30.5405 28.458 30.7287 28.2834 30.9037L27.4068 31.7813L26.2363 32.9516C26.0129 33.1747 25.7942 33.4145 25.5534 33.6185C25.397 33.5196 25.2656 33.3672 25.1354 33.2365L24.4959 32.5941C24.1713 32.2675 23.7756 31.7837 23.286 31.7347C23.108 31.717 22.8624 31.7109 22.6931 31.7688C22.1001 31.9717 21.1958 33.1418 20.6525 33.6004L20.6312 33.6182C20.3624 33.4486 19.9229 32.944 19.6799 32.7004C18.8927 31.9112 18.1192 31.0889 17.2988 30.3346C17.2933 30.221 20.4845 24.9639 20.8116 24.4195C21.0226 24.0683 21.8348 22.8298 21.8715 22.5278C21.9037 22.2641 21.8725 21.9687 21.8704 21.7012L21.8705 20.1174L21.8708 12.1366L21.8704 9.53012C21.8704 9.0419 21.8549 8.5471 21.8801 8.05958C21.8875 7.91757 21.9038 7.77589 21.9703 7.64783C22.137 7.3263 22.4625 7.10865 22.7992 7Z" fill="#36C99F"/>
<path d="M41.3135 48.9999C41.3375 48.751 41.4087 48.5141 41.4543 48.2691C41.5275 47.8762 41.5315 47.3683 41.4358 46.9809C41.2257 46.1313 40.6659 45.306 40.2185 44.5563L39.0562 42.618L35.7268 37.0196L34.7408 35.3698C34.5532 35.059 34.3519 34.7513 34.1777 34.433C34.1428 34.3694 34.103 34.2971 34.1035 34.2223C34.1041 34.1339 34.1494 34.0432 34.1908 33.9676C34.2772 33.8098 34.3909 33.6666 34.4809 33.5111C34.8532 32.8686 35.2372 32.2331 35.6193 31.5961L36.394 30.3042C36.5508 30.043 36.7168 29.6853 36.9335 29.474C37.148 29.2649 37.5463 29.1309 37.8425 29.1321C38.1286 29.1332 38.4793 29.2414 38.686 29.4434C38.6819 29.4881 38.6748 29.4861 38.7008 29.5259C38.7881 29.6597 38.8543 29.8124 38.9321 29.9522C39.1456 30.3354 39.3614 30.7211 39.5973 31.0906C39.6173 31.1218 39.6161 31.1501 39.6209 31.1858C39.6441 31.3562 39.8271 31.4427 39.8915 31.6381C39.9559 31.8335 40.0943 31.9797 40.1952 32.1558L40.8142 33.2487C40.8696 33.3478 40.9088 33.458 40.9652 33.5546C41.043 33.6879 41.1498 33.8045 41.2247 33.9401C41.2578 33.9999 41.2557 34.0678 41.2841 34.1272C41.3262 34.2153 41.4177 34.3076 41.4695 34.3974C41.5268 34.4966 41.5653 34.6044 41.622 34.703C41.6707 34.7874 41.7319 34.8646 41.7836 34.9472C41.9272 35.1764 42.0619 35.4276 42.1922 35.6656C42.2971 35.8571 42.3396 36.0314 42.4921 36.1955C42.5872 36.2978 42.593 36.4339 42.6628 36.5488C42.7349 36.6675 42.8207 36.7776 42.892 36.8969C42.9537 37.0003 42.9978 37.1136 43.0586 37.2178C43.4497 37.8879 43.8543 38.5604 44.2226 39.2432C44.2674 39.3262 44.3002 39.4155 44.3456 39.4979C44.4078 39.6107 44.5049 39.7023 44.5694 39.8139C44.6424 39.9402 44.6689 40.0923 44.7416 40.2192C44.8057 40.3311 44.8981 40.4261 44.9641 40.537C45.1191 40.798 45.2457 41.0836 45.3953 41.3475C45.4722 41.4831 45.5841 41.6015 45.6582 41.7396C45.6766 41.7738 45.6819 41.8108 45.6895 41.8483C45.7208 42.0049 45.9022 42.1578 45.9812 42.3021C46.0149 42.3639 46.0115 42.4349 46.0415 42.4959C46.0993 42.613 46.2062 42.7246 46.2729 42.8439L46.9191 43.9828C46.9712 44.0764 47.0069 44.1793 47.0611 44.2715C47.1262 44.3822 47.2221 44.4713 47.2837 44.5851C47.3527 44.7125 47.3818 44.8612 47.4557 44.9861C47.5195 45.0939 47.6079 45.1864 47.6708 45.2948C47.7168 45.3743 47.7484 45.4618 47.793 45.5424L48.4725 46.7463C48.5479 46.879 48.6735 47.0107 48.7327 47.1468C48.7877 47.2731 48.7591 47.4238 48.8098 47.5524L48.8765 47.5391C48.9226 47.5837 48.9258 47.6758 48.9266 47.737C48.9299 47.9819 48.761 48.2966 48.6199 48.4935C48.5465 48.5961 48.4536 48.6852 48.4204 48.8103C48.2949 48.8721 48.1413 48.9208 48.0278 48.9999H41.3135Z" fill="#667F99"/>
<path d="M38.6858 29.4438C38.7611 29.505 38.8261 29.5712 38.8776 29.6539C39.1986 30.1706 39.4841 30.7161 39.7824 31.2465L41.1255 33.6055L45.5087 41.3125L47.7814 45.3062L48.3327 46.2767C48.5764 46.6982 48.8355 47.116 48.9997 47.577V48.0114C48.8357 48.3345 48.7509 48.611 48.4202 48.8107C48.4533 48.6856 48.5463 48.5966 48.6197 48.494C48.7607 48.297 48.9297 47.9824 48.9263 47.7375C48.9255 47.6763 48.9223 47.5842 48.8763 47.5396L48.8095 47.5528C48.7589 47.4243 48.7874 47.2736 48.7325 47.1473C48.6732 47.0112 48.5477 46.8794 48.4723 46.7467L47.7927 45.5428C47.7481 45.4623 47.7165 45.3747 47.6705 45.2953C47.6077 45.1868 47.5192 45.0944 47.4554 44.9866C47.3815 44.8616 47.3525 44.713 47.2835 44.5855C47.2219 44.4717 47.126 44.3827 47.0608 44.2719C47.0066 44.1797 46.9709 44.0768 46.9188 43.9832L46.2727 42.8444C46.2059 42.7251 46.099 42.6134 46.0413 42.4963C46.0112 42.4354 46.0146 42.3644 45.9809 42.3026C45.9019 42.1582 45.7205 42.0053 45.6892 41.8488C45.6816 41.8112 45.6763 41.7742 45.6579 41.74C45.5839 41.602 45.4719 41.4836 45.395 41.3479C45.2455 41.0841 45.1188 40.7985 44.9638 40.5374C44.8978 40.4265 44.8054 40.3315 44.7413 40.2197C44.6686 40.0927 44.6421 39.9407 44.5691 39.8143C44.5047 39.7028 44.4075 39.6111 44.3454 39.4983C44.2999 39.4159 44.2671 39.3267 44.2223 39.2436C43.8541 38.5609 43.4494 37.8884 43.0584 37.2183C42.9975 37.114 42.9534 37.0007 42.8918 36.8974C42.8205 36.778 42.7347 36.6679 42.6626 36.5492C42.5928 36.4343 42.5869 36.2982 42.4919 36.1959C42.3394 36.0319 42.2968 35.8576 42.192 35.6661C42.0616 35.428 41.9269 35.1769 41.7834 34.9477C41.7316 34.8651 41.6704 34.7879 41.6218 34.7035C41.5651 34.6049 41.5265 34.4971 41.4693 34.3978C41.4174 34.3081 41.3259 34.2158 41.2839 34.1277C41.2554 34.0683 41.2575 34.0004 41.2245 33.9406C41.1495 33.805 41.0428 33.6884 40.9649 33.555C40.9086 33.4585 40.8694 33.3483 40.8139 33.2492L40.195 32.1563C40.0941 31.9802 39.9556 31.8339 39.8912 31.6385C39.8268 31.4432 39.6438 31.3567 39.6207 31.1863C39.6158 31.1506 39.617 31.1223 39.5971 31.091C39.3611 30.7216 39.1453 30.3359 38.9319 29.9527C38.854 29.8128 38.7878 29.6602 38.7005 29.5264C38.6745 29.4865 38.6816 29.4886 38.6858 29.4438Z" fill="#667F99"/>
<path d="M7 47.5122C7.03793 47.4568 7.06006 47.3936 7.08574 47.3318C7.09533 47.4891 7.0703 47.6413 7.06865 47.7988C7.06776 47.8836 7.08853 47.9859 7.08207 48.0667C7.08004 48.0921 7.06713 48.1144 7.05567 48.1363L7 48.0395V47.5122Z" fill="#667F99"/>
</svg>
