<svg width="56" height="56" viewBox="0 0 56 56" fill="none" xmlns="http://www.w3.org/2000/svg">
<path d="M27.9326 28.0917C30.4305 28.0589 32.4821 30.0572 32.515 32.5552C32.5479 35.0531 30.5496 37.1047 28.0517 37.1376C25.5537 37.1706 23.502 35.1722 23.4692 32.6743C23.4363 30.1762 25.4346 28.1246 27.9326 28.0917Z" fill="#667F99"/>
<path d="M14.4118 24.1534C16.9001 23.9321 19.0967 25.7701 19.3177 28.2585C19.5387 30.7468 17.7007 32.9432 15.2122 33.164C12.7242 33.3849 10.5281 31.547 10.3071 29.0589C10.0861 26.5708 11.9237 24.3747 14.4118 24.1534Z" fill="#667F99"/>
<path d="M40.8285 24.1531C43.3208 23.9646 45.4937 25.8333 45.6802 28.3257C45.8667 30.8182 43.9962 32.9895 41.5036 33.174C39.0138 33.3583 36.8456 31.4904 36.6593 29.0008C36.473 26.5112 38.3391 24.3415 40.8285 24.1531Z" fill="#667F99"/>
<path d="M12.0449 16.2348C12.3013 16.208 12.5598 16.2615 12.7845 16.388C13.0676 16.5443 13.2765 16.8075 13.3644 17.1187C13.4544 17.4455 13.4079 17.7948 13.2357 18.0867C13.1453 18.2372 13.0235 18.3624 12.8799 18.4626C12.5171 18.7157 12.0631 18.8929 11.667 19.0911C11.1267 19.3617 10.2691 19.8606 9.70692 20.006C9.41161 20.0218 9.13617 19.9715 8.88651 19.8071C8.60922 19.6245 8.40519 19.3508 8.34272 19.0208C8.27882 18.6862 8.35292 18.3401 8.54817 18.061C8.64281 17.9228 8.76128 17.8201 8.90099 17.7292C9.24873 17.5029 9.66652 17.3315 10.0381 17.1456C10.5336 16.8978 11.5327 16.3281 12.0449 16.2348Z" fill="#667F99"/>
<path d="M43.6765 16.2341C43.8573 16.2211 44.0266 16.239 44.199 16.2952C44.6045 16.4274 45.0077 16.6755 45.3908 16.8668C45.9145 17.1282 46.4586 17.3727 46.9678 17.6601C47.3007 17.848 47.531 18.0769 47.6333 18.4533C47.7183 18.7664 47.6705 19.1311 47.5029 19.4085C47.3 19.7445 46.9838 19.9079 46.6154 20.0032C46.425 20.0186 46.2488 20.0003 46.0672 19.9403C45.6762 19.811 45.1542 19.5046 44.7717 19.3137C44.2631 19.06 43.6506 18.7976 43.174 18.5012C42.8897 18.3242 42.6902 18.0697 42.6197 17.7375C42.5514 17.4161 42.6087 17.0479 42.7896 16.7718C43.0009 16.4492 43.309 16.3054 43.6765 16.2341Z" fill="#667F99"/>
<path d="M21.5491 7H22.7371C22.7427 7.00207 22.7483 7.00423 22.7539 7.00622C22.9498 7.07529 23.1722 7.09661 23.3757 7.14001C23.6524 7.19901 23.9404 7.29081 24.2009 7.4009C25.4884 7.94504 26.3004 8.91975 27.2623 9.88287C27.4954 10.1163 27.7369 10.403 28.0015 10.5985C29.2279 9.4767 30.1705 8.10859 31.734 7.42151C32.0278 7.29239 32.3417 7.1993 32.6552 7.13179C32.8392 7.09218 33.066 7.07446 33.2373 7H34.4137C34.6061 7.06837 34.8205 7.08212 35.0199 7.12608C35.3519 7.19923 35.6845 7.31361 35.9957 7.44975C37.3036 8.02432 38.3281 9.09708 38.8421 10.43C39.3522 11.7631 39.3125 13.2441 38.7316 14.5479C38.5112 15.039 38.2186 15.4943 37.8634 15.8988C37.3944 16.4334 36.8558 16.9267 36.3519 17.43L33.6572 20.1241L30.5391 23.2432C29.9923 23.791 29.4596 24.3689 28.8873 24.8888C28.734 25.0281 28.5754 25.1439 28.3786 25.2139C28.0868 25.3177 27.7674 25.2932 27.4893 25.1613C27.3443 25.0925 27.2155 24.9922 27.098 24.884C26.4839 24.3183 25.9062 23.6952 25.3156 23.1036L21.8725 19.66L19.4331 17.2222C18.971 16.7605 18.4725 16.3094 18.0534 15.8093C17.6321 15.3141 17.3061 14.7454 17.0916 14.1317C16.6194 12.7728 16.71 11.2815 17.3433 9.98985C17.9714 8.70887 19.0852 7.73189 20.4371 7.27615C20.6653 7.19886 20.8934 7.14772 21.1291 7.09945C21.2536 7.07394 21.3916 7.05744 21.5111 7.01423C21.5238 7.00963 21.5364 7.00474 21.5491 7Z" fill="#36C99F"/>
<path d="M45.8814 33.832C46.2537 33.9627 46.6369 34.1138 46.9839 34.3017C47.8392 34.7621 48.4874 35.5305 48.7971 36.4511C48.8833 36.7145 48.921 36.9913 48.9995 37.257V47.9941C48.7853 48.5066 48.6678 48.723 48.1229 48.9486C48.1017 48.9575 48.0802 48.9658 48.0589 48.9744C48.0277 48.987 48.0401 48.9809 48.0109 49H38.0715C38.168 48.6934 38.2371 48.3815 38.2621 48.0608C38.2962 47.6223 38.2802 47.1758 38.2798 46.7359L38.2797 44.6124L38.2802 42.534C38.2802 42.0257 38.2933 41.5131 38.2429 41.0067C38.1862 40.4348 38.052 39.8734 37.844 39.3377C37.1718 37.6093 35.9456 36.498 34.2712 35.7594C34.26 35.7182 34.267 35.7001 34.2804 35.6604C34.3186 35.5472 34.3847 35.442 34.431 35.3317C34.4897 35.1917 34.5272 35.0344 34.5993 34.9015C34.8577 34.4257 35.9671 34.0019 36.4845 33.8398C36.7417 34.0338 36.9827 34.2446 37.2485 34.4277C38.1343 35.0367 39.1507 35.4295 40.2159 35.5744C41.8234 35.8004 43.4593 35.4548 44.8381 34.598C45.2066 34.3686 45.5371 34.0948 45.8814 33.832Z" fill="#667F99"/>
<path d="M19.5114 33.8366C20.0295 33.9855 21.1392 34.4424 21.3979 34.9107C21.5288 35.1477 21.6526 35.4858 21.7437 35.7443C21.3903 35.9171 21.0346 36.0708 20.6982 36.2773C19.4676 37.0372 18.5383 38.1999 18.068 39.5676C17.9061 40.0386 17.8011 40.5274 17.7552 41.0232C17.7062 41.5566 17.718 42.0925 17.718 42.6275L17.7185 44.7439L17.7179 46.7905C17.7177 47.2102 17.7024 47.637 17.7353 48.0555C17.7609 48.3784 17.8314 48.6908 17.9262 49.0001H7.98569C7.56715 48.8137 7.33824 48.714 7.11764 48.2854C7.08045 48.2132 7.05686 48.1353 7.01845 48.0636L7 48.0297V37.17C7.00544 37.1596 7.01109 37.1493 7.01631 37.1387C7.1254 36.9189 7.15981 36.5264 7.266 36.2639C7.77218 35.0123 8.64196 34.3794 9.86767 33.9255C9.95195 33.8943 10.0356 33.8657 10.1227 33.8434C10.4622 34.1077 10.7911 34.3771 11.1573 34.6047C12.5197 35.4456 14.1304 35.7909 15.7177 35.5822C16.796 35.4446 17.826 35.0523 18.7224 34.4374C18.994 34.2501 19.2374 34.0154 19.5114 33.8366Z" fill="#667F99"/>
<path d="M32.7065 37.7839C33.0459 37.9167 33.3918 38.0433 33.7169 38.2092C34.5031 38.6062 35.1283 39.2622 35.4869 40.0667C35.6448 40.4236 35.7581 40.8243 35.7942 41.2135C35.8296 41.5933 35.8166 41.9816 35.8167 42.3628L35.8173 44.1243V46.4875C35.8172 46.9071 35.8321 47.3326 35.8124 47.7516C35.8056 47.8974 35.7934 48.0683 35.7389 48.2043C35.598 48.5561 35.3317 48.7873 34.9871 48.9311C34.9345 48.953 34.88 48.9708 34.831 49.0001H21.1574C20.7703 48.7961 20.3798 48.6348 20.238 48.1689C20.1897 48.01 20.1862 47.8005 20.1802 47.6345C20.1639 47.1811 20.1765 46.7229 20.1768 46.2692V43.8335L20.177 42.3082C20.1774 41.8943 20.1659 41.4698 20.2262 41.0593C20.3006 40.5559 20.4748 40.0724 20.7386 39.6372C21.3651 38.5862 22.1928 38.2047 23.2838 37.7896L23.3055 37.8036C23.4716 37.9132 23.6207 38.0474 23.7775 38.1696C23.9821 38.3272 24.1954 38.4731 24.4164 38.6067C25.9052 39.4969 27.6721 39.801 29.3728 39.4597C30.3062 39.2727 31.1905 38.8939 31.9697 38.3473C32.2218 38.1702 32.45 37.9505 32.7065 37.7839Z" fill="#667F99"/>
<path d="M46.1849 7H46.6983C46.7722 7.04396 46.8599 7.07015 46.9382 7.10698C47.1835 7.22244 47.409 7.40966 47.5402 7.64902C47.6929 7.92738 47.7128 8.30557 47.6173 8.60706C47.4923 9.00182 47.2027 9.22735 46.8498 9.41208C46.3958 9.64975 45.9295 9.86584 45.4718 10.0968C45.0981 10.2854 44.4878 10.6517 44.1078 10.7417C43.8874 10.7945 43.6569 10.7864 43.4408 10.7181C43.1312 10.6197 42.8539 10.3856 42.7097 10.094C42.5685 9.80842 42.5573 9.44617 42.6591 9.14535C42.7341 8.92161 42.8729 8.7247 43.0584 8.57885C43.3301 8.36181 43.6928 8.22934 44.0027 8.07401L46.1849 7Z" fill="#667F99"/>
<path d="M9.28123 7H9.80247C9.94142 7.09182 10.1405 7.15278 10.2944 7.22788L11.915 8.03483C12.219 8.18671 12.559 8.32644 12.8398 8.51667C12.9905 8.61877 13.1225 8.73553 13.2207 8.89102C13.3972 9.1707 13.4526 9.53291 13.3737 9.85354C13.2955 10.171 13.0639 10.4563 12.7836 10.6198C12.5027 10.7836 12.1732 10.8128 11.8621 10.7304C11.4481 10.6206 10.6726 10.1692 10.2418 9.95468C9.80788 9.73854 9.24022 9.50962 8.8547 9.2442C8.69266 9.13442 8.5588 8.98797 8.46398 8.81674C8.30197 8.52082 8.28371 8.14827 8.38451 7.82827C8.53218 7.35943 8.87938 7.20479 9.28123 7Z" fill="#667F99"/>
</svg>
