<svg width="400" height="400" viewBox="0 0 400 400" fill="none" xmlns="http://www.w3.org/2000/svg">
<path d="M136.397 267.697C135.035 279.365 137.892 291.232 145.26 300.501C149.111 305.345 153.496 308.276 158.76 311.128L159.825 311.698C159.06 314.742 157.592 317.56 156.703 320.555L157.113 320.613C163.351 321.546 169.428 324.358 175.536 325.985C195.268 331.243 215.017 334.885 235.526 332.772C238.94 332.42 242.724 332.156 246.011 331.173C246.265 319.57 246.032 307.906 246.036 296.297L246.037 296.298C246.032 307.907 246.266 319.571 246.012 331.175C242.725 332.158 238.94 332.421 235.526 332.773C215.017 334.887 195.269 331.245 175.536 325.987C169.428 324.359 163.352 321.547 157.114 320.614L156.704 320.557C154.622 320.897 141.578 318.324 138.502 317.849C138.083 317.584 137.719 317.389 137.232 317.27C132.657 316.144 127.574 315.803 122.887 315.128C117.744 314.388 112.115 313.094 106.944 313.014C103.48 312.969 99.0037 312.174 95.6528 311.252C98.4364 303.315 101.671 295.472 104.678 287.614L104.679 287.614C107.048 281.224 109.665 274.925 112.044 268.537C112.986 268.751 114.03 268.921 115.146 269.048C115.15 269.049 115.154 269.05 115.158 269.051C115.158 269.05 115.157 269.049 115.156 269.049C121.923 269.817 131.318 269.061 136.397 267.697ZM365.171 38.8939C365.596 38.7477 365.929 38.7249 366.372 38.746C367.589 40.1211 378.449 76.0067 379.909 81.2153L379.921 81.2581C380.388 82.9244 380.815 84.4483 379.848 86.0292C378.932 87.5246 377.25 87.9739 375.666 88.397L375.603 88.4136C374.876 88.1884 374.161 87.9514 373.485 87.598C372.661 87.1678 372.058 86.6509 371.594 85.8375C370.095 83.2096 369.413 79.6774 368.551 76.7641C366.719 70.575 365.032 64.3141 362.993 58.1905C361.024 61.7603 359.381 65.5656 357.642 69.2523L348.661 88.3773L319.605 150.761C316.082 158.223 312.658 165.769 308.89 173.11C307.661 175.504 306.5 178.038 305.107 180.332C304.586 181.187 303.865 181.957 302.996 182.466C301.866 183.128 300.016 183.488 298.767 182.95C297.638 182.465 296.293 180.472 295.63 179.414C291.015 172.039 286.72 162.743 282.708 154.905C276.674 143.115 270.456 131.387 264.583 119.52L255.727 136.153C253.769 139.8 251.641 143.445 249.963 147.226C248.612 149.828 242.945 161.162 242.687 161.677C244.622 163.897 246.699 165.756 248.493 167.758C256.573 176.776 257.839 184.438 256.993 196.164C256.41 204.235 255.035 212.386 253.664 220.355C253.206 223.017 252.969 225.727 252.375 228.366L252.077 228.517L251.968 228.455C247.029 227.413 241.76 229.304 237.638 231.972C227.601 238.47 221.452 249.449 216.328 259.91C209.922 259.69 203.325 260.338 196.965 259.636C196.966 260.03 196.944 260.259 196.983 260.463C196.944 260.258 196.966 260.03 196.965 259.635C203.325 260.337 209.921 259.689 216.327 259.909C221.451 249.447 227.601 238.468 237.638 231.97C241.759 229.302 247.029 227.411 251.968 228.453L252.077 228.515L252.375 228.364C252.969 225.725 253.205 223.015 253.664 220.353C255.035 212.384 256.41 204.235 256.993 196.164C241.676 196.761 222.926 216.012 211.277 225.593C207.927 228.348 204.41 230.67 200.771 233.012C202.021 226.915 203.932 209.837 207.809 205.571L207.967 205.016C204.599 202.88 199.662 202.452 195.81 201.757C194.616 203.196 193.402 204.623 192.282 206.12C191.333 209.498 190.667 212.953 189.835 216.361C188.591 221.349 187.271 226.319 185.875 231.267C178.37 257.781 169.916 284.017 160.531 309.925L160.53 309.926C155.541 307.73 151.33 304.792 147.748 300.664C139.286 290.909 137.331 279.605 138.179 267.108C141.492 265.861 144.757 264.483 147.843 262.738C154.92 258.736 162.702 251.939 164.913 243.787C165.529 241.513 165.943 238.416 164.634 236.333C164.025 235.356 163.037 234.673 161.907 234.45C158.94 233.835 155.271 235.846 152.895 237.507C143.694 243.937 138.804 254.89 136.837 265.607C130.875 267.596 120.501 268.127 113.003 266.797L113.068 266.553C113.171 264.788 114.497 262.396 115.17 260.759C113.38 257.734 111.939 254.405 110.407 251.237C107.339 244.956 104.378 238.623 101.527 232.241C97.6742 223.637 93.5704 215.142 89.7883 206.509L68.1482 248.47C65.9451 252.75 59.2511 267.065 56.2139 269.579C55.2846 270.348 54.1951 270.807 52.9763 270.667C51.7254 270.524 50.6584 269.826 49.7316 269.014C47.6725 267.211 45.9949 264.708 44.2716 262.587L35.3204 251.706C34.3992 255.419 32.3028 259.243 30.75 262.755L23.0692 280.338L15.8382 296.972C14.3174 300.56 13.0313 304.932 10.8155 308.136C10.054 309.237 8.93688 309.976 7.59593 310.143C6.27096 310.308 4.90091 309.845 3.90144 308.971C2.8835 308.081 2.34276 306.782 2.34375 305.437C2.34756 302.858 26.6665 247.54 29.5344 241.631C29.8997 240.878 30.3077 240.214 30.9346 239.651C31.8059 238.869 33.4393 238.155 34.6221 238.334C35.9007 238.527 37.244 239.641 38.1445 240.497C40.2588 242.507 42.0797 245.052 43.9406 247.304C46.8153 250.784 49.74 254.223 52.7137 257.619C54.8708 252.902 57.4218 248.354 59.7927 243.743L73.0044 218.236C75.4057 213.724 77.7834 209.198 80.1368 204.66C81.6302 201.784 83.0456 198.751 84.7802 196.012C85.5282 194.831 86.5037 193.495 87.7396 192.798C88.7349 192.237 89.9274 192.239 90.9943 192.587C92.3852 193.041 93.392 194.044 94.2239 195.21C97.278 199.491 99.7525 205.514 102.067 210.313C108.348 223.337 113.98 236.677 120.38 249.636C126.141 233.253 130.737 216.296 135.441 199.581C137.225 193.243 138.776 186.77 140.818 180.515C143.768 167.759 146.086 162.654 149.177 155.495C161.8 149.149 172.877 147.225 203.722 151.117C202.789 153.688 201.89 156.189 201.621 158.935C200.935 165.941 204.163 173.783 208.634 179.066C210.601 181.391 213.688 183.962 216.845 184.106C218.67 184.189 220.713 183.275 222.011 182.024C225.581 178.582 224.953 172.714 225.111 168.189C225.276 163.465 226.128 159.905 229.702 156.58L233.454 157.872C238.719 147.49 244.356 137.259 249.873 127.008C252.88 121.422 255.653 115.551 258.937 110.134C259.611 109.023 260.747 107.03 261.882 106.402C262.997 105.786 264.321 105.473 265.574 105.801C267.138 106.21 268.164 107.395 269.044 108.676C272.977 114.403 276.936 123.198 280.21 129.588C286.827 142.652 293.606 155.633 300.547 168.527C304.18 159.28 308.811 150.229 313.032 141.228L330.975 102.458L344.163 74.1669C347.277 67.4884 350.057 60.247 354.391 54.2666C346.12 58.0713 337.559 62.5188 328.931 65.3823C327.543 64.8367 326.147 64.2232 325.092 63.1378C324.277 62.2991 323.651 61.243 323.706 60.0375C323.76 58.8867 324.447 57.63 325.3 56.8773C327.889 54.5925 332.557 53.2019 335.736 51.7862C343.096 48.4801 350.492 45.2533 357.922 42.1069C360.317 41.0796 362.719 39.7394 365.171 38.8939ZM204.631 261.493C203.633 273.161 200.876 284.709 200.023 296.372L200.023 296.373C200.875 284.709 203.632 273.161 204.631 261.493L204.631 261.493Z" fill="#99DCFE"/>
<path d="M301.242 16.1465C291.473 19.7081 282.611 26.0606 274.568 32.5686C267.731 37.1354 261.31 42.3204 254.591 47.0619C237.953 58.771 221.379 70.5723 204.872 82.4653C204.208 82.1603 203.414 81.9356 203.052 81.2623C204.034 80.1299 208.061 78.1077 209.845 76.5486C211.928 74.73 213.741 72.4595 214.491 69.7541C215.193 67.225 214.577 53.825 214.362 50.6075C213.978 44.848 212.054 39.5564 207.611 35.7196C202.626 31.4146 195.503 28.7736 188.89 29.2997C184.518 29.6479 180.692 31.4749 177.072 33.8448C175.601 30.057 173.329 27.1105 169.508 25.4392C165.829 23.8421 161.665 23.773 157.934 25.2476C154.697 26.5356 152.054 28.9606 150.639 32.1647C149.018 35.9345 148.998 40.2014 150.585 43.9856C152.09 47.5426 154.94 49.8837 158.486 51.2304C160.843 52.1253 163.28 52.5262 165.766 52.8693C165.002 58.9585 165.115 65.9071 169.085 70.9762C172.266 75.037 177.241 76.8722 181.908 78.6512C181.856 80.0747 181.832 81.5024 181.632 82.9145C175.075 83.9805 169.197 85.8564 163.361 89.0939C158.098 92.0146 153.2 95.887 148.918 100.368C142.103 107.499 132.309 146.008 133.206 154.98C133.695 159.874 136.812 164.511 139.903 167.602L144.025 171.209C149.116 175.432 154.766 178.724 159.939 182.814C160.469 188.147 162.994 194.084 167.033 197.654C162.023 202.967 156.937 208.126 151.701 213.217C149.194 215.655 145.207 218.913 143.209 221.536C142.959 221.863 142.867 222.093 142.879 222.501C142.882 222.584 142.899 222.666 142.908 222.748C143.416 223.05 143.204 223.058 143.721 222.915C147.499 221.873 166.93 203.62 170.431 200.09C172.123 201.235 173.85 202.732 176.029 202.275C178.273 201.804 179.049 200.609 181.494 201.009C182.488 201.172 183.299 201.048 184.121 200.407C185.574 199.27 185.093 197.9 187.203 197.433C187.599 197.345 188.118 197.267 188.466 197.048C188.745 196.873 192.913 192.053 193.446 191.41C193.78 191.21 194.126 190.801 194.373 190.489C195.092 189.578 195.493 188.535 195.33 187.366C194.97 184.783 192.979 183.023 190.991 181.597C192.38 180.126 196.159 177.237 196.472 175.295C196.578 174.637 196.368 174.156 195.947 173.666C195.411 173.043 194.336 172.68 193.548 172.819C191.19 173.234 188.71 177.413 187.33 179.216C184.356 177.058 180.768 175.082 178.21 172.454C175.473 169.643 173.277 164.318 171.32 160.786C169.712 157.871 168.008 155.01 166.212 152.207C179.255 152.386 190.667 152.432 203.72 151.117L206.004 150.815C206.64 150.704 207.218 150.463 207.818 150.232C212.803 140.254 216.364 128.933 218.363 117.982C218.774 115.734 218.879 113.108 220.305 111.259C224.712 107.617 228.683 103.097 232.83 99.1322L260.439 73.0391C266.498 67.3481 272.519 61.3269 279.078 56.2094C281.923 53.9893 285.753 54.3345 288.975 52.9981C291.992 51.7461 294.379 49.3999 297.282 47.9429C299.352 46.9042 301.656 47.4962 303.312 45.5606C305.57 42.9207 305.439 41.1324 304 38.1916C303.848 37.8794 303.371 37.1359 303.325 36.8361C303.183 35.9015 304.083 34.2518 303.968 33.0509C303.81 31.3955 302.303 30.8015 301.173 29.853C300.829 28.7937 300.476 27.9204 299.856 26.9926C303.374 24.9266 308.069 22.248 309.265 18.0259C309.478 17.2722 309.488 16.486 309.014 15.8178C308.591 15.2211 307.9 14.9599 307.2 14.8806C305.304 14.6651 303.187 15.4373 301.405 16.0872L301.242 16.1465Z" fill="#1B1813"/>
<path d="M274.571 32.5686C282.614 26.0606 291.475 19.7081 301.245 16.1465C303.059 15.4854 305.248 14.6585 307.203 14.8806C307.902 14.9599 308.593 15.2211 309.017 15.8178C309.491 16.486 309.481 17.2722 309.268 18.0259C308.072 22.248 303.376 24.9266 299.858 26.9926C300.479 27.9204 300.832 28.7937 301.176 29.853C302.306 30.8015 303.812 31.3955 303.97 33.0509C304.085 34.2518 303.185 35.9015 303.327 36.8361C303.373 37.1359 303.85 37.8794 304.003 38.1916C305.441 41.1324 305.573 42.9207 303.314 45.5606C301.659 47.4962 299.355 46.9042 297.285 47.9429C294.382 49.3999 291.995 51.7461 288.977 52.9981C285.755 54.3345 281.926 53.9893 279.08 56.2094C272.522 61.3269 266.5 67.3481 260.442 73.0391L232.833 99.1322C228.685 103.097 224.714 107.617 220.307 111.259C221.952 107.007 252.752 80.152 258.636 73.6259L258.44 73.4641L259.117 72.9922L258.492 73.63L258.543 73.3564C254.348 76.8624 220.594 109.642 220.25 109.751C220.005 109.829 219.736 109.779 219.478 109.793C219.669 106.027 219.419 102.284 218.419 98.6386C216.569 91.8951 212.64 86.6987 206.591 83.2087L259.763 45.456C273.446 35.8015 288.761 22.0523 304.511 16.8502L304.76 16.4942C305.699 16.2624 306.443 15.9847 307.38 16.3273C307.844 16.8626 307.951 16.9656 307.893 17.724C307.708 20.1645 305.578 21.806 303.723 23.0322C302.139 24.0791 300.631 24.7689 299.662 26.4738C303.516 25.0121 306.844 21.2676 309.019 17.9105C309.065 17.0913 308.924 16.3355 308.276 15.7559C307.453 15.0182 306.095 15.2263 305.112 15.4288C301.145 16.2474 295.057 19.0919 291.53 21.128C289.147 22.5036 276.035 32.5393 274.571 32.5686Z" fill="#FECFAA"/>
<path d="M274.57 32.5686C282.613 26.0606 291.474 19.7081 301.244 16.1465C303.059 15.4854 305.247 14.6585 307.202 14.8806C307.902 14.9599 308.593 15.2211 309.016 15.8178C309.49 16.486 309.48 17.2722 309.267 18.0259C308.071 22.248 303.376 24.9266 299.858 26.9926C300.478 27.9204 300.831 28.7937 301.175 29.853C302.305 30.8015 303.812 31.3955 303.97 33.0509C304.085 34.2518 303.185 35.9015 303.327 36.8361C303.373 37.1359 303.85 37.8794 304.002 38.1916C305.441 41.1324 305.572 42.9207 303.314 45.5606C301.658 47.4962 299.354 46.9042 297.284 47.9429C294.381 49.3999 291.994 51.7461 288.977 52.9981C285.755 54.3345 281.925 53.9893 279.08 56.2094C272.521 61.3269 266.5 67.3481 260.441 73.0391L232.832 99.1322C228.685 103.097 224.714 107.617 220.307 111.259C221.951 107.007 252.751 80.152 258.636 73.6259L258.439 73.4641L259.116 72.9922L258.491 73.63L258.543 73.3564C254.347 76.8624 220.593 109.642 220.25 109.751C220.004 109.829 219.735 109.779 219.478 109.793C231.53 97.6087 244.228 85.9929 256.711 74.2519L269.285 62.4614C272.249 59.7169 275.305 56.7271 278.635 54.4283C281.511 52.4432 284.897 52.623 288.056 51.4416C291.143 50.2871 294.044 48.0119 296.771 46.1866C296.459 45.1623 296.557 44.118 296.268 43.1499C295.84 41.7218 291.959 40.4879 290.53 39.73C289.625 41.9418 288.667 44.5724 287.235 46.4818C286.515 47.4431 285.559 48.4808 284.301 48.6322C284.153 48.6497 284.005 48.6595 283.856 48.6729L284.058 48.8893C283.956 48.8388 283.603 48.66 283.51 48.6245C282.9 48.3885 282.701 48.2989 282.349 47.7487C283.076 46.7239 284.585 46.5446 285.47 45.6476C287.088 44.0088 288.05 41.2679 289.253 39.2684C288.495 38.7892 288.101 38.5862 287.849 37.7155L288.208 37.3781C290.996 37.0617 292.579 39.0556 295.013 39.816C295.979 40.1174 296.763 40.1756 297.678 39.7006C298.078 39.138 298.288 38.815 298.225 38.0978C297.774 32.9762 289.167 32.7871 287.223 30.9313L287.292 30.6593C288.298 30.1163 289.28 30.2718 290.386 30.1544C291.163 29.0343 292.093 27.7983 293.233 27.0235C294.478 26.1775 297.067 26.0137 298.488 26.3465C300.674 24.4104 306.554 21.1321 307.364 18.4118C307.577 17.6957 307.482 17.5772 307.132 16.9806C306.287 16.5359 305.42 16.7503 304.51 16.8502L304.76 16.4942C305.699 16.2624 306.443 15.9847 307.379 16.3273C307.843 16.8626 307.95 16.9656 307.893 17.724C307.707 20.1645 305.578 21.806 303.722 23.0322C302.138 24.0791 300.631 24.7689 299.662 26.4738C303.515 25.0121 306.843 21.2676 309.018 17.9105C309.064 17.0913 308.923 16.3355 308.276 15.7559C307.453 15.0182 306.094 15.2263 305.111 15.4288C301.144 16.2474 295.056 19.0919 291.529 21.128C289.147 22.5036 276.035 32.5393 274.57 32.5686Z" fill="#1B1813"/>
<path d="M301.251 38.4878C302.13 38.5161 302.459 38.8541 303.066 39.4275C303.463 40.3667 303.433 41.1885 303.095 42.1427C302.394 44.12 301.458 44.931 299.605 45.8336C299.213 45.6358 298.82 45.4523 298.498 45.1484C297.958 44.6393 297.595 43.9345 297.699 43.1767C297.933 41.475 300.016 39.5563 301.251 38.4878Z" fill="#FECFAA"/>
<path d="M295.518 28.0599C296.774 28.0104 297.846 27.962 298.864 28.7981C299.148 29.4664 299.26 29.6704 299.019 30.4071C298.753 31.2186 297.82 32.0656 297.074 32.4345C296.383 32.7755 296.33 32.7158 295.629 32.4917C294.199 31.7116 292.757 31.1526 291.226 30.6039C292.626 29.6694 293.98 28.759 295.518 28.0599Z" fill="#FECFAA"/>
<path d="M300.567 31.6118C300.97 31.8653 301.444 32.1265 301.758 32.4938C302.252 33.0709 302.458 34.0106 302.313 34.7371C302.07 35.9622 301.267 36.6119 300.253 37.2291C299.657 35.8978 298.818 34.9493 297.819 33.9199C298.804 33.2043 299.679 32.4398 300.567 31.6118Z" fill="#FECFAA"/>
<path d="M143.975 168.391C139.903 164.505 135.864 160.43 135.722 154.464C135.455 143.339 141.687 118.818 146.377 108.593C147.97 105.122 149.919 101.945 152.593 99.1999C154.868 96.8645 157.837 94.3147 161.284 94.3791C164.308 94.4358 167.032 96.3101 168.993 98.4894C172.738 102.65 173.552 108.312 173.172 113.708C172.421 124.377 165.687 137.427 161.561 147.387C163.38 151.134 165.793 154.606 167.892 158.203C170.349 162.412 174.152 171.081 177.38 174.062C181.232 177.62 189.885 181.777 192.57 185.373C193.203 186.22 193.409 186.999 193.534 188.031C192.984 189.554 191.979 190.701 190.985 191.953C190.188 190.167 188.731 187.073 187.151 185.927C186.756 185.641 186.74 185.743 186.295 185.812C185.426 187.354 189.182 191.197 188.996 193.486C188.933 194.24 188.504 194.916 187.848 195.295C185.35 196.744 184.215 191.094 182.12 190.373L181.795 190.582C181.234 193.278 184.752 194.982 184.07 197.61C183.855 198.434 183.428 198.888 182.704 199.319C179.804 199.855 179.116 195.087 176.84 194.188C176.341 194.444 176.323 194.466 176.07 194.967C176.317 196.371 177.597 197.23 178.054 198.523C178.246 199.067 178.131 199.228 177.925 199.728C177.29 200.169 176.713 200.439 175.935 200.536C174.229 200.749 172.795 199.786 171.495 198.815C169.919 197.639 168.146 196.442 166.767 195.04C163.66 191.881 162.18 186.253 161.561 181.975C159.209 179.78 156.304 177.945 153.73 176.004C150.435 173.518 147.26 170.885 143.975 168.391Z" fill="#FECFAA"/>
<path d="M201.156 40.3721C205.296 42.6009 210.256 46.1254 211.916 50.721C213.306 54.5675 213.687 67.7465 211.973 71.3091C210.104 75.1922 205.489 78.1418 201.552 79.5962C199.935 80.1939 198.231 80.5241 196.624 81.1171C196.11 81.3072 196.075 81.2402 195.846 81.7683L196.096 82.3598C197.423 83.063 199.65 82.0687 201.003 81.6596C200.777 83.3036 201.037 85.5896 200.291 87.0662C199.71 88.2156 198.332 89.0307 197.142 89.3857C193.164 90.5727 188.466 88.857 184.968 86.9884C183.89 86.349 182.85 85.6303 181.8 84.9456C184.255 82.6705 183.779 78.421 183.909 75.2881C182.37 72.9387 180.867 70.6121 179.549 68.1277C178.184 68.645 176.889 68.9892 175.459 69.2689L175.261 69.1685C175.151 69.1118 175.043 69.0531 174.933 68.9969C174.371 68.7094 173.81 68.4431 173.316 68.0407C171.495 66.5517 170.334 64.0674 170.154 61.7438C170.008 59.8778 170.483 57.7051 171.769 56.2873C172.607 55.364 173.667 54.8854 174.912 54.8385C177.829 54.7283 179.806 56.7984 181.84 58.5733C182.561 57.106 183.062 55.5335 183.611 53.9946C183.783 53.9462 183.954 53.8936 184.124 53.837C191.556 51.4078 197.518 47.4134 201.156 40.3721Z" fill="#FECFAA"/>
<path d="M197.369 68.0918C199.309 68.5091 201.283 70.3907 204.34 70.8713C204.806 70.9445 204.546 70.8332 204.996 71.2237L204.872 72.1372C204.472 72.2279 204.062 72.317 203.651 72.3402C201.813 72.4443 199.525 71.554 198.209 70.2773C197.468 69.557 197.389 69.1088 197.369 68.0918Z" fill="#1B1813"/>
<path d="M175.902 60.1807C176.896 60.3811 177.927 61.107 178.551 61.9081C179.168 62.701 179.246 63.2137 179.129 64.1921C178.882 64.1797 178.712 64.1885 178.48 64.1271C177.555 63.8845 176.49 62.6913 176.029 61.8767C175.641 61.191 175.717 60.9293 175.902 60.1807Z" fill="#1B1813"/>
<path d="M200.521 234.801C218.016 225.821 237.137 199.736 256.427 197.654C255.867 204.414 254.79 211.19 253.672 217.88C253.091 221.36 252.26 224.944 251.969 228.455C247.029 227.413 241.76 229.304 237.638 231.972C227.601 238.469 221.452 249.449 216.328 259.91C209.922 259.69 203.325 260.338 196.965 259.637C198.345 251.463 199.571 243.037 200.521 234.801Z" fill="#99DCFE"/>
<path d="M159.989 236.217C160.373 236.199 160.768 236.17 161.153 236.201C161.944 236.264 162.781 236.627 163.216 237.32C164.335 239.101 163.668 242.171 163.026 244C159.731 253.382 150.792 259.43 142.271 263.57L138.636 265.056C139.988 259.983 141.383 255.231 143.987 250.628C147.521 244.38 152.838 238.204 159.989 236.217Z" fill="#99DCFE"/>
<path d="M192.283 206.122C191.684 205.817 191.539 205.82 191.25 205.227C191.349 205.01 191.443 204.79 191.554 204.579C192.242 203.29 200.142 190.878 200.512 190.619C200.666 190.512 200.871 190.51 201.051 190.456C201.484 190.855 201.47 190.936 201.595 191.52C200.396 195.125 198.039 198.727 195.81 201.759C194.616 203.198 193.403 204.624 192.283 206.122Z" fill="#1B1813"/>
<path d="M207.967 205.016C209.322 203.376 210.663 201.488 212.387 200.226L212.848 200.238C213.043 201.175 212.493 202.131 211.992 202.894C211.222 204.067 210.112 205.022 208.913 205.738C208.471 205.732 208.238 205.715 207.809 205.572L207.967 205.016Z" fill="#1B1813"/>
<path d="M251.517 230.039C247.826 229.873 244.756 230.351 241.405 231.949C232.167 236.357 221.694 250.199 218.322 259.882L216.328 259.91C209.922 259.69 203.325 260.338 196.965 259.636C196.967 260.424 196.876 260.549 197.369 261.146C199.58 261.936 202.303 261.398 204.631 261.493C203.633 273.162 200.875 284.71 200.023 296.374C215.34 296.007 230.714 296.244 246.036 296.297C246.032 307.907 246.266 319.571 246.012 331.175C245.997 334.758 245.541 339.11 246.189 342.609C239.08 342.433 231.934 342.573 224.821 342.571L183.083 342.519C182.787 347.539 182.992 352.651 182.991 357.685C182.959 366.13 182.982 374.576 183.06 383.02L114.102 383.03L92.57 383.028C89.2872 383.027 85.8849 382.789 82.6186 383.036C81.7186 383.104 80.8981 383.206 80.2876 383.904C80.5653 384.433 80.3908 384.302 80.8617 384.542C81.6514 384.945 82.5776 385.015 83.4483 385.026C107.368 385.336 131.35 384.996 155.276 384.994L174.575 384.987C177.354 384.984 181.933 385.46 184.479 384.703C185.475 383.061 184.879 348.981 184.866 344.438L247.962 344.418C248.267 340.525 248.063 336.492 248.017 332.59L248.056 330.841L248.066 297.775L286.834 297.86C293.985 297.859 301.174 298.012 308.317 297.758C308.627 292.165 308.391 286.437 308.389 280.831L308.373 248.813L345.097 248.794C349.031 248.792 367.954 249.362 370.685 248.303L370.89 247.919C370.008 246.988 368.768 246.968 367.558 246.948L367.545 246.948C356.235 246.766 344.853 247.014 333.534 247.009C324.607 247.004 315.536 246.671 306.624 247.083C306.149 263.333 306.563 279.701 306.575 295.964L264.616 295.951C265.205 292.44 265.307 288.554 263.226 285.477C260.691 281.727 255.274 279.708 251.542 277.258C249.935 276.203 248.493 274.924 247.062 273.647C245.952 272.656 244.418 270.865 243.088 270.285C242.818 270.512 242.58 270.712 242.352 270.983L242.014 270.283L241.463 270.158C241.566 269.977 241.637 269.711 241.71 269.514C240.43 268.015 236.939 267.707 235.004 267.536L234.927 267.53C235.255 265.533 235.392 263.476 235.605 261.462C238.056 261.434 243.99 262.114 245.952 261.172C246.355 260.978 246.43 260.362 246.57 259.957C246.607 257.54 247.421 254.688 247.846 252.288C249.139 244.974 250.936 237.424 251.517 230.039Z" fill="#1B1813"/>
<path d="M218.323 259.882C221.694 250.199 232.167 236.357 241.406 231.949C244.757 230.351 247.827 229.873 251.517 230.039C250.936 237.424 249.14 244.974 247.846 252.288C247.422 254.688 246.607 257.541 246.57 259.957C243.211 259.697 239.725 259.864 236.353 259.865L218.323 259.882Z" fill="#99DCFE"/>
<path d="M241.463 270.158L242.014 270.283L242.351 270.983C241.479 272.561 240.634 274.406 239.436 275.765C239.036 276.218 238.788 276.567 238.159 276.614C237.838 274.719 240.425 271.653 241.463 270.158Z" fill="white"/>
<path d="M206.478 261.483L233.965 261.511C233.776 263.491 233.844 267.237 232.876 268.912C232.665 269.278 232.249 269.245 231.866 269.339C223.102 270.553 214.075 270.755 205.24 270.662L206.478 261.483Z" fill="#FECFAA"/>
<path d="M239.928 292.236C245.649 292.04 251.379 292.118 257.102 292.09C258.644 292.083 260.874 291.723 262.335 292.025C262.892 292.14 262.941 292.241 263.225 292.688L263.091 293.231C261.593 293.91 229.605 293.808 225.483 293.857C222.575 293.862 203.633 294.403 202.36 293.562C201.97 293.304 202.04 293.2 201.945 292.787C203.025 292.022 235.562 292.345 239.928 292.236Z" fill="white"/>
<path d="M106.944 313.014C112.115 313.094 117.744 314.388 122.887 315.128C127.575 315.802 132.656 316.144 137.232 317.269C137.719 317.389 138.083 317.584 138.503 317.849C136.468 322.229 134.789 326.652 133.219 331.218C135.221 333.259 136.543 335.291 137.56 337.951C135.313 338.733 132.476 339.424 130.782 341.155L130.874 341.45C133.223 341.546 135.751 340.074 137.869 339.132C139.483 344.695 140.015 351.465 144.618 355.511C146.627 357.278 149.008 358.619 150.855 360.574C152.83 362.666 153.633 365.186 153.583 368.025C153.559 369.329 153.444 370.476 152.403 371.385C149.406 374.003 138.131 373.296 134.299 372.904C131.607 372.629 128.722 372.131 126.248 371C118.829 367.607 93.5014 348.482 88.5137 342.399C93.1474 336.209 97.9837 329.975 101.867 323.28C103.785 319.973 105.342 316.481 106.944 313.014Z" fill="#1B1813"/>
<path d="M108.145 314.687C117.467 316.102 126.799 317.453 136.139 318.74C134.479 322.554 132.96 326.429 131.585 330.355C131.076 330.739 130.45 330.964 129.837 331.111C123.01 332.745 110.38 326.037 104.464 322.393C105.729 319.843 106.956 317.274 108.145 314.687Z" fill="#FECFAA"/>
<path d="M91.2933 340.884C93.6606 340.914 121.608 365.671 130.56 368.037C134.798 369.157 142.092 369.001 146.449 368.139C148.024 367.828 150.012 366.727 151.58 366.867L151.755 367.281L151.438 367.851C146.852 370.136 138.883 370.529 133.886 370.039C131.501 369.805 129.312 369.267 127.164 368.192C117.434 363.318 106.855 354.383 98.2305 347.647C96.1898 346.053 92.9801 344.105 91.4205 342.096C91.0583 341.628 91.2268 341.445 91.2933 340.884Z" fill="white"/>
<path d="M352.352 290.616C352.833 290.758 353.135 290.95 353.538 291.244C354.224 293.8 354.149 296.782 354.411 299.433C354.946 305.083 355.606 310.72 356.39 316.339C358.865 314.32 373.29 302.064 374.807 301.984L374.984 302.511C374.263 305.328 363.824 318.412 361.396 321.515C364.742 322.348 378.68 325.115 380.512 326.849L380.506 327.3C378.984 328.433 364.436 329.39 361.728 329.518C363.355 331.662 375.383 347.648 375.258 349.099L374.754 349.334C373.986 349.154 373.481 348.86 372.848 348.39C371.112 347.101 369.532 345.466 367.844 344.091C363.738 340.747 359.536 337.502 355.543 334.025C355.516 338.795 355.011 343.66 354.68 348.422C354.462 351.554 354.475 354.975 353.847 358.034C353.714 358.681 353.634 358.856 353.186 359.309C352.53 359.254 352.521 359.206 352.029 358.756C351.192 350.809 350.158 342.887 349.42 334.927C345.885 337.778 333.43 347.71 329.943 349.206L329.359 348.948C329.394 348.049 329.912 347.165 330.373 346.42C331.772 344.161 333.656 342.08 335.265 339.958C337.863 336.534 340.353 333.02 342.87 329.536C339.793 329.173 325.589 328.363 323.951 326.862L324.024 326.473C324.529 326.071 341.241 322.572 343.484 322.047C340.207 317.388 336.144 313.1 332.331 308.864C330.869 307.239 329.19 305.628 327.898 303.871C327.598 303.463 327.486 303.162 327.447 302.647L327.811 302.247C328.494 302.221 328.922 302.49 329.491 302.83C331.477 304.016 333.321 305.637 335.251 306.942C339.853 310.051 345.07 312.968 349.202 316.659C349.434 312.005 350.272 307.289 350.798 302.654C351.174 299.34 351.239 293.582 352.352 290.616Z" fill="#FFADC1"/>
<path d="M334.085 166.016C337.263 169.106 339.743 173.816 342.175 177.553C345.877 175.46 349.551 173.305 353.519 171.747C353.478 175.703 352.23 179.453 351.345 183.277C355.738 184.404 360.575 184.744 365.075 185.509C361.081 188.934 356.594 191.721 352.562 195.107C354.022 199.608 355.64 204.115 356.805 208.7C352.48 207.199 348.156 205.189 344.211 202.881C342.91 203.218 336.336 211.636 334.566 213.317C333.155 208.85 332.686 204.366 332.442 199.711C326.837 199.53 321.225 199.742 315.625 199.987C319.496 195.744 323.821 192.094 328.087 188.267C324.68 184.972 321.125 181.754 318.224 177.991C322.71 177.948 327.196 177.958 331.682 178.019C332.114 174.028 332.35 169.687 334.085 166.016Z" fill="#4A65E8"/>
<path d="M34.931 157.041C35.4602 157.135 35.8141 157.368 36.2165 157.721C39.8646 160.921 43.1857 164.948 46.6185 168.43C51.7896 173.673 57.3652 178.743 62.2354 184.253C57.9813 186.302 52.1446 187.706 47.5577 189.199C43.5906 190.492 30.6435 195.33 27.323 195.335L27.0741 194.967C27.0396 191.773 29.1551 184.41 29.8995 180.852C31.5482 172.975 32.7393 164.77 34.931 157.041Z" fill="#4A65E8"/>
<path d="M207.819 150.233C214.747 151.097 221.322 153.151 227.738 155.856L227.494 156.082C224.026 159.342 223.282 164.431 223.168 168.979C223.072 172.79 223.557 178.204 220.431 181.004C219.388 181.937 218.073 182.235 216.699 182.121C213.802 181.879 211.42 179.593 209.698 177.418C205.519 172.142 202.773 165.173 203.655 158.378C204.001 155.72 204.919 153.249 206.006 150.815C206.642 150.704 207.22 150.464 207.819 150.233Z" fill="#99DCFE"/>
<path d="M294.931 339.681L295.339 339.957C296.502 342.085 297.88 362.801 297.797 366.617C292.493 365.158 287.291 363.192 282.069 361.456C279.628 360.426 276.207 360.038 274.179 358.316L274.241 357.788C277.03 353.801 290.571 342.561 294.931 339.681Z" fill="#4A65E8"/>
<path d="M90.4596 109.642C92.4272 111.385 99.4932 122.938 100.543 125.732C97.1294 126.584 93.4581 126.882 89.9676 127.36C87.7826 127.709 83.1772 128.832 81.1699 127.89L81.5836 127.403L81.2034 127.629C82.2106 124.281 88.3756 112.596 90.4596 109.642Z" fill="#4A65E8"/>
<path d="M287.126 223.175C289.986 222.404 292.932 224.081 293.73 226.933C294.528 229.785 292.88 232.747 290.035 233.573C287.153 234.409 284.141 232.733 283.332 229.842C282.523 226.951 284.228 223.956 287.126 223.175Z" fill="#1B1813"/>
<circle cx="2.31843" cy="2.31843" r="2.31843" transform="matrix(-1 0 0 1 199.667 56.0601)" fill="#1B1813"/>
<path d="M206.236 60.6986C206.589 60.6961 206.97 60.6856 207.31 60.8032C207.923 61.0157 208.48 61.4968 208.744 62.1419C209.021 62.8212 208.994 63.6338 208.739 64.3144C208.316 65.4412 207.604 65.9199 206.611 66.3645C206.286 66.3032 206.134 66.2342 205.874 66.0131C205.614 64.9609 207.534 64.4492 207.71 63.3886C207.893 62.2856 206.564 62.2751 206.072 61.6452C206.007 61.2156 206.088 61.0939 206.236 60.6986Z" fill="#1B1813"/>
<path d="M193.296 52.1375C192.579 52.6583 191.615 53.2587 191.186 54.0481C190.917 54.5426 190.933 54.7775 191.088 55.2761C191.289 55.4075 191.456 55.6084 191.691 55.6705C192.149 55.7916 194.673 53.8475 195.259 53.5351C195.895 53.1955 196.61 53.0535 197.303 52.9129L197.588 52.8576C198.471 52.7842 199.446 52.8245 200.102 52.104C200.367 51.8129 200.289 51.7605 200.283 51.4148C199.954 51.031 199.677 50.8544 199.184 50.7279C197.242 50.2294 195.029 51.1868 193.296 52.1375Z" fill="#1B1813"/>
<path d="M211.579 50.7078C210.878 50.3309 210.166 50.0913 209.358 50.0434C208.568 49.9966 207.495 50.1549 206.875 50.7715C206.574 51.0704 206.585 51.1486 206.558 51.5452L206.859 51.8738C207.457 52.1344 207.967 52.0289 208.613 51.9466C210.572 51.946 211.054 53.7225 212.53 53.8176C212.927 53.5089 212.929 53.5154 213.06 53.0253C212.898 52.0091 212.279 51.364 211.579 50.7078Z" fill="#1B1813"/>
<circle cx="1.80322" cy="1.80322" r="1.80322" transform="matrix(-1 0 0 1 211.002 56.0601)" fill="#1B1813"/>
</svg>
