<svg width="400" height="400" viewBox="0 0 400 400" fill="none" xmlns="http://www.w3.org/2000/svg">
<path d="M213.304 222.51C212.462 225.244 216.162 235.047 217.493 239.135L217.727 239.872C220.891 248.611 223.286 257.705 227.353 266.09C230.036 271.622 233.439 276.876 236.701 282.083C239.655 286.798 264.91 325.85 267.383 326.554C268.95 326.997 271.867 325.018 273.337 324.357C273.754 325.276 274.384 326.334 274.506 327.336L274.031 328.195C274.158 328.536 274.049 328.414 274.431 328.586C276.33 329.437 281.648 329.044 282.555 331.02L282.447 331.441C278.77 333.102 263.913 325.559 261.854 331.235C261.537 332.109 261.611 333.115 262.008 333.951C262.41 334.798 263.109 335.422 264 335.717C265.646 336.261 267.806 336.006 269.541 335.961C267.751 338.113 265.886 340.202 263.949 342.224C260.079 346.323 255.396 350.445 255.806 356.632C255.97 359.113 257.163 360.655 258.873 362.314C257.145 362.3 255.402 362.236 253.676 362.307C247.104 362.042 240.44 362.269 233.857 362.269L195.758 362.264C196.243 361.861 196.759 361.424 197.164 360.938C197.828 360.141 198.079 359.352 198.188 358.331C198.555 354.885 197.842 351.053 197.484 347.613L195.84 331.799C196.984 331.924 198.816 332.349 199.877 331.824C200.482 331.525 200.751 330.608 200.941 330.004C201.577 327.987 203.42 320.386 203.257 318.642C203.212 318.159 203.041 317.849 202.818 317.43C198.538 316.506 194.086 315.99 189.756 315.286C181.737 314.025 173.735 312.658 165.753 311.184L162.333 310.545C162.141 310.6 162.002 310.632 161.816 310.724C161.425 310.918 161.212 311.232 161.066 311.634C160.519 313.14 158.269 322.952 158.91 323.977C159.875 325.518 163.704 326.212 165.405 326.712C164.61 328.998 163.683 331.252 162.81 333.51C161.974 332.478 161.093 331.44 160.101 330.556C158.736 329.34 157.031 328.257 155.128 328.424C154.267 328.5 153.391 328.852 152.857 329.558C152.342 330.239 152.245 331.123 152.413 331.943C152.907 334.357 155.246 335.729 157.174 336.923C149.698 340.375 138.125 341.671 132.738 348.312C130.599 350.949 129.653 354.543 130.094 357.912C130.363 359.97 131.447 361.146 133.038 362.334C129.879 362.27 120.852 361.873 118.19 362.396C117.626 362.506 117.279 362.644 116.958 363.124L117.155 363.588L117.236 363.236L117.281 363.711C117.35 363.763 117.413 363.823 117.486 363.867C117.813 364.066 118.065 364.09 118.437 364.101C129.158 364.402 139.982 364.121 150.713 364.12L214.094 364.115L309.623 364.112C314.057 364.112 337.163 364.477 338.685 363.936C339.216 363.746 339.49 363.517 339.718 363.009L339.338 362.609C336.775 361.827 324.159 362.28 320.587 362.279L280.302 362.316C286.851 359.765 292.445 354.98 297.986 350.766L311.043 340.805C313.408 338.981 320.407 334.28 320.684 331.301C320.794 330.111 320.217 329.098 319.575 328.141C317.84 325.548 315.416 323.294 313.286 321.029C309.266 316.755 305.146 312.521 301.332 308.061C302.35 307.342 304.16 306.295 304.418 304.973C304.705 303.498 298.296 293.686 296.992 291.949C295.528 290.035 294.301 287.853 292.991 285.821L284.905 273.297L275.764 259.424C273.641 256.198 271.42 252.946 269.59 249.544C268.735 247.955 268.21 246.452 267.812 244.695C263.255 244.191 259 243.505 254.715 241.812C254.592 242.004 254.469 242.196 254.34 242.385C247.859 251.825 237.396 256.913 226.429 258.961L225.711 257.016C223.442 249.946 220.917 242.951 218.633 235.883C217.887 233.591 217.164 231.292 216.464 228.986C216.025 227.495 215.704 225.933 215.152 224.481C214.832 223.64 214.496 223.009 213.836 222.395L213.304 222.51ZM339.338 362.609C339.349 362.613 339.361 362.616 339.372 362.619L339.323 362.595L339.338 362.609ZM252.666 270.248C257.15 269.505 261.704 270.158 265.457 272.842C268.859 275.275 270.932 278.999 271.586 283.099C272.581 289.342 270.575 295.769 266.867 300.799C264.151 304.484 260.922 306.961 256.855 308.996L255.757 307.438C259.203 305.219 262.156 303.555 264.732 300.263C268.258 295.757 270.494 289.822 269.729 284.053C269.238 280.358 267.493 276.907 264.486 274.637C261.345 272.265 257.381 271.627 253.547 272.172C249.486 272.749 244.464 274.656 241.594 277.695C240.491 278.863 239.763 280.172 238.803 281.424L238.637 281.638L237.426 279.711C241.159 274.472 246.295 271.304 252.666 270.248Z" fill="#1B1813"/>
<path d="M246.046 59.5723C249.772 59.2465 253.042 58.277 255.483 55.2555C257.313 52.9911 258.227 49.868 257.903 46.9829C257.546 43.9168 255.965 41.125 253.519 39.2414C250.774 37.0974 247.255 36.2588 243.821 36.7339C240.602 37.1776 237.703 38.91 235.787 41.5336C234.546 43.2118 233.835 45.0977 233.402 47.1282C225.131 44.1551 216.257 43.9481 208.151 47.7149C201.273 50.911 196.146 57.3184 193.586 64.3723C190.613 72.5641 189.368 89.0766 193.058 96.9153C195.366 101.819 199.518 105.613 204.61 107.471C207.043 108.34 209.554 108.641 212.112 108.886L212.137 114.434C197.308 114.791 183.422 116.872 172.608 128.118C165.393 135.587 161.426 145.606 161.571 155.989C161.743 163.681 164.463 171.026 169.044 177.176C170.443 179.054 172.036 180.74 173.508 182.554C176.403 185.846 179.599 188.747 182.732 191.799L183.751 192.711C184.47 193.235 185.173 193.759 185.948 194.198C186.927 193.549 187.847 192.904 188.73 192.127C193.516 194.137 194.781 197.066 197.974 200.845L198.945 201.94C203.391 206.344 208.817 210.249 214.206 213.429C214.422 213.553 214.633 213.674 214.863 213.77C218.748 215.388 218.684 211.422 220.483 210.549C221.214 210.195 222.29 210.625 223.142 210.207C224.517 209.533 224.999 207.809 225.43 206.465C225.488 206.465 225.546 206.466 225.605 206.464C225.702 206.461 225.799 206.456 225.895 206.453C230.422 206.307 228.87 204.031 230.489 202.656C231.299 201.968 232.617 202.053 233.506 201.311C234.263 200.68 234.722 199.839 234.761 198.846C234.845 196.706 233.385 194.822 232.053 193.3L237.005 187.243C243.706 190.752 250.632 194.211 258.446 193.586C263.173 193.533 267.779 192.088 271.688 189.431C277.924 185.198 281.625 178.345 282.96 171.032C284.893 160.436 282.893 146.675 276.697 137.696C280.578 133.726 284.045 129.122 287.645 124.88C292.764 118.849 298.097 112.952 302.91 106.674C303.694 106.145 304.138 105.744 304.561 104.886C307.136 102.413 311.61 97.2872 313.66 94.3973C314.364 94.12 314.831 93.9165 315.303 93.2946C315.473 92.6497 315.404 92.3157 315.209 91.684C317.778 88.277 321.06 85.2793 323.829 82.0149C325.932 79.5352 327.067 76.6204 326.721 73.3219C326.527 71.4719 325.685 69.175 324.462 67.7153C322.37 65.218 318.007 62.0973 315.388 59.9079C311.174 56.3844 307.073 52.6536 302.765 49.2516C299.975 47.0481 297.117 46.1024 293.553 46.5606C288.708 47.1836 286.026 51.0403 283.073 54.459C281.359 56.4442 279.637 58.4196 278.024 60.4891C277.093 60.9028 276.468 61.1082 276.079 62.1164C276.023 62.2653 275.97 62.4153 275.92 62.5664C273.683 65.1426 268.679 70.375 267.084 73.0055C266.357 73.6289 265.885 74.2422 265.358 75.0301C261.181 79.4375 257.377 84.2989 253.461 88.9438C247.175 96.27 240.958 103.656 234.813 111.101L234.786 95.9387C239.41 95.743 243.028 94.577 246.227 91.07C248.334 88.7606 249.407 85.9114 249.222 82.7621C249.13 81.2762 248.785 79.8168 248.202 78.4469C249.585 71.8266 248.363 65.8293 246.046 59.5723Z" fill="#1B1813"/>
<path d="M315.209 91.6845C317.778 88.2775 321.06 85.2798 323.829 82.0153C325.932 79.5357 327.067 76.6208 326.721 73.3224C326.527 71.4724 325.685 69.1755 324.462 67.7157C322.37 65.2185 318.007 62.0978 315.388 59.9083C311.174 56.3849 307.073 52.654 302.765 49.2521C299.975 47.0485 297.117 46.1028 293.553 46.561C288.708 47.1841 286.026 51.0407 283.073 54.4595C281.359 56.4446 279.637 58.42 278.024 60.4896C277.093 60.9032 276.468 61.1087 276.079 62.1169C276.023 62.2657 275.97 62.4157 275.92 62.5669C273.683 65.1431 268.679 70.3755 267.084 73.006C266.357 73.6294 265.885 74.2427 265.358 75.0306C261.181 79.438 257.377 84.2993 253.461 88.9443C247.175 96.2704 240.958 103.657 234.813 111.101C234.262 111.818 233.543 113.028 232.751 113.456C232.176 114.589 231.256 115.439 230.349 116.311C226.448 121.095 222.207 125.607 218.346 130.419C221.734 133.157 224.958 136.077 228.237 138.943L229.225 139.995C229.261 140.059 229.299 140.122 229.334 140.186C231.604 144.285 231.972 148.504 235.871 151.985C236.24 152.314 236.775 152.87 237.268 152.929C237.353 152.939 237.892 152.848 237.951 152.84C238.579 152.751 238.853 152.748 239.422 153.003C239.483 153.03 239.545 153.056 239.606 153.083L240.674 154.02C245.145 157.171 249.765 160.103 254.518 162.807L254.637 162.856C254.712 162.393 254.662 162.275 254.987 161.916L256.006 161.88L256.21 162.04C257.679 159.501 261.26 155.817 263.269 153.464L276.697 137.697C280.578 133.726 284.045 129.123 287.645 124.881C292.764 118.85 298.097 112.953 302.91 106.674C303.694 106.145 304.138 105.745 304.561 104.886C307.136 102.413 311.61 97.2876 313.66 94.3978C314.364 94.1204 314.831 93.9169 315.303 93.295C315.473 92.6501 315.404 92.3161 315.209 91.6845Z" fill="#4A69E8"/>
<path d="M315.209 91.6845C317.778 88.2775 321.06 85.2798 323.829 82.0153C325.932 79.5357 327.067 76.6208 326.721 73.3224C326.527 71.4724 325.685 69.1755 324.462 67.7157C322.37 65.2185 318.007 62.0978 315.388 59.9083C311.174 56.3849 307.073 52.654 302.765 49.2521C299.975 47.0485 297.117 46.1028 293.553 46.561C288.708 47.1841 286.026 51.0407 283.073 54.4595C281.359 56.4446 279.637 58.42 278.024 60.4896C277.093 60.9032 276.468 61.1087 276.079 62.1169C276.023 62.2657 275.97 62.4157 275.92 62.5669C273.683 65.1431 268.679 70.3755 267.084 73.006C266.357 73.6294 265.885 74.2427 265.358 75.0306C268.306 78.029 271.81 80.6224 275.024 83.3403L275.965 84.1591C278.575 86.2087 281.087 88.3939 283.628 90.5282C285.261 91.9005 287.037 93.236 288.562 94.7185L289.603 95.6208C292.406 97.9466 295.184 100.302 297.936 102.688C299.488 104.012 301.146 105.657 302.91 106.674C303.694 106.145 304.138 105.745 304.561 104.886C307.136 102.413 311.61 97.2876 313.66 94.3978C314.364 94.1204 314.831 93.9169 315.303 93.295C315.473 92.6501 315.404 92.3161 315.209 91.6845Z" fill="#FFADC1"/>
<path d="M278.024 60.4893C277.093 60.9029 276.468 61.1084 276.08 62.1166C276.023 62.2654 275.97 62.4154 275.92 62.5666C273.683 65.1428 268.679 70.3752 267.084 73.0057C266.357 73.6291 265.885 74.2424 265.358 75.0303C268.306 78.0287 271.81 80.6221 275.024 83.34L275.965 84.1588C278.575 86.2084 281.087 88.3936 283.628 90.5279C285.261 91.9002 287.037 93.2357 288.562 94.7182L289.603 95.6205C292.406 97.9463 295.184 100.302 297.936 102.687C299.488 104.012 301.146 105.657 302.91 106.674C303.694 106.145 304.138 105.744 304.561 104.886C307.137 102.413 311.61 97.2873 313.66 94.3975C314.364 94.1201 314.831 93.9166 315.303 93.2947C315.473 92.6498 315.404 92.3158 315.209 91.6842L289.383 69.9021C285.639 66.7693 281.969 63.3584 278.024 60.4893Z" fill="#4A69E8"/>
<path d="M278.024 60.4893C277.093 60.9029 276.468 61.1084 276.08 62.1166C276.023 62.2654 275.97 62.4154 275.92 62.5666C278.581 65.3525 281.951 67.7807 284.914 70.2564L301.987 84.5779L309.739 91.1166C310.949 92.1514 312.289 93.6439 313.66 94.3975C314.364 94.1201 314.831 93.9166 315.303 93.2947C315.473 92.6498 315.404 92.3158 315.209 91.6842L289.383 69.9021C285.639 66.7693 281.969 63.3584 278.024 60.4893Z" fill="#1B1813"/>
<path d="M304.561 104.886C303.52 103.083 293.917 95.5164 291.663 93.6129C283.507 86.723 275.426 79.6687 267.084 73.0059C266.358 73.6293 265.885 74.2426 265.358 75.0305C268.306 78.0289 271.81 80.6223 275.024 83.3402L275.966 84.159C278.575 86.2086 281.088 88.3937 283.628 90.5281C285.261 91.9004 287.037 93.2359 288.563 94.7184L289.603 95.6207C292.406 97.9465 295.184 100.302 297.936 102.688C299.488 104.012 301.147 105.657 302.91 106.674C303.694 106.145 304.138 105.745 304.561 104.886Z" fill="#1B1813"/>
<path d="M275.024 83.3403C266.483 92.8435 258.456 102.927 250.255 112.731C242.94 121.475 235.365 130.05 228.237 138.943L229.226 139.995L246.279 119.74C246.524 119.329 247.019 118.875 247.339 118.505C253.032 112.023 258.409 105.226 264.008 98.6575L265.025 97.4786C268.334 93.4552 273.193 88.3509 275.966 84.1591L275.024 83.3403Z" fill="white"/>
<path d="M288.562 94.7183C286.162 97.2823 283.95 100.05 281.694 102.742C277.505 107.737 273.365 112.775 269.276 117.853C268.855 118.311 268.444 118.782 267.981 119.199C262.555 125.823 256.888 132.255 251.495 138.903C251.111 139.358 250.738 139.826 250.31 140.241C247.002 144.617 243.291 149.02 239.606 153.082L240.675 154.02C244.192 150.237 247.418 146.133 250.725 142.164C251.087 141.717 251.491 141.292 251.874 140.862C253.309 138.582 255.463 136.456 257.214 134.379L268.343 121.132C268.623 120.672 269.182 120.2 269.561 119.803C272.292 116.684 274.843 113.406 277.476 110.204L289.603 95.6206L288.562 94.7183Z" fill="white"/>
<path d="M232.751 113.456C232.865 110.902 232.307 95.5774 233.173 94.6403C234.396 93.3173 237.4 93.897 239.065 93.4239C243.071 92.2853 247.102 88.0064 247.301 83.8064C247.407 81.5536 246.686 79.3376 245.126 77.686C244.097 76.5978 242.751 75.947 241.241 75.9536C239.175 75.963 237.396 77.0263 235.743 78.1439C235.487 78.3165 235.035 78.7294 234.749 78.8064C234.412 78.897 234.428 78.8911 234.212 78.6661C233.777 78.2134 233.75 77.756 233.802 77.163C233.815 77.0134 233.832 76.8642 233.852 76.7153C231.707 75.3118 229.257 74.3903 227.028 73.1204C219.834 69.0212 211.493 63.2544 206.746 56.4282C202.83 58.5728 195.879 63.6181 194.644 68.1329C193.084 73.836 192.289 84.9942 193.314 90.8544C193.71 93.2564 194.554 95.5626 195.8 97.6536C198.327 101.877 202.313 104.956 207.114 106.116C209.315 106.64 211.583 106.822 213.84 106.656C215.486 106.526 218.131 105.225 219.162 105.769C219.388 106.24 219.391 106.309 219.334 106.831C218.648 107.829 216.984 108.237 215.853 108.443C215.266 108.55 214.683 108.633 214.086 108.66C214.115 110.674 214.162 112.661 214.363 114.668L212.891 115.759C217.928 117.924 225.152 117.942 230.349 116.311C231.256 115.439 232.177 114.589 232.751 113.456Z" fill="#FECFAA"/>
<path d="M213.742 94.6113C211.917 94.8312 210.505 96.768 208.649 97.225C206.786 97.684 204.92 96.6051 203.12 96.8434C202.569 96.9164 202.531 97.0293 202.245 97.4539C202.279 98.0625 202.299 98.1121 202.667 98.598C205.402 99.6039 207.973 99.5887 210.681 98.5285C211.757 98.1074 213.699 97.2883 214.043 96.0469C214.221 95.4035 214.009 95.1676 213.742 94.6113Z" fill="#1B1813"/>
<path d="M204.636 85.0962C204.094 85.0927 203.512 85.0778 202.991 85.2434C202.052 85.5427 201.198 86.2204 200.795 87.129C200.37 88.0856 200.411 89.2302 200.802 90.1888C201.45 91.7759 202.541 92.4501 204.062 93.0763C204.559 92.9899 204.792 92.8927 205.189 92.5813C205.589 91.0993 202.648 90.3786 202.378 88.8848C202.098 87.3313 204.133 87.3165 204.886 86.4294C204.987 85.8243 204.862 85.6528 204.636 85.0962Z" fill="#1B1813"/>
<path d="M214.894 72.3096C214.089 72.2514 213.064 72.0998 212.304 72.4178C211.827 72.617 211.701 72.8002 211.518 73.2639C211.582 73.485 211.581 73.7361 211.709 73.9272C211.958 74.299 214.857 74.4213 215.449 74.5522C216.093 74.6944 216.675 75.0307 217.241 75.3545L217.473 75.4897C218.132 75.9799 218.791 76.6115 219.67 76.4846C220.025 76.433 220.001 76.3463 220.199 76.0877C220.193 75.601 220.103 75.3002 219.832 74.9026C218.767 73.3365 216.661 72.6776 214.894 72.3096Z" fill="#1B1813"/>
<path d="M200.86 70.5193C199.95 70.4779 199.096 70.574 198.237 70.8998C197.397 71.2185 196.366 71.8654 196.029 72.7467C195.865 73.174 195.915 73.2447 196.082 73.6404L196.555 73.8193C197.302 73.7959 197.777 73.4592 198.404 73.0822C200.428 72.1799 201.801 73.6748 203.374 73.0869C203.632 72.606 203.638 72.6111 203.531 72.0775C202.864 71.1697 201.906 70.8314 200.86 70.5193Z" fill="#1B1813"/>
<path d="M209.099 164.46C207.487 166.096 205.51 168.069 204.384 170.076C205.115 170.651 205.942 171.289 206.015 172.294C206.094 173.391 205.024 174.297 204.325 174.999C210.189 179.62 210.017 178.191 216.678 179.79L218.251 180.212C219.715 178.325 221.209 176.401 222.883 174.696L222.993 174.42C222.713 173.885 222.361 173.768 221.851 173.458C217.214 170.813 213.004 168.153 209.099 164.46Z" fill="#4A69E8"/>
<path d="M221.851 173.458C220.119 175.491 218.546 177.926 216.678 179.791L218.251 180.212C219.715 178.325 221.209 176.401 222.883 174.696L222.993 174.42C222.713 173.885 222.361 173.768 221.851 173.458Z" fill="white"/>
<path d="M222.883 174.696C221.208 176.401 219.714 178.325 218.251 180.212C221.812 181.294 229.058 183.967 230.9 187.417C231.305 188.177 231.433 189.096 231.171 189.926C230.94 190.653 230.44 191.181 229.912 191.708C230.646 192.217 231.381 192.708 232.053 193.3L237.005 187.243C235.303 186.315 233.726 185.194 232.199 184.003C230.223 182.46 223.159 176.925 222.883 174.696Z" fill="#4A69E8"/>
<path d="M200.031 152.379C198.574 154.052 197.131 155.727 195.569 157.304C198.098 161.104 201.253 164.471 203.808 168.242C205.204 166.592 206.627 164.958 207.976 163.269C204.897 159.885 202.302 156.345 200.031 152.379Z" fill="#4A69E8"/>
<path d="M195.569 157.304C194.147 155.225 187.48 145.188 185.66 144.395C185.215 144.633 185.17 144.624 184.969 145.078C185.05 146.046 194.754 158.905 195.974 160.436C198.527 163.64 201.371 167.321 204.383 170.076C205.51 168.069 207.487 166.096 209.099 164.46L207.975 163.269C206.627 164.958 205.204 166.592 203.808 168.242C201.253 164.471 198.098 161.104 195.569 157.304Z" fill="white"/>
<path d="M256.007 161.88L254.987 161.915C254.662 162.274 254.712 162.393 254.638 162.855C255.798 163.666 264.057 168.021 265.077 168.019C265.639 168.019 265.726 167.921 266.121 167.568L266.091 167.15C264.491 165.47 258.706 163.596 256.21 162.04L256.007 161.88Z" fill="white"/>
<path d="M212.096 130.812C211.358 130.871 210.517 130.985 210.055 131.647C208.242 134.241 216.056 141.887 216.594 144.244C216.453 144.727 216.421 144.815 216.062 145.161C212.839 144.928 210.143 136.338 207.735 135.208C207.058 134.891 206.528 134.907 205.842 135.173C205.5 135.473 205.324 135.716 205.221 136.171C204.47 139.5 210.03 145.163 211.692 147.916C212.082 148.562 212.288 149.103 212.106 149.857C211.862 150.051 211.825 150.176 211.488 150.141C209.347 149.915 206.591 144.092 205.262 142.373C204.717 141.667 204.244 141.175 203.315 141.06C202.758 141.212 202.581 141.335 202.217 141.782C201.173 145.13 208.05 150.395 208.849 153.817C208.962 154.301 208.9 154.487 208.64 154.893C208.299 155.001 207.936 155.158 207.59 154.965C205.585 153.845 203.701 148.015 201.384 147.304L200.999 147.599L201.128 147.322C200.728 147.572 200.591 147.593 200.512 148.093C200.211 149.992 204.642 155.862 205.915 157.584C211.59 164.838 217.048 168.331 224.844 172.798C228.563 168.48 233.801 160.378 236.491 155.253C233.371 152.441 230.883 149.667 229.244 145.722C228.672 144.348 228.336 142.728 227.56 141.458C226.765 140.157 219.001 133.169 217.613 132.522C217.333 132.392 217.204 132.511 216.929 132.6L216.791 133.035C217.195 135.146 219.53 137.494 220.847 139.166C221.358 139.814 221.942 140.328 221.84 141.194C221.532 141.573 221.373 141.703 220.907 141.854C218.511 141.465 214.652 132.677 212.096 130.812Z" fill="#FECFAA"/>
<path d="M203.079 176.713C201.837 177.118 192.316 188.306 190.419 190.421C194.507 192.863 196.78 196.3 199.91 199.734C203.883 204.094 206.974 206.254 211.944 209.38C213.191 210.165 214.449 211.17 215.76 211.829C216.048 211.974 216.356 212.014 216.653 211.884C217.199 211.645 217.802 211.161 217.949 210.556C218.391 208.738 214.197 206.914 213.354 205.432C213.341 204.852 213.395 204.87 213.779 204.423C215.445 203.809 218.779 207.522 220.48 208.19C221.02 208.401 221.664 208.511 222.183 208.176C222.587 207.916 222.924 207.429 222.995 206.951C223.32 204.772 219.026 203.531 218.065 201.891C218.037 201.36 218.022 201.364 218.34 200.942C218.971 200.686 219.054 200.708 219.728 200.84C221.647 202.181 223.956 204.177 226.399 204.252C226.861 204.267 227.444 204.159 227.764 203.803C228.079 203.453 228.228 202.984 228.172 202.517C227.99 201.033 224.395 199.241 223.214 198.333C222.495 197.779 222.001 197.378 221.873 196.449C222.12 196.004 222.147 195.971 222.601 195.742C224.931 196.084 227.087 198.925 229.326 199.889C230.097 200.221 230.972 200.386 231.756 199.995C232.203 199.772 232.545 199.417 232.658 198.922C232.817 198.222 232.394 197.44 232.063 196.852C229.57 192.41 222.547 190.876 221.25 188.477C221.092 188.185 221.179 188.12 221.257 187.825C223.404 186.462 226.249 190.425 228.635 189.938C229.049 189.575 229.094 189.51 229.262 188.986C229.011 187.643 227.547 186.819 226.479 186.145C223.167 184.053 219.679 182.49 215.803 181.806C213.658 181.427 211.424 181.2 209.362 180.475C206.981 179.638 205.058 178.246 203.079 176.713Z" fill="#FECFAA"/>
<path d="M182.581 250.933C180.299 253.485 178.146 256.173 175.949 258.799C174.953 259.99 173.505 261.369 172.767 262.712C172.265 263.605 171.553 263.975 170.704 264.5C167.947 279.834 165.412 295.275 162.333 310.545C171.449 312.264 180.592 313.845 189.756 315.286C194.086 315.991 198.538 316.506 202.819 317.429C203.377 315.925 203.541 314.041 203.835 312.456L205.731 302.282L212.853 264.237C207 264.651 202.003 265.645 196.799 268.477C199.204 274.543 200.945 280.105 199.65 286.701C199.003 290 197.409 292.931 194.538 294.789C192.347 296.223 189.659 296.686 187.114 296.068C184.897 295.514 182.995 294.094 181.833 292.126C180.314 289.516 180.305 286.107 181.131 283.262C182.946 277.02 188.583 270.79 194.213 267.703C190.565 261.948 187.16 256.032 182.581 250.933Z" fill="#99DCFE"/>
<path d="M194.993 269.51C191.001 271.916 187.639 275.437 185.17 279.374C183.387 282.217 181.967 285.718 182.812 289.121C183.317 291.156 184.553 292.442 186.273 293.519C186.343 293.549 186.412 293.58 186.482 293.607C188.41 294.344 190.396 294.472 192.31 293.622C194.582 292.613 196.188 290.767 197.061 288.457C199.389 282.3 197.539 275.266 194.993 269.51Z" fill="#99DCFE"/>
<path d="M255.757 307.438C259.203 305.219 262.156 303.555 264.732 300.263C268.257 295.757 270.494 289.822 269.728 284.052C269.237 280.357 267.493 276.907 264.486 274.637C261.345 272.265 257.381 271.626 253.546 272.171C249.486 272.749 244.464 274.656 241.594 277.695C240.491 278.862 239.763 280.172 238.803 281.423L238.636 281.638C242.31 287.395 246.051 293.11 249.858 298.78C251.776 301.647 253.644 304.717 255.757 307.438Z" fill="#99DCFE"/>
<path d="M254.34 242.385C247.859 251.825 237.396 256.913 226.429 258.961C228.904 265.4 232.254 271.364 235.864 277.211L237.426 279.711C241.159 274.472 246.295 271.304 252.666 270.248C257.15 269.505 261.704 270.158 265.457 272.842C268.859 275.275 270.932 278.999 271.586 283.099C272.581 289.342 270.575 295.769 266.867 300.799C264.32 304.253 261.324 306.646 257.608 308.609L256.855 308.996L260.396 314.247C269.562 310.047 278.18 304.673 286.54 299.068C290.035 296.726 293.431 294.183 296.992 291.949C295.528 290.035 294.301 287.853 292.991 285.821L284.905 273.297L275.764 259.424C273.641 256.198 271.42 252.946 269.59 249.544C268.735 247.955 268.21 246.452 267.812 244.695C263.255 244.191 259 243.505 254.715 241.812C254.592 242.004 254.469 242.196 254.34 242.385ZM264.486 274.637C261.345 272.265 257.381 271.627 253.547 272.172C249.486 272.749 244.464 274.656 241.594 277.695C240.491 278.863 239.763 280.172 238.803 281.424L238.637 281.638C242.311 287.395 246.051 293.11 249.858 298.78C251.656 301.469 253.41 304.335 255.363 306.925L255.757 307.438C259.203 305.219 262.156 303.555 264.732 300.263C268.258 295.757 270.494 289.822 269.729 284.053C269.238 280.358 267.493 276.907 264.486 274.637Z" fill="#99DCFE"/>
<path d="M296.421 295.019C285.4 302.879 273.804 309.901 261.733 316.025C263.529 318.927 265.753 321.677 267.802 324.411C269.427 324.093 272.011 322.438 273.589 321.65C283.419 316.744 294.11 311.782 302.418 304.477C300.459 301.3 298.459 298.147 296.421 295.019Z" fill="#99DCFE"/>
<path d="M163.719 312.957L163.217 312.891C162.38 313.526 161.02 321.245 160.644 322.886C165.028 324.46 169.683 325.377 174.245 326.266C182.191 327.887 190.224 329.049 198.305 329.746L198.692 329.625C199.741 327.74 200.691 321.722 201.198 319.372C196.783 318.532 192.282 317.949 187.844 317.22C179.782 315.916 171.739 314.495 163.719 312.957Z" fill="#99DCFE"/>
<path d="M196.136 355.477L132.064 355.48C132.049 356.152 132.053 356.823 132.127 357.491C132.28 358.884 132.922 359.638 133.997 360.469C135.971 361.526 137.805 361.747 140.008 361.788C151.131 361.998 162.284 361.81 173.409 361.809L184.343 361.823C186.835 361.825 189.403 361.955 191.874 361.584C193.062 361.405 194.321 360.869 195.169 359.992C196.406 358.713 196.207 357.105 196.136 355.477Z" fill="white"/>
<path d="M316.649 327.896C309.176 333.067 301.98 338.69 294.737 344.174C291.265 346.802 287.788 349.727 284.073 351.993C282.213 353.127 280.12 354.207 277.982 354.688C273.653 355.661 268.933 355.083 264.524 355.191C262.807 355.232 261.16 355.534 259.46 355.715C258.698 355.796 258.223 355.757 257.74 356.36C257.661 356.734 257.654 356.959 257.748 357.337C258.113 358.81 259.309 359.942 260.512 360.745C261.158 361.021 261.809 361.233 262.493 361.396C264.482 361.87 266.636 361.789 268.668 361.784C275.71 361.768 279.518 361.127 285.631 357.269C289.432 354.87 318.33 333.29 318.578 331.276C318.726 330.068 317.356 328.756 316.649 327.896Z" fill="white"/>
<path d="M267.261 331.33C266.449 331.258 265.391 331.052 264.62 331.36C264.14 331.553 263.977 331.862 263.762 332.299C263.85 332.841 263.939 333.097 264.364 333.469C265.249 334.243 266.721 333.984 267.793 333.91C269.819 333.727 270.833 333.258 272.35 331.948C270.657 331.715 268.96 331.509 267.261 331.33Z" fill="white"/>
<path d="M156.172 330.448C155.793 330.444 155.344 330.462 154.998 330.631C154.55 330.85 154.533 331.025 154.455 331.462C155.079 333.367 157.774 334.747 159.405 335.785C159.829 335.772 160.326 335.66 160.654 335.375C160.866 335.191 160.81 335.039 160.833 334.78C160.038 333.02 157.793 331.436 156.172 330.448Z" fill="white"/>
<path d="M276.295 336.34C274.72 336.273 272.253 336.201 271.034 337.31C270.795 337.964 270.877 338.066 271.054 338.715C272.557 338.641 275.285 338.764 276.415 337.764C276.595 337.127 276.484 336.959 276.295 336.34Z" fill="white"/>
<path d="M161.692 337.647L159.704 338.308C160.891 339.66 162.007 341.027 163.071 342.477C163.269 342.627 163.459 342.676 163.691 342.756C164.136 342.538 164.171 342.51 164.419 342.082C164.393 340.593 162.579 338.825 161.692 337.647Z" fill="white"/>
<path d="M155.33 340.051C154.693 340.277 154.074 340.557 153.452 340.82C154.623 341.927 155.821 342.968 157.073 343.981C157.396 344.127 157.585 344.139 157.932 344.165C158.357 343.875 158.375 343.841 158.56 343.36C158.272 342.056 156.351 340.872 155.33 340.051Z" fill="white"/>
<path d="M182.732 191.8C179.6 188.747 176.404 185.846 173.509 182.555C168.526 187.928 163.934 193.723 159.245 199.356L140.957 220.964C138.205 224.183 135.529 227.48 132.715 230.645C135.161 231.331 140.541 236.842 143.074 238.639L144.211 239.58C148.304 243.05 152.655 246.873 157.007 249.988L158.21 250.946C161.836 253.915 165.423 257.096 169.274 259.769L170.675 260.899L172.767 262.712C173.506 261.369 174.954 259.99 175.95 258.799C178.147 256.173 180.3 253.486 182.581 250.933C182.986 250.375 183.464 249.852 183.905 249.32L214.207 213.429C208.818 210.249 203.391 206.345 198.946 201.941L197.975 200.845C194.781 197.066 193.517 194.138 188.731 192.127C187.847 192.905 186.928 193.55 185.948 194.199C185.173 193.759 184.471 193.235 183.752 192.712L182.732 191.8Z" fill="#4A69E8"/>
<path d="M197.974 200.845C193.308 206.238 188.624 211.743 184.23 217.359C183.807 217.818 183.39 218.285 182.945 218.723C181.162 221.263 179.031 223.64 177.057 226.038L166.742 238.501C166.36 238.962 165.987 239.426 165.561 239.847C163.568 242.73 159.494 247.437 157.006 249.987L158.209 250.946C160.619 248.654 163.698 244.486 165.946 241.812L167.112 240.549C168.906 238.028 171.005 235.66 172.973 233.271L183.375 220.712C183.652 220.274 184.147 219.818 184.493 219.422C186.247 217.074 188.259 214.846 190.119 212.576C193.036 209.015 195.898 205.391 198.945 201.94L197.974 200.845Z" fill="white"/>
<path d="M165.946 241.812C163.699 244.486 160.619 248.655 158.209 250.946C161.836 253.915 165.423 257.096 169.274 259.769C169.084 257.384 168.51 254.978 168.054 252.629L165.946 241.812Z" fill="#4A69E8"/>
<path d="M182.732 191.799L156.735 222.543L147.576 233.326C146.085 235.081 144.471 236.814 143.074 238.638L144.211 239.58C146.478 237.183 148.548 234.513 150.684 231.992C154.301 227.724 157.956 223.481 161.519 219.167C161.787 218.734 162.253 218.286 162.585 217.89L178.873 198.424L180.069 197.08C181.33 195.659 182.651 194.262 183.751 192.711L182.732 191.799Z" fill="white"/>
<path d="M346.562 196.766C346.205 196.841 345.955 196.942 345.637 197.119C345.225 199.136 345.487 201.601 345.49 203.677L345.515 216.819L322.692 216.809L322.713 203.061C322.718 201.464 323.025 199.202 322.691 197.699C322.583 197.213 322.316 197.093 321.906 196.891L321.588 197.023C320.961 198.403 321.322 213.983 321.328 216.811L298.904 216.812C298.982 214.254 299.381 198.115 298.571 196.882C298.14 196.898 298.234 196.806 297.98 197.094C297.711 197.4 297.591 197.662 297.555 198.062C297.357 200.212 297.523 202.51 297.521 204.677C297.52 208.719 297.456 212.776 297.589 216.816L283.308 216.807C281.691 216.807 279.492 216.532 277.938 216.852C277.399 216.962 277.318 217.13 276.998 217.539L277.029 217.779C277.412 218.138 277.848 218.231 278.357 218.297C280.624 218.59 283.161 218.346 285.461 218.331L297.526 218.358C297.529 226.05 297.351 233.783 297.595 241.469C295.146 241.465 281.301 241.066 280.269 241.757C280.21 242.213 280.202 242.204 280.454 242.587C281.893 243.384 295.123 242.957 297.593 242.963C297.39 245.565 297.524 248.271 297.523 250.885L297.524 265.721C295.32 265.672 292.648 265.328 290.562 266.162L290.495 266.607C292.049 267.644 295.685 267.213 297.537 267.192C297.496 269.468 297.547 271.747 297.529 274.023C297.519 275.361 297.376 276.81 297.505 278.138C297.557 278.679 297.789 279.098 298.188 279.462C298.399 279.464 298.441 279.516 298.578 279.347C299.412 278.317 298.966 269.115 298.959 267.182L307.731 267.19L321.308 267.188L321.303 281.783C321.302 283.755 321.059 286.037 321.355 287.963C321.416 288.357 321.482 288.504 321.741 288.794C322.117 288.799 322.059 288.879 322.289 288.629C322.588 288.305 322.689 287.98 322.729 287.554C322.92 285.479 322.716 283.177 322.713 281.085L322.69 267.189L345.507 267.19L345.506 279.883C345.498 282.015 345.342 284.204 345.469 286.327C345.515 287.096 345.557 288.278 346.166 288.828L346.448 288.663C347.399 286.409 346.889 270.774 346.888 267.187C353.807 267.191 360.776 267.37 367.689 267.129C368.189 266.835 368.183 266.816 368.396 266.273C367.934 265.855 367.49 265.779 366.875 265.71C364.776 265.473 362.53 265.693 360.414 265.695L346.883 265.667L346.892 242.951L347.902 242.952L361.612 242.962C363.436 242.962 365.588 243.186 367.38 242.923C367.826 242.857 367.902 242.759 368.209 242.453C368.173 242.158 368.225 242.049 367.983 241.835C367.665 241.552 367.338 241.456 366.923 241.434C364.843 241.323 362.702 241.454 360.614 241.453L346.891 241.438L346.888 218.347L360.157 218.35C362.436 218.353 364.844 218.521 367.108 218.295C367.693 218.236 368.054 218.143 368.424 217.683C368.378 217.433 368.404 217.385 368.224 217.185C368.208 217.168 367.819 216.85 367.78 216.834C367.222 216.607 349.138 216.806 346.892 216.806C346.897 213.805 347.31 198.418 346.562 196.766ZM322.685 242.956C330.285 242.958 337.901 242.867 345.499 242.967L345.506 265.73C337.906 265.562 330.301 265.762 322.7 265.654C322.701 258.102 322.873 250.504 322.685 242.956ZM321.297 265.695C313.867 265.652 306.42 265.789 298.993 265.652V242.959L321.314 242.953L321.297 265.695ZM321.3 218.345L321.306 241.457C318.113 241.461 300.623 241.884 298.945 241.264L298.968 218.344L321.3 218.345ZM345.51 218.345L345.512 241.438L322.707 241.457L322.69 218.326L345.51 218.345Z" fill="#99DCFE"/>
<path d="M258.447 193.587C250.633 194.211 243.706 190.753 237.005 187.243L232.053 193.3C233.386 194.822 234.845 196.706 234.761 198.846C234.723 199.839 234.264 200.68 233.507 201.312C232.618 202.053 231.3 201.968 230.49 202.656C228.87 204.031 230.422 206.307 225.896 206.453C225.799 206.456 225.702 206.462 225.605 206.464C225.547 206.466 225.488 206.465 225.43 206.465C224.999 207.809 224.518 209.533 223.142 210.208C222.29 210.626 221.215 210.195 220.484 210.549C218.684 211.422 218.748 215.388 214.864 213.77C214.633 213.674 214.423 213.553 214.207 213.429L183.905 249.32C188.324 254.891 192.314 260.46 195.828 266.649C201.336 263.433 207.063 262.659 213.299 262.182C213.898 258.679 216.632 242.049 217.726 239.872C216.675 236.385 212.406 225.426 213.304 222.509L213.836 222.394C214.496 223.008 214.832 223.64 215.152 224.481C215.704 225.933 216.025 227.494 216.464 228.986C217.165 231.292 217.888 233.591 218.633 235.883C220.918 242.951 223.442 249.946 225.711 257.015C237.265 255.121 245.653 250.225 252.929 241.053C246.723 237.193 240.422 233.487 237.521 226.39C236.154 223.046 235.586 219.109 237.091 215.708C238.157 213.297 240.235 211.162 242.733 210.267C245.221 209.376 248.079 209.646 250.423 210.829C254.381 212.829 256.87 217.009 258.145 221.115C260.231 227.835 259.108 234.019 255.865 240.138C259.573 241.456 263.339 242.105 267.215 242.679C266.106 238.455 265.614 233.973 264.927 229.658C263.945 223.098 262.766 216.569 261.392 210.08C260.852 207.526 257.861 195.021 258.015 193.899L258.447 193.587Z" fill="#99DCFE"/>
<path d="M99.0135 39.1235C98.6877 39.2896 98.5572 39.3802 98.3627 39.7063C97.6318 40.9337 97.3033 43.0646 96.9205 44.4501L94.1174 54.5173C93.5385 56.5716 93.0408 58.7665 92.185 60.7228C90.2768 59.647 73.8596 50.0931 73.2639 50.0329L72.994 50.302C72.8108 51.513 81.9478 67.0493 83.2252 69.2747C80.4908 70.2505 63.0928 74.5747 62.4842 75.57C62.7424 75.9388 63.0701 76.0599 63.4842 76.2005C64.8186 76.6528 66.2807 76.8767 67.6486 77.2563C72.835 78.6962 78.24 79.9825 83.2807 81.8536C82.0322 84.1899 73.215 99.6798 73.0522 100.506L73.2588 100.805C73.5147 100.818 73.6959 100.799 73.9268 100.68C80.1873 97.4583 86.1127 93.704 92.4502 90.595C94.0822 95.3149 95.2803 100.264 96.6522 105.073C97.2303 107.099 97.6729 109.295 98.5443 111.217L99.0119 111.061C99.4006 110.654 99.5631 110.252 99.7467 109.722C100.573 107.334 101.056 104.754 101.733 102.315C102.816 98.4095 104.043 94.5306 105.256 90.6638C107.719 91.9048 123.051 100.948 123.925 100.989C124.183 101.001 124.128 100.965 124.301 100.755C124.103 98.5243 115.929 85.086 114.315 81.8306C119.013 80.0528 124.151 78.8591 129.017 77.5911C130.734 77.1435 132.64 76.9317 134.284 76.2837C134.756 76.0978 134.994 75.9993 135.19 75.5149C133.992 74.2958 117.145 70.2688 114.165 69.3681C115.307 67.2767 124.204 51.5345 124.319 50.6638C124.355 50.3896 124.165 50.2614 124.012 50.0548C123.865 50.0552 123.711 50.0106 123.572 50.0556C122.314 50.4622 120.845 51.7286 119.649 52.4138C114.952 55.1024 110.234 58.0649 105.391 60.456L105.181 60.5583C104.028 56.5013 102.852 52.4481 101.754 48.3759C100.954 45.4044 100.404 41.8618 99.0135 39.1235Z" fill="#4A69E8" fill-opacity="0.4"/>
<path d="M132.715 230.645C132.328 231.073 131.907 231.505 131.729 232.066C130.964 234.486 130.596 237.192 130.064 239.686L126.695 255.509L122.279 276.392C121.483 280.183 120.491 284.039 119.97 287.871C120.223 288.38 120.209 288.35 120.744 288.551C121.424 288.497 121.939 288.34 122.564 288.063C123.607 287.599 124.579 286.961 125.599 286.446C128.292 285.086 131.079 283.855 133.792 282.523C146.065 276.5 158.257 270.14 170.705 264.5C171.554 263.974 172.266 263.605 172.767 262.711L170.675 260.899L169.274 259.769C165.423 257.095 161.836 253.915 158.21 250.945L157.007 249.987C152.655 246.872 148.304 243.049 144.211 239.58L143.074 238.638C140.541 236.842 135.161 231.331 132.715 230.645Z" fill="#1B1813"/>
<path d="M133.908 233.536L133.481 233.723C132.611 237.518 131.932 241.364 131.137 245.176L126.436 267.621C130.487 271.108 134.671 274.465 138.777 277.89C143.844 275.237 149.08 272.833 154.212 270.302C158.947 268.017 165.3 265.372 169.655 262.643C157.805 252.865 145.676 243.414 133.908 233.536Z" fill="white"/>
<path d="M356.719 98.3037C354.895 99.0686 353.59 109.354 351.217 111.856C348.069 115.176 338.242 115.83 336.973 117.562C338.051 119.015 344.494 120.402 346.522 121.046C347.88 121.476 349.478 122.02 350.61 122.911C354.003 125.578 354.382 133.409 356.379 137.278C358.063 136.348 359.46 125.989 361.57 123.56C364.517 120.165 373.431 120.028 375.644 117.997C375.889 117.772 375.807 117.819 375.799 117.445C374.494 116.072 367.665 114.683 365.417 113.873C364.176 113.425 362.759 112.809 361.847 111.838C359.302 109.131 358.462 102.05 356.719 98.3037Z" fill="#4A69E8" fill-opacity="0.4"/>
<path d="M246.648 211.754C246.047 211.716 245.484 211.736 244.888 211.837C242.865 212.181 240.949 213.325 239.797 215.033C238.248 217.327 237.905 219.919 238.456 222.599C239.816 229.218 244.774 233.392 250.106 236.963L254.047 239.258C255.157 237.107 256.198 234.914 256.714 232.535C257.844 227.314 256.91 221.442 253.979 216.948C252.2 214.221 249.875 212.439 246.648 211.754Z" fill="#99DCFE"/>
<path d="M328.45 146.208C327.185 147.537 326.18 149.233 325.11 150.727L319.003 159.182C322.026 163.474 325.194 167.77 328.504 171.845C329.839 170.334 331.016 168.606 332.244 167.002C334.211 164.435 336.221 161.891 338.099 159.257C334.994 154.861 331.773 150.44 328.45 146.208Z" fill="#36C99F"/>
<path d="M89.6095 319.139C86.4431 322.234 83.5317 325.807 80.5794 329.118C81.7259 330.438 88.5942 338.377 89.404 338.679C92.8102 335.851 95.886 332.366 98.9985 329.211C95.8341 325.886 92.7044 322.529 89.6095 319.139Z" fill="#36C99F"/>
<path d="M63.8709 135.083C63.1236 136.097 62.3033 141.219 61.3022 143.145C59.7588 146.115 56.1756 146.757 53.2572 147.698C55.1639 148.357 57.2354 148.743 59.0139 149.722C62.1065 151.426 62.6764 156.491 63.5943 159.655L63.7627 159.685C64.419 158.929 65.4225 153.41 66.1963 151.836C67.5654 149.052 71.5857 148.486 74.2627 147.636C72.333 147.095 70.1229 146.626 68.3826 145.592C65.1658 143.68 64.701 138.449 63.8709 135.083Z" fill="#36C99F"/>
<path d="M106.648 286.158C101.921 286.072 62.5623 285.859 61.8752 286.395C61.442 286.734 61.4213 286.888 61.344 287.395C61.5545 287.906 61.7111 288.054 62.174 288.35C67.6127 288.756 74.3533 288.41 79.9279 288.407L96.8893 288.383C99.2924 288.38 101.707 288.495 104.108 288.423C104.903 288.4 105.841 288.392 106.592 288.133C107.107 287.956 107.259 287.817 107.468 287.329C107.31 286.719 107.103 286.556 106.648 286.158Z" fill="#4A69E8"/>
<path d="M93.2873 254.905C91.1092 254.768 79.7221 254.527 78.126 254.902C77.6311 255.018 77.5404 255.219 77.2615 255.604C77.2424 256.191 77.465 256.465 77.7826 256.924C80.1127 257.285 90.0853 257.268 92.458 256.971C93.1537 256.884 93.3115 256.713 93.7061 256.186C93.7014 255.556 93.6189 255.452 93.2873 254.905Z" fill="#4A69E8"/>
<path d="M50.9769 254.902C48.1617 254.695 45.2469 254.838 42.4203 254.833C40.4644 254.829 38.2355 254.605 36.3125 254.925C35.7019 255.026 35.5289 255.204 35.1996 255.678C35.2863 256.27 35.4859 256.439 35.8484 256.902C37.9934 257.232 48.0805 257.283 50.191 256.939C50.8379 256.834 51.0074 256.631 51.3566 256.132C51.4055 255.558 51.266 255.37 50.9769 254.902Z" fill="#4A69E8"/>
<path d="M108.986 223.448C106.633 223.314 94.7338 223.032 93.2858 223.558C92.8721 223.708 92.8608 223.834 92.6846 224.208C92.8311 224.823 92.8932 224.926 93.3225 225.393C95.883 225.617 98.5416 225.505 101.114 225.523C103.318 225.538 105.699 225.725 107.883 225.463C108.536 225.385 108.838 225.24 109.262 224.712C109.371 224.186 109.197 223.918 108.986 223.448Z" fill="#4A69E8"/>
<path d="M45.9252 223.471C42.867 223.29 39.7783 223.364 36.7154 223.36C34.7639 223.358 32.6022 223.183 30.6682 223.464C30.1088 223.546 29.9791 223.66 29.667 224.117C29.6709 224.685 29.8014 224.92 30.0721 225.398C30.4857 225.427 30.9002 225.449 31.315 225.464C32.9756 225.513 44.826 225.802 45.585 225.332C45.7533 225.227 45.8752 225.062 46.0205 224.928C46.1799 224.344 46.0924 224.026 45.9252 223.471Z" fill="#4A69E8"/>
<path d="M66.9265 223.458C64.5222 223.268 53.8296 223.095 51.7749 223.439C51.2432 223.528 51.1706 223.66 50.8503 224.053C50.7643 224.623 50.9394 224.904 51.1987 225.387C51.7175 225.435 52.2347 225.471 52.7554 225.478C55.387 225.508 64.2784 225.899 66.3558 225.387C66.6601 225.312 66.8534 225.147 67.071 224.935C67.2284 224.307 67.1018 224.07 66.9265 223.458Z" fill="#4A69E8"/>
<path d="M87.7431 223.462C85.6477 223.321 73.9661 223.067 72.7665 223.476C72.3169 223.629 72.2583 223.844 72.0501 224.232C72.1044 224.805 72.2833 224.975 72.6466 225.39C76.1435 225.731 82.5513 225.714 86.0935 225.502C87.0001 225.448 87.4341 225.455 88.0435 224.761C88.0763 224.137 88.0259 224.025 87.7431 223.462Z" fill="#4A69E8"/>
<path d="M71.701 254.915C68.9987 254.745 66.2319 254.829 63.5225 254.818C61.6123 254.81 59.5362 254.65 57.6448 254.9C57.0244 254.982 56.8518 255.082 56.4592 255.56C56.3736 256.106 56.6412 256.458 56.8994 256.913C59.3178 257.276 68.0393 257.264 70.5604 256.986C71.2401 256.911 71.4448 256.787 71.8576 256.249C71.9487 255.699 71.8674 255.43 71.701 254.915Z" fill="#4A69E8"/>
<path d="M113.595 254.894C109.838 254.7 104.12 254.571 100.416 254.838C99.5569 254.901 99.107 254.93 98.5347 255.596C98.5757 256.242 98.7581 256.41 99.1163 256.934C101.362 257.261 110.076 257.239 112.235 257C113.05 256.91 113.471 256.838 113.994 256.188C113.999 255.546 113.905 255.431 113.595 254.894Z" fill="#4A69E8"/>
<path d="M124.773 223.474C122.125 223.256 119.074 223.151 116.42 223.337C115.542 223.399 114.871 223.424 114.28 224.119C114.28 224.714 114.367 224.841 114.66 225.369C117.125 225.592 119.778 225.639 122.254 225.576C123.2 225.553 124.244 225.523 124.921 224.791C125.061 224.233 124.958 223.995 124.773 223.474Z" fill="#4A69E8"/>
<circle cx="1.75781" cy="1.75781" r="1.75781" transform="matrix(-1 0 0 1 215.251 80.4688)" fill="#1B1813"/>
<circle cx="1.75781" cy="1.75781" r="1.75781" transform="matrix(-1 0 0 1 200.798 78.9062)" fill="#1B1813"/>
</svg>
