<svg width="400" height="400" viewBox="0 0 400 400" fill="none" xmlns="http://www.w3.org/2000/svg">
<path d="M336.545 95.8887C336.938 96.0475 336.909 96.0859 337.143 96.4097C337.418 98.6002 335.625 103.979 335.065 106.382L328.65 133.07C326.747 141.209 324.912 149.364 323.144 157.533C322.498 160.501 319.034 177.814 318.525 178.648C318.307 179.005 318.231 179.024 317.853 179.124C316.795 177.766 315.911 176.229 314.935 174.808C313.287 172.411 311.509 170.105 309.871 167.701C307.556 164.302 305.406 160.814 302.74 157.669C294.537 165.088 286.856 173.036 278.973 180.785C266.963 192.683 254.845 204.473 242.621 216.153C236.927 221.647 231.414 227.413 225.468 232.633L226.977 229.973C229.957 225.335 232.757 220.583 235.69 215.916L260.736 176.061L270.935 159.935C274.115 155.008 277.747 149.632 280.404 144.437C271.752 141.88 263.002 139.57 254.482 136.588C256.272 135.472 258.233 134.604 260.097 133.619C265.129 130.961 270.196 128.371 275.296 125.848C290.893 118.037 306.719 110.687 322.35 102.943C327.08 100.6 331.888 98.3751 336.545 95.8887Z" fill="#A2AFE1"/>
<path d="M59.101 54.6812C61.359 55.4423 68.0663 61.6892 70.2389 63.5312C72.2451 62.4336 80.712 57.8224 82.4603 58.3173C82.9292 58.4501 83.1452 58.6774 83.3142 59.121C83.9899 60.8974 79.1278 69.8925 78.1831 72.0223C79.7189 73.8442 87.4582 81.1867 87.6585 82.6477C87.7226 83.1151 87.6719 83.4677 87.3193 83.811C85.8164 85.2751 77.0739 83.9228 74.6725 83.6962L72.9643 83.6455C71.8402 85.9397 67.5154 93.7829 65.3466 94.6616C64.856 94.8607 64.2947 94.8916 63.8315 94.6009C62.1427 93.5402 61.0736 83.9274 60.6116 81.5984C58.1319 80.8815 48.6317 79.5335 47.5389 77.9565C47.3596 77.6979 47.2383 77.4918 47.3008 77.1774C47.4119 76.6226 47.8148 76.2209 48.2364 75.8718C49.3574 74.9438 50.7684 74.2402 52.0088 73.4745C54.4641 71.9368 56.9403 70.432 59.436 68.9611C59.1579 66.1098 56.3245 57.6418 57.732 55.3988C58.0258 54.9304 58.605 54.8234 59.101 54.6812Z" fill="#000063"/>
<path d="M58.7399 56.2388C60.7839 56.7839 68.0971 63.6422 70.1197 65.3371C73.5185 63.6853 76.8117 61.4117 80.3177 60.0415C80.8694 59.8258 81.3098 59.6797 81.8569 59.934C82.1461 60.9616 77.1966 70.53 76.4458 72.4171C79.3795 75.4104 84.4213 79.9058 86.55 83.3233C82.9023 83.2081 79.2021 82.693 75.5503 82.4461C74.4338 82.355 73.3186 82.2542 72.2041 82.1443C71.0789 83.993 66.5365 92.2917 65.1698 93.0605C64.8806 93.2234 64.7909 93.1097 64.5025 93.017C63.4414 91.6014 62.3547 82.8872 61.9247 80.4922C58.577 79.451 55.0671 78.9145 51.6481 78.161C50.93 78.0026 49.8861 77.8595 49.4683 77.2021C49.8903 75.9873 59.2287 70.7719 60.9804 69.6532C60.4279 65.1596 59.0074 60.7677 58.7399 56.2388Z" fill="#FFADC1"/>
<path d="M370.48 168.001C371.143 168.001 371.916 168.011 372.444 168.471C373.629 169.505 372.835 180.342 372.798 182.416C375.053 183.6 383.754 187.277 384.742 189.015C384.955 189.39 385.033 189.768 384.817 190.166C383.829 191.99 373.776 193.966 371.371 194.56C371.15 197.268 370.906 205.678 369.426 207.562C369.129 207.939 368.713 208.219 368.216 208.212C365.483 208.17 361.494 199.529 359.63 197.345C359.329 196.991 359.288 196.953 358.849 196.928C356.371 197.517 348.103 199.811 346.117 199.05C345.611 198.857 345.5 198.62 345.275 198.153C345.288 196.027 351.83 188.333 353.426 186.257C352.045 183.893 346.945 177.152 347.215 174.795C347.264 174.369 347.431 173.979 347.827 173.767C349.57 172.834 358.752 176.828 361.154 177.7C364.519 174.836 367.46 171.237 370.48 168.001Z" fill="#000063"/>
<path d="M371.448 169.159C372.254 170.57 371.167 180.753 371.115 183.156C373.068 184.392 382.869 188.484 383.544 189.508C382.644 190.713 372.262 193.018 370.204 193.516C370.044 195.164 369.107 205.523 368.461 206.516C368.269 206.812 368.358 206.704 367.945 206.807C365.837 206.019 362.376 197.309 359.947 195.697C359.25 195.235 357.995 195.671 357.235 195.841C353.647 196.743 349.967 197.396 346.345 198.15C348.8 193.878 352.342 190.251 355.132 186.193C353.862 184.186 349.339 177.688 348.966 175.897C348.879 175.478 348.93 175.421 349.149 175.083C349.636 174.969 350.005 175.03 350.475 175.174C351.809 175.582 353.113 176.239 354.417 176.748C356.787 177.652 359.168 178.529 361.558 179.38C364.986 176.108 368.051 172.469 371.448 169.159Z" fill="#A2AFE1"/>
<path d="M323.081 215.072C323.165 215.073 323.249 215.069 323.333 215.074C323.933 215.109 324.482 215.346 324.837 215.853C325.109 216.24 325.1 216.718 324.968 217.154C324.581 218.43 307.085 235.391 305.166 237.279L256.825 284.914C253.406 288.286 249.9 291.573 246.5 294.959C244.35 297.099 242.032 300.21 239.432 301.771C238.748 301.82 238.312 301.691 237.726 301.349C237.562 301.044 237.45 300.936 237.46 300.577C237.481 299.715 238.235 298.807 238.781 298.201C240.12 296.716 241.779 295.415 243.198 293.98C249.119 287.991 255.201 282.185 261.159 276.238L323.081 215.072Z" fill="#A2AFE1"/>
<path d="M59.5012 305.294C60.0762 305.447 60.6248 305.6 61.0075 306.096C61.2941 306.467 61.4036 306.853 61.259 307.309C60.9396 308.312 58.5294 310.523 57.6674 311.406C54.4239 314.727 50.9403 317.832 47.633 321.094L34.4353 334.145C32.4539 336.094 29.2798 339.988 26.9866 341.098C26.6288 341.019 26.2541 340.93 25.9306 340.749C25.4681 340.491 25.2614 340.167 25.1187 339.666C25.2557 338.892 25.6353 338.561 26.1578 337.996C29.1259 334.785 32.3958 331.827 35.5139 328.764L49.2947 315.114C52.3776 312.119 56.1817 307.761 59.5012 305.294Z" fill="#A2AFE1"/>
<path d="M315.9 52.9869C317.961 50.8679 320.08 48.8156 322.123 46.6764C322.778 45.9901 323.434 45.1593 324.436 45.1426C324.622 45.3922 324.703 45.4058 324.688 45.7436C324.631 47.012 318.314 52.8712 317.046 54.1629C319.282 56.3679 323.339 59.7457 324.814 62.357L323.945 62.6795C322.794 62.4868 317.176 56.4896 315.999 55.322C313.494 57.4358 311.418 60.2261 308.844 62.2018C308.379 62.5589 308.028 62.6146 307.464 62.5261C307.283 62.3323 307.343 62.4543 307.332 62.1415C308.003 60.597 313.237 55.6792 314.681 54.143C313.415 52.5458 307.355 47.2744 307.126 45.995C307.072 45.6907 307.382 45.4218 307.547 45.1847C309.321 45.8673 314.181 51.3278 315.9 52.9869Z" fill="#000063"/>
<path d="M40.9684 283.326C41.5708 283.436 42.1367 283.651 42.5342 284.143C42.7643 284.428 42.9181 284.918 42.8044 285.282C42.6086 285.907 28.1136 300.515 26.7276 301.448C26.3652 301.437 26.048 301.416 25.7078 301.27C25.2116 301.056 25.0421 300.668 24.8511 300.206C24.8826 299.774 24.9025 299.434 25.1767 299.074C26.5433 297.277 28.5458 295.698 30.1491 294.098C33.7498 290.504 37.2376 286.789 40.9684 283.326Z" fill="#A2AFE1"/>
<path d="M344.487 290.86C344.817 290.921 344.688 290.873 344.996 291.032C345.304 291.192 345.239 291.231 345.335 291.541C344.662 293.368 341.017 296.462 339.543 298.008C340.644 299.398 344.011 302.513 344.612 303.668C344.845 304.115 344.752 304.232 344.581 304.66L344.168 304.761C341.997 303.564 340.095 300.958 338.417 299.153C336.529 301.149 334.633 303.263 332.512 305.011C332.291 304.835 332.083 304.642 331.871 304.454C331.941 303.347 336.332 299.199 337.348 297.998C336.212 296.703 331.9 293.155 331.663 291.833C331.612 291.548 331.686 291.6 331.916 291.353C331.99 291.351 332.065 291.342 332.139 291.346C333.169 291.401 337.464 296.015 338.376 296.904C340.482 294.956 342.484 292.914 344.487 290.86Z" fill="#000063"/>
<path d="M302.377 324.426C302.784 324.517 302.853 324.588 303.167 324.871L303.167 325.386C302.301 327.067 294.345 334.429 292.418 336.21C292.085 336.203 291.936 336.147 291.633 336.027L291.477 335.658C291.845 334.104 300.74 326.018 302.377 324.426Z" fill="#000063"/>
<path d="M317.688 309.54C318.057 309.659 318.303 309.79 318.615 310.019L318.646 310.418C317.263 312.543 310.266 319.029 308.058 320.998C307.947 320.976 307.83 320.976 307.727 320.932C307.287 320.744 307.246 320.498 307.155 320.088C307.88 318.726 316.015 311.155 317.688 309.54Z" fill="#000063"/>
<path d="M43.7461 127.175C44.3306 127.962 44.0558 138.681 44.0615 140.458C48.5796 140.674 53.1858 140.24 57.6855 140.614C57.6794 138.544 57.2963 133.072 58.0332 131.424L58.3223 131.414C59.3727 133.102 57.8632 139.816 59.1299 140.56C60.5084 140.446 66.9446 140.122 67.7871 140.682L67.7168 140.952C66.1804 141.799 60.658 141.352 58.6904 141.346C58.6744 144.592 58.2574 149.505 58.7344 152.546C59.0752 152.814 59.4279 152.846 59.8125 152.848C60.1367 152.837 60.4681 152.859 60.7441 152.858C62.5756 152.864 71.3129 152.527 72.3809 153.173L72.3506 153.461C71.2879 154.094 60.9596 153.736 58.7197 153.745V153.744L58.6377 153.828C58.5805 157.705 58.5663 161.584 58.5938 165.461L59.5234 165.402C62.1616 165.257 67.7394 165.095 69.0566 165.615L69.0049 165.891C67.8582 166.526 63.7996 166.477 61.001 166.375L58.7773 166.281C58.3645 167.57 58.5057 173.764 58.6953 175.305C58.8752 175.368 59.0553 175.431 59.2354 175.493L59.7783 175.672L59.8359 176C59.2057 176.426 58.7136 175.951 58.5225 176.917C58.4572 177.248 58.4085 177.584 58.3535 177.917L58.0488 177.878L57.916 177.622C57.6303 177.078 57.4418 176.604 56.8994 176.272C53.4611 176.098 49.7856 176.636 46.3604 176.321L45.6787 176.246C45.4161 176.271 44.4768 176.27 44.2998 176.381C43.3745 176.966 44.7153 184.222 43.5947 185.578L43.2598 185.514C42.623 184.094 43.586 178.612 43.0625 176.516L42.9883 176.245L42.7998 176.202C39.0205 176.404 34.9462 176.431 31.0967 176.242L29.4629 176.148C29.569 176.798 29.7494 177.609 29.3701 178.181L29.0654 178.029C28.5955 177.319 28.0946 176.409 28.1533 175.536C28.2357 175.477 28.5043 175.292 28.5566 175.215C29.0028 174.561 28.7414 167.426 28.5781 166.315C25.9334 166.307 21.4307 166.658 19.082 166.315C18.6466 166.252 18.3425 166.07 18.0098 165.796L18.043 165.659C19.1742 165.176 26.8596 165.486 28.5615 165.495C29.0117 163.114 28.6663 156.371 28.5869 153.644C28.4678 153.668 28.3503 153.703 28.2295 153.716C26.6551 153.888 16.6981 153.97 15.6016 153.654C15.4597 153.613 15.3566 153.488 15.2344 153.405L15.2529 153.03C16.2555 152.393 26.6529 152.759 28.5781 152.759C28.5378 148.944 28.518 145.128 28.5195 141.312C26.9173 141.299 21.5519 141.678 20.502 140.928L20.5957 140.645C22.0802 140.023 26.7393 140.428 28.5723 140.438C28.5829 137.525 28.5742 134.611 28.5459 131.698C28.86 131.387 28.8417 131.421 29.2881 131.422C29.7669 131.943 29.5465 139.053 29.5469 140.439C34.0767 140.565 38.6285 140.493 43.1602 140.465C43.1655 136.534 42.9008 132.45 43.1377 128.543C43.1721 127.974 43.3246 127.553 43.7461 127.175ZM58.9873 175.726C58.9019 175.729 58.8171 175.731 58.7324 175.731C58.9017 175.732 59.0716 175.724 59.2451 175.712L58.9873 175.726ZM57.749 166.364C53.2177 166.229 48.65 166.342 44.1152 166.345C44.0809 169.326 43.8461 172.496 44.1318 175.463C46.9062 175.436 55.4388 175.066 57.7051 175.581C57.8192 172.511 57.7673 169.435 57.749 166.364ZM42.8369 166.238C40.3581 166.659 34.4054 166.425 30.9414 166.348L29.585 166.328C29.5421 167.84 29.1988 174.245 29.7559 175.259L30.1318 175.373L31.6143 175.359C35.2669 175.298 40.1161 175.076 43.1016 175.52C43.2442 172.431 43.2041 169.28 43.0977 166.188L42.8369 166.238ZM43.333 166.088C43.2946 166.101 43.2559 166.116 43.2168 166.132L43.334 166.088C43.411 166.063 43.4871 166.043 43.5645 166.028L43.333 166.088ZM44.0586 165.953C43.9495 165.918 43.8395 165.889 43.7295 165.861C43.8395 165.889 43.9495 165.918 44.0586 165.953ZM43.5723 165.824C43.5091 165.809 43.4462 165.794 43.3828 165.782C43.4462 165.794 43.5091 165.809 43.5723 165.824ZM43.2637 165.76C43.1869 165.746 43.1103 165.732 43.0332 165.72C43.1103 165.732 43.1869 165.746 43.2637 165.76ZM42.9404 165.708C42.855 165.695 42.7694 165.684 42.6836 165.674C42.7694 165.684 42.855 165.695 42.9404 165.708ZM42.5898 165.665C42.5053 165.656 42.4207 165.648 42.3359 165.641C42.4207 165.648 42.5053 165.656 42.5898 165.665ZM42.2178 165.632C42.1595 165.628 42.1013 165.624 42.043 165.621C42.1013 165.624 42.1595 165.628 42.2178 165.632ZM41.6758 165.606C41.5496 165.602 41.4234 165.597 41.2969 165.595C41.4234 165.597 41.5496 165.602 41.6758 165.606ZM39.0693 165.558C39.0992 165.56 39.1292 165.56 39.1592 165.561C39.0098 165.554 38.8606 165.546 38.7119 165.534L39.0693 165.558ZM29.54 153.676C29.1151 157.348 29.8838 161.597 29.4756 165.131L29.4326 165.471L30.5312 165.457C30.9006 165.449 31.2727 165.44 31.6465 165.429L33.9033 165.372L35.0332 165.36C36.1599 165.358 37.2764 165.391 38.3555 165.499C39.907 165.314 41.5794 165.409 43.1465 165.382L43.1338 153.71L29.54 153.676ZM44.1064 153.66C43.7711 157.53 43.9986 161.545 44.0459 165.433C44.8243 165.446 45.6222 165.424 46.3975 165.489C50.0618 165.183 53.9955 165.445 57.6953 165.43C57.6774 161.646 57.6971 157.862 57.7559 154.078C57.336 153.795 56.8556 153.749 56.3662 153.729L55.876 153.709C53.4195 154.038 46.7433 153.876 44.1064 153.66ZM55.6943 153.625C55.6628 153.613 55.6296 153.601 55.5938 153.59C55.6295 153.601 55.6628 153.613 55.6943 153.625ZM55.5039 153.566C55.4625 153.556 55.4189 153.546 55.373 153.537C55.4189 153.546 55.4625 153.556 55.5039 153.566ZM44.7666 153.496C44.8318 153.508 44.9026 153.52 44.9785 153.53C44.9025 153.52 44.8318 153.508 44.7666 153.496ZM55.2715 153.517C55.2179 153.508 55.1619 153.5 55.1035 153.492C55.1619 153.5 55.218 153.508 55.2715 153.517ZM55.0264 153.482C54.9559 153.473 54.8823 153.465 54.8057 153.458C54.8823 153.465 54.9559 153.473 55.0264 153.482ZM51.8311 153.43C51.4318 153.442 51.0212 153.46 50.6074 153.476C51.0212 153.46 51.4318 153.442 51.8311 153.43ZM54.7031 153.45C54.6497 153.445 54.595 153.442 54.5391 153.438C54.595 153.442 54.6497 153.445 54.7031 153.45ZM46.9854 153.056C45.6659 153.065 44.6451 153.136 44.3379 153.342C44.3824 153.377 44.445 153.404 44.5215 153.43C44.4453 153.404 44.3833 153.376 44.3389 153.342C44.7075 153.095 46.1029 153.043 47.8096 153.058C47.5251 153.056 47.2492 153.054 46.9854 153.056ZM39.959 153.426C39.8795 153.426 39.7994 153.424 39.7188 153.423C39.6895 153.423 39.6602 153.423 39.6309 153.423C39.7413 153.424 39.8507 153.425 39.959 153.426ZM54.3291 153.426C54.3042 153.425 54.2792 153.424 54.2539 153.423C54.2792 153.424 54.3042 153.425 54.3291 153.426ZM37.0781 153.425C37.4421 153.423 37.805 153.424 38.1631 153.423C37.8726 153.424 37.579 153.422 37.2842 153.423C37.2156 153.424 37.1469 153.425 37.0781 153.425ZM52.5508 153.414C52.6052 153.413 52.6592 153.411 52.7129 153.41C52.6592 153.411 52.6052 153.413 52.5508 153.414ZM53.1973 153.407C53.3391 153.406 53.4776 153.405 53.6123 153.407C53.4776 153.405 53.3391 153.406 53.1973 153.407ZM53.1484 153.177C53.4158 153.181 53.6721 153.182 53.9141 153.181C53.1851 153.183 52.3261 153.164 51.4258 153.14L53.1484 153.177ZM55.1768 153.145C54.833 153.169 54.4045 153.18 53.918 153.181C54.5265 153.18 55.0441 153.164 55.4189 153.125L55.1768 153.145ZM29.8418 153.041C29.7671 153.052 29.6938 153.069 29.6211 153.085C29.7808 153.049 29.9456 153.023 30.1133 153.007L29.8418 153.041ZM43.9463 141.154C43.9826 141.176 44.0123 141.212 44.1211 141.308C43.9219 145.111 44.0489 148.964 44.0615 152.773C48.3036 152.78 52.7232 152.539 56.9443 152.834L57.4248 152.74C58.0706 151.65 57.6883 143.224 57.6807 141.413C53.1704 141.217 48.6371 141.424 44.1211 141.308C43.9573 141.163 43.9734 141.155 43.875 141.124L43.9463 141.154ZM43.1133 141.232C42.0061 141.335 40.8795 141.392 39.7432 141.419C39.175 141.433 38.6043 141.44 38.0322 141.441C35.7437 141.446 33.4325 141.366 31.1699 141.332L29.4834 141.317C29.4442 144.74 29.0186 149.142 29.5371 152.472C30.0223 152.898 30.8137 152.81 31.4404 152.799L43.1406 152.768C43.1643 148.923 43.1552 145.077 43.1133 141.232ZM43.5449 141.045C43.596 141.045 43.6549 141.055 43.7275 141.078C43.6547 141.055 43.5961 141.045 43.5449 141.045ZM58.4062 140.555C58.645 140.543 58.8841 140.541 59.1299 140.56C58.884 140.541 58.645 140.543 58.4062 140.555Z" fill="#FFADC1"/>
<path d="M189.158 35.399C193.309 34.8241 196.48 35.3257 200.819 36.3219C204.826 37.2424 208.715 39.7521 210.88 43.2935C212.482 45.9144 212.897 48.5206 212.221 51.4957C213.335 53.3155 213.932 55.2725 214.411 56.9478C215.864 58.7275 218.886 63.254 219.677 65.564C222.788 74.6587 219.764 79.183 217.499 81.2457C213.693 84.7118 210.763 86.1493 206.326 86.6734C206.031 88.7012 205.571 90.6497 205.054 92.6314C205.678 93.5252 210.142 100.154 210.503 100.462C210.623 100.563 211.041 100.662 211.141 100.681C213.921 101.215 218.956 98.5388 221.28 97.1383C234.632 89.0934 244.07 73.7458 247.737 58.8883L247.645 58.7867C247.258 58.3595 246.868 57.9284 246.509 57.4781C245.098 55.7113 244.014 53.4098 244.354 51.0953C244.665 48.973 245.899 47.8612 247.507 46.6373C247.416 45.6524 247.379 44.5914 247.806 43.6734C248.104 43.0301 248.584 42.5623 249.286 42.3795C252.752 41.4762 261.18 44.4498 264.047 46.4947C265.644 47.6345 266.389 49.5423 266.648 51.4293C267.264 55.9145 266.243 61.3405 265.603 65.8219C264.923 70.579 263.938 75.2184 262.853 79.898C259.21 95.5986 254.282 105.421 244.857 118.284C241.457 122.529 236.43 127.555 231.404 130.906C226.956 133.871 217.561 139.247 217.499 139.283L214.771 170.19C214.364 174.524 214.28 179.197 212.766 183.304C216.03 187.821 220.072 191.974 223.713 196.214C231.9 205.637 239.998 215.139 248.006 224.715C251.468 228.872 255.189 232.956 258.341 237.345C264.296 245.639 266.905 255.982 264.619 266.043C263.548 270.755 261.607 275.319 259.807 279.794C257.295 285.963 254.724 292.109 252.092 298.228C250.976 300.838 248.06 306.235 247.637 308.774L247.647 308.779C248.102 309.004 248.443 309.174 248.827 309.518C249.217 309.868 249.354 310.275 249.342 310.802C249.266 314.215 246.638 319.283 244.194 321.615C243.003 321.708 241.799 321.718 240.604 321.757C239.087 327.518 236.649 333.366 235.738 339.229C237.671 337.783 239.683 336.429 241.694 335.094L241.877 334.973C243.866 333.651 246.453 331.93 248.906 332.504C250.348 332.843 251.583 333.767 252.314 335.054C252.932 336.142 253.144 337.457 252.753 338.661C251.774 341.672 247.537 343.437 244.931 344.858C247.959 345.927 269.048 354.903 270.491 356.14C272.481 357.848 273.181 360.093 273.289 362.621C277.81 362.648 310.439 362.36 312.09 363.012C312.37 363.534 312.277 363.552 312.19 364.108C311.052 364.78 295.842 364.293 293.26 364.28L107.835 364.312L48.998 364.327L31.959 364.378C29.0969 364.389 26.0216 364.631 23.1885 364.291C22.5094 364.209 22.5094 364.158 22.1025 363.642L22.1768 363.163C22.7163 362.725 23.3707 362.676 24.043 362.629C26.7321 362.439 29.5855 362.653 32.291 362.656L50.5791 362.669L103.724 362.588C101.559 361.568 99.297 360.467 97.5049 358.853C92.9569 354.757 89.0251 349.635 84.8955 345.092L74.7139 333.958C72.4904 331.525 69.5572 328.915 68.0244 326.001C69.3408 324.74 85.1425 312.359 85.7217 312.256C86.0882 312.521 86.3786 312.71 86.7939 312.901C90.9751 309.808 94.8815 306.07 98.8535 302.7C98.2476 301.846 97.7623 300.927 97.2559 300.012C98.827 297.889 104.217 292.488 106.676 291.69C107.748 291.342 108.805 292.05 109.698 292.546C121.355 283.272 129.439 271.602 135.428 258.071C123.507 253.183 112.777 251.073 100.046 254.538C98.1778 257.902 86.7396 280.946 85.8291 281.51C85.6942 281.593 85.5326 281.621 85.3848 281.676C82.8675 280.895 79.6908 276.776 78.0215 274.749C68.9187 263.689 65.6856 251.762 67.002 237.652C64.5726 234.442 60.585 231.743 56.8154 230.388C55.8845 230.054 54.0964 229.839 53.3428 229.316C52.8761 228.992 52.9961 228.862 52.9717 228.381C54.0281 226.216 55.6289 224.205 57.0137 222.24C59.9868 218.045 63.0138 213.888 66.0928 209.77C87.7008 180.406 112.558 153.579 140.191 129.798C147.331 123.685 154.649 117.591 162.275 112.097C149.614 100.02 134.763 68.6835 176.651 39.9586C182.237 37.133 183.42 36.1941 189.158 35.399ZM189.15 235.916C183.436 247.501 177.013 258.806 170.528 269.974C166.065 277.662 161.93 285.959 155.765 292.456C150.267 298.248 143.456 302.875 136.564 306.835C135.182 307.629 126.743 311.833 126.376 312.815C126.029 313.744 125.816 314.216 125.044 314.817C121.843 317.307 118.413 319.937 114.865 321.898C113.623 320.75 112.592 319.46 111.531 318.145C108.354 320.713 105.195 323.272 101.865 325.643C107.574 326.972 114.882 329.743 118.173 334.987C118.846 336.06 119.262 337.386 118.91 338.643C118.663 339.514 118.067 340.243 117.264 340.66C115.651 341.507 113.564 341.103 111.926 340.549C108.1 339.257 103.713 335.878 101.646 332.37C100.85 331.018 100.241 329.215 99.041 328.18C98.9266 328.724 98.9722 328.949 99.168 329.49C100.468 333.078 102.67 336.682 104.405 340.1C107.451 346.097 110.327 352.114 113.697 357.941C114.534 359.583 115.059 360.64 115.074 362.525C115.341 362.664 202.351 362.921 210.84 362.678C210.87 360.891 210.875 359.112 211.239 357.356C211.619 355.522 215.928 342.01 216.649 341.233C216.96 340.9 217.576 340.678 217.991 340.499C218.983 336.757 219.699 332.926 220.5 329.138C221.196 325.842 222.108 322.482 222.316 319.114C220.504 317.646 219.716 316.559 219.481 314.124C219.227 311.493 219.68 308.203 221.465 306.169C222.122 305.419 222.98 304.951 223.874 304.544C225.417 293.759 226.672 282.935 227.635 272.084C228.107 267.295 228.94 262.305 229.009 257.503C219.937 252.327 210.765 247.328 201.499 242.507C197.422 240.345 193.336 237.836 189.15 235.916Z" fill="#1B1813"/>
<path d="M200.88 94.6066C201.625 94.4855 202.467 94.4247 203.22 94.4888C203.832 94.5405 204.213 94.8158 204.59 95.2853C203.14 96.1168 199.569 96.4596 197.824 96.9804C194.2 98.0618 190.582 99.9004 187.356 101.856C180.886 105.777 174.71 111.055 169.263 116.304C164.801 120.604 160.652 125.302 156.456 129.861C144.731 142.547 133.605 155.775 123.116 169.5C121.889 171.105 118.633 174.606 118.299 176.48C118.222 176.913 118.381 176.942 118.628 177.271L119.159 177.314C120.352 176.6 127.264 166.926 128.812 164.948C137.13 154.527 145.748 144.349 154.657 134.428C167.005 120.764 186.706 98.2595 206.237 97.271C207.116 98.2872 207.809 99.3403 208.516 100.478C205.908 100.428 203.247 100.25 200.703 100.949C193.079 103.043 186.992 111.006 182.276 116.939C170.528 131.72 162.043 148.718 151.975 164.62C148.937 169.42 145.507 173.993 142.361 178.726C132.581 193.438 122.822 208.365 114.282 223.833C108.246 234.955 102.324 246.137 96.516 257.379C92.7769 264.694 89.3241 272.383 85.1088 279.42C83.6684 278.23 82.3113 276.943 81.0471 275.569C71.189 264.979 67.8726 253.617 68.4279 239.462C71.5245 236.923 81.9629 220.197 84.9853 215.702C87.5406 211.901 90.3629 208.194 92.7592 204.294C93.1695 203.627 93.4069 203.186 93.2226 202.412L92.7616 202.189C92.1953 202.339 91.9215 202.556 91.5467 203.015C89.6094 205.388 88.0135 208.393 86.2443 210.935C80.2745 219.599 74.3804 228.314 68.5619 237.079C64.7621 232.504 60.7267 230.043 55.2031 227.918C58.2428 223.008 61.7511 218.379 65.2034 213.754C69.6667 207.725 74.2349 201.774 78.9059 195.904C101.196 167.605 126.783 142.067 155.124 119.832C167.992 109.632 184.205 96.5185 200.88 94.6066Z" fill="#4A69E8"/>
<path d="M247.957 65.3291C253.251 63.8882 258.477 63.5646 263.565 65.9557C261.041 85.5054 255.027 103.992 241.611 118.879C238.865 121.926 236.063 124.806 232.797 127.308C225.443 132.945 217.17 137.072 208.514 140.306C207.187 140.802 203.797 141.622 203.243 142.807L203.482 143.35C205.416 144.079 212.657 140.515 215.007 139.727C214.549 149.791 213.823 159.747 212.929 169.782C212.624 173.212 212.712 177.217 211.792 180.52C211.521 181.494 210.716 182.328 209.989 182.989C207.011 185.697 202.818 187.845 199.165 189.477C186.107 195.333 171.817 197.908 157.536 196.979C153.946 196.74 150.089 196.447 146.85 194.747C147.05 189.488 149.742 173.897 151.544 169.234C153.118 165.163 158.557 157.138 161.059 153.027C166.21 144.561 170.984 135.856 176.669 127.722C177.198 126.546 178.262 125.358 179.081 124.365C184.335 117.141 193.291 103.952 202.672 102.515C205.989 102.007 209.399 102.744 212.718 102.355C222.477 101.211 232.16 91.2831 237.839 83.8807C242.178 78.2235 245.126 71.8187 247.957 65.3291Z" fill="white"/>
<path d="M179.081 124.365C180.35 124.732 181.393 125.024 182.047 126.257C182.405 126.932 182.375 127.841 182.074 128.528C181.725 129.325 181.09 129.946 180.246 130.197C179.613 130.385 178.959 130.3 178.385 129.977C177.489 129.473 177.091 128.613 176.669 127.721C177.197 126.546 178.262 125.358 179.081 124.365Z" fill="#4A69E8" fill-opacity="0.7"/>
<path d="M234.429 103.337C235.741 103.379 236.71 103.601 237.698 104.533C238.273 105.075 238.705 105.895 238.656 106.705C238.575 108.022 237.828 108.64 236.882 109.411C236.635 109.466 236.501 109.503 236.234 109.524C235.294 109.596 234.302 109.243 233.635 108.57C232.991 107.92 232.736 106.998 232.785 106.101C232.851 104.866 233.556 104.125 234.429 103.337Z" fill="#4A69E8" fill-opacity="0.7"/>
<path d="M159.162 170.26C160.67 169.567 162.453 170.238 163.131 171.752C163.809 173.267 163.121 175.043 161.6 175.706C160.1 176.36 158.353 175.684 157.685 174.19C157.016 172.696 157.676 170.943 159.162 170.26Z" fill="#4A69E8" fill-opacity="0.7"/>
<path d="M183.269 143.006C184.311 142.799 185.383 143.172 186.073 143.98C186.762 144.789 186.961 145.907 186.592 146.903C186.224 147.9 185.346 148.619 184.297 148.785C182.717 149.034 181.229 147.973 180.949 146.399C180.669 144.825 181.701 143.316 183.269 143.006Z" fill="#4A69E8" fill-opacity="0.7"/>
<path d="M173.516 153.763C175.068 153.285 176.713 154.162 177.182 155.717C177.651 157.272 176.766 158.912 175.208 159.372C173.663 159.829 172.039 158.952 171.573 157.409C171.108 155.866 171.975 154.237 173.516 153.763Z" fill="#4A69E8" fill-opacity="0.7"/>
<path d="M225.545 119.072C227.066 118.577 228.701 119.404 229.205 120.922C229.709 122.44 228.892 124.08 227.377 124.594C225.849 125.111 224.191 124.286 223.683 122.755C223.175 121.223 224.01 119.571 225.545 119.072Z" fill="#4A69E8" fill-opacity="0.7"/>
<path d="M207.94 149.79C208.108 149.783 208.277 149.777 208.445 149.778C209.424 149.787 210.304 150.174 210.957 150.917C211.472 151.502 211.643 152.292 211.568 153.052C211.448 154.285 210.671 155.032 209.787 155.809C209.704 155.814 209.621 155.82 209.537 155.823C208.446 155.867 207.603 155.706 206.81 154.903C206.251 154.337 206.044 153.586 206.09 152.809C206.17 151.471 206.96 150.607 207.94 149.79Z" fill="#4A69E8" fill-opacity="0.7"/>
<path d="M181.638 173.914C183.134 173.402 184.76 174.205 185.265 175.703C185.771 177.201 184.961 178.825 183.461 179.323C181.97 179.819 180.359 179.016 179.856 177.526C179.354 176.038 180.15 174.423 181.638 173.914Z" fill="#4A69E8" fill-opacity="0.7"/>
<path d="M194.014 157.85C195.486 157.524 196.957 158.405 197.364 159.857C197.772 161.309 196.974 162.827 195.547 163.315C194.551 163.655 193.447 163.417 192.68 162.695C191.913 161.973 191.608 160.886 191.888 159.871C192.167 158.855 192.985 158.078 194.014 157.85Z" fill="#4A69E8" fill-opacity="0.7"/>
<path d="M213.461 109.758C215.005 109.554 216.426 110.631 216.647 112.173C216.868 113.715 215.806 115.147 214.267 115.385C213.256 115.541 212.24 115.142 211.605 114.34C210.97 113.538 210.815 112.457 211.199 111.509C211.583 110.56 212.447 109.892 213.461 109.758Z" fill="#4A69E8" fill-opacity="0.7"/>
<path d="M150.981 185.357C152.47 184.899 154.048 185.729 154.515 187.215C154.982 188.701 154.163 190.285 152.68 190.761C151.184 191.243 149.582 190.414 149.11 188.914C148.639 187.414 149.478 185.818 150.981 185.357Z" fill="#4A69E8" fill-opacity="0.7"/>
<path d="M196.653 125.833C197.143 125.861 197.659 125.884 198.136 126.009C198.891 126.206 199.584 126.765 199.959 127.446C200.337 128.13 200.335 128.823 200.097 129.551C199.773 130.546 198.905 130.983 198.045 131.428C197.762 131.413 197.568 131.41 197.3 131.372C196.403 131.246 195.399 130.694 194.879 129.94C194.454 129.326 194.361 128.524 194.6 127.821C194.943 126.81 195.796 126.351 196.653 125.833Z" fill="#4A69E8" fill-opacity="0.7"/>
<path d="M250.505 74.8886C251.009 74.8685 251.544 74.8307 252.045 74.9015C252.823 75.0121 253.649 75.6727 254.043 76.3419C254.381 76.9149 254.466 77.5855 254.294 78.227C254.008 79.2902 253.287 79.7526 252.374 80.2614C252.013 80.2801 251.601 80.3193 251.243 80.2633C250.363 80.126 249.539 79.5415 249.044 78.8057C248.602 78.1504 248.485 77.3835 248.69 76.6205C248.948 75.6641 249.707 75.3261 250.505 74.8886Z" fill="#4A69E8" fill-opacity="0.7"/>
<path d="M196.537 109.446C198.075 109.323 199.422 110.468 199.549 112.006C199.677 113.543 198.536 114.893 196.999 115.026C195.456 115.158 194.097 114.012 193.97 112.467C193.842 110.923 194.993 109.569 196.537 109.446Z" fill="#4A69E8" fill-opacity="0.7"/>
<path d="M204.165 171.054C205.117 171.253 205.96 171.685 206.511 172.521C206.939 173.171 207.014 173.938 206.831 174.679C206.503 176.008 205.663 176.609 204.539 177.273C203.436 176.963 202.479 176.42 201.941 175.36C201.596 174.68 201.585 173.874 201.841 173.164C202.26 172.002 203.107 171.564 204.165 171.054Z" fill="#4A69E8" fill-opacity="0.7"/>
<path d="M244.241 89.4091C245.129 89.0607 246.136 89.221 246.872 89.8275C247.608 90.434 247.957 91.3919 247.785 92.3296C247.612 93.2679 246.946 94.039 246.042 94.3444C244.691 94.8011 243.221 94.096 242.733 92.7557C242.243 91.4158 242.913 89.9304 244.241 89.4091Z" fill="#4A69E8" fill-opacity="0.7"/>
<path d="M166.771 190.552C167.48 190.28 168.281 190.421 168.854 190.919C169.427 191.418 169.679 192.191 169.509 192.931C169.338 193.671 168.773 194.257 168.04 194.454C166.984 194.738 165.891 194.145 165.553 193.105C165.215 192.065 165.75 190.943 166.771 190.552Z" fill="#4A69E8" fill-opacity="0.7"/>
<path d="M189.861 186.387C190.756 186.385 191.476 186.401 192.159 187.066C192.586 187.481 192.737 188.105 192.666 188.681C192.57 189.457 192.062 189.944 191.507 190.435C190.807 190.246 189.972 190.031 189.394 189.568C188.86 189.14 188.794 188.785 188.682 188.138C188.917 187.317 189.247 186.969 189.861 186.387Z" fill="#4A69E8" fill-opacity="0.7"/>
<path d="M211.205 184.451C211.508 184.616 211.424 184.529 211.618 184.781C215.106 189.331 219.127 193.471 222.858 197.821C230.796 207.075 238.734 216.384 246.483 225.797C252.124 232.648 258.956 239.332 261.847 247.928C263.629 253.229 263.944 258.774 263.021 264.277C262.074 269.926 259.464 275.291 257.385 280.596C253.757 289.858 250.08 299.308 245.695 308.241C239.063 307.226 232.258 306.417 225.71 304.985C225.96 301.148 226.802 297.249 227.312 293.427C228.084 287.494 228.708 281.542 229.182 275.578C229.71 269.678 230.149 263.748 230.839 257.864C232.996 255.922 236.531 253.031 237.518 250.338L236.748 250.014L237.544 249.798L237.529 250.24L236.944 249.883C234.524 250.676 231.995 253.898 230.237 255.695C225.443 253.45 220.824 250.734 216.182 248.19L197.14 237.953C190.256 234.337 183.406 230.654 176.593 226.906C172.891 224.909 168.851 223.049 165.396 220.662C157.868 215.461 156.65 207.031 155.091 198.656C173.606 200.365 196.263 195.853 211.205 184.451Z" fill="#99DCFE"/>
<path d="M153.405 200.971C154.235 201.918 154.847 207.159 155.3 208.729C158.504 219.829 164.84 222.686 174.241 227.746L187.692 235.095C181.068 247.083 174.761 259.19 167.857 271.028C163.969 277.696 160.23 284.605 155.009 290.351C150.078 295.779 144.096 300.107 137.872 303.919C133.677 306.409 129.341 308.654 125.169 311.186C123.44 309.358 121.931 307.216 120.324 305.272C117.15 301.385 113.822 297.627 110.347 294.007C111.891 292.964 113.356 291.884 114.74 290.633C121.133 284.872 126.643 278.202 131.093 270.836C141.045 254.383 152.392 220.289 153.405 200.971Z" fill="#99DCFE"/>
<path d="M211.778 55.9906C208.503 50.8643 201.498 43.7334 195.643 41.9043C197.622 46.4495 197.629 50.3944 195.791 54.995C193.939 59.6307 190.658 64.566 185.906 66.5769C184.348 67.2361 183.07 67.5324 181.467 66.8508C180.199 66.3117 178.374 65.094 176.967 65.723C176.069 66.1241 175.449 67.0461 175.197 67.9723C174.78 69.5046 175.159 71.2514 176.008 72.5701C176.747 73.7166 177.86 74.5634 179.205 74.8444C181.08 75.2355 182.462 74.5242 184.186 73.8956C184.209 76.6639 184.332 79.4609 183.839 82.1966C183.305 85.1511 182.013 87.9169 181.125 90.7714C180.15 93.902 179.547 97.2447 178.994 100.473C186.862 96.2165 194.183 93.3659 203.189 92.6478C203.577 90.6062 204.012 88.5742 204.491 86.5522C203.214 86.3176 200.918 86.1731 200.062 85.1214C200.171 84.5578 200.181 84.549 200.606 84.1822L200.623 84.1683C201.894 83.8974 203.372 84.4638 204.665 84.6173C208.906 85.1214 213.454 83.2962 217.044 79.4464C221.731 74.4202 218.697 66.2394 216.668 62.9316C215.129 60.0595 213.084 59.6535 211.778 55.9906Z" fill="#FECFAA"/>
<path d="M200.264 62.1714C201.373 62.0407 202.402 62.7679 202.648 63.8569C202.894 64.9464 202.279 66.0454 201.221 66.4045C200.431 66.673 199.558 66.4672 198.97 65.8746C198.383 65.2819 198.185 64.4064 198.46 63.619C198.735 62.831 199.435 62.2695 200.264 62.1714Z" fill="#1B1813"/>
<path d="M211.592 55.9214C212.701 55.7907 213.73 56.5179 213.976 57.6069C214.222 58.6964 213.607 59.7954 212.549 60.1545C211.759 60.423 210.886 60.2172 210.298 59.6246C209.711 59.0319 209.513 58.1564 209.788 57.369C210.063 56.581 210.763 56.0195 211.592 55.9214Z" fill="#1B1813"/>
<path d="M207.319 52.1364C207.011 52.5386 206.561 53.0136 206.557 53.5691C206.555 53.917 206.655 54.0705 206.952 54.3863C207.143 54.4564 207.336 54.575 207.525 54.5966C207.893 54.6386 208.932 53.1498 209.226 52.8957C209.545 52.6195 209.994 52.4671 210.428 52.3174L210.608 52.2575C211.2 52.1365 211.901 52.0827 212.09 51.554C212.166 51.3403 212.092 51.3122 211.957 51.0849C211.58 50.8592 211.32 50.7655 210.925 50.7228C209.372 50.5541 208.178 51.3672 207.319 52.1364Z" fill="#1B1813"/>
<path d="M196.636 57.8761C195.847 58.3326 195.18 58.874 194.632 59.6118C194.097 60.3335 193.578 61.4343 193.77 62.3582C193.863 62.8063 193.942 62.8393 194.297 63.082L194.792 62.9774C195.407 62.5549 195.626 62.0151 195.95 61.3592C197.168 59.5073 199.131 60.0251 200.138 58.6814C200.095 58.1374 200.103 58.1385 199.725 57.7468C198.674 57.3425 197.685 57.5745 196.636 57.8761Z" fill="#1B1813"/>
<path d="M211.081 62.1581C211.662 62.1547 212.287 62.1402 212.845 62.3023C213.852 62.5952 214.768 63.2585 215.201 64.1478C215.656 65.0841 215.613 66.2043 215.193 67.1426C214.499 68.696 213.328 69.3559 211.697 69.9688C211.164 69.8843 210.913 69.7891 210.487 69.4843C210.059 68.0338 213.214 67.3284 213.503 65.8664C213.803 64.3458 211.62 64.3313 210.812 63.463C210.705 62.8708 210.839 62.703 211.081 62.1581Z" fill="#1B1813"/>
<path d="M177.662 67.9478C178.044 67.9554 178.421 67.9659 178.797 68.0325C179.942 68.2354 180.935 68.896 181.611 69.8242C181.719 70.4709 181.784 70.5102 181.458 71.0669C180.387 70.6571 179.133 70.2785 178.161 69.6821C177.639 69.3623 177.439 69.1493 177.291 68.5658L177.662 67.9478Z" fill="#1B1813"/>
<path d="M76.5246 321.628C77.8391 322.234 79.6959 324.912 80.7247 326.073C83.794 329.5 86.826 332.96 89.8198 336.454C93.9705 341.342 98.0073 346.584 103.054 350.591C105.12 352.23 107.337 353.427 109.675 354.617C110.693 356.262 112.283 358.29 112.786 360.158C112.991 360.916 112.843 361.298 112.462 361.959C110.964 362.986 109.378 362.638 107.658 362.527C104.769 361.391 101.713 359.982 99.3041 357.992C96.9139 356.016 94.8719 353.558 92.7996 351.262L84.5786 342.149C80.0291 337.096 74.4758 331.611 70.4917 326.233C72.4763 324.664 74.4873 323.128 76.5246 321.628Z" fill="white"/>
<path d="M213.672 355.484C227.305 355.184 240.97 355.493 254.604 355.636C257.081 355.662 263.502 355.232 265.351 355.656C267.478 356.143 269.872 357.506 271.021 359.421C271.394 360.044 271.683 360.85 271.463 361.573C271.309 362.08 271.077 362.395 270.616 362.647C263.613 362.648 215.1 363.214 213.524 362.504C212.993 362.265 212.793 361.748 212.676 361.207C212.292 359.424 212.757 357.025 213.672 355.484Z" fill="white"/>
<path d="M224.336 319.265C229.16 320.099 234.067 320.652 238.919 321.326C236.819 327.314 235.333 333.711 233.71 339.854L231.509 340.709C229.223 341.805 226.923 342.869 224.608 343.903C222.899 343.113 221.267 342.27 219.646 341.312L224.336 319.265Z" fill="#FECFAA"/>
<path d="M107.253 293.097C108.295 293.553 122.455 310.747 124.491 313.113C121.51 314.967 118.632 316.98 115.867 319.142L115.291 319.42C113.258 318.473 101.282 302.344 99.23 299.675C101.974 297.594 104.593 295.289 107.253 293.097Z" fill="#99DCFE"/>
<path d="M249.452 44.2173C250.184 44.1536 250.786 44.1369 251.509 44.2723C251.98 44.5849 252.164 44.8511 252.424 45.3365C252.654 45.7668 252.869 46.1368 253.178 46.5203L253.816 46.5011C254.459 45.9157 254.404 45.3671 254.621 44.5572C256.345 44.3827 256.192 46.0114 257.119 46.481C257.847 46.8501 258.021 45.7419 258.668 45.8353C260.306 46.0703 262.96 47.8611 263.903 49.1722C266.125 52.265 264.546 60.0892 264.038 63.8034C262.447 63.3218 260.786 63.049 259.156 62.7292C255.492 62.1902 252.087 62.3999 248.462 63.092C248.897 61.4066 249.254 59.7728 249.466 58.0442C248.085 56.343 246.193 54.3291 246.043 52.0405C245.963 50.8165 246.415 49.9644 247.217 49.0856C248.631 49.1368 249.054 51.9678 250.091 52.8959C251.579 51.681 249.07 46.3857 249.452 44.2173Z" fill="#FECFAA"/>
<path d="M99.9664 304.12C100.486 304.396 108.993 315.123 110.509 316.838C106.694 320.263 102.026 323.265 97.9003 326.339L97.1411 326.832C95.5509 326.288 89.2294 316.502 87.8096 314.505C91.8138 310.988 95.8664 307.526 99.9664 304.12Z" fill="#FECFAA"/>
<path d="M222.991 306.79C226.006 306.8 229.124 307.564 232.106 308.004C237.273 308.768 242.688 309.257 247.736 310.579C247.02 313.459 245.865 315.953 244.512 318.586C244.167 319.024 243.562 319.799 242.98 319.928C241.636 320.227 222.924 317.431 222.038 316.524C221.576 316.051 221.438 315.153 221.375 314.525C221.118 312.002 221.324 308.778 222.991 306.79Z" fill="#99DCFE"/>
<path d="M101.026 327.068C106.071 328.52 113.937 331.203 116.722 336.058C117.286 337.039 117.324 337.636 117.059 338.718C115.394 339.265 113.951 339.218 112.281 338.668C106.866 336.885 103.382 331.947 101.026 327.068Z" fill="white"/>
<path d="M246.507 334.391C246.91 334.325 247.322 334.258 247.731 334.25C248.583 334.234 249.873 334.491 250.472 335.153C250.943 335.674 251.075 336.14 251.074 336.835C251.071 338.094 250.176 339.289 249.286 340.09C247.512 341.688 244.598 343.311 242.178 343.16C240.294 342.422 238.426 341.641 236.577 340.817C239.759 338.589 243.009 336.092 246.507 334.391Z" fill="white"/>
<path d="M243.555 346.071C244.314 346.246 244.879 346.42 245.321 347.066L245.085 347.579C243.548 348.73 241.564 349.283 239.769 349.92C239.084 349.994 238.295 350.059 237.681 349.711L237.591 349.308C238.663 347.405 241.606 346.707 243.555 346.071Z" fill="white"/>
<path d="M216.739 70.2081C215.163 70.6335 214.169 72.5569 212.596 73.2001C211.017 73.846 209.239 73.1043 207.687 73.5432C207.213 73.6776 207.193 73.7843 206.997 74.203C207.104 74.7479 207.128 74.7903 207.513 75.183C210.046 75.7506 212.304 75.4172 214.548 74.1237C215.44 73.61 217.043 72.6292 217.187 71.4662C217.261 70.8635 217.044 70.677 216.739 70.2081Z" fill="#1B1813"/>
<path d="M202.261 290.798C202.807 290.83 203.281 290.971 203.659 291.386C203.919 291.672 204.024 292.081 203.985 292.464C203.89 293.389 203.287 294.067 202.683 294.724C200.033 297.607 197.146 300.331 194.37 303.096C188.021 309.419 181.57 315.664 175.274 322.036L159.7 337.622C157.4 339.924 155.208 342.644 152.693 344.668C152.157 344.705 151.659 344.729 151.219 344.366C150.876 344.082 150.673 343.713 150.685 343.261C150.706 342.481 151.231 341.867 151.732 341.323C155.206 337.555 159.056 334.054 162.669 330.412L185.99 307.015L197.329 295.587C198.934 293.985 200.48 292.203 202.261 290.798Z" fill="#A2AFE1"/>
<path d="M137.317 83.6787C138.006 83.7325 138.365 83.784 138.916 84.2297C139.035 84.5231 139.161 84.6826 139.101 85.0088C138.961 85.7685 138.433 86.3244 137.926 86.8731C133.401 91.7744 128.319 96.181 123.641 100.938C118.912 105.839 114.119 110.679 109.265 115.456C106.666 118.062 104.028 121.135 101.038 123.276C100.325 123.295 99.9309 123.208 99.3501 122.78C99.2345 122.467 99.138 122.335 99.1895 121.994C99.307 121.21 99.9698 120.437 100.475 119.863C102.158 117.951 104.157 116.233 105.949 114.416L122.126 98.2761L131.614 88.8449C133.414 87.0879 135.235 85.0981 137.317 83.6787Z" fill="#A2AFE1"/>
</svg>
