<svg width="160" height="160" viewBox="0 0 160 160" fill="none" xmlns="http://www.w3.org/2000/svg">
<path d="M45.1268 17H110.475C110.788 17.1638 111.155 17.3238 111.418 17.5598C112.298 18.3482 113.116 19.2228 113.951 20.0581L118.437 24.5503L124.881 30.9928C125.964 32.0758 127.075 33.1394 128.133 34.2465C128.369 34.4929 128.811 34.9229 128.919 35.2466C128.951 35.3426 128.958 35.4445 128.97 35.5442C129.145 36.962 129.068 38.4321 129.068 39.8611L129.065 46.7578L129.063 69.9239C128.398 69.9368 127.675 69.8698 127.017 69.9393C127.108 71.4018 127.046 72.8983 127.044 74.3642C127.044 75.341 127.134 76.4339 127.004 77.3973C127.535 77.0094 127.999 76.4379 128.465 75.9676L130.795 73.6183C132.22 72.1819 133.482 70.892 135.477 70.2813C137.549 69.6379 139.793 69.8527 141.706 70.8782C143.339 71.7503 144.714 73.214 145.39 74.9459C145.646 75.6017 145.798 76.3037 146 76.9781V79.1118L145.98 79.1657C145.604 80.2236 145.431 81.252 144.818 82.2256C143.784 83.8694 142.021 85.3495 140.644 86.7242L131.357 96.0262L128.662 98.7135C128.113 99.2605 127.49 99.8072 127.025 100.428C127.043 102.243 127.082 104.068 127.024 105.882C127.694 105.968 128.391 105.883 129.066 105.903L129.065 115.391C129.066 117.838 129.294 121.15 128.688 123.473C128.206 125.257 127.26 126.882 125.947 128.183C124.479 129.669 122.603 130.683 120.556 131.098C118.968 131.419 117.29 131.327 115.676 131.326L109.632 131.323L90.2489 131.321L83.9269 131.321C82.7437 131.322 81.5461 131.284 80.3647 131.343C80.3818 130.935 80.4979 129.62 80.3359 129.286C79.6902 129.22 79.0267 129.243 78.3781 129.242C76.5648 129.242 74.6794 129.357 72.8729 129.216C70.7749 127.268 68.79 125.161 66.7647 123.136L56.0233 112.389C55.4756 111.953 54.9701 111.345 54.472 110.847C53.5669 109.942 52.5968 109.052 51.7566 108.087C51.3416 107.754 50.9882 107.36 50.6335 106.965C49.2523 105.759 47.6683 104.097 46.3961 102.753C44.5702 101.041 42.8293 99.2052 41.0574 97.4361C40.2356 96.6158 38.6758 95.2367 38.0564 94.3415C37.8955 93.2081 37.9838 91.9619 37.9828 90.8152C37.9818 89.5127 37.9237 88.176 38.0066 86.8777C37.369 86.7609 36.5631 86.8628 35.9125 86.8956C35.9868 85.1528 35.9304 83.3864 35.9305 81.6412L35.9309 71.9135L35.9308 42.254L35.9299 32.1746C35.9299 30.2991 35.8309 28.3617 36.0018 26.495C36.1071 25.388 36.3938 24.306 36.8505 23.2922C38.081 20.6161 40.1969 18.5927 42.9819 17.5929C43.6636 17.3482 44.4023 17.2735 45.0784 17.0189C45.0946 17.0128 45.1107 17.0063 45.1268 17Z" fill="#EDF0FD"/>
<path d="M127.004 77.3973C127.534 77.0094 127.999 76.4379 128.465 75.9676L130.794 73.6183C132.22 72.1819 133.482 70.892 135.477 70.2813C137.549 69.6379 139.793 69.8527 141.705 70.8781C143.339 71.7503 144.713 73.214 145.39 74.9459C145.646 75.6017 145.798 76.3037 146 76.9781V79.1118L145.98 79.1656C145.604 80.2236 145.43 81.252 144.818 82.2256C143.783 83.8694 142.021 85.3495 140.643 86.7242L131.357 96.0262L128.662 98.7135C128.113 99.2605 127.49 99.8072 127.025 100.428C126.371 100.934 125.789 101.604 125.203 102.19L121.93 105.468L110.839 116.559C110.081 117.319 107.626 119.972 106.94 120.359C106.639 120.529 106.272 120.64 105.939 120.726C103.888 121.251 101.743 121.584 99.6628 121.998C98.328 122.264 96.623 122.724 95.3195 122.818C94.7623 122.858 94.1881 122.642 93.7709 122.274C93.3534 121.905 93.1436 121.392 93.1151 120.841C93.058 119.748 93.7697 117.092 94.0075 115.897C94.3955 113.95 94.7065 111.96 95.1724 110.032C95.2527 109.699 95.3492 109.338 95.5296 109.044C96.0537 108.19 97.1788 107.267 97.9001 106.546L102.485 101.968L118.754 85.6985L123.988 80.4639C124.996 79.4569 126.066 78.4696 127.004 77.3973Z" fill="#32271E"/>
<path d="M131.157 79.3062C131.523 79.4257 135.899 84.0059 136.681 84.7181C131.795 89.4845 127.013 94.3698 122.185 99.1971L105.81 115.597C105.438 115.402 101.025 110.833 100.299 110.123C101.474 109.054 102.576 107.877 103.7 106.752L109.869 100.583L131.157 79.3062Z" fill="#36C99F"/>
<path d="M137.319 74.1901C137.546 74.177 137.775 74.1633 138.002 74.1636C138.967 74.1638 139.961 74.6284 140.635 75.3076C141.357 76.0289 141.758 77.0109 141.747 78.0316C141.739 79.6861 140.742 80.6498 139.653 81.7442L139.174 81.2719L134.169 76.2705C135.172 75.2624 135.9 74.5215 137.319 74.1901Z" fill="white"/>
<path d="M98.6169 114.453C99.2534 114.896 100.802 116.629 101.48 117.285L100.219 117.57C99.4449 117.725 98.6695 117.873 97.8931 118.017L98.6169 114.453Z" fill="white"/>
<path d="M45.1268 17H110.475C110.788 17.1638 111.155 17.3238 111.418 17.5598C112.298 18.3482 113.116 19.2228 113.951 20.0581L118.437 24.5503L124.881 30.9928C125.964 32.0758 127.075 33.1394 128.133 34.2465C128.369 34.4929 128.811 34.9229 128.919 35.2466C128.951 35.3426 128.958 35.4445 128.97 35.5442C129.145 36.962 129.068 38.4321 129.068 39.8611L129.065 46.7578L129.063 69.9239C128.398 69.9368 127.675 69.8698 127.017 69.9393C126.291 69.9254 125.564 69.9018 124.838 69.9333L124.835 50.1285C124.835 46.1458 124.799 42.1592 124.842 38.1769L117.714 38.1644C116.111 38.1654 114.266 38.3598 112.71 37.9706C111.564 37.6818 110.521 37.0821 109.695 36.2376C108.924 35.4507 108.374 34.4744 108.1 33.4072C107.734 31.9522 107.902 30.2146 107.902 28.7189V21.2391L65.5429 21.2299L52.5471 21.2304C50.3795 21.2301 47.4723 21.0692 45.3863 21.3529C44.1857 21.5161 42.9775 22.1835 42.1154 23.0211C40.4962 24.5941 40.1883 26.2659 40.172 28.4292L40.1748 65.3197L40.1742 79.5236C40.174 81.9632 40.091 84.4297 40.1828 86.8653C39.4823 86.8241 38.7041 86.7941 38.0066 86.8777C37.369 86.7609 36.5631 86.8628 35.9125 86.8956C35.9868 85.1528 35.9304 83.3864 35.9305 81.6412L35.9309 71.9135L35.9308 42.254L35.9299 32.1746C35.9299 30.2991 35.8309 28.3617 36.0018 26.495C36.1071 25.388 36.3938 24.306 36.8505 23.2922C38.081 20.6161 40.1969 18.5927 42.9819 17.5929C43.6636 17.3482 44.4023 17.2735 45.0784 17.0189C45.0946 17.0128 45.1107 17.0063 45.1268 17Z" fill="#32271E"/>
<path d="M112.148 24.2886C112.659 24.6083 114.223 26.3208 114.736 26.8335L121.836 33.9258L116.751 33.9369C115.86 33.9403 114.824 34.0441 113.949 33.8856C113.495 33.8034 113.069 33.6167 112.744 33.2841C112.419 32.9531 112.244 32.5227 112.171 32.0702C112.041 31.2693 112.13 30.3354 112.131 29.5226L112.148 24.2886Z" fill="#BECBFE"/>
<path d="M127.024 105.882C127.694 105.968 128.391 105.883 129.066 105.903L129.065 115.39C129.066 117.837 129.294 121.15 128.688 123.473C128.206 125.257 127.26 126.882 125.947 128.183C124.479 129.669 122.603 130.683 120.556 131.098C118.968 131.419 117.29 131.327 115.676 131.326L109.632 131.323L90.2489 131.321L83.9269 131.321C82.7437 131.322 81.5462 131.284 80.3647 131.343C80.3818 130.935 80.4979 129.62 80.3359 129.286C80.5054 128.714 80.3908 127.673 80.389 127.056L107.47 127.054L115.163 127.056C116.61 127.057 118.172 127.173 119.599 126.941C120.859 126.73 122.021 126.134 122.927 125.234C123.808 124.373 124.415 123.272 124.674 122.068C125.003 120.548 124.83 118.003 124.83 116.372L124.843 105.891C125.561 105.93 126.304 105.889 127.024 105.882Z" fill="#32271E"/>
<path d="M46.5275 99.552C47.9349 99.5585 49.3423 99.5532 50.7495 99.5366C50.7482 100.58 50.8857 106.367 50.6334 106.965C49.2523 105.759 47.6682 104.097 46.396 102.753C46.6805 102.307 46.5334 100.194 46.5275 99.552Z" fill="#36C99F"/>
<path d="M51.7568 108.087C52.4566 107.942 53.297 108.03 54.0185 108.03C55.7524 108.031 57.4974 108.072 59.2298 108.018C59.1328 109.409 59.1839 110.849 59.2072 112.244C58.5918 112.242 56.4568 112.091 56.0235 112.389C55.4758 111.953 54.9703 111.345 54.4722 110.847C53.5671 109.942 52.597 109.052 51.7568 108.087Z" fill="#36C99F"/>
<path d="M81.1682 46.6673C86.4049 46.3315 91.5792 47.9574 95.6822 51.2287C100.103 54.7435 102.93 59.8831 103.534 65.4981C104.103 70.656 102.75 75.8424 99.7353 80.0657C98.9723 81.1306 98.0758 82.0821 97.2736 83.1154C95.4227 85.5237 94.1396 88.319 93.5204 91.2926C92.9926 93.9147 93.0861 96.5375 93.0948 99.1959C93.0983 100.259 93.1945 101.421 92.9926 102.466C92.8579 103.167 92.5518 103.823 92.1016 104.377C91.2493 105.427 90.148 105.783 88.8467 105.925C88.8418 107.089 88.5178 108.23 87.9098 109.223C86.9618 110.769 85.4991 111.712 83.7543 112.118C83.38 112.184 82.9911 112.228 82.6111 112.233C80.9023 112.272 79.2508 111.616 78.0356 110.414C76.8129 109.207 76.1777 107.642 76.1658 105.932C75.1163 105.831 74.1921 105.568 73.379 104.866C72.7276 104.303 72.2633 103.554 72.0477 102.719C71.8004 101.742 71.9105 100.611 71.9123 99.6084C71.916 97.3363 72.0462 94.9731 71.8064 92.7154C71.4477 89.297 70.1231 86.0511 67.9879 83.3575C67.0309 82.1518 65.9574 81.0718 65.0746 79.8025C62.9121 76.6826 61.6362 73.0345 61.3819 69.2471C61.024 63.7005 62.8595 58.2353 66.4929 54.0292C70.2 49.7072 75.4874 47.0548 81.1682 46.6673Z" fill="#32271E"/>
<path d="M81.6856 50.8849C82.6237 50.8065 83.6157 50.874 84.5461 50.9896C89.0236 51.5308 93.0995 53.8389 95.8667 57.4001C100.045 62.7869 100.588 70.153 97.2441 76.0939C96.3241 77.7415 95.0449 79.0474 93.9081 80.5303C91.0353 84.2773 89.5093 88.5591 88.9283 93.211L84.6111 93.2013L84.6121 81.2305C85.9413 79.3471 87.3783 77.5239 88.7644 75.6802C89.379 74.8626 90.1133 74.0225 90.6205 73.1352C90.8145 72.7962 90.9663 72.4521 90.9705 72.055C90.9767 71.4785 90.713 70.8998 90.3015 70.5012C90.0592 70.2663 89.7705 70.1014 89.443 70.0188C88.6074 69.8079 87.6271 69.9039 86.7688 69.9054L83.3989 69.9114L78.4573 69.9049C77.634 69.9039 76.7308 69.831 75.9175 69.9453C75.5685 69.9945 75.2555 70.0962 74.962 70.2963C74.4706 70.6322 74.1392 71.1561 74.0467 71.7442C73.9842 72.1621 74.0653 72.5263 74.2501 72.9016C74.7328 73.8811 75.5774 74.8078 76.2335 75.6777C77.6233 77.5212 79.0493 79.3483 80.3883 81.2285L80.3891 93.2077L76.072 93.202C75.7516 89.1274 74.5793 85.3925 72.2643 82.0009C71.3822 80.7084 70.3136 79.6194 69.3304 78.4137C67.1178 75.6948 65.8143 72.3502 65.6039 68.8512C65.3442 64.4764 66.7948 60.1715 69.6488 56.8457C72.773 53.2416 76.94 51.2269 81.6856 50.8849Z" fill="#4A69E8"/>
<path d="M76.1655 97.4365L88.8432 97.4402L88.8365 101.663C87.3921 101.626 85.938 101.658 84.4929 101.658L76.1687 101.654C76.1454 100.25 76.1647 98.8415 76.1655 97.4365Z" fill="#DDDDDC"/>
<path d="M80.355 105.927C81.7852 105.883 83.2232 105.91 84.6541 105.925C84.5274 106.484 84.385 106.878 84.039 107.34C83.6902 107.659 83.3281 107.882 82.8555 107.967C82.3173 108.066 81.7617 107.945 81.3127 107.633C80.705 107.208 80.4785 106.625 80.355 105.927Z" fill="#DDDDDC"/>
<path d="M84.4411 74.148L84.4976 74.145L84.5284 74.2301C83.9596 75.2052 83.1321 76.0552 82.5105 77.0062C82.2719 76.6607 82.0149 76.3256 81.7659 75.9873L80.3862 74.1589C81.7378 74.1654 83.0895 74.1619 84.4411 74.148Z" fill="white"/>
<path d="M105.772 44.4934C106.61 44.5666 107.513 44.4964 108.359 44.4954L113.905 44.492C114.84 44.4912 115.879 44.3952 116.798 44.5795C117.196 44.6596 117.582 44.8231 117.872 45.1153C118.184 45.4301 118.356 45.8562 118.431 46.2876C118.634 47.4554 118.503 48.8 118.502 49.9912L118.499 57.2193C117.864 57.3527 115.131 57.2413 114.255 57.2406C114.22 54.4144 114.247 51.5841 114.247 48.7574C111.421 48.7246 108.592 48.7527 105.766 48.7522L105.772 44.4934Z" fill="#32271E"/>
<path d="M49.1132 44.501C52.4819 44.4353 55.866 44.6047 59.2316 44.4941L59.237 48.7553L50.7483 48.7521L50.7533 51.3236L50.7553 57.2407L46.5256 57.2313L46.503 50.1307C46.5018 48.8999 46.3862 47.5642 46.569 46.3502C46.6335 45.9233 46.7436 45.548 47.0336 45.2176C47.577 44.5978 48.3462 44.5325 49.1132 44.501Z" fill="#32271E"/>
<path d="M48.5907 25.4529C49.3001 25.4753 50.046 25.5119 50.7527 25.4395L50.7492 29.6998L48.6425 29.7104C47.2304 29.7246 45.8165 29.7108 44.4041 29.7101C44.3937 28.2935 44.3989 26.8767 44.4195 25.4602C45.783 25.5525 47.2187 25.4584 48.5907 25.4529Z" fill="#32271E"/>
<path d="M48.5903 25.4529C49.2997 25.4753 50.0456 25.5119 50.7523 25.4395L50.7488 29.6998L48.6422 29.7104C48.633 28.9332 48.7607 25.9525 48.5903 25.4529Z" fill="#44A5CF"/>
<path d="M57.0876 25.4581L58.1763 25.439C58.0991 26.8494 58.146 28.285 58.1547 29.6978L57.1017 29.7058C55.6903 29.7385 54.272 29.7117 52.8599 29.7094L52.8705 25.4581C54.1505 25.5622 55.7705 25.4503 57.0876 25.4581Z" fill="#32271E"/>
<path d="M57.0881 25.4581L58.1767 25.439C58.0996 26.8494 58.1465 28.285 58.1552 29.6978L57.1022 29.7058C56.9968 28.3204 57.0935 26.8528 57.0881 25.4581Z" fill="#44A5CF"/>
<path d="M61.3356 25.4468C62.5937 25.5652 64.2672 25.4507 65.5707 25.4438L65.5772 29.7139L61.3135 29.7127C61.3003 28.2907 61.3075 26.8686 61.3356 25.4468Z" fill="#32271E"/>
<path d="M19 79.9458C19.3644 79.3071 19.7799 78.6471 20.5353 78.4404C21.0879 78.2891 21.5947 78.3725 22.0802 78.6602C22.8936 79.1422 23.5714 79.9446 24.2357 80.6091L26.6254 83L35.585 91.9484C36.1639 92.5204 37.4323 94.02 38.0567 94.3413C38.676 95.2365 40.2359 96.6156 41.0577 97.4359C42.8296 99.205 44.5705 101.041 46.3963 102.752C47.6686 104.097 49.2526 105.759 50.6337 106.965C50.9884 107.36 51.3419 107.753 51.7569 108.087C52.597 109.052 53.5672 109.942 54.4723 110.847C54.9704 111.345 55.4759 111.952 56.0236 112.389L66.765 123.135C68.7903 125.161 70.7752 127.268 72.8732 129.216L72.9158 129.269C73.695 130.213 74.8216 131.193 75.7106 132.082L81.698 138.067C82.5071 138.874 83.8726 140.016 84.4178 140.98C84.5857 141.277 84.6281 141.827 84.5942 142.156C84.5331 142.743 84.1889 143.201 83.7374 143.56C83.502 143.747 83.2418 143.837 83.0002 144H20.5708C19.818 143.562 19.4261 143.216 19 142.446V79.9458ZM35.9173 127.032C36.7845 127.027 40.2217 127.222 40.7626 127C40.3664 126.642 39.9847 126.185 39.6717 125.751C38.4611 124.071 37.7187 121.604 38.0672 119.53C37.41 118.76 36.6438 118.066 35.9113 117.367C36.0128 120.554 35.9767 123.841 35.9173 127.032Z" fill="#32271E"/>
<path d="M23.2339 85.6729C23.6368 85.8472 35.2655 97.6305 36.4679 98.833L63.9987 126.365L72.8324 135.199C74.3227 136.689 75.9479 138.147 77.3333 139.732C75.2685 139.853 73.1586 139.766 71.0887 139.766L59.4359 139.765L23.2383 139.77L23.2339 85.6729ZM35.9177 127.032C36.7849 127.027 40.2221 127.223 40.7631 127.001C40.3668 126.642 39.9851 126.185 39.6722 125.751C38.4615 124.071 37.7191 121.604 38.0676 119.531C37.4104 118.76 36.6443 118.066 35.9118 117.367C36.0132 120.554 35.9771 123.841 35.9177 127.032Z" fill="#99DCFE"/>
<path d="M33.4119 110.153C33.8172 110.12 34.2077 110.129 34.5916 110.281C34.8974 110.402 35.1357 110.611 35.375 110.83C36.3668 111.736 37.2993 112.728 38.2502 113.678L43.3961 118.822L49.0425 124.47C50.0357 125.464 51.068 126.437 52.0238 127.466C52.2673 127.728 52.6176 128.091 52.7446 128.427C52.9453 128.958 52.9018 129.61 52.6488 130.113C52.3413 130.725 51.8347 131.058 51.198 131.257C50.373 131.36 49.4773 131.3 48.6441 131.3L44.0967 131.297L37.6354 131.292C36.4366 131.297 35.2178 131.359 34.0223 131.303C33.6437 131.285 33.2687 131.229 32.9184 131.078C32.4108 130.858 32.0289 130.435 31.8465 129.914C31.762 129.673 31.7272 129.43 31.7153 129.176C31.6674 128.155 31.7035 127.117 31.703 126.094L31.702 120.368L31.703 115.15C31.7033 114.169 31.669 113.173 31.7238 112.193C31.7416 111.874 31.7773 111.599 31.9194 111.308C32.2252 110.682 32.7791 110.367 33.4119 110.153ZM35.9165 127.032C36.7837 127.027 40.2209 127.223 40.7618 127.001C40.3656 126.642 39.9839 126.185 39.6709 125.751C38.4603 124.071 37.7179 121.604 38.0664 119.53C37.4092 118.76 36.643 118.066 35.9105 117.367C36.012 120.554 35.9759 123.841 35.9165 127.032Z" fill="#32271E"/>
<path d="M38.0667 119.53C39.0635 120.44 39.999 121.425 40.9527 122.38L45.6252 127.059C44.1471 127.061 42.1885 127.189 40.7621 127C40.3659 126.642 39.9842 126.185 39.6712 125.751C38.4606 124.071 37.7182 121.604 38.0667 119.53Z" fill="#36C99F"/>
</svg>
