<svg width="160" height="160" viewBox="0 0 160 160" fill="none" xmlns="http://www.w3.org/2000/svg">
<path d="M17.1434 16H143.799L143.904 16.0566C145.886 17.1052 146.158 17.1314 147 19.3209V25.0155C146.393 26.3763 145.797 27.5241 144.308 28.0701C143.859 28.2345 143.332 28.3395 142.855 28.2983L142.845 28.4148C142.771 29.3004 142.805 30.1996 142.808 31.088L142.814 35.275C142.814 36.1875 142.896 37.1914 142.705 38.0845C142.627 38.4477 142.464 38.7807 142.181 39.0283C141.818 39.3451 141.382 39.4048 140.993 39.6444C140.96 40.7058 140.951 41.7679 140.966 42.8296C140.97 43.4388 141.045 44.1529 140.94 44.7483C141.561 44.8963 142.18 45.1254 142.525 45.7052C142.781 46.1344 142.796 46.7516 142.81 47.2405C142.903 50.4408 142.808 53.672 142.808 56.8759L142.809 76.534L142.81 94.1201C142.81 97.0918 142.909 100.101 142.8 103.07C144.044 103.162 145.154 103.552 145.985 104.52C146.491 105.111 146.66 105.741 147 106.41V112.109C146.414 113.503 145.819 114.573 144.354 115.184C143.879 115.383 143.228 115.414 142.716 115.43C140.72 115.492 138.71 115.44 136.712 115.44L125.158 115.438L119.187 115.438C118.278 115.439 117.281 115.535 116.384 115.416L119.226 135.887L120.081 142.029C120.232 143.116 120.47 144.263 120.484 145.36C120.495 146.174 120.346 146.924 119.833 147.586C119.154 148.462 118.57 148.471 117.755 149H110.519C110.013 148.686 109.442 148.523 108.963 148.146C108.49 147.774 108.179 147.297 107.985 146.733C107.521 145.378 107.45 143.73 107.254 142.311L106.168 134.356L92.93 134.345C91.4603 134.345 85.2228 134.519 84.2619 134.159C83.5193 133.881 83.3327 133.116 83.0423 132.475L82.8527 132.406C81.2302 132.292 79.5555 132.383 77.9268 132.373C77.7977 133.016 77.5652 133.612 76.9963 133.989C76.5939 134.255 76.1227 134.295 75.6525 134.324C74.1344 134.417 72.5725 134.345 71.0502 134.345L62.2019 134.346L57.3645 134.349C56.5517 134.352 55.6661 134.447 54.8663 134.32C54.378 137.096 54.072 139.927 53.6847 142.72C53.4987 144.063 53.4296 145.616 52.9422 146.884C52.7339 147.427 52.3476 147.907 51.8777 148.248C51.4224 148.579 50.9127 148.726 50.4363 149H43.2312C42.5098 148.558 41.804 148.381 41.2292 147.695C40.7595 147.136 40.5296 146.465 40.514 145.742C40.4888 144.569 40.7296 143.363 40.8915 142.203L41.6076 137.065L43.5333 123.211C43.893 120.62 44.3136 118.021 44.5869 115.42C43.3151 115.504 42.0051 115.437 40.7286 115.437L33.2585 115.438L23.4767 115.439C21.7303 115.441 19.9635 115.497 18.2189 115.433C17.7379 115.415 17.1993 115.369 16.741 115.214C15.1429 114.674 14.7376 113.628 14.026 112.272L14 112.223V106.326C14.4871 105.569 14.5022 105.033 15.2412 104.257C16.0183 103.441 17.0726 103.131 18.1695 103.103C18.2625 99.7162 18.1919 96.3115 18.1912 92.9228C18.1909 91.5204 18.1108 90.0704 18.2138 88.6749C18.2417 88.2964 18.2839 87.8403 18.4679 87.5044C18.8335 86.8373 19.4598 86.716 20.1339 86.511C20.0356 85.2411 20.0081 82.6159 20.135 81.3833C19.6085 81.2555 19.1118 81.1297 18.7099 80.737C18.3467 80.3819 18.2461 79.9164 18.2094 79.4275C18.0739 77.6258 18.19 75.6679 18.1911 73.8459L18.1946 62.8669L18.1888 28.3634C18.1235 28.3566 18.0583 28.3485 17.993 28.3422C17.5759 28.3037 17.1649 28.2157 16.7686 28.0801C15.1368 27.5394 14.7676 26.5835 14.05 25.1908L14 25.095V19.1895C14.189 18.8887 14.3031 18.5313 14.4737 18.2174C15.2615 16.7688 15.7994 16.7332 17.1434 16ZM103.651 122.018L104.436 122.032C104.139 119.849 103.884 117.65 103.553 115.472C99.5424 115.341 95.5007 115.436 91.4868 115.436L69.3496 115.437L60.8851 115.435C59.858 115.436 58.4337 115.591 57.472 115.433L56.5644 122.007L88.4473 122.013C93.5111 122.013 98.5888 121.934 103.651 122.018ZM34.6207 98.56C38.5806 98.0997 41.4099 94.5053 40.9268 90.5481C40.4436 86.5908 36.8327 83.7825 32.8783 84.2885C28.9563 84.7904 26.1758 88.3655 26.655 92.2903C27.1342 96.2154 30.6931 99.0164 34.6207 98.56Z" fill="#EDF0FD"/>
<path d="M140.94 44.748C141.561 44.8961 142.18 45.1252 142.525 45.705C142.781 46.1342 142.796 46.7514 142.81 47.2402C142.903 50.4406 142.808 53.6718 142.808 56.8757L142.809 76.5338L142.81 94.1199C142.81 97.0916 142.909 100.101 142.8 103.069C144.044 103.162 145.154 103.551 145.985 104.52C146.491 105.111 146.66 105.741 147 106.41V112.109C146.414 113.503 145.819 114.573 144.354 115.184C143.879 115.382 143.228 115.414 142.716 115.429C140.72 115.491 138.71 115.439 136.712 115.439L125.158 115.438L119.187 115.438C118.278 115.439 117.281 115.535 116.384 115.416L119.226 135.887L120.081 142.029C120.232 143.116 120.47 144.263 120.484 145.36C120.495 146.174 120.346 146.924 119.833 147.585C119.154 148.461 118.57 148.471 117.755 149H110.519C110.013 148.686 109.442 148.522 108.963 148.146C108.49 147.774 108.179 147.297 107.985 146.733C107.521 145.378 107.45 143.73 107.254 142.311L106.168 134.356L92.93 134.345C91.4603 134.345 85.2228 134.519 84.2619 134.159C83.5193 133.881 83.3327 133.116 83.0423 132.475L82.8527 132.406C81.2302 132.292 79.5555 132.383 77.9268 132.373C77.7977 133.016 77.5652 133.612 76.9963 133.989C76.5939 134.255 76.1227 134.295 75.6525 134.324C74.1344 134.417 72.5725 134.345 71.0502 134.345L62.2019 134.345L57.3645 134.349C56.5517 134.352 55.6661 134.447 54.8663 134.319C54.378 137.096 54.072 139.926 53.6847 142.72C53.4987 144.063 53.4296 145.615 52.9422 146.884C52.7339 147.426 52.3476 147.907 51.8777 148.248C51.4224 148.578 50.9127 148.726 50.4363 149H43.2312C42.5098 148.558 41.804 148.381 41.2292 147.695C40.7595 147.135 40.5296 146.465 40.514 145.742C40.4888 144.569 40.7296 143.362 40.8915 142.203L41.6076 137.064L43.5333 123.211C43.893 120.62 44.3136 118.021 44.5869 115.42C43.3151 115.504 42.0051 115.437 40.7286 115.437L33.2585 115.437L23.4767 115.439C21.7303 115.441 19.9635 115.497 18.2189 115.433C17.7379 115.415 17.1993 115.369 16.741 115.214C15.1429 114.674 14.7376 113.628 14.026 112.272L14 112.223V106.326C14.4871 105.569 14.5022 105.033 15.2412 104.257C16.0183 103.441 17.0726 103.131 18.1695 103.103C18.2625 99.716 18.1919 96.3113 18.1912 92.9226C18.1909 91.5201 18.1108 90.0701 18.2138 88.6747C18.2417 88.2962 18.2839 87.84 18.4679 87.5042C18.8335 86.8371 19.4598 86.7158 20.1339 86.5108C20.6684 86.6392 21.1708 86.769 21.5691 87.1797C21.8692 87.4891 22.0009 87.8616 22.0604 88.2803C22.2474 89.5979 22.1165 91.7009 22.1158 93.0972L22.1177 103.122L138.887 103.129L138.891 64.5952L138.89 52.5483L138.885 48.9547C138.883 48.2546 138.843 47.5304 138.891 46.8327C138.927 46.3181 139.077 45.7931 139.429 45.4034C139.828 44.9608 140.361 44.7932 140.94 44.748ZM103.651 122.017L104.436 122.032C104.139 119.848 103.884 117.65 103.553 115.472C99.5424 115.341 95.5007 115.436 91.4868 115.436L69.3496 115.437L60.8851 115.434C59.858 115.435 58.4337 115.591 57.472 115.432L56.5644 122.007L88.4473 122.013C93.5111 122.013 98.5888 121.934 103.651 122.017Z" fill="#32271E"/>
<path d="M56.007 125.935L105.008 125.942C105.15 127.44 105.452 128.921 105.6 130.417C104.257 130.326 102.872 130.391 101.525 130.392L93.9938 130.397L88.1647 130.389C87.0518 130.385 85.8842 130.316 84.777 130.425C84.443 130.458 84.1656 130.57 83.9066 130.787C83.2008 131.38 83.3431 131.877 83.0517 132.32C83.0265 132.358 82.8974 132.398 82.853 132.406C81.2305 132.292 79.5558 132.383 77.927 132.373C77.7873 131.707 77.6041 131.079 76.9856 130.697C76.6729 130.504 76.3596 130.451 76.0001 130.423C73.922 130.262 71.4861 130.394 69.3711 130.395L55.4082 130.384C55.5729 128.897 55.8197 127.419 56.007 125.935Z" fill="#99DCFE"/>
<path d="M137.18 107.032C139.147 107.033 141.122 107 143.087 107.048L143.094 111.496L53.6491 111.506L28.4077 111.506L21.3539 111.509C20.3516 111.51 19.1896 111.631 18.2087 111.473C18.0703 111.48 18.0784 111.493 17.9455 111.421C17.7615 110.689 17.8992 107.964 17.9051 107.048C22.2807 106.947 26.6792 107.036 31.0568 107.035H56.5133L137.18 107.032Z" fill="#99DCFE"/>
<path d="M48.5481 115.413L53.5068 115.42C53.287 117.194 53.0512 118.966 52.7995 120.736C52.5322 122.209 52.3766 123.72 52.1706 125.204L50.9749 133.823L49.9753 141.011C49.7867 142.365 49.5425 143.736 49.4347 145.099L44.4316 145.089C44.5958 144.186 44.6893 143.259 44.8156 142.349L45.5632 136.961L47.8808 120.283L48.5481 115.413Z" fill="#99DCFE"/>
<path d="M107.491 115.418L112.462 115.416C112.667 117.05 112.889 118.683 113.128 120.313L116.566 145.094L111.566 145.096C111.487 144.06 111.305 143.019 111.162 141.99L110.42 136.651L108.144 120.304C107.916 118.677 107.698 117.048 107.491 115.418Z" fill="#99DCFE"/>
<path d="M17.1434 16H143.799L143.904 16.0566C145.886 17.1052 146.158 17.1314 147 19.3209V25.0155C146.393 26.3763 145.797 27.5241 144.308 28.0701C143.859 28.2345 143.332 28.3395 142.855 28.2983L142.845 28.4148C142.771 29.3004 142.805 30.1996 142.808 31.088L142.814 35.275C142.814 36.1875 142.896 37.1914 142.705 38.0845C142.627 38.4477 142.464 38.7807 142.181 39.0283C141.818 39.3451 141.382 39.4048 140.993 39.6444C140.969 39.6336 140.945 39.6218 140.921 39.6122C140.222 39.3353 139.564 39.3743 139.177 38.5895C139.019 38.2687 138.942 37.887 138.91 37.5327C138.815 36.4878 138.882 35.393 138.884 34.3417L138.893 28.3221C136.953 28.2509 135 28.2938 133.058 28.2941L123.011 28.2936L92.4492 28.2928L45.9252 28.2922C37.9911 28.2922 30.0448 28.1955 22.1127 28.3005L22.111 63.1165L22.1146 73.9514C22.1157 75.6637 22.2324 77.7193 22.0947 79.3823C22.0534 79.8803 21.8966 80.3995 21.5301 80.7567C21.1443 81.1326 20.6497 81.2838 20.135 81.3833C19.6085 81.2555 19.1118 81.1297 18.7099 80.737C18.3467 80.3819 18.2461 79.9164 18.2094 79.4275C18.0739 77.6258 18.19 75.6679 18.1911 73.8459L18.1946 62.8669L18.1888 28.3634C18.1235 28.3566 18.0583 28.3485 17.993 28.3422C17.5759 28.3037 17.1649 28.2157 16.7686 28.0801C15.1368 27.5394 14.7676 26.5835 14.05 25.1908L14 25.095V19.1895C14.189 18.8887 14.3031 18.5313 14.4737 18.2174C15.2615 16.7688 15.7994 16.7332 17.1434 16Z" fill="#32271E"/>
<path d="M17.9105 19.9425C19.1678 19.7659 20.8938 19.8938 22.194 19.8946L31.1407 19.8984L62.0931 19.8983L116.077 19.898L133.781 19.8981C136.797 19.8981 140.106 19.7872 143.093 19.9277L143.095 24.3815L137.187 24.3847L17.9237 24.3758C17.8585 22.9061 17.9012 21.4144 17.9105 19.9425Z" fill="#99DCFE"/>
<path d="M112.02 32.8541C123.488 32.002 133.478 40.6019 134.341 52.069C135.204 63.5361 126.614 73.5345 115.147 74.4084C103.666 75.2835 93.651 66.679 92.7868 55.1964C91.9226 43.7139 100.536 33.7074 112.02 32.8541Z" fill="#32271E"/>
<path d="M102.236 66.2215C97.5693 62.0211 95.6096 55.5828 97.1448 49.4941C98.68 43.4058 103.458 38.6664 109.559 37.1809C115.66 35.6954 122.082 37.7076 126.244 42.409C132.197 49.1325 131.866 59.3338 125.491 65.6578C119.115 71.9815 108.911 72.2291 102.236 66.2215Z" fill="#4A69E8"/>
<path d="M111.528 43.1308C111.527 43.0734 111.527 43.016 111.528 42.9586C111.534 42.37 111.703 41.8608 112.147 41.4505C112.546 41.082 113.083 40.9001 113.624 40.95C114.152 40.9967 114.639 41.2421 114.971 41.6577C115.341 42.1193 115.454 42.6651 115.385 43.242C115.924 43.4062 116.449 43.6402 116.943 43.9117C117.688 44.3216 118.572 44.9388 118.799 45.8046C118.938 46.3345 118.766 46.9055 118.479 47.3551C117.932 48.2124 116.98 48.3815 116.082 47.97C114.886 47.4216 114.065 46.5306 112.594 46.8842C112.103 47.0021 111.58 47.3499 111.335 47.8014C111.141 48.1615 111.16 48.6319 111.289 49.0098C111.796 50.5048 115.2 51.3264 116.562 51.9678C117.989 52.6393 119.149 53.7771 119.683 55.2785C120.249 56.8704 120.107 58.6246 119.376 60.14C118.561 61.8295 117.173 62.9816 115.414 63.5845C115.438 64.1189 115.426 64.5911 115.276 65.1086C114.986 65.6284 114.639 66.0702 114.042 66.2495C113.523 66.4056 113.007 66.311 112.516 66.1123C112.353 66.0006 112.2 65.886 112.062 65.7432C111.525 65.1873 111.508 64.5501 111.52 63.8238C110.773 63.6734 110.067 63.4915 109.369 63.1788C108.605 62.8359 107.476 62.2452 107.189 61.4069C107.028 60.9365 107.065 60.3587 107.284 59.913C107.532 59.4064 107.995 59.0371 108.533 58.8755C109.44 58.603 110.161 59.1937 110.919 59.5924C111.827 60.0704 113.336 60.1608 114.304 59.8397C114.978 59.6213 115.535 59.1376 115.845 58.4999C116.152 57.8845 116.241 57.2169 115.998 56.5638C115.574 55.4206 113.083 54.8244 111.967 54.3215C110.082 53.4729 108.376 52.4455 107.624 50.4209C107.125 49.0763 107.164 47.4965 107.772 46.1937C108.531 44.5697 109.904 43.727 111.528 43.1308Z" fill="white"/>
<path d="M79.7128 45.1683C80.4576 45.1524 80.9202 45.3686 81.4776 45.8528C82.7063 46.9199 83.8244 48.2037 84.9777 49.3578C85.8677 50.2483 86.9727 51.1385 87.7302 52.136C87.9902 52.4784 88.1973 52.8581 88.2188 53.2953C88.2513 53.9554 87.9372 54.4526 87.5086 54.9196C86.374 56.1564 85.1232 57.3157 83.9353 58.5034C83.0186 59.4201 82.0665 60.5812 80.9971 61.3151C80.6682 61.5408 80.3918 61.6476 79.9861 61.653C79.4764 61.6598 79.0133 61.4566 78.6504 61.1026C78.2844 60.7454 77.9973 60.2609 78.0134 59.7372C78.0254 59.3486 78.1685 58.9751 78.3802 58.6519C78.9927 57.7176 80.7334 56.1901 81.5821 55.3459C78.6285 55.3976 75.6662 55.3521 72.7121 55.3521L55.6175 55.3516L49.5158 55.349C47.779 55.3454 45.963 55.2324 44.2548 55.5833C42.2258 56.0031 40.3619 57.0024 38.8894 58.4602C35.7488 61.5855 35.7361 64.6008 35.7445 68.7002L35.752 74.833C35.7525 75.8578 35.8386 76.9511 35.7038 77.9629C35.6527 78.3458 35.5631 78.6804 35.3146 78.9843C34.978 79.3963 34.436 79.6891 33.9028 79.7226C33.3604 79.7569 32.8118 79.5309 32.4252 79.1542C31.8995 78.6425 31.8447 77.9733 31.8398 77.279L31.8448 69.9738C31.8437 68.2687 31.7642 66.5288 31.9072 64.8305C32.1791 61.3764 33.6826 58.1348 36.1439 55.6963C38.0974 53.7452 40.5687 52.3945 43.2656 51.8032C45.4089 51.3318 47.6447 51.4489 49.826 51.4497L56.7732 51.4515L81.568 51.4559C80.6952 50.5836 78.394 48.6006 78.0952 47.5571C77.9568 47.0734 78.022 46.5822 78.2849 46.1538C78.6369 45.58 79.0686 45.32 79.7128 45.1683Z" fill="#32271E"/>
<path d="M32.8781 84.2884C36.8324 83.7824 40.4434 86.5907 40.9266 90.548C41.4097 94.5053 38.5804 98.0997 34.6205 98.56C30.6929 99.0164 27.1339 96.2153 26.6548 92.2903C26.1756 88.3655 28.9561 84.7903 32.8781 84.2884ZM34.2957 94.6606C35.4632 94.4785 36.4428 93.6831 36.8606 92.5776C37.2784 91.4723 37.0698 90.2277 36.3146 89.3188C35.5594 88.4099 34.374 87.9771 33.2108 88.1854C31.4402 88.5026 30.2545 90.1854 30.5517 91.9596C30.849 93.7335 32.5184 94.938 34.2957 94.6606Z" fill="#32271E"/>
<path d="M33.2106 88.1853C34.3737 87.977 35.5591 88.4097 36.3144 89.3187C37.0696 90.2276 37.2781 91.4721 36.8603 92.5774C36.4426 93.683 35.463 94.4784 34.2954 94.6605C32.5182 94.9379 30.8487 93.7334 30.5515 91.9594C30.2542 90.1852 31.4399 88.5025 33.2106 88.1853Z" fill="#36C99F"/>
<path d="M33.7762 32.7725C35.1763 32.9339 36.5461 34.7242 37.5059 35.7061C38.3368 34.8519 39.9246 32.8642 41.1071 32.7925C41.6506 32.7596 42.1963 32.9867 42.5818 33.3656C42.945 33.7228 43.1738 34.2217 43.1653 34.7349C43.1442 36 41.15 37.5764 40.2525 38.4463C41.0729 39.2521 42.7795 40.6287 43.0899 41.7163C43.2196 42.1696 43.1868 42.7089 42.945 43.1204C42.6018 43.7043 41.9831 43.9649 41.3607 44.1293C41.322 44.1293 41.283 44.1295 41.2443 44.1288C39.9507 44.102 38.374 42.0977 37.5031 41.2097C36.6586 42.0816 35.0487 44.0547 33.8168 44.115C33.3022 44.1402 32.8494 43.9428 32.4841 43.5856C32.1097 43.2193 31.8446 42.7702 31.8431 42.2361C31.8396 40.8945 33.8382 39.3542 34.7627 38.4526C33.9041 37.6735 32.0202 36.0699 31.8593 34.9601C31.7843 34.4425 31.9482 33.9546 32.2656 33.5457C32.6558 33.043 33.1698 32.8578 33.7762 32.7725Z" fill="#32271E"/>
<path d="M65.7751 35.7016C66.6253 34.8407 68.1283 32.9157 69.3471 32.8136C69.8908 32.7681 70.4511 32.9728 70.8467 33.3464C71.2156 33.6946 71.407 34.1729 71.412 34.677C71.425 35.9914 69.4165 37.5655 68.5252 38.4586C69.2967 39.1749 71.0595 40.7245 71.3343 41.6833C71.4704 42.1583 71.4452 42.7246 71.1855 43.1545C70.8421 43.7229 70.2134 43.9806 69.5996 44.1323C69.563 44.1318 69.5266 44.1318 69.49 44.1305C68.2262 44.084 66.598 42.083 65.7836 41.2032C64.9293 42.0412 63.3844 43.9834 62.2111 44.0969C61.6702 44.1494 61.1388 43.9429 60.7405 43.5808C60.3543 43.2296 60.1096 42.7303 60.1007 42.2051C60.08 40.9464 62.1464 39.313 63.021 38.4548C62.2155 37.7081 60.3525 36.1328 60.1462 35.0541C60.0467 34.5342 60.1945 33.9731 60.5125 33.5529C60.8811 33.0661 61.4328 32.8574 62.017 32.7744C62.2734 32.797 62.5363 32.8313 62.7706 32.9438C63.758 33.4178 64.9846 34.9075 65.7751 35.7016Z" fill="#32271E"/>
<path d="M47.5976 63.1628C47.7511 63.155 47.908 63.1457 48.0615 63.1558C49.2138 63.2319 50.848 65.2555 51.626 66.0802C52.4905 65.2038 54.0837 63.1831 55.3347 63.1566C55.8625 63.1454 56.3675 63.3834 56.7385 63.7509C57.1091 64.118 57.2871 64.6082 57.2876 65.1285C57.2892 66.3483 55.2178 68.0085 54.3863 68.8327C55.0692 69.3923 56.7626 71.0155 57.1159 71.792C57.3227 72.2466 57.3598 72.7874 57.1746 73.2552C56.9421 73.8433 56.4148 74.179 55.856 74.4075C55.6674 74.4514 55.4627 74.4686 55.2692 74.465C54.0917 74.4431 52.4313 72.385 51.6271 71.5769C50.7618 72.4515 49.279 74.3649 48.0303 74.4455C47.4861 74.4805 46.9328 74.2917 46.5406 73.9085C46.1787 73.5506 45.979 73.0604 45.9875 72.5515C46.0042 71.2714 48.0002 69.6988 48.8946 68.8221C48.1436 68.1532 46.425 66.6008 46.1057 65.708C45.9413 65.2482 45.9327 64.6809 46.1496 64.2362C46.4304 63.6608 47.0196 63.3589 47.5976 63.1628Z" fill="#32271E"/>
<path d="M112.088 84.2632C113.12 84.1786 114.182 84.2248 115.218 84.2256L120.636 84.2279L126.822 84.2303C127.803 84.2305 128.807 84.1742 129.784 84.2277C130.141 84.2474 130.485 84.3225 130.8 84.4957C131.25 84.7415 131.58 85.161 131.713 85.6566C131.848 86.1572 131.774 86.691 131.509 87.136C131.208 87.6511 130.773 87.9244 130.209 88.0784C129.287 88.1844 128.334 88.1387 127.407 88.1377L122.918 88.1335L116.278 88.1379C115.119 88.1387 113.94 88.1857 112.784 88.1288C112.411 88.1104 112 88.0667 111.658 87.913C111.204 87.7093 110.856 87.3261 110.696 86.8555C110.513 86.3302 110.562 85.686 110.818 85.1911C111.069 84.7067 111.598 84.4386 112.088 84.2632Z" fill="#32271E"/>
<path d="M81.1032 84.2627C82.2049 84.1832 83.3299 84.2253 84.4342 84.2266L89.6973 84.2284L95.893 84.2281C96.8094 84.2279 97.7482 84.1723 98.6621 84.2159C99.0154 84.2328 99.3671 84.2957 99.6884 84.4487C100.164 84.6695 100.531 85.0719 100.707 85.5654C100.875 86.0366 100.842 86.5562 100.617 87.0027C100.334 87.5656 99.8497 87.8973 99.2603 88.0763C98.3221 88.1753 97.3659 88.1384 96.4232 88.1376L92.1848 88.1366L85.5185 88.1353C84.3129 88.1366 83.0995 88.1711 81.8953 88.1324C81.5705 88.1218 81.2165 88.1093 80.9061 88.0056C80.3871 87.8324 79.9745 87.476 79.7545 86.9718C79.5345 86.4676 79.5371 85.894 79.7613 85.3916C80.032 84.7835 80.5016 84.4827 81.1032 84.2627Z" fill="#32271E"/>
<path d="M50.1417 84.2604C51.1026 84.1731 52.1011 84.224 53.0672 84.2243L58.2687 84.2269L64.4979 84.2248C65.6203 84.222 66.7724 84.1672 67.892 84.2238C68.1871 84.2394 68.4757 84.3147 68.7412 84.4446C69.2069 84.675 69.5586 85.0857 69.714 85.5818C69.8779 86.0931 69.8189 86.684 69.549 87.149C69.2573 87.6517 68.8064 87.921 68.2598 88.0725C67.3099 88.1943 66.3126 88.139 65.3543 88.1377L60.9204 88.1361L54.413 88.1291C53.2204 88.1314 52.0099 88.1938 50.8192 88.1374C50.4796 88.1213 50.1383 88.0722 49.8191 87.9504C49.353 87.7724 48.9574 87.4482 48.7714 86.9768C48.6039 86.551 48.528 85.9289 48.7208 85.5021C49.0333 84.8096 49.4497 84.5067 50.1417 84.2604Z" fill="#32271E"/>
<path d="M50.6455 94.7352C52.5556 94.677 54.477 94.7209 56.3884 94.7214C57.481 94.7217 58.6424 94.6313 59.7251 94.7404C60.068 94.7752 60.4075 94.8402 60.7148 95.0028C61.1741 95.2459 61.491 95.635 61.6188 96.1405C61.7533 96.6715 61.6619 97.2342 61.3665 97.6952C60.9899 98.2797 60.5023 98.4792 59.8532 98.607C57.9771 98.6525 56.0949 98.6119 54.2181 98.6184C53.0031 98.6229 51.6734 98.7372 50.4725 98.5803C50.0558 98.5257 49.6233 98.4241 49.2843 98.1651C48.8827 97.8578 48.6682 97.3944 48.6217 96.897C48.565 96.345 48.7427 95.7945 49.1116 95.3802C49.5495 94.8942 50.0244 94.7833 50.6455 94.7352Z" fill="#32271E"/>
<path d="M112.628 94.7344C114.454 94.6811 116.289 94.7292 118.116 94.7237C119.289 94.7204 120.547 94.6172 121.71 94.7406C122.099 94.7819 122.48 94.8734 122.813 95.0861C123.243 95.3599 123.472 95.7542 123.583 96.2439C123.714 96.8234 123.571 97.376 123.238 97.8633C122.896 98.3636 122.315 98.5171 121.754 98.6083C119.848 98.6506 117.936 98.6231 116.029 98.6259C114.857 98.6278 113.617 98.7099 112.454 98.5888C112.094 98.5514 111.719 98.4841 111.414 98.2781C110.969 97.9784 110.67 97.4742 110.588 96.9468C110.499 96.3714 110.674 95.8678 111.031 95.4171C111.447 94.8942 112.002 94.7897 112.628 94.7344Z" fill="#32271E"/>
<path d="M81.6259 94.7364C83.3876 94.6598 85.1772 94.7169 86.9417 94.7169C88.172 94.7169 89.4758 94.6302 90.6987 94.7408C91.0499 94.7725 91.3902 94.8395 91.704 95.0066C92.1462 95.2416 92.4623 95.6297 92.5878 96.1163C92.7288 96.6535 92.6413 97.2252 92.3462 97.6957C91.9732 98.2793 91.4817 98.4794 90.8354 98.6064C88.9477 98.6521 87.0542 98.6113 85.1655 98.6222C83.969 98.629 82.6657 98.7487 81.4846 98.5994C81.0729 98.5474 80.6718 98.4274 80.3318 98.1822C79.9143 97.8806 79.6616 97.4382 79.6021 96.9278C79.5363 96.3641 79.6917 95.8246 80.0637 95.3939C80.4925 94.8975 81.0061 94.791 81.6259 94.7364Z" fill="#32271E"/>
</svg>
