<svg width="160" height="160" viewBox="0 0 160 160" fill="none" xmlns="http://www.w3.org/2000/svg">
<path d="M45.6965 73.0067C49.5508 72.8392 52.8139 75.8223 52.9924 79.676C53.1708 83.53 50.1974 86.8016 46.3439 86.9914C42.4749 87.1819 39.1866 84.1935 39.0076 80.3237C38.8284 76.4539 41.8262 73.1747 45.6965 73.0067Z" fill="#32271E"/>
<path d="M77.3159 13.0548C114.297 11.572 145.475 40.3556 146.946 77.3374C148.417 114.319 119.623 145.488 82.641 146.947C45.6758 148.405 14.5241 119.628 13.0539 82.6626C11.5837 45.6979 40.3514 14.5369 77.3159 13.0548Z" fill="#32271E"/>
<path d="M86.5781 111.045C87.2821 110.893 88.0133 111.131 88.4927 111.669C88.972 112.206 89.1253 112.96 88.8941 113.642C88.6626 114.324 88.0826 114.829 87.375 114.964C86.2994 115.17 85.2586 114.471 85.0405 113.398C84.8222 112.325 85.5077 111.276 86.5781 111.045Z" fill="#F8F7F8"/>
<path d="M69.6738 85C70.5279 85.7591 71.3178 86.6621 72.1218 87.4791C74.0756 89.4642 76.0051 91.4851 78 93.4269C76.3334 94.8163 74.71 96.5547 73.1359 98.0721L63.6532 107.211L57.807 112.84C56.9814 113.636 55.7825 114.596 55.1305 115.501C54.7977 115.964 54.6871 116.604 54.7937 117.162C55.1305 118.924 57.5768 118.667 58.8776 119.027C59.7832 119.277 60.6714 119.723 61.4453 120.258C63.7508 121.853 65.1788 124.459 65.2969 127.287C65.3321 128.072 65.1225 128.918 65.2838 129.689C65.6246 131.317 67.9318 131.306 69.1139 132.085C70.5146 133.009 71.4541 134.496 71.7935 136.146C72.2452 138.341 71.6271 140.168 70.4607 142C60.6533 140.495 51.3413 136.636 43.2991 130.746C32.2055 122.644 24.0242 111.087 20 97.8335C20.6727 95.8392 21.8386 93.7499 23.4548 92.3884C24.7116 91.3298 26.3172 90.7557 27.9547 90.9245C29.5147 91.085 31.0162 91.9758 31.8185 93.3574C32.1325 93.8982 32.3716 94.5469 32.774 95.0252C33.6258 96.0378 34.9658 95.6125 36.0961 95.5056C36.6224 95.4578 37.1519 95.4575 37.6782 95.5051C41.0091 95.7862 44.2666 97.7946 45.8625 100.814C46.3188 101.678 46.5777 102.85 47.2145 103.582C47.5678 103.989 48.0185 104.242 48.5579 104.264C49.1758 104.289 49.5835 104.009 50.0509 103.642C50.8461 103.018 51.5637 102.243 52.2973 101.544L56.4251 97.6141L69.6738 85Z" fill="#99DCFE"/>
<path d="M65.5411 96.02C65.9611 95.9866 66.3068 95.9754 66.703 96.1481C67.2347 96.3795 67.6827 96.8106 67.8885 97.3747C68.0718 97.8785 68.024 98.4337 67.7831 98.9087C67.6006 99.2691 67.2696 99.5841 66.9851 99.8603C65.8219 100.991 64.5717 102.049 63.3668 103.132L56.6818 109.154L50.3118 114.893C49.0595 116.027 47.8271 117.216 46.5312 118.295C46.1916 118.577 45.8791 118.803 45.4618 118.954C45.0907 119.012 44.7748 119.034 44.4145 118.906C43.8778 118.715 43.4124 118.297 43.1728 117.763C42.9623 117.293 42.9406 116.766 43.1271 116.284C43.2827 115.882 43.5624 115.577 43.8593 115.282C44.7851 114.362 45.8028 113.516 46.7713 112.643L52.3163 107.648L59.7806 100.927C60.9653 99.8562 64.3383 96.553 65.5411 96.02Z" fill="#32271E"/>
<path d="M112.606 43.049C112.846 43.0227 113.089 43.0237 113.331 43.0199C114.603 42.9993 117.83 42.9412 118.914 43.208C119.377 43.322 119.815 43.5405 120.152 43.883C120.452 44.1924 120.666 44.5751 120.772 44.9931C121.05 46.0516 120.99 48.407 120.999 49.5865C121.031 53.4449 120.119 57.3671 118.148 60.7074C116.385 63.6943 113.919 65.968 111.487 68.3987L105.471 74.4119L84.8996 95L81.1397 91.2404C77.0975 87.1985 73.1033 83.0901 69 79.1109C69.9092 78.2825 70.7625 77.3638 71.6332 76.4934L76.731 71.396L92.1066 56.019L96.7828 51.3399C98.5233 49.5987 100.198 47.8348 102.278 46.4864C105.406 44.4582 108.893 43.3359 112.606 43.049Z" fill="#4A69E8"/>
<path d="M104.989 81C105.219 81.1357 107.592 89.7175 108 90.7959C106.478 92.0643 105.077 93.5338 103.645 94.8962C101.871 96.5851 100.021 98.242 98.3234 100L96.0581 98.2307C94.3449 96.9613 92.6898 95.607 91 94.3078C93.5402 92.0195 95.9724 89.6012 98.4471 87.2466C100.626 85.1734 102.888 83.1426 104.989 81Z" fill="#36C99F"/>
<path d="M45.7337 78.012C47.3671 77.8663 48.8149 79.0596 48.9838 80.6911C49.1527 82.3224 47.9802 83.7869 46.3516 83.9793C45.2771 84.1061 44.2173 83.6444 43.5786 82.7711C42.9398 81.8979 42.8208 80.7483 43.2672 79.7626C43.7135 78.7771 44.6558 78.1081 45.7337 78.012Z" fill="#F8F7F8"/>
<path d="M107.431 51.033C110.169 50.7192 112.645 52.6804 112.965 55.4177C113.287 58.155 111.332 60.6358 108.595 60.9639C105.849 61.2934 103.357 59.3299 103.035 56.5824C102.712 53.8349 104.682 51.3481 107.431 51.033Z" fill="white"/>
<path d="M86.2319 107.054C89.5271 106.593 92.5405 109.122 92.953 112.693C93.3654 116.265 91.0199 119.52 87.7214 119.952C84.4412 120.382 81.4571 117.858 81.047 114.307C80.6369 110.755 82.955 107.512 86.2319 107.054Z" fill="#32271E"/>
<path d="M78.0259 17.0573C79.9468 16.9354 81.9502 17.027 83.8694 17.1549C100.587 18.1815 116.204 25.8341 127.257 38.4152C138.303 50.9189 143.922 67.3003 142.876 83.9496C141.821 100.704 134.114 116.344 121.467 127.389C108.702 138.588 91.9481 144.147 75.0182 142.802C75.2028 142.412 75.3632 142.006 75.5075 141.599C76.4734 138.83 76.3017 135.79 75.0298 133.147C73.9117 130.788 71.9078 128.966 69.4534 128.077C69.3746 126.021 69.0038 124.12 68.079 122.265C66.6528 119.403 64.0384 116.95 60.9842 115.918C61.8403 115.203 62.6356 114.378 63.4457 113.61L67.9702 109.314L81.0285 96.9077C81.8408 97.7329 83.2439 99.3564 84.1779 99.9106C84.464 100.08 84.7784 100.185 85.1134 100.18C86.4338 100.164 87.7998 98.383 88.6559 97.5177C90.1014 98.8915 92.0884 100.361 93.6774 101.661C94.8309 102.604 96.4785 104.125 97.6831 104.865C98.2253 105.198 98.5996 105.307 99.238 105.139C99.662 105.027 99.9739 104.768 100.296 104.484C101.821 103.141 103.223 101.572 104.664 100.133L109.147 95.6597C109.92 94.8885 111.614 93.4106 112.082 92.5354C112.209 92.2998 112.324 92.0223 112.316 91.7505C112.287 90.7228 111.801 89.518 111.52 88.5255L110.062 83.3852C109.526 81.4936 108.962 79.6047 108.475 77.7004L114.841 71.3366C116.271 69.9073 117.772 68.5083 119.066 66.953C122.887 62.3591 124.844 56.7337 124.914 50.7789C124.925 49.8009 124.875 48.8164 124.844 47.8389C124.77 45.5159 124.66 43.6517 122.92 41.9019C120.59 39.5585 117.361 39.8556 114.313 39.8502C108.265 39.84 102.553 41.755 97.8722 45.6303C96.2888 46.9409 94.8723 48.464 93.42 49.9164L87.0222 56.3095C84.2692 55.3874 81.3894 54.6892 78.5947 53.8987L75.3264 52.976C74.652 52.7861 73.9488 52.5427 73.2529 52.4559C72.7051 52.3877 72.2327 52.5959 71.8122 52.9352C71.0566 53.5444 70.3752 54.3244 69.6885 55.0118L65.6981 59.0049L62.1243 62.5729C61.3814 63.31 60.5481 64.0406 59.9084 64.8685C59.6636 65.1852 59.5532 65.5449 59.5204 65.9427C59.4825 66.4018 59.6945 66.7617 59.9334 67.1367C60.6957 68.3337 61.7586 69.4409 62.6609 70.5428C64.179 72.3971 65.664 74.3003 67.2367 76.1073C67.198 76.1427 67.1593 76.1782 67.1211 76.2144C66.2726 77.0222 64.5567 78.3048 64.5608 79.5834C64.5648 80.8309 66.1466 82.0131 66.9924 82.8318C64.9348 84.5773 62.7869 86.7472 60.8004 88.6136L49.3314 99.3685C48.4923 97.9172 47.4132 96.6187 46.1396 95.5284C43.1042 92.9201 39.2184 91.7935 35.2565 92.0925C34.5209 90.9143 33.655 89.9145 32.5012 89.1253C30.4015 87.6941 27.8111 87.1749 25.3218 87.6863C22.3727 88.2649 19.9289 90.1412 18.2745 92.605C17.6023 89.4775 17.2052 86.1842 17.0708 82.9876C16.2773 66.2825 22.18 49.9505 33.4709 37.6106C44.9335 25.0209 61.006 17.6066 78.0259 17.0573Z" fill="#EDF0FD"/>
<path d="M87.4222 75.0246C87.8773 74.9807 88.3229 74.9827 88.7532 75.1397C89.2571 75.3233 89.6335 75.7067 89.8392 76.1591C90.0325 76.5847 90.0696 77.0864 89.8503 77.5102C89.4671 78.2507 83.3094 83.7987 82.3199 84.5493C82.075 84.7351 81.8269 84.8473 81.5319 84.9535C81.1773 85.0212 80.7995 85.0185 80.452 84.9217C79.9549 84.783 79.4816 84.4503 79.2402 84.0269C78.9826 83.5758 78.9202 82.9984 79.1117 82.5167C79.2247 82.2326 79.4614 81.9825 79.6785 81.7577C80.8235 80.5713 82.1499 79.4755 83.3767 78.3576C84.4485 77.3807 85.5126 76.267 86.6911 75.4005C86.9186 75.2335 87.1563 75.1293 87.4222 75.0246Z" fill="#32271E"/>
<path d="M73.6724 56C75.6877 56.6203 77.7332 57.1655 79.7616 57.7428C81.1602 58.141 82.578 58.6168 84 58.9152L72.1943 70.7591C71.4465 71.4939 70.7108 72.2407 69.9877 73C68.0005 70.5611 66.0532 68.067 64 65.6855C65.6599 64.1383 67.2356 62.478 68.8388 60.8714C70.4511 59.2561 72.1162 57.6691 73.6724 56Z" fill="#36C99F"/>
</svg>
