<svg width="154" height="220" viewBox="0 0 154 220" fill="none" xmlns="http://www.w3.org/2000/svg">
<path d="M67.754 3.48898C76.4048 -0.523484 84.0212 -1.20529 93.0947 2.12365C102.588 5.60653 110.242 13.2877 114.448 22.4061C117.442 28.8994 118.59 36.9452 116.059 43.7812C115.217 46.0455 114.015 48.1588 112.498 50.0395C114.613 51.807 115.645 54.0478 115.904 56.7828C116.247 60.4149 115.389 64.4915 113.013 67.3277C111.6 69.0142 109.65 70.1741 107.432 70.3535C106.704 70.4123 105.971 70.3673 105.243 70.3246C103.303 77.4709 99.8475 83.3044 94.412 88.3451C94.378 89.2557 94.0585 92.6189 94.4788 93.2419C94.9144 93.3797 95.4239 93.5008 95.8259 93.7155C96.2913 93.9638 96.7824 94.529 97.1867 94.892C98.6668 96.2206 100.162 97.7312 101.922 98.6742C104.625 100.122 107.495 101.349 110.268 102.662L125.148 109.747C128.564 111.379 132.517 112.935 135.531 115.231C137.586 116.797 139.141 118.824 140.327 121.106C141.941 124.212 142.828 127.694 143.541 131.101C146.388 144.711 147.563 159.432 148.73 173.309C149.146 178.088 149.483 182.875 149.744 187.668C149.927 190.87 150.168 194.123 150.019 197.331C149.95 199.186 149.631 201.023 149.072 202.792C147.7 207.09 144.765 211.074 140.708 213.167C136.647 215.265 130.689 215.874 126.332 214.469C125.94 214.344 125.66 214.177 125.361 213.894C125.4 215.35 125.917 218.668 124.862 219.752C124.72 219.896 124.449 219.978 124.246 219.968C123.855 219.949 123.339 219.767 123.092 219.454C122.94 219.26 122.867 219.021 122.8 218.79C122.691 218.848 122.639 218.885 122.526 218.923C121.511 219.258 112.039 219.014 110.361 219.014H71.8975L45.8699 219.017C41.7478 219.017 37.0884 219.253 33.0194 218.993C32.7686 218.978 32.5783 218.911 32.3594 218.788C32.2246 219.188 32.1294 219.522 31.7353 219.729C31.334 219.94 30.9937 220.037 30.5425 219.987C30.1684 219.798 30.005 219.61 29.8601 219.209C29.2692 217.575 29.7948 214.428 29.8174 212.621C28.413 214.086 24.0557 214.655 22.0201 214.695C17.5864 214.785 13.0104 213.179 9.79955 210.092C4.98399 205.465 3.39772 198.931 3.3068 192.461C3.22309 186.512 3.90566 180.43 4.53888 174.523C5.57773 165.171 6.81777 155.844 8.25808 146.546C9.28458 139.911 10.2714 131.658 12.3134 125.385C13.3732 122.13 14.963 118.949 17.3761 116.481C20.465 113.323 25.328 111.558 29.2611 109.65L43.6577 102.74C46.1949 101.53 48.8576 100.408 51.3138 99.0487C53.2351 97.9855 57.5947 93.5804 59.0868 93.2962L59.0057 93.1728L59.3457 93.2806C59.7392 91.9187 59.4135 89.8287 59.3639 88.4076C53.9763 83.2131 50.5665 77.5265 48.526 70.3206C45.9768 70.4922 43.8556 70.1665 41.8597 68.4199C39.2933 66.174 38.0798 62.6425 37.893 59.3159C37.7254 56.3322 38.2958 53.3295 40.3317 51.0366C40.7453 50.5708 41.2404 50.1718 41.7265 49.784C37.591 44.1862 35.1914 38.0488 36.2407 31.0282C37.5948 21.9692 43.9236 13.3395 51.1714 7.98868C55.5555 4.7518 60.9327 2.42071 66.4825 3.25152C66.9096 3.31245 67.3338 3.3916 67.754 3.48898Z" fill="#32271E"/>
<path d="M60.711 150.548C63.9902 151.072 67.1675 152.047 70.3102 153.103L70.288 166.728C70.2871 169.14 70.1003 171.735 70.4105 174.121C70.5388 175.108 70.7908 176.41 71.5201 177.141C72.8421 178.469 75.222 178.452 76.9689 178.388C77.7503 178.359 78.7698 178.392 79.4752 178.052C80.1217 178.853 81.3577 179.491 82.2347 180.016C86.6795 182.719 91.4254 184.893 96.3757 186.491C97.8254 186.96 99.4456 187.051 100.849 187.578C101.754 187.918 102.238 188.917 103.045 189.249C103.029 189.275 103.013 189.302 102.996 189.327C102.411 190.205 100.901 190.631 101.134 191.918C101.573 194.343 111.142 204.768 113.299 206.719C115.226 208.45 117.308 210.001 119.518 211.353C120.136 211.734 121.655 212.744 122.346 212.643L122.8 218.789C122.691 218.848 122.638 218.884 122.526 218.922C121.511 219.258 112.039 219.013 110.361 219.013H71.8974L45.8699 219.017C41.7477 219.017 37.0884 219.253 33.0194 218.993C32.7686 218.977 32.5782 218.911 32.3594 218.788C32.4376 216.119 32.7675 213.463 32.8645 210.796C34.9194 210.364 38.9026 204.669 40.0394 202.927C41.7177 200.355 50.3685 185.318 49.9883 183.384C49.747 182.156 47.6606 181.666 46.9924 180.664C48.1042 179.842 48.7365 178.485 49.9458 177.754C51.4992 176.816 53.5006 176.273 55.1996 175.597C60.9086 173.322 63.2695 170.547 66.7771 165.695C68.0334 163.956 69.6728 162.007 69.9834 159.822C70.1236 158.835 69.9576 157.819 69.3486 157.009C68.7653 156.234 67.9176 155.841 66.972 155.712C66.0723 155.589 65.2392 155.708 64.3598 155.899C63.5785 153.544 62.6152 152.173 60.711 150.548Z" fill="#778EEE"/>
<path d="M76.0255 186.153C79.0392 185.627 81.9054 187.652 82.4169 190.669C82.9285 193.683 80.8908 196.539 77.8726 197.039C74.873 197.532 72.0374 195.511 71.5289 192.514C71.0203 189.518 73.0305 186.673 76.0255 186.153Z" fill="#32271E"/>
<path d="M76.1875 188.987C77.6257 188.554 79.1418 189.372 79.5696 190.811C79.9976 192.25 79.1744 193.763 77.7334 194.186C76.2991 194.607 74.7943 193.789 74.3685 192.356C73.9426 190.925 74.756 189.418 76.1875 188.987Z" fill="#FEDD35"/>
<path d="M42.7155 106.498L42.9188 106.534C43.3294 107.788 39.4261 123.057 40.196 125.128C40.5069 125.964 45.9551 128.023 47.1834 128.558C46.2108 129.929 42.9245 133.554 42.7831 135.02C42.6079 136.833 47.6824 142.645 48.9674 144.24C41.0683 148.307 37.0061 155.47 32.5482 162.751C31.7931 163.985 30.4751 166.599 29.4998 167.481C28.6978 167.367 28.1893 166.712 27.2803 166.853C26.7957 166.929 26.4575 167.284 26.1293 167.622C23.5571 170.279 21.2978 173.438 18.9339 176.29C15.9276 179.916 12.6136 183.496 9.91374 187.345C9.6294 187.751 9.29666 188.222 9.4132 188.742C9.50602 189.154 9.82548 189.501 10.1892 189.703C10.416 189.828 10.8119 189.934 11.0663 189.849C11.4047 189.737 11.6536 189.56 11.8952 189.298C13.8061 187.233 15.4988 184.86 17.3009 182.685L24.3629 174.191C25.4308 172.898 27.0271 171.348 27.7362 169.852C27.7516 169.82 27.7655 169.787 27.7801 169.753C27.8122 169.808 27.8425 169.865 27.8761 169.918C28.8949 171.551 43.0479 182.268 44.4954 182.577C44.5135 182.602 44.5296 182.63 44.5493 182.655C44.9755 183.198 46.1806 184.073 46.8337 184.189C46.1274 186.326 44.7627 188.511 43.7301 190.528C40.1496 197.521 36.0516 206.41 28.7235 210.136C25.1743 211.943 20.6072 212.302 16.8095 211.036C13.0768 209.792 10.2812 207.048 8.56341 203.565C7.05914 200.514 6.35399 197.092 6.20916 193.711C5.94665 187.59 6.71236 181.207 7.37423 175.127C8.49907 165.082 9.86325 155.065 11.466 145.085C12.4588 138.824 13.1687 131.816 15.2154 125.829C16.0713 123.325 17.4123 120.515 19.3224 118.638C22.0882 115.919 28.2096 113.497 31.8318 111.755L42.7155 106.498Z" fill="#778EEE"/>
<path d="M24.9702 126.27C25.4318 126.345 26.0164 126.416 26.301 126.841C26.9013 127.737 27.0923 129.57 27.3075 130.625C28.9526 138.516 29.8038 146.553 29.8486 154.614C29.8677 155.942 30.0818 157.729 29.7303 158.992C29.6115 159.42 29.1016 159.634 28.7402 159.835C28.2519 159.767 27.6401 159.708 27.3409 159.255C26.8491 158.511 27.0084 152.628 26.9475 151.304C26.6779 145.434 26.1789 139.657 25.0994 133.874C24.825 132.404 23.5671 128.459 23.9625 127.224C24.1265 126.712 24.5338 126.515 24.9702 126.27Z" fill="#32271E"/>
<path d="M68.1576 20.061C68.5807 20.4507 69.4182 24.5315 69.7397 25.4377C70.398 27.2939 71.4254 29.1094 72.5387 30.728C74.1584 33.1111 76.1818 35.1931 78.5178 36.8804C80.0671 38.0098 81.6721 38.9258 83.395 39.7606C83.7282 39.9219 85.1702 40.5295 85.3376 40.7757C85.6069 41.172 85.0476 42.0999 85.7962 42.8973C87.0706 43.5853 89.3353 42.2261 90.927 42.5746C92.321 42.8798 93.7226 45.0218 94.9106 44.8616C95.4594 44.7876 95.8208 44.2922 96.1317 43.8845L96.2437 43.7362C97.3309 43.9619 98.6551 44.9376 99.6765 45.4432C100.839 46.0187 102.017 46.5343 103.217 47.0255C103.164 48.7074 102.694 53.9191 103.842 55.0742C104.053 55.2875 104.249 55.3822 104.559 55.3665C104.913 55.3482 105.407 54.9834 105.643 54.719C106.303 53.9803 106.141 52.8666 106.126 51.9479C106.39 51.8652 106.657 51.7906 106.926 51.7238C108.152 51.4275 109.447 51.4616 110.543 52.1417C111.777 52.9086 112.428 54.3117 112.738 55.6829C113.405 58.6396 112.874 62.4283 111.189 64.9805C110.428 66.133 108.782 67.3258 107.401 67.5481C105.444 67.863 106.139 66.3859 104.955 65.6672C104.739 65.5361 104.527 65.4979 104.287 65.5943C102.942 66.1355 102.352 70.5826 101.847 71.9404C99.6265 77.9111 96.1114 83.8813 90.7363 87.5347C89.2597 88.5382 87.6651 89.294 86.0445 90.032C79.9706 92.4704 73.178 92.4041 67.1531 89.8475C60.0124 86.8099 55.085 80.1946 52.4219 73.0766C51.648 71.0082 51.2711 68.702 50.4241 66.6979C50.1876 66.1382 49.9574 65.866 49.4037 65.6473C48.4611 65.7517 48.0093 66.936 47.3285 67.5031C46.8165 67.5621 46.2942 67.4803 45.801 67.3353C44.1548 66.8511 42.9417 65.6236 42.1392 64.1432C40.771 61.6197 40.3967 57.98 41.2338 55.2326C41.6413 53.895 42.4326 52.6212 43.7097 51.9694C45.0435 51.2885 46.3714 51.5446 47.7366 51.9679C47.7343 52.7727 47.6274 53.9051 48.1213 54.5841C48.3827 54.9434 48.8325 55.1053 49.2636 55.1381C49.5846 55.1624 49.8968 55.0611 50.1297 54.8363C51.2787 53.7274 50.6982 49.6533 50.6388 48.1222C56.0826 44.8544 59.2231 39.6367 61.1985 33.7194C62.9262 28.5444 63.8506 23.8372 68.1576 20.061Z" fill="#FECFAA"/>
<path d="M66.4881 72.0747C66.6538 72.0601 66.8195 72.0489 66.9856 72.0411C70.8737 71.887 74.8158 72.0058 78.7094 72.0041C81.3038 72.0029 84.088 71.7985 86.6573 72.0792C87.0857 72.1261 87.4666 72.1649 87.7851 72.482C88.1593 72.8544 88.2752 73.3639 88.2899 73.8764C88.3813 77.0837 86.5935 80.9078 84.4456 83.1734C82.2454 85.1836 79.7196 86.1723 76.7242 86.093C73.7595 86.0146 70.9436 84.9085 68.8989 82.7251C66.8273 80.5128 65.4937 76.9037 65.6415 73.8462C65.6803 73.0469 65.8839 72.6103 66.4881 72.0747Z" fill="#32271E"/>
<path d="M68.6108 74.7646C74.0851 75.0179 79.8053 74.97 85.2825 74.7713C84.5561 76.8367 84.1518 78.6323 82.9076 80.5059C81.8587 81.7972 80.4576 82.7419 78.812 83.0692C76.6259 83.504 74.1071 83.0371 72.2699 81.7638C69.9259 80.139 69.0867 77.4435 68.6108 74.7646Z" fill="#FE8383"/>
<path d="M62.8914 39.6265C64.0935 39.4883 65.4063 39.4837 66.5708 39.854C67.1856 40.0495 68.326 40.4611 68.5978 41.0998C68.7413 41.4371 68.7356 41.9046 68.5689 42.2324C67.8949 43.5571 65.073 42.5188 63.9417 42.4824C63.3468 42.4634 62.7789 42.6433 62.217 42.8182C61.1831 43.3141 60.5009 44.3621 59.4917 44.7647C59.185 44.8871 58.8196 44.8397 58.5339 44.6836C58.134 44.4652 57.7424 44.0525 57.6501 43.5956C57.57 43.1978 57.7217 42.818 57.9385 42.4898C58.9946 40.8895 61.0812 39.982 62.8914 39.6265Z" fill="#32271E"/>
<path d="M63.8481 52.9867C64.2399 52.9411 64.6677 52.9129 65.0564 52.9901C65.7413 53.126 66.3762 53.5814 66.7712 54.1489C67.3162 54.9321 67.4608 55.9801 67.2628 56.902C67.0102 58.0786 66.3996 58.7329 65.4017 59.3604C64.9249 59.4291 64.468 59.473 63.9935 59.3464C63.2494 59.1477 62.6255 58.6367 62.2457 57.9733C61.7732 57.1484 61.6899 56.1019 61.9521 55.1961C62.2688 54.1017 62.8825 53.5339 63.8481 52.9867Z" fill="#32271E"/>
<path d="M88.6365 52.9851C89.0247 52.9481 89.4491 52.9317 89.8312 53.0177C90.5717 53.1842 91.2449 53.7464 91.6217 54.3929C92.101 55.215 92.197 56.2535 91.9389 57.1631C91.6312 58.2475 91.0172 58.8304 90.0628 59.3732C89.6044 59.4281 89.1522 59.4797 88.6997 59.3507C87.9917 59.1485 87.3697 58.6235 87.0208 57.9779C86.5584 57.1228 86.474 56.0682 86.7534 55.14C87.0713 54.0833 87.6903 53.5035 88.6365 52.9851Z" fill="#32271E"/>
<path d="M76.5038 62.0776C76.7088 62.0689 76.9141 62.0719 77.1188 62.0867C77.5037 62.1175 77.8839 62.2623 78.1252 62.5795C78.362 62.8912 78.3854 63.3142 78.3317 63.6876C78.1889 64.6805 77.3593 66.2023 76.5672 66.8256C76.0245 66.8286 75.4902 66.8347 75.0722 66.4238C74.7943 66.1504 74.7193 65.7822 74.7486 65.4047C74.83 64.3563 75.7364 62.7773 76.5038 62.0776Z" fill="#32271E"/>
<path d="M111.03 106.277L125.114 113.063C128.104 114.504 131.497 115.814 134.129 117.863C135.61 119.017 136.666 120.367 137.539 122.02C138.907 124.613 139.712 127.447 140.341 130.297C142.5 140.072 143.6 150.16 144.589 160.111C145.375 167.536 146.011 174.977 146.496 182.427C146.783 187.319 147.371 192.423 147.109 197.308C147.032 198.911 146.749 200.495 146.266 202.025C145.11 205.664 142.529 209.018 139.103 210.757C135.374 212.651 130.012 212.625 126.077 211.302C118.576 208.783 112.768 202.513 107.919 196.555C106.749 195.116 105.275 193.55 104.46 191.889C104.504 191.884 104.548 191.88 104.592 191.872C105.09 191.781 123.438 176.507 124.077 175.497C124.48 176.199 126.37 177.82 127.143 178.069C127.937 179.282 136.126 185.705 137.891 187.184C139.151 188.239 140.363 189.422 141.659 190.422C141.837 190.561 142.027 190.648 142.244 190.711C142.824 190.874 143.434 190.859 143.953 190.521C144.18 190.373 144.351 190.137 144.393 189.87C144.462 189.429 144.248 189.004 143.972 188.672C143.011 187.514 141.367 186.453 140.192 185.466L129.774 176.761C128.678 175.844 127.106 174.812 126.289 173.671C126.269 173.644 126.251 173.616 126.232 173.588C125.969 164.934 126.07 156.361 127.208 147.763C127.533 145.294 127.926 142.834 128.386 140.386C128.638 139.058 129.049 137.669 129.195 136.33C129.258 135.759 129.218 135.134 128.809 134.691C128.514 134.372 128.13 134.231 127.706 134.216C127.452 134.3 127.278 134.375 127.093 134.575C126.025 135.727 125.825 138.588 125.548 140.12C123.593 150.917 123.052 161.534 123.366 172.49C123.052 172.986 122.446 173.529 121.881 173.703C121.541 173.445 121.236 172.422 121.067 172.008C119.917 169.184 119.093 166.135 118.619 163.123C118.095 159.792 117.842 156.416 116.946 153.151C115.352 147.345 112.231 139.82 108.134 135.317C108.142 132.914 108.546 130.453 107.959 128.096C109.236 127.576 113.377 126.219 114.06 125.135C114.3 124.754 114.201 123.89 114.155 123.453C113.955 121.569 113.49 119.643 113.142 117.777C112.41 113.949 111.706 110.116 111.03 106.277Z" fill="#778EEE"/>
<path d="M107.869 139.64C108.934 140.662 109.751 142.798 110.394 144.122C112.162 147.766 113.71 151.582 114.584 155.546C115.188 158.284 115.398 161.079 115.849 163.841C116.308 166.578 117.023 169.266 117.986 171.868C118.426 173.092 118.894 174.476 119.577 175.586C119.354 175.966 105.904 187.442 105.279 187.668C104.439 187.332 103.461 185.721 102.319 185.214C101.013 184.633 99.381 184.416 97.9924 184.035C95.834 183.424 93.7214 182.661 91.6701 181.753C87.9833 180.148 74.5056 172.732 73.1667 168.913C73.0374 168.544 73.0014 168.125 73.1895 167.77C73.3677 167.432 73.6052 167.259 73.9569 167.136C75.0912 167.035 78.3647 169.693 79.4546 170.353C81.3366 171.492 89.4648 176.342 91.5084 175.738C91.84 175.641 92.118 175.429 92.2551 175.108C92.5244 174.474 92.1998 173.743 91.6885 173.337C90.9917 172.781 87.9653 171.674 86.9549 171.177C84.137 169.793 73.9988 164.078 72.9116 161.246C72.7284 160.768 72.7858 160.282 72.9921 159.826C73.1166 159.72 73.2656 159.547 73.4235 159.511C74.8864 159.174 77.9194 161.535 79.1587 162.29C82.3641 164.218 91.1405 168.801 94.679 168.559C95.1457 168.527 95.5956 168.385 95.897 168.007C96.1364 167.707 96.2503 167.318 96.1808 166.938C96.0519 166.23 95.4883 166.018 94.8747 165.824C93.2717 165.317 91.6471 164.923 90.062 164.351C85.6389 162.755 81.7988 160.447 77.8634 157.911C76.5982 157.096 73.2267 154.829 72.9807 153.33C72.9046 152.866 73.0337 152.572 73.3169 152.216C73.8827 151.849 74.3155 151.939 74.9297 152.122C76.8495 152.693 78.6914 153.787 80.4907 154.66C84.7204 156.712 92.2321 160.232 96.8586 159.862C97.5983 159.803 98.5954 159.566 99.0654 158.947C99.2728 158.673 99.3417 158.36 99.2968 158.023C99.2447 157.632 99.0842 157.422 98.82 157.146C97.2988 155.552 95.3447 154.154 93.6481 152.736L83.6247 144.377C82.7982 143.695 81.9866 142.641 81.9275 141.531C81.9053 141.117 81.9837 140.783 82.2815 140.488C82.6399 140.133 83.4085 140.371 83.8021 140.533C85.6911 141.31 87.579 142.882 89.2799 144.031C93.702 147.01 98.0861 150.045 102.431 153.135C103.537 153.912 107.622 157.078 108.778 157.023C109.192 157 109.576 156.8 109.833 156.474C110.065 156.179 110.167 155.8 110.09 155.431C109.871 154.373 107.984 153.527 107.125 153.012C107.727 148.945 107.712 143.814 107.869 139.64Z" fill="#FECFAA"/>
<path d="M59.5701 143.709C63.1363 143.227 66.9692 144.929 70.2664 146.112L70.2786 150.15C68.3871 149.494 66.4163 148.965 64.4684 148.507C63.3322 148.24 62.1819 147.985 61.0142 147.91C60.3922 147.87 55.7425 148.259 55.4215 148.48C55.1047 148.702 54.8973 149.048 54.8508 149.432C54.8084 149.801 54.924 150.159 55.1892 150.422C55.6586 150.886 56.5821 151.122 57.179 151.421C58.361 152.014 59.5223 152.964 60.361 153.984C61.8152 155.752 62.3733 158.083 62.1153 160.338C61.9619 161.678 61.3991 162.529 60.3648 163.354C60.3692 161.546 60.175 159.647 59.251 158.044C58.0725 155.997 55.1494 153.787 52.8653 153.213C52.4001 153.096 52.048 153.097 51.6346 153.352C51.433 153.593 51.3148 153.791 51.2555 154.104C51.1819 154.495 51.1796 154.966 51.4448 155.287C52.3312 156.359 55.0797 156.541 56.7301 159.139C57.72 160.697 57.9449 162.354 57.5328 164.161C57.3743 164.856 56.9528 166.291 56.2856 166.661C56.0419 166.796 55.9397 166.737 55.6867 166.674C55.0507 165.944 55.5303 164.397 55.3378 163.423C54.9973 161.701 53.7449 160.384 52.3342 159.432C51.3326 158.756 49.5518 157.523 48.3106 157.827C47.9877 157.905 47.6724 158.151 47.5227 158.45C46.6133 160.268 51.9669 161.688 52.6805 163.594C53.129 164.791 52.7886 166.331 52.2558 167.443C51.6272 168.755 50.6821 169.761 49.2847 170.241C48.8168 170.4 48.4698 170.455 48.0167 170.229C47.8408 170 47.7546 169.837 47.7043 169.546C47.4894 168.307 48.4446 167.616 49.0668 166.701C49.4142 166.19 49.532 165.809 49.3904 165.194C49.2847 164.734 49.1057 164.605 48.7297 164.379C48.5059 164.359 48.3315 164.351 48.113 164.417C47.0984 164.725 46.3428 165.608 45.8364 166.5C45.2288 167.568 44.8491 168.944 45.1836 170.159C45.2333 170.457 45.285 170.765 45.3911 171.048C45.6819 171.824 46.3136 172.517 47.0834 172.828C48.232 173.291 49.6066 173.088 50.718 172.615C52.2517 171.964 53.6174 170.67 54.2512 169.123C54.3144 169.159 54.3998 169.214 54.4723 169.241C55.231 169.52 56.4856 169.381 57.2159 169.043C58.5102 168.447 59.2108 167.449 59.7032 166.154C60.2158 166.276 60.7073 166.074 61.1845 165.896C63.139 165.16 64.3439 162.793 64.6772 160.845C64.7922 160.173 64.7402 159.239 65.0103 158.629C65.2427 158.501 65.4255 158.438 65.6918 158.407C66.2959 158.336 66.7669 158.361 67.252 158.744C67.3469 158.987 67.4048 159.169 67.3688 159.433C67.1529 161.014 65.587 162.73 64.6546 164C61.0994 168.846 59.2841 171.103 53.5397 173.278C51.97 173.872 50.1258 174.386 48.7111 175.288C46.9519 176.41 46.1718 178.101 44.7956 179.136C44.7377 179.13 44.6432 179.124 44.5825 179.107C43.3428 178.75 32.3331 170.558 31.627 169.303C32.4027 168.764 38.7728 157.778 40.0564 155.971C44.9701 149.055 51.2081 145.112 59.5701 143.709Z" fill="#FECFAA"/>
<path d="M51.3346 102.364L51.4375 102.377C51.514 102.433 51.618 102.462 51.6671 102.543C51.9205 102.959 53.1892 108.066 53.4831 109.022C55.0953 114.112 56.8365 119.161 58.705 124.163C60.8501 130.063 63.0176 135.927 65.6273 141.641C61.1697 140.368 57.561 141.094 53.2756 142.466L51.7036 143C49.668 140.476 47.7035 137.895 45.8122 135.261C47.0604 133.634 49.7392 130.602 50.5104 128.849C50.72 128.373 50.8285 127.877 50.6091 127.382C50.0209 126.054 44.6699 124.211 43.124 123.544C44.1589 117.303 45.3082 111.081 46.2994 104.832L51.3346 102.364Z" fill="#778EEE"/>
<path d="M62.1003 90.4225C64.877 91.986 67.61 93.2693 70.7282 93.9954C77.9808 95.6841 85.4199 94.1922 91.6906 90.2788C91.7834 92.3952 91.8816 94.3495 92.3396 96.4231C90.3883 98.3806 88.5076 100.42 86.5974 102.418C83.4643 105.694 80.1851 108.804 76.8814 111.906C71.6112 106.864 66.4775 101.682 61.4858 96.365C61.9552 94.4103 62.0055 92.4205 62.1003 90.4225Z" fill="#FECFAA"/>
<path d="M95.4254 97.3579C96.7856 98.5116 98.1589 99.6501 99.5449 100.773C97.5644 108.287 94.8931 115.611 92.1298 122.865L86.9861 119.209C84.3932 117.389 81.8163 115.546 79.2554 113.681C84.9088 108.48 90.1717 102.954 95.4254 97.3579Z" fill="#FEFEFE"/>
<path d="M58.3823 97.355C59.6423 98.2298 63.5063 102.695 64.8339 104.095C67.9534 107.336 71.1294 110.523 74.3602 113.654C71.7782 115.318 69.2901 117.189 66.7722 118.952C65.0132 120.148 63.2861 121.397 61.5482 122.623C58.7019 115.483 56.2494 108.192 54.2017 100.784C55.6169 99.6692 56.9936 98.5022 58.3823 97.355Z" fill="#FEFEFE"/>
<path d="M102.152 102.161C104.015 103.074 105.906 103.938 107.783 104.823C108.664 111.102 109.948 117.359 111.1 123.593L106.192 125.6C105.695 125.286 105.165 125.061 104.628 124.825C102.137 124.171 97.4672 124.56 94.8003 124.586C97.6234 117.28 100.273 109.769 102.152 102.161Z" fill="#778EEE"/>
<path d="M70.7357 119.579C71.3369 119.873 72.7922 124.023 73.1439 124.892C72.9209 125.009 72.702 125.133 72.4881 125.266C71.6453 125.782 70.9833 126.434 70.6203 127.368C69.7229 129.676 70.1492 137.188 70.1714 140.076C70.1783 140.953 70.3087 142.043 70.1086 142.894L69.9044 142.956C68.9874 142.466 68.4504 140.633 68.0487 139.712C65.9506 135.019 64.1906 130.234 62.4844 125.388C65.2748 123.523 68.0216 121.552 70.7357 119.579Z" fill="#FEFEFE"/>
<path d="M82.7819 119.75C84.5433 120.659 87.8242 123.338 89.5696 124.608L87.6667 124.621L80.7871 124.639C81.4813 123.022 82.1462 121.392 82.7819 119.75Z" fill="#FEFEFE"/>
<path d="M77.815 131.921C78.6498 131.669 79.5555 131.886 80.1861 132.488C80.8167 133.09 81.0748 133.984 80.8618 134.829C80.6489 135.675 79.9978 136.34 79.1571 136.572C77.8791 136.924 76.5557 136.183 76.1883 134.909C75.8208 133.636 76.5459 132.304 77.815 131.921Z" fill="#FEFEFE"/>
</svg>
