<svg width="154" height="220" viewBox="0 0 154 220" fill="none" xmlns="http://www.w3.org/2000/svg">
<path d="M61.2777 97.3709C49.7201 96.8459 37.6797 94.4766 27.2523 89.4188C26.2808 88.9474 24.9548 88.2242 24.6188 87.1152C24.2107 85.7682 25.9789 84.8566 26.8406 84.1362C27.3103 83.7437 27.7201 83.2767 28.1139 82.8097C36.2141 73.2 33.454 51.2567 35.2471 38.7366C36.0668 32.6582 37.9918 26.7807 40.9268 21.3949C45.3363 13.3124 52.6646 5.79393 61.7025 3.14964C64.7853 2.2477 67.0437 2.41639 69.9473 1.85013C71.9153 1.46634 73.7975 0.771019 75.7883 0.434397C82.9483 -0.755478 90.3002 0.515911 96.6443 4.04138C102.007 6.97965 106.469 11.2363 110.005 16.1969C120.043 30.2824 119.074 44.6403 120.693 60.922C121.08 64.8212 121.467 68.7373 122.453 72.5405C123.143 75.1991 124.027 78.3214 125.595 80.6157C126.169 81.4553 126.868 82.2805 127.62 82.965C128.65 83.9019 131.034 85.0899 131.424 86.4229C131.368 86.9473 131.237 87.3364 130.882 87.7381C129.991 88.7472 128.377 89.291 127.184 89.8639C117.34 94.5917 103.628 96.8571 92.7111 97.1835C92.7073 98.5809 92.6326 100.026 92.7958 101.414C93.9159 101.801 95.0592 99.9725 96.4387 100.185C97.26 100.311 98.1901 101.658 98.7437 102.292C99.9523 103.677 101.178 104.997 102.525 106.251C103.702 107.347 105.342 108.465 106.245 109.773C113.793 112.38 122.197 115.696 128.252 120.982C131.054 123.428 133.129 126.318 134.481 129.784C137.103 136.5 138.039 144.047 139.02 151.155C139.775 156.689 140.502 162.227 141.199 167.769C142.345 176.796 143.812 185.875 144.421 194.955C144.873 201.705 144.971 209.122 140.203 214.496C137.141 217.949 132.604 219.577 128.089 219.864C126.087 219.99 122.139 219.756 120.616 218.407C120.202 218.705 120.005 218.709 119.499 218.739C117.615 218.855 115.66 218.732 113.768 218.732L101.5 218.738L63.182 218.743H42.7764C40.8799 218.743 36.2987 218.979 34.6544 218.696C34.471 218.666 34.2829 218.596 34.1189 218.511C33.8717 218.717 33.6276 218.843 33.3268 218.958C28.9894 220.607 23.7714 220.23 19.5808 218.309C15.6562 216.5 12.6272 213.184 11.1792 209.113C10.1393 206.265 9.88215 203.186 9.90083 200.176C9.95895 190.774 11.6798 181.247 12.8472 171.926L14.8847 155.553C15.9334 147.159 17.0193 136.087 20.5522 128.444C25.3781 118.004 37.4389 113.571 47.5515 109.852L47.5996 109.787C47.6268 109.751 47.6551 109.717 47.6817 109.681C48.7703 108.191 51.1223 106.558 52.5071 105.19C54.1394 103.578 55.4723 101.661 57.2722 100.231C58.16 100.162 58.8321 100.605 59.5693 101.031C60.1424 101.363 60.6351 101.313 61.2764 101.289L61.2777 97.3709Z" fill="#32271E"/>
<path d="M79.4481 160.076C80.62 161.106 84.1906 161.389 85.8391 162.112C86.0865 162.219 86.328 162.306 86.4311 162.563C86.1728 162.821 85.2104 162.832 84.8385 162.883C83.7334 163.034 82.5218 163.398 81.8437 164.361C81.2874 165.15 81.3859 166.189 81.5827 167.082L81.6178 167.238C80.9627 167.887 80.3398 168.537 79.9488 169.384C79.3367 170.712 79.612 171.984 80.1009 173.299C79.5675 174.175 79.2177 175.046 78.886 176.01C78.651 176.143 76.2934 175.952 75.381 176.341C74.2976 176.801 73.2664 178.05 72.8537 179.133C72.4265 180.25 72.4715 181.494 72.9781 182.579C73.4683 183.641 74.3936 184.579 75.5052 184.983C76.3426 185.286 77.471 185.309 78.2836 184.93C78.5373 185.839 78.8412 186.671 79.3226 187.485C79.0073 188.158 78.7012 188.845 78.6097 189.59C78.4833 190.621 78.6793 191.698 79.3313 192.528C79.8992 193.259 80.7468 193.721 81.6695 193.8C82.4763 193.864 83.6124 193.644 84.2306 193.102C86.386 196.057 96.2059 200.183 99.8042 201.189C101.623 201.697 103.61 201.802 105.389 202.376C106.244 202.65 106.896 203.508 107.759 203.697C107.412 204.559 106.491 205.165 106.335 206.108C106.291 206.376 106.329 206.64 106.494 206.861C107.63 208.376 116.536 215.898 118.468 217.281C119.092 217.728 119.841 218.3 120.616 218.407C120.202 218.705 120.004 218.709 119.499 218.739C117.614 218.854 115.659 218.732 113.768 218.732L101.5 218.737L63.1817 218.743H42.7761C40.8796 218.743 36.2984 218.979 34.6542 218.696C34.4707 218.666 34.2826 218.596 34.1187 218.511C34.7751 218.584 36.052 217.735 36.5892 217.384C38.1645 216.332 39.5993 215.084 40.8592 213.671C42.7518 211.51 59.2468 189.538 59.2847 188.609C59.344 187.158 56.6136 185.956 55.8719 184.792C55.8536 184.764 55.837 184.734 55.8196 184.705C56.2245 184.411 56.4574 183.715 56.6614 183.267C56.8025 183.292 56.7993 183.3 56.9676 183.283C59.0738 183.084 62.1318 180.358 63.421 178.786C64.7735 179.128 66.1606 179.079 67.4731 178.592C69.0496 178.009 70.4342 176.797 71.1235 175.254C71.164 175.265 71.2044 175.278 71.2454 175.288C71.8709 175.441 73.0164 175.088 73.5542 174.773C74.952 173.948 75.6422 172.457 76.046 170.957C76.3273 171.037 76.6581 170.929 76.9247 170.827C78.2012 170.34 79.2943 169.15 79.8581 167.929C81.0821 165.28 80.3764 162.668 79.4481 160.076Z" fill="#778EEE"/>
<path d="M47.8379 113.02C47.9712 113.007 48.077 113.049 48.2049 113.082C48.8576 113.98 49.2741 115.254 49.7618 116.267C52.0867 121.094 51.7189 120.087 51.6336 125.267C51.5742 128.877 52.1153 136.217 54.783 138.908C55.6891 139.822 56.4248 139.913 57.672 139.912C58.1372 140.804 58.6202 141.677 59.1729 142.518C60.2205 144.112 63.3514 147.869 65.093 148.397C65.924 148.649 66.8418 148.342 67.6358 148.561C67.9105 148.637 67.9228 148.723 68.0454 148.957C67.8086 149.46 65.7396 150.372 65.1517 150.741C63.4603 151.801 61.8202 152.988 60.2522 154.223C56.9931 156.787 53.9037 159.748 51.1117 162.812C49.7546 164.297 48.4195 165.803 47.1064 167.327C46.1858 168.409 43.5679 172.069 42.6799 172.611C42.0663 172.462 41.6801 171.764 41.1327 171.464C39.2873 170.456 36.9821 174.996 35.2892 175.492C35.2382 172.905 35.3429 170.309 35.3582 167.718L35.426 153.213C35.4552 150.25 35.6603 147.191 35.4895 144.237C35.465 143.815 35.4433 143.264 35.1722 142.921C34.9101 142.589 34.5406 142.392 34.1174 142.363C33.7538 142.338 33.3766 142.449 33.1058 142.699C32.6924 143.081 32.5767 143.757 32.5341 144.296C32.4465 145.402 32.5426 146.542 32.5267 147.653C32.4745 150.604 32.4488 153.556 32.4494 156.508L32.2328 178.509C31.7654 179.477 30.4761 180.466 29.6968 181.219L22.4632 188.159C21.2401 189.325 19.5815 190.6 18.6432 191.98C18.3966 192.342 18.2764 192.751 18.3845 193.185C18.4798 193.568 18.737 193.87 19.0753 194.065C19.3904 194.244 19.7998 194.316 20.1533 194.21C20.5189 194.101 20.8593 193.81 21.1412 193.561C23.5038 191.476 25.6952 189.119 27.9625 186.925C29.3928 185.54 33.0994 182.413 34.0508 180.9C34.6246 180.707 39.9081 175.503 40.3979 174.683C40.8729 175.594 54.8245 188.304 55.7986 188.68C54.9208 190.597 51.0768 195.331 49.5835 197.342L43.0569 206.16C41.4748 208.288 39.9198 210.518 38.055 212.411C36.6026 213.885 34.9148 215.124 32.9919 215.911C29.2345 217.449 24.8661 217.27 21.1535 215.698C17.9607 214.358 15.4539 211.771 14.2141 208.539C13.1829 205.922 12.8878 202.88 12.9148 200.082C12.9983 191.429 14.6624 182.179 15.7387 173.573L18.1233 154.517C19.1006 146.934 20.0814 137.027 23.1672 130.074C27.4293 120.469 38.7139 116.538 47.8379 113.02Z" fill="#778EEE"/>
<path d="M67.9928 20.9902C68.3322 21.2697 69.8542 26.1364 70.4022 27.187C72.3294 30.9011 75.1024 34.1107 78.4977 36.5573C83.2053 39.9375 88.6324 41.4776 94.3814 40.5292C97.5598 42.9073 100.806 45.1108 104.399 46.8197C104.701 48.6051 105.004 50.5171 105.548 52.2415C106.534 55.3687 108.959 52.4951 111.034 53.6824C112.026 54.2501 112.471 55.4864 112.732 56.5351C113.411 59.2619 113.039 62.6077 111.539 65.0141C110.791 66.213 109.254 67.6348 107.708 67.4474C106.945 67.355 105.943 66.8729 105.198 67.0978C104.844 67.2046 104.581 67.5063 104.419 67.8261C103.904 68.8407 103.738 70.2325 103.431 71.3361C102.995 72.907 102.419 74.3742 101.725 75.8488C98.3742 82.9656 92.2686 88.8986 84.8326 91.5759C81.8015 92.7293 78.2813 93.1094 75.0615 92.855C63.9458 91.9767 54.9002 83.6979 50.9647 73.6074C50.5437 72.5279 49.4078 67.932 48.8933 67.4189C48.1155 66.6432 46.6607 67.3263 45.6927 67.3603C44.8029 67.3916 43.9472 66.9808 43.3034 66.3883C41.6038 64.8246 40.8655 62.0307 40.7787 59.8019C40.7092 58.0226 41.0419 55.399 42.3284 54.0488C43.8458 52.4566 45.1851 53.7867 46.8684 53.6352C47.9259 53.5403 48.651 51.0983 49.0021 50.2416C53.559 39.1263 59.6895 29.6724 67.9928 20.9902Z" fill="#FECFAA"/>
<path d="M64.2028 71.7197C68.301 71.5759 72.4276 71.6674 76.5289 71.6651C79.3097 71.6636 86.8561 71.2928 89.1793 72.085C89.3908 72.3267 89.4685 72.5116 89.5006 72.8352C89.7563 75.4136 86.631 80.4511 84.9369 82.4048C84.4016 82.9576 83.8544 83.4727 83.2312 83.9265C80.8275 85.6998 77.8107 86.4303 74.8619 85.9531C71.487 85.3793 68.5485 83.3608 66.6022 80.5756C65.4569 78.937 63.0309 74.4681 63.4581 72.5503C63.5526 72.1255 63.8571 71.9416 64.2028 71.7197Z" fill="#32271E"/>
<path d="M66.269 74.1101C73.0781 73.9437 79.9234 74.089 86.7364 74.0896C86.0197 76.4674 85.1214 78.6024 83.4475 80.4903C82.3035 81.6724 80.917 82.6149 79.3518 83.14C77.0943 83.8971 74.721 83.6761 72.6086 82.59C69.2479 80.8618 67.3774 77.5912 66.269 74.1101Z" fill="#FE997F"/>
<path d="M63.0396 53.0176C63.4185 53.0238 63.8921 53.0804 64.2482 53.218C65.0593 53.5316 65.672 54.1414 66.0217 54.9313C66.4951 56.0011 66.5007 57.3467 66.0773 58.4322C65.6582 59.5066 65.0101 60.0766 63.9768 60.541C63.5628 60.5457 63.1283 60.5216 62.7434 60.3565C61.882 59.9868 61.2388 59.2023 60.9061 58.3418C60.4825 57.2465 60.4785 55.9719 60.9589 54.8947C61.3982 53.9099 62.0496 53.3997 63.0396 53.0176Z" fill="#32271E"/>
<path d="M89.8071 53.0444C90.1258 53.0869 90.4662 53.1241 90.7668 53.2429C91.4889 53.5284 92.0493 54.183 92.3318 54.8947C92.7695 55.998 92.7248 57.4062 92.2559 58.4917C91.7763 59.6021 91.0985 60.1576 89.986 60.5948C89.5433 60.5482 89.0842 60.4448 88.6982 60.2144C87.8642 59.7165 87.3243 58.7678 87.1122 57.8422C86.8466 56.6835 86.9656 55.4004 87.6253 54.3919C88.1647 53.5673 88.8746 53.2505 89.8071 53.0444Z" fill="#32271E"/>
<path d="M88.7983 41.7192C90.0702 41.6012 91.3501 41.6196 92.5885 41.9584C94.0989 42.3719 95.9971 43.3751 96.7581 44.8154C97.0183 45.3073 97.0678 45.719 96.9072 46.2479C96.6647 46.5247 96.5492 46.666 96.1573 46.7153C95.2186 46.8332 94.4204 46.0539 93.7502 45.5092C89.2964 42.7811 88.1997 45.6554 85.6426 45.095C85.3162 44.9026 85.1288 44.679 85.0277 44.3057C84.9535 44.0319 85.0099 43.7387 85.1571 43.4993C85.826 42.41 87.6486 41.9713 88.7983 41.7192Z" fill="#32271E"/>
<path d="M61.4654 41.7219C62.4731 41.6283 63.8166 41.5456 64.7963 41.7883C65.9133 42.0651 67.5213 42.7117 68.0657 43.8191C68.2442 44.1824 68.1978 44.3388 68.0882 44.6988C67.8253 44.9924 67.3434 45.2677 66.9421 45.2883C66.1575 45.3285 64.4638 44.5326 63.5558 44.3777C62.8837 44.2629 62.1769 44.3448 61.5031 44.4067C59.8658 44.8147 59.0031 46.1938 57.6108 46.6068C57.1621 46.7399 56.7979 46.7123 56.3855 46.5008C56.2898 46.3744 56.1453 46.2353 56.1126 46.08C55.9947 45.5168 56.1626 45.0596 56.4674 44.5881C57.5297 42.9448 59.6404 42.1166 61.4654 41.7219Z" fill="#32271E"/>
<path d="M76.0274 62.3398C76.4944 62.4165 76.8687 62.4917 77.2427 62.798C77.4633 63.398 77.0916 63.9296 77.1659 64.5451C77.2233 65.0202 77.6169 65.326 77.6325 65.828C77.4527 66.2884 77.1099 66.4974 76.7261 66.7748C76.6461 66.7663 76.5661 66.7578 76.4866 66.7456C75.8992 66.6552 75.3864 66.3376 75.0522 65.8419C74.6952 65.3121 74.6203 64.6711 74.7481 64.0541C74.9164 63.2412 75.3662 62.7772 76.0274 62.3398Z" fill="#32271E"/>
<path d="M105.674 112.776C113.832 115.888 125.326 119.905 130.093 127.648C132.054 130.833 133.02 134.694 133.829 138.304C135.896 147.523 136.845 157.83 138.068 167.248C139.379 177.347 141.121 187.758 141.526 197.921C141.647 200.971 141.678 204.135 140.937 207.118C140.13 210.369 138.212 212.967 135.335 214.692C132.159 216.596 127.387 217.532 123.749 216.605C122.594 216.311 121.62 215.841 120.622 215.192C119.013 214.145 110.543 207.144 109.788 205.854C110.291 205.605 121.481 190.128 122.442 188.468C123.12 189.232 135.442 197.708 136.105 197.882C136.474 197.978 136.828 197.919 137.148 197.714C137.489 197.493 137.819 197.117 137.866 196.699C138.078 194.8 133.247 193.051 132.194 191.676C132.177 191.653 132.162 191.632 132.147 191.61C131.276 191.406 123.334 185.87 122.728 185.09C122.716 175.864 122.616 166.637 122.426 157.412L122.265 148.516C122.244 147.234 122.329 145.909 122.225 144.633C122.179 144.08 122.047 143.516 121.754 143.038C121.549 142.704 121.149 142.282 120.733 142.238C120.378 142.201 120.09 142.321 119.835 142.563C119.408 142.968 119.23 143.661 119.184 144.232C119.088 145.412 119.244 146.664 119.27 147.851L119.414 155.683C119.582 165.191 119.895 174.741 119.75 184.249C119.609 184.136 119.536 184.038 119.452 183.877C118.266 181.607 117.815 176.216 116.966 173.377C116.046 170.293 114.86 167.089 113.607 164.123C113.075 162.867 112.435 161.657 111.923 160.395C112.49 159.542 113.409 154.951 113.77 153.616C114.178 152.108 114.579 150.51 113.722 149.074C113.218 148.23 112.397 147.731 111.453 147.516C110.381 147.271 94.6718 147.781 92.7304 148.036C92.0532 148.125 91.3682 148.302 90.7899 148.676C89.167 149.727 88.9054 151.7 88.5135 153.436C87.2559 152.822 85.9859 152.231 84.7207 151.633C85.01 150.918 85.3602 150.153 85.7898 149.512C86.7031 148.15 86.9272 148.842 88.216 148.524C88.7254 148.398 89.233 147.931 89.6478 147.613C92.3581 145.535 94.1597 142.919 95.7821 139.95C96.9355 139.913 97.5508 139.642 98.3388 138.799C101.977 134.908 101.931 125.824 101.749 120.819C103.236 118.249 104.496 115.5 105.674 112.776Z" fill="#778EEE"/>
<path d="M110.856 164.895C111.464 166.027 111.858 167.376 112.293 168.586C113.363 171.565 114.393 174.477 115.05 177.579C115.597 180.162 115.954 182.949 116.939 185.409C117.306 186.324 118.175 187.702 119.103 188.102C118.759 188.925 110.021 201.074 109.437 201.469C109.398 201.465 109.359 201.463 109.321 201.455C108.314 201.212 107.399 200.023 106.321 199.697C104.388 199.112 102.3 198.931 100.34 198.37C93.8506 196.517 86.3086 192.698 82.2488 187.104C81.5356 186.121 80.8301 184.911 81.0244 183.656C81.7344 184.009 82.663 185.464 83.2768 186.094C85.2091 188.081 88.2112 190.766 90.7504 191.866C91.1938 192.059 91.6235 192.204 92.0903 191.987C92.4678 191.81 92.7412 191.464 92.8488 191.064C92.9662 190.628 92.8065 190.191 92.4965 189.874C91.8401 189.204 90.7072 188.672 89.9158 188.126C87.3504 186.358 84.5591 184.104 82.8683 181.454C81.8999 179.937 81.1523 178.033 81.5408 176.216L81.6992 176.137C82.8441 177.462 86.0643 181.834 87.6961 182.402C87.7429 182.419 87.7906 182.432 87.8378 182.447C88.8356 183.817 92.6933 186.194 94.2689 186.968C95.0921 187.372 95.791 187.604 96.7034 187.291C96.8026 187.177 96.9762 187.038 96.9983 186.889C97.1083 186.153 96.6503 185.49 96.1395 185.004C95.2253 184.132 93.8009 183.536 92.7331 182.815C89.3294 180.515 86.0541 177.726 83.6772 174.345C83.0904 173.511 82.0295 171.884 82.2852 170.824C82.3764 170.444 82.5479 170.041 82.8715 169.835C83.7225 170.471 84.2582 171.505 84.9929 172.275C86.7051 174.039 88.561 175.656 90.5417 177.113C92.1103 178.275 98.1715 182.57 99.9456 182.154C100.294 182.073 100.397 181.907 100.581 181.636C100.631 181.343 100.656 181.083 100.572 180.792C100.27 179.739 99.4616 179.366 98.5848 178.905C93.7973 176.396 89.0654 173.124 85.6386 168.89C85.1069 168.233 84.3555 167.346 84.1506 166.51C84.0646 166.161 84.1276 166.02 84.297 165.716C84.8606 165.484 85.3178 165.733 85.8354 165.986C88.4686 167.271 90.8228 169.097 93.3322 170.605C96.8637 172.729 100.577 174.265 104.45 175.63C105.423 175.973 106.844 176.688 107.865 176.726C108.419 176.745 108.775 176.645 109.181 176.264C109.297 176.035 109.365 175.879 109.348 175.616C109.319 175.164 109.193 174.901 108.857 174.596C108.699 174.454 108.559 174.341 108.448 174.156C108.42 174.111 108.395 174.063 108.368 174.016C109.328 171.024 109.797 167.856 110.856 164.895Z" fill="#FECFAA"/>
<path d="M72.4902 150.858C75.5492 150.792 84.6937 154.735 87.7952 156.223C87.5612 157.237 87.3754 158.299 86.9961 159.269C86.3798 159.45 78.3871 157.138 76.862 156.882C75.8528 155.906 74.7596 154.689 73.5129 154.031C73.1423 153.835 72.7004 153.665 72.2853 153.818C71.8994 153.961 71.7309 154.195 71.5537 154.55C71.5402 154.855 71.5037 155.019 71.6598 155.303C72.7027 157.189 75.4675 158.929 76.7833 161.071C77.6273 162.444 78.0475 164.384 77.6462 165.969C77.451 166.741 77.0663 167.486 76.3682 167.907C76.3168 167.83 76.3355 167.865 76.2982 167.769C75.8615 166.654 75.4023 165.733 74.6954 164.752C73.6695 163.326 71.1862 160.131 69.3957 159.912C68.9496 159.857 68.6062 159.942 68.2517 160.208C67.4854 162.322 73.8592 165.716 73.7797 169.296C73.7616 170.109 73.3199 171.635 72.6665 172.173C72.36 172.426 72.1921 172.405 71.8289 172.368C71.2911 172.019 70.9137 170.134 70.5412 169.486C69.6174 167.881 67.8315 166.979 66.7484 165.537C66.5652 165.512 66.6342 165.533 66.4678 165.467C65.8525 165.222 65.314 164.96 64.6347 165.145C64.2315 165.256 64.162 165.379 63.985 165.722C64.0332 167.42 67.6515 169.705 68.624 171.445C69.0027 172.107 69.0959 172.896 68.8821 173.628C68.6125 174.581 67.8107 175.343 66.9495 175.779C66.3501 176.083 65.5606 176.366 64.8991 176.151C64.5711 175.696 64.9881 174.364 64.7321 173.656C64.513 173.428 64.3971 173.258 64.0437 173.27C63.6443 173.285 63.1274 173.447 62.8591 173.758C61.8415 174.938 62.0532 176.481 60.45 178.017C58.6168 179.776 56.4188 179.923 54.8423 181.24C54.3664 181.636 54.0543 182.308 53.6468 182.785C53.6001 182.778 53.5532 182.772 53.5067 182.762C52.8486 182.627 45.0733 175.396 44.6265 174.624C45.2342 174.407 47.3023 171.517 47.888 170.8C52.6518 164.969 64.7213 151.646 72.4902 150.858Z" fill="#FECFAA"/>
<path d="M64.3948 93.0179C65.5739 93.5987 66.7879 94.1059 68.0297 94.5365C75.335 97.0359 82.732 96.2737 89.6003 92.8911C89.6035 95.2746 89.2738 102.453 89.8425 104.194C89.8531 104.226 89.9101 104.387 89.9133 104.429C89.9665 105.109 85.6025 108.877 84.8153 109.618L77.0062 116.999C72.9358 113.268 68.6848 109.601 64.7836 105.699C64.5872 105.503 63.9119 104.895 63.8828 104.63C63.8289 104.141 64.4255 103.192 64.4593 102.58C64.5059 101.735 64.3974 100.834 64.3953 99.9785L64.3948 93.0179Z" fill="#FECFAA"/>
<path d="M55.6603 117.873C60.5121 117.588 66.9294 119.344 70.9643 122.059C70.7137 124.712 70.5977 127.362 70.8769 130.018C69.4865 131.303 67.9685 132.382 66.4024 133.44C63.5088 135.32 60.4271 136.561 57.0113 137.065C56.8269 136.765 56.6554 136.458 56.4969 136.144C54.4074 132.025 54.4683 126.275 54.7068 121.792C54.7649 120.698 54.7559 119.33 55.1361 118.309C55.2472 118.011 55.3939 118.001 55.6603 117.873Z" fill="#36C99F"/>
<path d="M96.7467 117.892L98.2419 118.059C98.4868 119.014 98.5955 120.069 98.6911 121.051C99.18 126.06 99.1076 133.077 95.7501 137.151C92.8752 136.733 90.3418 135.505 87.8342 134.098C85.8999 133.001 84.1623 131.614 82.5029 130.144C82.8124 127.536 82.6448 124.887 82.5063 122.273C86.8354 119.423 91.5955 118.148 96.7467 117.892Z" fill="#36C99F"/>
<path d="M95.7579 103.536C98.2432 106.037 100.46 108.574 103.198 110.842C102.403 112.732 101.48 114.588 100.626 116.453C100.211 116 99.7802 115.585 99.2074 115.342C95.8942 113.938 88.5585 116.206 85.3278 117.478C83.6337 118.191 82.0834 119.076 80.5996 120.156C79.9601 119.995 79.2888 119.941 78.6348 119.862C83.9547 114.095 89.9431 108.799 95.7579 103.536Z" fill="#FEFEFE"/>
<path d="M57.9892 103.634C63.9063 108.876 69.7017 114.253 75.3714 119.761L73.2296 120.104C71.9799 119.188 70.6778 118.474 69.2704 117.832C65.6405 116.158 61.2271 115.077 57.2316 114.899C55.5306 114.823 54.2131 115.036 52.9323 116.198C52.2181 114.457 51.3651 112.774 50.542 111.082C53.2278 108.902 55.8185 106.326 57.9892 103.634Z" fill="#FEFEFE"/>
<path d="M76.6306 135.583C77.372 136.221 78.4088 138.909 79.0072 139.92C80.4269 142.32 82.286 144.445 84.1367 146.515C83.1132 147.735 82.3172 148.989 81.7501 150.484C80.5959 150.225 79.4438 149.772 78.3209 149.395C75.8091 148.515 73.5291 147.851 70.822 148.122L69.8159 146.268C72.8148 143.073 74.829 139.546 76.6306 135.583Z" fill="#FEFEFE"/>
<path d="M72.8733 132.224C73.5841 132.25 74.3498 132.454 75.0534 132.577C72.9665 137.37 70.3126 142.306 66.209 145.68C65.5546 145.282 64.961 144.777 64.36 144.303C62.8101 142.832 61.6602 141.205 60.5806 139.372C65.3114 137.791 69.1489 135.541 72.8733 132.224Z" fill="#36C99F"/>
<path d="M79.6596 132.296L79.7749 132.288C80.6836 132.226 81.8169 133.55 82.5084 134.137C85.5193 136.693 89.0546 138.237 92.7252 139.575C91.9123 140.981 91.0008 142.216 89.9398 143.443C89.1567 144.253 88.3457 144.978 87.4732 145.69C84.1213 142.559 81.5584 139.158 79.5871 135.011C79.2266 134.252 78.7456 133.427 78.5728 132.608C78.8075 132.367 79.3239 132.358 79.6596 132.296Z" fill="#36C99F"/>
<path d="M75.7426 122.693C77.1253 122.595 78.3497 122.739 79.699 123.002C79.7501 125.085 79.7875 127.158 79.7326 129.242C79.1759 129.384 78.6042 129.461 78.0374 129.552C76.4843 129.69 75.1516 129.58 73.6313 129.301C73.6143 127.203 73.6345 125.106 73.6917 123.009C74.3676 122.862 75.0576 122.784 75.7426 122.693Z" fill="#36C99F"/>
<path d="M76.7627 178.554C77.3039 178.713 77.8118 178.584 78.299 178.95C78.7102 179.258 79.0902 179.724 79.15 180.251C79.2044 180.73 78.9917 181.186 78.6894 181.547C78.4019 181.89 78.1588 182.06 77.7241 182.113C77.4333 182.315 77.2124 182.415 76.8508 182.415C76.4255 182.417 76.0527 182.328 75.7538 182.009C75.374 181.603 75.3111 181.064 75.3715 180.534C75.4821 179.56 76.0538 179.128 76.7627 178.554Z" fill="#FEDD35"/>
<path d="M95.579 153.906C95.8052 153.889 96.0275 153.881 96.2532 153.913C96.6407 153.968 96.9972 154.168 97.2209 154.494C97.4985 154.898 97.5059 155.391 97.3989 155.855C97.1836 156.785 96.6964 157.255 95.9299 157.744C95.8324 157.742 95.7346 157.742 95.6371 157.736C95.1535 157.706 94.7397 157.576 94.4232 157.187C94.1134 156.808 94.0664 156.336 94.1496 155.868C94.3176 154.919 94.8227 154.417 95.579 153.906Z" fill="#FEFEFE"/>
</svg>
