<?xml version="1.0" encoding="utf-8"?>
<!-- Generator: Adobe Illustrator 26.3.1, SVG Export Plug-In . SVG Version: 6.00 Build 0)  -->
<svg version="1.1" id="圖層_1" xmlns="http://www.w3.org/2000/svg" xmlns:xlink="http://www.w3.org/1999/xlink" x="0px" y="0px"
	 viewBox="0 0 41.8 41.7" style="enable-background:new 0 0 41.8 41.7;" xml:space="preserve">
<style type="text/css">
	.st0{fill:url(#Path_118_00000070104245889887959080000014046867700037509784_);}
	.st1{fill:#62DB54;}
	.st2{fill:#09ACF5;}
</style>
<g id="logo-2" transform="translate(138 23.111)">
	
		<linearGradient id="Path_118_00000121275214499333073780000008754676810740269483_" gradientUnits="userSpaceOnUse" x1="-1019.8685" y1="1.6112" x2="-1019.8685" y2="2.6112" gradientTransform="matrix(41.791 0 0 41.779 42504.2227 -90.4852)">
		<stop  offset="0" style="stop-color:#09ACF5"/>
		<stop  offset="1" style="stop-color:#62DB54"/>
	</linearGradient>
	<path id="Path_118" style="fill:url(#Path_118_00000121275214499333073780000008754676810740269483_);" d="M-103.1,18.6h-28
		c-3.8-0.1-6.9-3.2-6.9-7V-3.6c0-1.9,0.8-3.8,2.3-5.1l14-12.7c2.6-2.3,6.6-2.3,9.2,0l14,12.7c1.5,1.3,2.3,3.1,2.3,5.1v15.2
		C-96.2,15.4-99.3,18.5-103.1,18.6z M-117.1-18.9c-0.7,0-1.3,0.2-1.9,0.6l-14,12.7c-0.6,0.5-0.9,1.3-0.8,2.1v15.3
		c0,1.5,1.2,2.7,2.7,2.8h27.8c1.5,0,2.7-1.3,2.7-2.8V-3.4c-0.1-0.8-0.4-1.5-0.8-2.1l-14-12.7C-115.9-18.7-116.5-18.9-117.1-18.9z"/>
	<path class="st1" d="M-121.7,8.6c-0.4,0-0.8-0.1-1.1-0.4l-5.6-5.6c-0.6-0.6-0.6-1.5,0-2.1l5.6-5.6c0.6-0.6,1.5-0.6,2.1,0
		c0.6,0.6,0.6,1.5,0,2.1l-4.5,4.5l4.5,4.5c0.6,0.6,0.6,1.5,0,2.1C-120.9,8.4-121.3,8.6-121.7,8.6z"/>
	<path class="st2" d="M-112.4,8.6c-0.4,0-0.8-0.1-1.1-0.4c-0.6-0.6-0.6-1.5,0-2.1l4.5-4.5l-4.5-4.5c-0.6-0.6-0.6-1.5,0-2.1
		s1.5-0.6,2.1,0l5.6,5.6c0.3,0.3,0.4,0.7,0.4,1.1s-0.2,0.8-0.4,1.1l-5.6,5.6C-111.6,8.4-112,8.6-112.4,8.6z"/>
</g>
</svg>
