<?xml version="1.0" encoding="utf-8"?>
<!-- Generator: Adobe Illustrator 26.3.1, SVG Export Plug-In . SVG Version: 6.00 Build 0)  -->
<svg version="1.1" id="圖層_1" xmlns="http://www.w3.org/2000/svg" xmlns:xlink="http://www.w3.org/1999/xlink" x="0px" y="0px"
	 viewBox="0 0 174 41.8" style="enable-background:new 0 0 174 41.8;" xml:space="preserve">
<style type="text/css">
	.st0{enable-background:new    ;}
	.st1{fill:#C1C1C1;}
	.st2{fill:url(#Path_118_00000099649126873215335810000011956657091547200392_);}
	.st3{fill:#62DB54;}
	.st4{fill:#09ACF5;}
	.st5{fill:none;stroke:#C1C1C1;}
</style>
<g id="logo" transform="translate(-138 -23.111)">
	<g class="st0">
		<path class="st1" d="M199.4,60.2c-1,0-1.8-0.2-2.6-0.7c-0.7-0.5-1.3-1.2-1.7-2c-0.4-0.9-0.6-1.9-0.6-3c0-1.2,0.2-2.2,0.6-3.1
			c0.4-0.9,1-1.5,1.7-2c0.7-0.5,1.6-0.7,2.6-0.7c0.8,0,1.5,0.2,2.1,0.5c0.6,0.3,1.2,0.7,1.6,1.3s0.6,1.3,0.7,2H202
			c-0.1-0.7-0.4-1.3-0.8-1.7c-0.4-0.4-1-0.6-1.7-0.6c-0.6,0-1.1,0.2-1.6,0.5c-0.5,0.3-0.8,0.8-1.1,1.5c-0.3,0.7-0.4,1.4-0.4,2.3
			c0,0.9,0.1,1.7,0.4,2.3c0.3,0.7,0.6,1.1,1.1,1.5s1,0.5,1.6,0.5c0.5,0,0.9-0.1,1.3-0.3c0.4-0.2,0.7-0.5,0.9-0.9
			c0.2-0.4,0.4-0.8,0.4-1.3h1.9c-0.1,0.8-0.3,1.5-0.7,2.1c-0.4,0.6-0.9,1.1-1.5,1.4C201,60,200.3,60.2,199.4,60.2z"/>
		<path class="st1" d="M209.6,60.2c-0.9,0-1.7-0.2-2.3-0.6c-0.7-0.4-1.2-0.9-1.5-1.6c-0.4-0.7-0.5-1.5-0.5-2.4c0-1,0.2-1.8,0.5-2.5
			c0.4-0.7,0.9-1.2,1.5-1.6c0.7-0.4,1.4-0.6,2.4-0.6c1.4,0,2.4,0.4,3.2,1.2c0.8,0.8,1.2,1.9,1.2,3.4c0,0.9-0.2,1.8-0.5,2.4
			c-0.4,0.7-0.9,1.2-1.5,1.6C211.3,60,210.5,60.2,209.6,60.2z M209.6,58.8c0.9,0,1.5-0.3,2-0.9c0.5-0.6,0.7-1.4,0.7-2.4
			c0-1-0.2-1.8-0.7-2.4s-1.2-0.9-2-0.9c-0.9,0-1.5,0.3-2,0.9s-0.7,1.4-0.7,2.4c0,1,0.2,1.8,0.7,2.4
			C208.1,58.6,208.7,58.8,209.6,58.8z"/>
		<path class="st1" d="M219.5,51c0.6,0,1.2,0.1,1.7,0.4s0.9,0.6,1.2,1v-4.1h1.6V60h-1.5l0-1.2c-0.3,0.4-0.7,0.8-1.2,1
			c-0.5,0.3-1.1,0.4-1.7,0.4c-0.8,0-1.5-0.2-2.1-0.6c-0.6-0.4-1.1-0.9-1.4-1.6s-0.5-1.5-0.5-2.4c0-0.9,0.2-1.7,0.5-2.4
			s0.8-1.2,1.4-1.6C218.1,51.2,218.8,51,219.5,51z M219.9,58.8c0.6,0,1.1-0.2,1.5-0.5c0.4-0.3,0.8-0.8,1-1.3v-2.9
			c-0.2-0.6-0.5-1-1-1.3c-0.4-0.3-1-0.5-1.5-0.5c-0.5,0-1,0.1-1.4,0.4c-0.4,0.3-0.7,0.7-1,1.1c-0.2,0.5-0.3,1-0.3,1.7
			c0,0.6,0.1,1.2,0.3,1.7c0.2,0.5,0.5,0.9,1,1.1C218.9,58.7,219.4,58.8,219.9,58.8z"/>
		<path class="st1" d="M226.4,60v-1.3h7.9V60H226.4z M227.6,52.5v-1.3h2.9v1.3H227.6z M229.6,49.7V48h1.8v1.7H229.6z M229.7,60v-8.8
			h1.6V60H229.7z"/>
		<path class="st1" d="M236.9,60v-8.8h1.5l0.1,2V60H236.9z M243.2,60v-5.6c0-0.6-0.2-1.1-0.5-1.5s-0.8-0.6-1.4-0.6
			c-0.7,0-1.2,0.2-1.7,0.7c-0.5,0.5-0.9,1.2-1.2,2.2l-0.3-1.8c0.3-0.8,0.8-1.5,1.4-1.9c0.6-0.4,1.3-0.6,2-0.6c0.7,0,1.2,0.1,1.7,0.4
			c0.5,0.3,0.9,0.7,1.1,1.2c0.3,0.5,0.4,1.1,0.4,1.8V60H243.2z"/>
		<path class="st1" d="M253.6,52.5l0-1.3h1.5V59c0,1.3-0.3,2.3-1,3c-0.7,0.7-1.8,1-3.2,1c-0.8,0-1.5-0.1-2-0.3c-0.6-0.2-1-0.5-1.3-1
			c-0.3-0.4-0.5-0.9-0.6-1.6h1.7c0.1,0.5,0.3,0.9,0.6,1.1c0.4,0.3,0.9,0.4,1.7,0.4c0.8,0,1.5-0.2,1.9-0.6c0.4-0.4,0.6-1,0.6-1.8
			v-1.2c-0.3,0.4-0.7,0.8-1.2,1.1c-0.5,0.3-1,0.4-1.7,0.4c-0.8,0-1.4-0.2-2-0.5c-0.6-0.4-1-0.9-1.4-1.5c-0.3-0.6-0.5-1.4-0.5-2.2
			c0-0.9,0.2-1.6,0.5-2.3c0.3-0.6,0.8-1.1,1.4-1.5c0.6-0.3,1.3-0.5,2-0.5c0.6,0,1.2,0.1,1.6,0.4S253.4,52,253.6,52.5z M251.1,58.2
			c0.6,0,1.1-0.2,1.5-0.5c0.5-0.3,0.8-0.8,1-1.4v-2.2c-0.2-0.6-0.5-1-1-1.4c-0.5-0.3-1-0.5-1.5-0.5c-0.5,0-1,0.1-1.4,0.4
			s-0.7,0.6-0.9,1c-0.2,0.4-0.3,1-0.3,1.5c0,0.6,0.1,1.1,0.3,1.5c0.2,0.5,0.5,0.8,0.9,1.1C250.1,58.1,250.6,58.2,251.1,58.2z"/>
		<path class="st1" d="M267.9,60V48.8h1.7V60H267.9z M269.3,54.9v-1.4h5.4v1.4H269.3z M274.5,60V48.8h1.7V60H274.5z"/>
		<path class="st1" d="M282.4,60.2c-0.9,0-1.7-0.2-2.3-0.6s-1.2-0.9-1.5-1.6c-0.4-0.7-0.5-1.5-0.5-2.4c0-1,0.2-1.8,0.5-2.5
			c0.4-0.7,0.9-1.2,1.5-1.6c0.7-0.4,1.4-0.6,2.4-0.6c1.4,0,2.4,0.4,3.2,1.2c0.8,0.8,1.2,1.9,1.2,3.4c0,0.9-0.2,1.8-0.5,2.4
			c-0.4,0.7-0.9,1.2-1.5,1.6C284.1,60,283.3,60.2,282.4,60.2z M282.4,58.8c0.9,0,1.5-0.3,2-0.9c0.5-0.6,0.7-1.4,0.7-2.4
			c0-1-0.2-1.8-0.7-2.4s-1.2-0.9-2-0.9c-0.9,0-1.5,0.3-2,0.9s-0.7,1.4-0.7,2.4c0,1,0.2,1.8,0.7,2.4
			C280.9,58.6,281.5,58.8,282.4,58.8z"/>
		<path class="st1" d="M288.4,60v-8.8h1.4l0.1,1.7V60H288.4z M292.1,60v-6.4c0-0.4-0.1-0.7-0.2-0.9c-0.1-0.2-0.4-0.3-0.6-0.3
			c-0.4,0-0.8,0.3-1,0.8s-0.5,1.3-0.6,2.3l0-1.4c0-0.6,0.1-1.2,0.3-1.6c0.2-0.4,0.5-0.8,0.8-1c0.3-0.2,0.7-0.4,1-0.4
			c0.6,0,1.1,0.2,1.4,0.6c0.3,0.4,0.5,1,0.5,1.8V60H292.1z M295.7,60v-6.4c0-0.4-0.1-0.7-0.2-0.9c-0.1-0.2-0.3-0.3-0.6-0.3
			c-0.4,0-0.7,0.2-1,0.7c-0.3,0.5-0.5,1.3-0.6,2.3l-0.1-1.4c0-1,0.3-1.7,0.7-2.2c0.4-0.5,0.9-0.8,1.6-0.8c0.6,0,1,0.2,1.4,0.6
			c0.3,0.4,0.5,1,0.5,1.8V60H295.7z"/>
		<path class="st1" d="M303.3,60.2c-0.9,0-1.7-0.2-2.4-0.6c-0.7-0.4-1.2-0.9-1.5-1.6c-0.4-0.7-0.5-1.5-0.5-2.5s0.2-1.8,0.5-2.5
			c0.4-0.7,0.9-1.2,1.5-1.6c0.7-0.4,1.5-0.5,2.4-0.5c1.4,0,2.5,0.4,3.2,1.2c0.7,0.8,1,1.9,0.9,3.2h-7.3l0-1.2l5.6,0
			c0-0.6-0.3-1-0.7-1.4c-0.4-0.3-1-0.5-1.7-0.5c-0.9,0-1.6,0.3-2.1,0.9c-0.5,0.6-0.7,1.4-0.7,2.4c0,0.6,0.1,1.2,0.3,1.7
			s0.5,0.9,1,1.1s0.9,0.4,1.5,0.4c0.7,0,1.3-0.2,1.7-0.5c0.5-0.3,0.7-0.8,0.9-1.3h1.6c-0.1,1-0.6,1.8-1.3,2.3S304.5,60.2,303.3,60.2
			z"/>
	</g>
	<g id="logo-2" transform="translate(138 23.111)">
		
			<linearGradient id="Path_118_00000150796100189827731260000012309436415640190859_" gradientUnits="userSpaceOnUse" x1="-440.6843" y1="549.6014" x2="-440.6843" y2="548.6014" gradientTransform="matrix(41.791 0 0 -41.779 18437.5332 22961.8105)">
			<stop  offset="0" style="stop-color:#09ACF5"/>
			<stop  offset="1" style="stop-color:#62DB54"/>
		</linearGradient>
		<path id="Path_118" style="fill:url(#Path_118_00000150796100189827731260000012309436415640190859_);" d="M34.9,41.8h-28
			c-3.8-0.1-6.9-3.2-6.9-7V19.6c0-1.9,0.8-3.8,2.3-5.1l14-12.7c2.6-2.3,6.6-2.3,9.2,0l14,12.7c1.5,1.3,2.3,3.1,2.3,5.1v15.2
			C41.8,38.6,38.7,41.7,34.9,41.8z M20.9,4.3c-0.7,0-1.3,0.2-1.9,0.6L5,17.6c-0.6,0.5-0.9,1.3-0.8,2.1V35c0,1.5,1.2,2.7,2.7,2.8
			h27.8c1.5,0,2.7-1.3,2.7-2.8V19.8c-0.1-0.8-0.4-1.5-0.8-2.1l-14-12.7C22.1,4.5,21.5,4.3,20.9,4.3z"/>
		<path class="st3" d="M16.3,31.8c-0.4,0-0.8-0.1-1.1-0.4l-5.6-5.6c-0.6-0.6-0.6-1.5,0-2.1l5.6-5.6c0.6-0.6,1.5-0.6,2.1,0
			c0.6,0.6,0.6,1.5,0,2.1l-4.5,4.5l4.5,4.5c0.6,0.6,0.6,1.5,0,2.1C17.1,31.6,16.7,31.8,16.3,31.8z"/>
		<path class="st4" d="M25.6,31.8c-0.4,0-0.8-0.1-1.1-0.4c-0.6-0.6-0.6-1.5,0-2.1l4.5-4.5l-4.5-4.5c-0.6-0.6-0.6-1.5,0-2.1
			c0.6-0.6,1.5-0.6,2.1,0l5.6,5.6c0.3,0.3,0.4,0.7,0.4,1.1s-0.2,0.8-0.4,1.1l-5.6,5.6C26.4,31.6,26,31.8,25.6,31.8z"/>
	</g>
	<line id="Line_55" class="st5" x1="311.5" y1="61.5" x2="311.5" y2="44.5"/>
</g>
</svg>
