<svg id="Icon" viewBox="0 0 64 64" xmlns="http://www.w3.org/2000/svg"><path d="m24.61377 39.10156h-6.64502c-2.06787 0-3.75 1.68213-3.75 3.75v11.82568c0 3.8999 3.17236 7.07275 7.07227 7.07275s7.07275-3.17285 7.07275-7.07275v-11.82568c0-2.06787-1.68213-3.75-3.75-3.75z"/><path d="m49.70898 39.10156h-6.64551c-2.06787 0-3.75 1.68213-3.75 3.75v11.82568c0 3.8999 3.17285 7.07275 7.07275 7.07275s7.07275-3.17285 7.07275-7.07275v-11.82568c0-2.06787-1.68213-3.75-3.75-3.75z"/><path d="m42.95898 30.32959v7.28253c.52478-.00159 7.16595-.07404 7.5.06531v-34.67743c0-.41406-.33594-.75-.75-.75h-1.21289c-2.16748 0-4.01172 1.47705-4.48486 3.59229l-4.23682 18.93262c-.28564 1.27588-.04443 2.57617.6792 3.66162.59912.89844 1.49072 1.56641 2.50537 1.89307z"/><path d="m28.83496 2.28711h-.00049c-1.30762.21289-2.29346 1.42529-2.29346 2.81982v7.28125c0 .66797-.44482 1.24365-1.03418 1.33936-.37842.06055-.7417-.03906-1.0249-.27979-.28027-.23828-.44092-.58545-.44092-.95264v-7.38818c0-1.39551-.98633-2.60742-2.29395-2.81982-.80566-.13135-1.62207.09375-2.2373.61768-.61572.52393-.96875 1.2876-.96875 2.09521v7.38818c0 .66797-.44482 1.24365-1.03418 1.33936-.37891.06055-.7417-.03906-1.0249-.27979-.28027-.23828-.44092-.58545-.44092-.95264v-7.38818c0-1.39551-.98633-2.60742-2.29395-2.81982-.80469-.13135-1.62207.09375-2.2373.61768-.61572.52393-.96875 1.2876-.96875 2.09521v12.34082c0 3.92139 2.05078 7.59424 5.35254 9.58496 1.03174.62256 1.64795 1.67725 1.64795 2.82129v7.89771c.43762-.07318 7.06207-.07324 7.5.00006v-7.85431c0-1.15918.6377-2.22705 1.70557-2.85693 3.26563-1.92529 5.29395-5.47021 5.29395-9.25049v-12.68311c0-.80762-.35303-1.57129-.96875-2.09521-.61523-.52344-1.43115-.74805-2.2373-.61768z"/></svg>