<svg id="Capa_1" enable-background="new 0 0 512.011 512.011" viewBox="0 0 512.011 512.011" xmlns="http://www.w3.org/2000/svg"><g><path d="m282.113 218.474v186.674c-7.987-4.292-17.112-6.728-26.796-6.728-31.317 0-56.796 25.479-56.796 56.795 0 31.317 25.479 56.796 56.796 56.796s56.796-25.479 56.796-56.796v-138.58l169.892-14.918v85.878c-7.987-4.292-17.112-6.728-26.796-6.728-31.317 0-56.796 25.479-56.796 56.796s25.479 56.795 56.796 56.795 56.796-25.479 56.796-56.795v-239.376z"/><path d="m249.994 189.427v-189.427l-185.119 16.255v142.677c-5.399-2.141-11.282-3.319-17.435-3.319-26.155 0-47.434 21.279-47.434 47.434s21.278 47.434 47.434 47.434 47.435-21.279 47.435-47.434v-101.462l125.119-10.987v54.713c-5.399-2.141-11.282-3.319-17.435-3.319-26.155 0-47.434 21.279-47.434 47.434s21.278 47.434 47.434 47.434 47.435-21.278 47.435-47.433z"/><path d="m382.058 63.335h30v30.002h-30z"/><path d="m382.058 123.339h30v30.002h-30z"/><path d="m352.056 93.337h30v30.002h-30z"/><path d="m412.06 93.337h30v30.002h-30z"/><path d="m99.953 418.703h30v30.002h-30z"/><path d="m99.953 358.699h30v30.002h-30z"/><path d="m129.955 388.701h30v30.002h-30z"/><path d="m69.951 388.701h30v30.002h-30z"/></g><g/><g/><g/><g/><g/><g/><g/><g/><g/><g/><g/><g/><g/><g/><g/></svg>