<?xml version="1.0" encoding="iso-8859-1"?>
<!-- Generator: Adobe Illustrator 18.0.0, SVG Export Plug-In . SVG Version: 6.00 Build 0)  -->
<!DOCTYPE svg PUBLIC "-//W3C//DTD SVG 1.1//EN" "http://www.w3.org/Graphics/SVG/1.1/DTD/svg11.dtd">
<svg version="1.1" id="Capa_1" xmlns="http://www.w3.org/2000/svg" xmlns:xlink="http://www.w3.org/1999/xlink" x="0px" y="0px"
	 viewBox="0 0 489.854 489.854" style="enable-background:new 0 0 489.854 489.854;" xml:space="preserve">
<path d="M485.014,392.413c-36.617-51.589-148.913-211.11-148.913-211.11c-2.688-3.828-6.929-6.304-11.584-6.778
	c-4.682-0.451-9.3,1.092-12.719,4.287l-29.426,27.545l-69.05-128.155c-2.8-5.172-8.161-8.433-14.046-8.512
	c-5.778-0.26-11.345,3.03-14.272,8.125L2.151,395.902c-2.879,5.016-2.863,11.185,0.016,16.192c2.911,5,8.26,8.085,14.034,8.085
	h457.138c0.111-0.016,0.222-0.008,0.313,0c8.959,0,16.202-7.253,16.202-16.2C489.854,399.446,487.439,395.83,485.014,392.413z
	 M289.175,244.384l31.169-29.197l61.973,87.856l-52.577-54.766c-0.854-0.879-2.025-1.386-3.26-1.401
	c-1.199-0.008-2.387,0.474-3.256,1.338l-37.499,37.45c-1.299,1.304-3.261,1.694-4.968,0.981c-1.708-0.705-2.816-2.373-2.8-4.217
	l0.143-34.056C282.15,248.372,286.137,247.21,289.175,244.384z M198.594,119.195l40.203,74.591l-30.189,26.628
	c-0.933,0.832-2.184,1.235-3.415,1.124c-1.251-0.111-2.406-0.736-3.165-1.717l-19.351-24.556c-0.917-1.162-2.343-1.811-3.812-1.731
	c-1.489,0.079-2.848,0.877-3.622,2.128l-29.255,46.65c-0.917,1.447-2.565,2.27-4.273,2.111c-1.708-0.157-3.197-1.265-3.828-2.855
	l-3.923-9.936L198.594,119.195z"/>
<g>
</g>
<g>
</g>
<g>
</g>
<g>
</g>
<g>
</g>
<g>
</g>
<g>
</g>
<g>
</g>
<g>
</g>
<g>
</g>
<g>
</g>
<g>
</g>
<g>
</g>
<g>
</g>
<g>
</g>
</svg>
