<svg width="1920" height="819" viewBox="0 0 1920 819" fill="none" xmlns="http://www.w3.org/2000/svg">
<g clip-path="url(#clip0_203_57738)">
<path fill-rule="evenodd" clip-rule="evenodd" d="M1405.07 553.484C1611.79 581.855 1871.28 617.466 2060 814.122L1986.9 878C1822.52 706.703 1595.15 675.31 1381.82 645.854C1377.23 645.221 1372.65 644.588 1368.08 643.956C1263.1 629.427 1157.7 614 1075.76 575.53C1033.66 555.763 995.961 529.206 966.929 492.272C941.325 459.699 923.948 420.944 915.102 375.402C866.111 344.047 817.113 303.783 769.654 254.35C670.11 150.661 486.135 127.923 307.163 169.447C219.368 189.817 137.482 224.842 74.2868 268.868C10.5832 313.247 -30.2828 363.949 -44.0689 414.593L-140 390.812C-118.476 311.745 -58.7779 244.462 15.8455 192.475C90.9775 140.134 185.181 100.411 283.747 77.5417C477.497 32.5885 707.327 49.4114 842.737 190.457C864.603 213.233 886.431 233.46 908.033 251.317C912.799 189.208 931.248 137.848 961.022 97.4718C1006.52 35.7711 1074.04 5.82803 1141.73 0.782443C1208.54 -4.19833 1277.2 14.7868 1329.9 52.4588C1383.24 90.5862 1421.95 149.434 1421.95 222.403C1421.95 288.378 1399.87 345.986 1358.13 388.435C1316.49 430.784 1258.81 454.466 1194.36 458.887C1148.95 462.003 1100.09 455.708 1049.62 439.693C1066.92 460.194 1089.99 476.802 1119.51 490.661C1184.77 521.3 1273.57 535.304 1382.31 550.352C1389.82 551.391 1397.41 552.433 1405.07 553.484ZM1007.4 318.633C1075.53 354.879 1137.82 367.939 1187.25 364.548C1230.52 361.579 1263.63 346.32 1285.85 323.717C1307.98 301.214 1322.83 267.86 1322.83 222.403C1322.83 183.942 1303.08 151.458 1270.48 128.159C1237.25 104.404 1192.51 91.8683 1149.45 95.0783C1107.25 98.2235 1068.42 116.183 1042.08 151.903C1017.83 184.791 1000.57 237.71 1007.4 318.633Z" fill="#F3EEEC"/>
</g>
<defs>
<clipPath id="clip0_203_57738">
<rect width="1920" height="819" fill="white"/>
</clipPath>
</defs>
</svg>
