<svg width="129" height="46" viewBox="0 0 129 46" fill="none" xmlns="http://www.w3.org/2000/svg">
<circle cx="114" cy="15" r="4" fill="#C0FA73"/>
<path d="M13.2 22.6V14.36H16V22.6C16 23.44 16.0467 24.1133 16.14 24.62C16.2333 25.1267 16.4 25.5267 16.64 25.82C16.88 26.1 17.1667 26.2867 17.5 26.38C17.8333 26.4733 18.28 26.52 18.84 26.52C19.3333 26.52 19.74 26.4667 20.06 26.36C20.38 26.2533 20.6533 26.06 20.88 25.78C21.12 25.4867 21.2933 25.0867 21.4 24.58C21.5067 24.06 21.56 23.4 21.56 22.6V14.36H24.38V22.6C24.38 23.3067 24.34 23.9533 24.26 24.54C24.18 25.1133 24.08 25.6133 23.96 26.04C23.84 26.4533 23.6733 26.8267 23.46 27.16C23.26 27.4933 23.06 27.7667 22.86 27.98C22.6733 28.18 22.4267 28.36 22.12 28.52C21.8267 28.6667 21.5733 28.78 21.36 28.86C21.1467 28.9267 20.86 28.98 20.5 29.02C20.1533 29.06 19.8733 29.08 19.66 29.08C19.46 29.0933 19.1867 29.1 18.84 29.1C18.8 29.1 18.7333 29.1 18.64 29.1C18.1333 29.1 17.7467 29.0933 17.48 29.08C17.2267 29.0667 16.8733 29.02 16.42 28.94C15.9667 28.86 15.6133 28.7467 15.36 28.6C15.12 28.44 14.84 28.2067 14.52 27.9C14.2 27.58 13.96 27.1933 13.8 26.74C13.64 26.2867 13.5 25.7133 13.38 25.02C13.26 24.3133 13.2 23.5067 13.2 22.6ZM27.1813 29V14.36H33.5813C34.1813 14.36 34.7146 14.44 35.1813 14.6C35.6479 14.7467 36.0613 14.9933 36.4213 15.34C36.7946 15.6733 37.0813 16.1467 37.2813 16.76C37.4813 17.36 37.5813 18.08 37.5813 18.92C37.5813 19.6133 37.5213 20.22 37.4013 20.74C37.2813 21.26 37.1479 21.66 37.0013 21.94C36.8546 22.2067 36.6546 22.4467 36.4013 22.66C36.1479 22.86 35.9546 22.9867 35.8213 23.04C35.6879 23.0933 35.4946 23.16 35.2413 23.24L38.0213 29H34.8613L32.4413 23.46L29.9813 23.18V29H27.1813ZM30.0013 20.98H33.3213C33.5879 20.98 33.8013 20.96 33.9613 20.92C34.1213 20.8667 34.2613 20.7667 34.3813 20.62C34.5146 20.4733 34.6079 20.2667 34.6613 20C34.7279 19.72 34.7613 19.36 34.7613 18.92C34.7613 18.1333 34.6413 17.5933 34.4013 17.3C34.1613 16.9933 33.8013 16.84 33.3213 16.84H30.0013V20.98ZM40.3897 29V14.36H46.4297C47.843 14.36 48.883 14.7267 49.5497 15.46C50.2164 16.18 50.5497 17.12 50.5497 18.28C50.5497 19.0267 50.383 19.7067 50.0497 20.32C49.7164 20.92 49.2164 21.28 48.5497 21.4C49.1897 21.52 49.723 21.88 50.1497 22.48C50.5764 23.0667 50.7897 23.8067 50.7897 24.7C50.7897 25.3933 50.703 26 50.5297 26.52C50.3697 27.04 50.1164 27.4867 49.7697 27.86C49.4364 28.2333 48.9897 28.52 48.4297 28.72C47.883 28.9067 47.2297 29 46.4697 29H40.3897ZM43.1897 26.52L46.3697 26.54C47.4497 26.54 47.9897 25.8867 47.9897 24.58C47.9897 24.1933 47.9364 23.8533 47.8297 23.56C47.7364 23.2667 47.563 23.02 47.3097 22.82C47.0564 22.62 46.743 22.52 46.3697 22.52H43.1897V26.52ZM43.1897 20.16H46.2497C46.7564 20.16 47.1364 20.02 47.3897 19.74C47.6564 19.4467 47.7897 19.0333 47.7897 18.5C47.7897 18.2867 47.7697 18.0933 47.7297 17.92C47.6897 17.7333 47.6297 17.58 47.5497 17.46C47.4697 17.34 47.383 17.24 47.2897 17.16C47.1964 17.0667 47.0897 17 46.9697 16.96C46.8497 16.92 46.7297 16.8933 46.6097 16.88C46.503 16.8533 46.383 16.84 46.2497 16.84H43.1897V20.16ZM53.34 29V14.36H56.18L61.98 23.82V14.36H64.78V29H61.98L56.16 19.64V29H53.34ZM67.5547 19.28V18.02C67.5547 17.46 67.6214 16.96 67.7547 16.52C67.888 16.08 68.068 15.72 68.2947 15.44C68.5214 15.16 68.8014 14.9333 69.1347 14.76C69.4814 14.5733 69.8414 14.4467 70.2147 14.38C70.6014 14.3 71.0347 14.2533 71.5147 14.24C72.528 14.2133 73.5747 14.26 74.6547 14.38C75.7347 14.5 76.5747 14.6467 77.1747 14.82V17.02C75.6547 16.8867 74.0214 16.82 72.2747 16.82C71.568 16.8067 71.068 16.8867 70.7747 17.06C70.4947 17.22 70.3547 17.6133 70.3547 18.24V18.96C70.3547 19.52 70.468 19.8933 70.6947 20.08C70.9214 20.2667 71.328 20.36 71.9147 20.36H74.2347C74.5814 20.36 74.9014 20.3933 75.1947 20.46C75.5014 20.5267 75.7614 20.62 75.9747 20.74C76.2014 20.86 76.4014 21 76.5747 21.16C76.7614 21.32 76.9147 21.5 77.0347 21.7C77.168 21.9 77.2747 22.1067 77.3547 22.32C77.448 22.52 77.5147 22.7333 77.5547 22.96C77.608 23.1867 77.6414 23.4067 77.6547 23.62C77.6814 23.82 77.6947 24.0267 77.6947 24.24V25.22C77.6947 25.86 77.6147 26.42 77.4547 26.9C77.2947 27.38 77.088 27.76 76.8347 28.04C76.5947 28.32 76.288 28.5467 75.9147 28.72C75.5547 28.8933 75.1947 29.0067 74.8347 29.06C74.4747 29.1267 74.0814 29.16 73.6547 29.16C71.2414 29.16 69.3547 28.96 67.9947 28.56V26.36C69.4614 26.5067 71.1614 26.58 73.0947 26.58C73.348 26.58 73.5614 26.5667 73.7347 26.54C73.9214 26.5133 74.108 26.46 74.2947 26.38C74.4947 26.3 74.6414 26.1733 74.7347 26C74.8414 25.8133 74.8947 25.5867 74.8947 25.32V24.54C74.8947 24.0733 74.8014 23.7267 74.6147 23.5C74.428 23.2733 74.0814 23.16 73.5747 23.16H71.3347C68.8147 23.1467 67.5547 21.8533 67.5547 19.28ZM79.8716 16.94V14.36H90.6916V16.94H86.6316V29H83.8316V16.94H79.8716ZM93.147 26.12V17.4C93.147 16.9067 93.2137 16.4733 93.347 16.1C93.4804 15.7267 93.6537 15.4333 93.867 15.22C94.0804 15.0067 94.327 14.8333 94.607 14.7C94.9004 14.5533 95.1804 14.46 95.447 14.42C95.727 14.38 96.0204 14.36 96.327 14.36C99.767 14.4533 101.914 14.56 102.767 14.68V17H96.987C96.7337 17 96.5337 17.0267 96.387 17.08C96.2404 17.1333 96.1337 17.2267 96.067 17.36C96.0137 17.4933 95.9804 17.6067 95.967 17.7C95.9537 17.7933 95.947 17.9333 95.947 18.12V20.4L101.867 20.6V22.92L95.947 23.1V25.38C95.947 25.6333 95.9804 25.84 96.047 26C96.1137 26.1467 96.2204 26.2533 96.367 26.32C96.5137 26.3733 96.6337 26.4067 96.727 26.42C96.8337 26.42 96.987 26.42 97.187 26.42H102.767V28.72C102.434 28.76 101.747 28.8133 100.707 28.88C99.667 28.9333 98.707 28.9733 97.827 29L96.527 29.06C96.2204 29.0733 95.9337 29.0667 95.667 29.04C95.4004 29.0133 95.107 28.94 94.787 28.82C94.467 28.7 94.187 28.54 93.947 28.34C93.7204 28.14 93.527 27.8533 93.367 27.48C93.2204 27.0933 93.147 26.64 93.147 26.12ZM105.235 29V14.36H111.535C111.948 14.36 112.321 14.3933 112.655 14.46C113.001 14.5133 113.361 14.6333 113.735 14.82C114.121 15.0067 114.441 15.26 114.695 15.58C114.961 15.9 115.175 16.34 115.335 16.9C115.508 17.46 115.595 18.12 115.595 18.88C115.595 19.4133 115.555 19.9067 115.475 20.36C115.408 20.8133 115.315 21.2 115.195 21.52C115.075 21.8267 114.928 22.1067 114.755 22.36C114.581 22.6 114.395 22.7933 114.195 22.94C113.995 23.0733 113.781 23.1933 113.555 23.3C113.328 23.4067 113.101 23.48 112.875 23.52C112.648 23.5467 112.421 23.5733 112.195 23.6C111.968 23.6133 111.748 23.6133 111.535 23.6C111.148 23.5733 110.481 23.5067 109.535 23.4C108.588 23.2933 108.088 23.2267 108.035 23.2V29H105.235ZM108.035 21.12H111.315C111.795 21.12 112.155 20.96 112.395 20.64C112.648 20.32 112.775 19.74 112.775 18.9C112.761 17.5267 112.275 16.84 111.315 16.84H108.035V21.12Z" fill="#212529"/>
</svg>
