<svg width="196" height="196" viewBox="0 0 196 196" fill="none" xmlns="http://www.w3.org/2000/svg">
<path d="M140.722 62.9806C145.147 58.0502 147.179 51.213 146.804 44.6453C146.38 37.2087 142.922 30.5448 137.361 25.649C130.678 19.7648 120.572 15.7099 111.61 16.3154C107.255 16.6097 101.728 17.5674 98.7318 21.0371C98.3929 21.4296 98.1295 21.8514 97.8902 22.3114C95.0411 21.7025 92.2594 22.4975 89.849 24.0527C85.1512 27.0836 81.8347 32.479 80.6907 37.8925C79.7304 42.4371 80.2724 48.0159 82.8347 51.9835C83.1576 52.4836 83.5258 52.9494 83.9058 53.4067C83.9031 64.8602 82.9747 77.4049 91.7757 86.2296C93.5738 88.0327 95.6084 89.3969 97.8455 90.5912C97.8948 91.0862 97.9411 91.5814 98.0081 92.0745C96.7811 92.812 95.542 93.5381 94.3662 94.3562C93.3269 95.0794 92.3011 96.0036 91.1701 96.5648C89.8283 97.2306 88.3006 97.6556 86.9028 98.2017C83.2578 99.6255 79.2801 101.142 75.8099 102.943C73.5758 104.102 71.5593 105.537 69.9329 107.473C64.9424 113.413 59.6369 128.843 57.0125 136.536C56.2046 135.16 53.2749 129.532 51.7877 129.156C51.1986 129.007 50.5864 129.19 50.0156 129.34C49.0822 127.995 48.3881 126.793 48.1237 125.157C48.6561 123.825 49.1981 122.496 49.5416 121.1C50.6588 116.56 50.0286 111.645 49.3341 107.086C49.0428 105.173 48.6218 103.169 48.6044 101.231C48.5826 98.8007 50.0347 94.9348 49.0749 92.8117C48.759 92.1124 48.1289 91.6107 47.4134 91.3611C46.2705 90.9626 44.9521 91.095 43.885 91.6489C42.0038 92.6257 40.8185 94.5256 40.2258 96.5038C39.4335 99.1479 39.1944 102.435 39.5399 105.184C36.7632 103.209 29.6238 100.094 26.2 100.66C25.0752 100.846 24.0888 101.45 23.4356 102.388C22.5213 103.7 22.2757 105.562 22.2344 107.121C21.0573 107.895 20.3077 108.803 19.9973 110.213C19.7565 111.308 19.8829 112.329 20.0935 113.416C18.8227 114.819 18.2938 116.411 18.3841 118.3C18.4113 118.865 18.4991 119.405 18.6322 119.954C17.8566 121.436 17.6441 122.84 18.1531 124.45C19.4107 128.43 24.171 132.145 27.7423 133.962C29.2267 134.717 30.7475 135.282 32.3439 135.747L32.88 136.88C31.648 137.982 29.6471 139.703 29.5308 141.463C29.4329 142.943 37.0593 157.869 38.3232 160.232C39.7211 162.859 41.1958 165.442 42.7471 167.981C44.6107 170.969 46.6446 173.946 49.0315 176.545C51.6973 179.448 54.8456 181.606 58.8958 181.78C63.0278 181.957 67.012 179.851 69.9771 177.115C70.5032 176.629 71.0359 176.108 71.4619 175.531C71.5156 176.652 71.8238 183.365 72.3398 183.814C72.5091 183.961 72.6906 184.025 72.9161 183.991C73.1451 183.956 73.3662 183.804 73.5533 183.677L91.2837 183.67C91.4421 183.781 91.5844 183.885 91.7718 183.945C91.9947 184.016 92.2343 184.014 92.435 183.881C92.566 183.793 92.7458 183.553 92.7923 183.403C92.9461 182.907 92.701 179.27 92.679 178.532C92.4748 171.671 92.549 164.843 92.6876 157.984C92.8118 151.842 92.9382 145.722 93.3655 139.59C93.8021 133.652 94.4132 127.732 95.1987 121.831C95.9841 115.929 96.9427 110.056 98.0742 104.211C100.812 106.617 104.001 107.604 107.623 107.553C114.466 107.456 120.033 103.938 124.675 99.1925C123.463 103.836 122.493 108.565 121.504 113.261C117.246 133.481 114.888 153.48 116.878 174.17C117.016 175.605 117.636 182.492 118.221 183.59C118.348 183.83 118.529 183.915 118.779 184C119.134 183.985 119.347 183.843 119.647 183.664L142.478 183.669C146.352 183.669 150.305 183.5 154.169 183.703C154.361 183.85 154.519 183.915 154.743 183.996C155.107 183.988 155.348 183.81 155.653 183.627C156.677 183.73 157.74 183.677 158.77 183.676L164.105 183.671C169.017 183.667 173.938 183.742 178.849 183.669C179.102 183.834 179.365 184.027 179.686 183.982C179.916 183.95 180.115 183.821 180.214 183.607C180.574 182.824 180.078 177.126 179.993 175.826C179.654 170.824 179.186 165.835 178.589 160.858C177.991 155.88 177.265 150.922 176.411 145.982C174.716 136.257 172.655 126.259 168.492 117.26C167.134 114.327 165.469 111.497 163.287 109.096C157.575 102.812 147.865 99.0899 140.031 96.2207C138.228 95.5604 136.404 94.9625 134.599 94.3106C132.949 91.5841 130.768 89.5323 127.919 88.0876C127.856 85.3031 127.712 82.5283 127.725 79.7413C128.657 78.1526 129.533 76.5788 130.156 74.8377C132.335 75.159 134.184 74.9062 135.992 73.5736C138.483 71.7383 140.152 68.6363 140.576 65.5995C140.697 64.7317 140.723 63.8559 140.722 62.9806Z" fill="#1E1E1E"/>
<path d="M136.92 109.299C136.347 103.556 134.802 95.2557 130.148 91.4454C129.567 90.9757 128.969 90.5292 128.354 90.106C127.98 92.4027 127.346 94.6953 126.812 96.9615C125.857 100.923 124.941 104.893 124.065 108.873C122.867 114.329 121.681 119.813 120.73 125.318C119.963 129.791 119.338 134.284 118.855 138.796C118.373 143.309 118.033 147.832 117.838 152.366C117.724 155.963 117.718 159.56 117.82 163.158C117.922 166.755 118.133 170.346 118.45 173.931C118.636 175.902 118.867 177.867 119.143 179.827C119.32 181.061 119.669 182.422 119.647 183.664L142.478 183.669C146.352 183.669 150.305 183.5 154.169 183.703C154.361 183.85 154.519 183.915 154.743 183.996C155.107 183.988 155.348 183.81 155.653 183.627C156.677 183.73 157.74 183.677 158.769 183.676L164.105 183.671C169.017 183.667 173.938 183.742 178.849 183.669C178.521 179.392 178.425 175.103 178.06 170.823C176.737 155.319 173.113 128.552 165.697 115.266C165.51 114.927 165.316 114.593 165.115 114.263C164.913 113.933 164.705 113.607 164.489 113.286C164.273 112.965 164.051 112.649 163.821 112.338C163.591 112.027 163.355 111.721 163.112 111.42C162.869 111.119 162.619 110.824 162.362 110.535C162.106 110.245 161.844 109.961 161.575 109.683C161.306 109.405 161.031 109.133 160.75 108.867C160.47 108.602 160.183 108.342 159.891 108.089C153.435 102.596 143.512 99.1091 135.552 96.3026C136.367 98.5645 139.218 108.141 138.298 109.949C137.644 111.231 131.85 113.657 130.312 114.473C132.078 115.831 135.932 118.531 137.219 120.041C137.435 120.295 137.536 120.558 137.64 120.87L137.703 121.056C136.899 123.673 135.678 126.282 134.596 128.801C132.591 133.435 130.562 138.058 128.508 142.67L123.628 153.976L122.219 157.218C122.039 157.639 121.909 158.094 121.696 158.499C121.533 158.81 121.29 159.152 120.965 159.31C120.806 159.388 120.683 159.373 120.515 159.353C120.299 159.206 120.225 159.102 120.16 158.845C120.066 158.475 120.195 158.009 120.324 157.663C120.71 156.631 121.23 155.63 121.668 154.617C122.653 152.283 123.661 149.959 124.691 147.645L130.028 135.325C132.102 130.585 134.221 125.857 136.045 121.014C134.49 119.659 132.888 118.363 131.238 117.125C130.414 116.504 129.469 115.927 128.708 115.235C128.471 115.02 128.196 114.739 128.16 114.404C128.125 114.088 128.324 113.825 128.542 113.622C129.537 112.693 135.217 110.186 136.92 109.299Z" fill="#778EEE"/>
<path d="M155.653 183.627C155.457 182.283 155.122 180.954 154.867 179.619C154.399 177.044 153.903 174.474 153.38 171.91L149.53 153.063L146.625 138.739L145.735 134.316C145.601 133.642 145.516 132.93 145.33 132.27C145.261 132.027 145.187 131.764 144.971 131.609C144.787 131.476 144.524 131.436 144.31 131.51C144.091 131.585 143.894 131.778 143.831 132C143.679 132.532 143.994 133.641 144.095 134.194C145.751 143.298 147.78 152.362 149.624 161.432L152.192 174.066C152.832 177.28 153.416 180.513 154.169 183.703C154.361 183.85 154.519 183.915 154.743 183.996C155.107 183.988 155.348 183.81 155.653 183.627Z" fill="#1E1E1E"/>
<path d="M124.157 170.341C124.103 170.339 124.05 170.338 123.996 170.339C123.943 170.34 123.889 170.342 123.836 170.346C123.783 170.349 123.729 170.353 123.676 170.359C123.623 170.365 123.57 170.373 123.517 170.381C123.464 170.39 123.412 170.4 123.359 170.411C123.307 170.422 123.255 170.434 123.203 170.448C123.151 170.461 123.1 170.476 123.049 170.492C122.998 170.509 122.947 170.526 122.897 170.544C122.847 170.563 122.797 170.583 122.748 170.604C122.699 170.625 122.65 170.647 122.602 170.67C122.554 170.694 122.506 170.718 122.459 170.744C122.412 170.77 122.366 170.797 122.32 170.825C122.275 170.853 122.23 170.882 122.185 170.912C122.141 170.942 122.098 170.973 122.055 171.005C122.012 171.038 121.971 171.071 121.929 171.105C121.888 171.14 121.848 171.175 121.809 171.211C121.769 171.247 121.731 171.285 121.693 171.323C121.656 171.361 121.619 171.4 121.584 171.44C121.548 171.48 121.513 171.52 121.479 171.562C121.446 171.604 121.413 171.646 121.382 171.689C121.35 171.732 121.319 171.776 121.29 171.821C121.26 171.866 121.232 171.911 121.205 171.957C121.178 172.003 121.151 172.05 121.126 172.097C121.101 172.144 121.078 172.192 121.055 172.241C121.032 172.289 121.011 172.338 120.991 172.388C120.97 172.438 120.951 172.488 120.933 172.538C120.916 172.589 120.899 172.639 120.884 172.691C120.868 172.742 120.854 172.794 120.841 172.845C120.829 172.897 120.817 172.95 120.807 173.002C120.796 173.055 120.787 173.108 120.779 173.16C120.772 173.213 120.765 173.266 120.76 173.32C120.755 173.373 120.751 173.426 120.749 173.48C120.746 173.533 120.745 173.587 120.745 173.64C120.745 173.694 120.746 173.747 120.749 173.801C120.752 173.854 120.756 173.908 120.761 173.961C120.766 174.014 120.773 174.067 120.78 174.12C120.788 174.173 120.797 174.226 120.808 174.278C120.818 174.331 120.83 174.383 120.843 174.435C120.856 174.487 120.87 174.539 120.885 174.59C120.901 174.641 120.918 174.692 120.936 174.742C120.953 174.793 120.973 174.843 120.993 174.892C121.013 174.942 121.035 174.991 121.058 175.039C121.08 175.088 121.104 175.135 121.129 175.183C121.154 175.23 121.181 175.277 121.208 175.323C121.235 175.369 121.264 175.414 121.293 175.459C121.323 175.503 121.354 175.547 121.385 175.59C121.417 175.633 121.45 175.676 121.483 175.717C121.517 175.759 121.552 175.799 121.588 175.839C121.623 175.879 121.66 175.918 121.698 175.956C121.735 175.994 121.774 176.031 121.813 176.068C121.853 176.104 121.893 176.139 121.934 176.173C121.975 176.207 122.017 176.241 122.06 176.273C122.103 176.305 122.146 176.336 122.191 176.366C122.235 176.396 122.28 176.425 122.325 176.453C122.371 176.481 122.418 176.508 122.465 176.533C122.512 176.559 122.559 176.583 122.607 176.607C122.656 176.63 122.704 176.652 122.754 176.673C122.803 176.694 122.852 176.714 122.903 176.732C122.953 176.751 123.004 176.768 123.055 176.784C123.106 176.8 123.157 176.815 123.209 176.828C123.261 176.842 123.313 176.854 123.365 176.865C123.418 176.876 123.47 176.886 123.523 176.894C123.576 176.903 123.629 176.91 123.682 176.916C123.735 176.922 123.789 176.926 123.842 176.929C123.914 176.934 123.987 176.936 124.06 176.936C124.132 176.935 124.205 176.932 124.277 176.927C124.35 176.922 124.422 176.915 124.494 176.905C124.565 176.895 124.637 176.883 124.708 176.868C124.779 176.853 124.85 176.836 124.92 176.817C124.99 176.798 125.059 176.776 125.128 176.752C125.196 176.728 125.264 176.702 125.331 176.674C125.397 176.646 125.463 176.615 125.528 176.582C125.593 176.55 125.657 176.515 125.719 176.478C125.782 176.441 125.843 176.402 125.903 176.361C125.963 176.32 126.021 176.278 126.078 176.233C126.136 176.188 126.191 176.141 126.245 176.093C126.299 176.044 126.352 175.994 126.402 175.942C126.453 175.89 126.502 175.837 126.549 175.782C126.596 175.726 126.642 175.67 126.685 175.612C126.729 175.553 126.77 175.494 126.81 175.433C126.849 175.372 126.887 175.31 126.922 175.247C126.958 175.183 126.991 175.119 127.022 175.053C127.053 174.988 127.082 174.921 127.109 174.854C127.136 174.786 127.16 174.718 127.182 174.649C127.205 174.58 127.225 174.51 127.242 174.44C127.26 174.369 127.275 174.298 127.288 174.227C127.301 174.156 127.312 174.084 127.32 174.012C127.328 173.94 127.334 173.867 127.338 173.795C127.341 173.722 127.342 173.65 127.341 173.577C127.34 173.504 127.336 173.432 127.33 173.36C127.324 173.287 127.315 173.215 127.304 173.144C127.293 173.072 127.28 173 127.264 172.93C127.249 172.859 127.231 172.788 127.211 172.719C127.191 172.649 127.168 172.58 127.143 172.512C127.119 172.443 127.092 172.376 127.062 172.31C127.033 172.243 127.002 172.178 126.968 172.113C126.935 172.049 126.899 171.986 126.861 171.924C126.824 171.862 126.784 171.801 126.742 171.742C126.7 171.682 126.657 171.624 126.611 171.568C126.566 171.511 126.518 171.456 126.469 171.403C126.42 171.349 126.369 171.298 126.317 171.248C126.264 171.198 126.21 171.149 126.154 171.103C126.098 171.057 126.041 171.012 125.982 170.969C125.924 170.927 125.863 170.886 125.802 170.847C125.741 170.808 125.678 170.772 125.614 170.737C125.55 170.703 125.486 170.67 125.42 170.64C125.354 170.61 125.287 170.582 125.219 170.556C125.151 170.53 125.083 170.506 125.013 170.485C124.944 170.463 124.874 170.444 124.803 170.428C124.732 170.411 124.661 170.397 124.59 170.385C124.518 170.373 124.446 170.363 124.374 170.356C124.302 170.348 124.229 170.343 124.157 170.341Z" fill="#1E1E1E"/>
<path d="M124.113 172.165C123.812 172.21 123.533 172.261 123.264 172.41C122.879 172.624 122.573 172.982 122.476 173.417C122.467 173.46 122.46 173.503 122.455 173.547C122.449 173.591 122.447 173.635 122.446 173.679C122.445 173.723 122.446 173.767 122.45 173.811C122.454 173.855 122.459 173.899 122.467 173.942C122.475 173.986 122.485 174.029 122.497 174.071C122.51 174.113 122.524 174.155 122.54 174.196C122.556 174.237 122.575 174.277 122.595 174.316C122.615 174.356 122.637 174.394 122.661 174.431C122.957 174.893 123.403 175.051 123.91 175.181C124.228 175.139 124.523 175.095 124.806 174.933C125.179 174.72 125.477 174.356 125.578 173.934C125.588 173.889 125.597 173.844 125.603 173.799C125.609 173.754 125.612 173.708 125.614 173.663C125.615 173.617 125.614 173.571 125.611 173.526C125.608 173.48 125.602 173.435 125.594 173.39C125.587 173.345 125.576 173.3 125.564 173.256C125.552 173.212 125.537 173.169 125.52 173.127C125.504 173.084 125.485 173.042 125.464 173.002C125.443 172.961 125.42 172.922 125.395 172.883C125.087 172.406 124.642 172.271 124.113 172.165Z" fill="#778EEE"/>
<path d="M98.0498 94.0476C92.1923 97.5155 87.0576 102.074 84.5376 108.585C85.8369 109.393 89.5949 111.926 90.3027 113.001C90.368 113.307 90.3217 113.524 90.1549 113.783C89.3718 115 83.4956 117.742 81.7906 118.947C81.9195 121.238 82.0958 123.526 82.3195 125.81C82.5431 128.094 82.8139 130.372 83.1318 132.645C83.4497 134.918 83.8145 137.183 84.2263 139.441C84.6379 141.699 85.096 143.947 85.6007 146.186C86.1513 148.684 86.7462 151.171 87.3853 153.648C87.6569 154.691 88.0813 155.739 88.2925 156.789C88.3701 157.177 88.4453 157.707 88.1766 158.045C88.0398 158.217 87.8296 158.303 87.6112 158.293C87.3336 158.281 87.1286 158.048 86.9953 157.826C86.4605 156.933 86.3283 155.606 86.0393 154.596C83.6232 146.151 82.0852 137.364 81.0152 128.653C80.6982 126.174 80.471 123.686 80.3337 121.19C80.2776 120.264 80.1769 119.312 80.1901 118.385C81.6357 116.643 86.1124 114.529 88.2231 113.277C87.1493 112.454 83.1653 109.964 82.9581 108.778C82.653 107.03 86.0303 102.606 87.1473 101.163C87.728 100.413 88.3283 99.6781 89.0086 99.0155C84.5457 101.084 79.8588 102.522 75.5496 104.955C73.7079 105.995 72.075 107.295 70.7353 108.937C67.0424 113.462 63.1904 124.16 61.0914 129.881C60.0624 132.719 59.0708 135.57 58.1166 138.434C59.6666 141.159 61.1949 143.911 62.8056 146.599C63.8736 148.382 65.1098 150.169 66.0591 152.013C66.2125 152.311 66.4336 152.724 66.3516 153.071C66.2965 153.305 66.0853 153.539 65.8634 153.632C65.6833 153.708 65.4629 153.758 65.2805 153.658C64.9696 153.488 64.759 153.14 64.5733 152.847C63.2667 150.786 62.1132 148.589 60.89 146.474C57.9523 141.331 54.963 136.218 51.9221 131.135C48.519 136.648 40.9272 141.358 34.6595 142.854C33.7337 143.08 32.7958 143.229 31.8457 143.3C36.0796 152.394 46.4915 176.097 55.7622 179.53C58.6845 180.612 61.7173 180.202 64.4913 178.891C67.3045 177.561 69.4601 175.572 71.4069 173.183C70.9796 168.42 70.9268 163.582 70.8216 158.803C70.5954 148.486 70.7074 138.172 71.1576 127.862C71.2014 126.843 71.1951 123.665 71.3778 122.878C71.4128 122.726 71.5027 122.576 71.6058 122.462C71.7649 122.286 72.0023 122.168 72.2408 122.16C72.438 122.154 72.6631 122.242 72.7792 122.405C72.9219 122.604 72.9342 122.783 72.9393 123.018C72.9719 124.481 72.7852 125.977 72.7146 127.441C72.607 130.183 72.5158 132.926 72.4411 135.67C72.1543 146.481 72.2408 157.288 72.7006 168.093C72.833 171.473 73.0096 174.851 73.2304 178.227C73.3427 179.886 73.7278 182.062 73.5533 183.677L91.2838 183.67C90.7901 175.551 90.919 167.327 91.0772 159.201C91.3163 146.91 91.8522 134.752 93.4966 122.556C94.2929 116.802 95.2061 111.066 96.236 105.349C96.8892 101.621 97.7032 97.8132 98.0498 94.0476Z" fill="#778EEE"/>
<path d="M100.567 31.3988C100.139 31.3608 99.6978 31.3751 99.268 31.3684C99.1494 31.6498 98.9811 32.1995 98.7107 32.3638C98.1764 32.6884 97.0225 32.706 96.3831 32.8381C94.9682 33.1308 93.4823 34.0299 92.3671 34.9274C88.1601 38.3137 86.3057 44.0021 85.7679 49.2123C85.4129 52.6523 85.508 56.1818 85.5539 59.635C85.6661 68.0636 85.8467 76.5423 91.4718 83.428C94.5105 87.1475 98.7304 89.8004 103.565 90.256C110.087 90.8706 116.807 87.9839 121.753 83.8733C124.045 81.9327 126.03 79.6063 127.415 76.9321C127.725 76.3344 128.827 73.265 129.174 73.0342C129.681 72.6966 130.596 73.1164 131.145 73.2214C132.365 73.455 133.745 72.9711 134.745 72.2926C136.862 70.856 138.316 68.4588 138.772 65.9619C139.166 63.8055 139.024 61.4148 137.725 59.5777C137.286 58.9576 136.707 58.4813 135.936 58.3706C134.5 58.1644 131.636 60.0394 130.714 61.0468C130.342 61.4531 130.15 62.1105 129.678 62.4071C129.463 62.5426 129.262 62.585 129.014 62.528C128.708 62.4574 128.493 62.2675 128.374 61.9777C128.086 61.2804 128.032 59.0081 127.68 57.8643C127.106 55.9942 125.963 54.9143 124.828 53.3856C124.339 52.7265 123.942 52.0205 123.556 51.2977C123.194 51.2616 122.83 51.2254 122.471 51.1646C120.367 50.8086 118.541 49.8657 116.823 48.6299C111.3 44.6564 110.288 40.7853 106.559 35.6361C105.064 33.572 103.16 31.8108 100.567 31.3988Z" fill="#FED5B6"/>
<path d="M111.383 73.0469C111.169 73.0336 110.897 73.0028 110.696 73.0942C110.175 73.3321 109.562 74.1284 109.116 74.5316C107.53 75.9675 104.9 76.6314 102.805 76.7054C101.058 76.767 98.7522 76.5212 97.2393 75.5723C96.4782 75.0949 95.8681 74.4448 95.2093 73.844C94.8071 73.4773 94.4798 73.2218 93.9203 73.2434C93.6638 73.3861 93.4626 73.5542 93.4108 73.865C93.3475 74.2439 93.6478 74.6054 93.8482 74.894C95.7036 76.9288 98.0076 78.034 100.755 78.3427C104.245 78.7348 107.786 77.832 110.533 75.6226C111.048 75.2089 111.754 74.5836 111.799 73.8767C111.821 73.5163 111.606 73.2939 111.383 73.0469Z" fill="#1E1E1E"/>
<path d="M100.834 60.3362C100.616 60.3286 100.419 60.3563 100.204 60.3864C99.6708 60.7083 99.4623 61.5984 99.2366 62.151C99.0304 62.6558 98.8177 63.155 98.4997 63.6012C97.878 64.4736 96.8408 65.2875 96.5456 66.3376C96.5215 66.4247 96.5019 66.5128 96.4867 66.6019C96.4715 66.691 96.461 66.7807 96.455 66.8708C96.4488 66.9611 96.4473 67.0514 96.4504 67.1417C96.4534 67.232 96.461 67.3219 96.4731 67.4116C96.4853 67.5011 96.5019 67.5898 96.5231 67.6778C96.5442 67.7657 96.5697 67.8523 96.5996 67.9376C96.6295 68.0229 96.6636 68.1065 96.7019 68.1883C96.7403 68.2702 96.7827 68.3499 96.8291 68.4274C97.5024 69.5463 98.7554 69.988 99.9474 70.3066C100.227 70.3468 100.428 70.351 100.662 70.1816C100.896 70.0125 101.04 69.7822 101.077 69.4972C100.815 68.5435 99.1175 68.3742 98.4453 67.6799C98.269 67.4978 98.0743 67.1866 98.1167 66.9202C98.2082 66.346 99.0934 65.5851 99.4585 65.0991C100.125 64.2114 101.384 62.2629 101.319 61.118C101.299 60.7482 101.089 60.5654 100.834 60.3362Z" fill="#1E1E1E"/>
<path d="M112.358 49.1928C111.187 49.058 109.132 49.1461 108.097 49.7196C107.759 49.907 107.325 50.253 107.271 50.6681C107.252 50.8176 107.283 50.9753 107.368 51.098C107.451 51.2168 107.668 51.4247 107.812 51.4638C108.228 51.5758 110.046 50.9862 110.648 50.9328C111.749 50.8351 112.727 50.9617 113.795 51.2279C114.999 51.6164 116.406 52.6982 117.231 52.8817C117.417 52.8467 117.548 52.8174 117.704 52.6973C117.903 52.5437 118.005 52.3518 118.023 52.1005C118.043 51.8283 117.935 51.5925 117.767 51.3859C116.74 50.1247 113.924 49.3697 112.358 49.1928Z" fill="#1E1E1E"/>
<path d="M93.3474 48.3345C91.8434 48.1974 89.6392 48.5254 88.4208 49.4804C88.0947 49.736 87.7806 50.1652 87.8003 50.6038C87.8118 50.8585 87.8571 50.9079 88.0274 51.0716C89.0117 51.4035 90.2949 50.366 91.2966 50.1577L91.4364 50.1296C92.5249 50.0106 93.8487 49.9395 94.8799 50.367C95.3091 50.545 95.7716 50.8442 96.2262 50.9308C96.4349 50.9706 96.7176 50.9117 96.8798 50.7635C97.0577 50.6007 97.1546 50.4328 97.1533 50.186C97.1516 49.906 96.9999 49.6258 96.8211 49.4196C96.1545 48.6516 94.3074 48.3994 93.3474 48.3345Z" fill="#1E1E1E"/>
<path d="M93.8338 56.4248C93.6538 56.4449 93.4629 56.4715 93.2904 56.5268C92.7501 56.6997 92.3103 57.2524 92.0988 57.757C91.7457 58.5997 91.7648 59.6481 92.1235 60.4851C92.4119 61.1584 92.8048 61.5285 93.4725 61.8131C93.7013 61.8026 93.9331 61.7804 94.146 61.6895C94.6844 61.46 95.0809 60.9438 95.288 60.4103C95.6172 59.562 95.591 58.5112 95.2131 57.6834C94.9095 57.0181 94.5094 56.6754 93.8338 56.4248Z" fill="#1E1E1E"/>
<path d="M111.619 57.1917C111.406 57.2106 111.187 57.2333 110.984 57.3099C110.438 57.516 110.025 58.0709 109.826 58.6C109.503 59.4557 109.542 60.5058 109.928 61.3342C110.239 62.0037 110.623 62.3225 111.305 62.5721C111.529 62.5583 111.764 62.4952 111.967 62.4011C112.497 62.1567 112.881 61.6123 113.076 61.0789C113.385 60.2346 113.352 59.1962 112.965 58.3823C112.67 57.7609 112.268 57.4057 111.619 57.1917Z" fill="#1E1E1E"/>
<path d="M135.228 60.8301C133.818 61.0468 132.487 61.5229 131.527 62.6408C130.655 63.6544 130.187 65.3175 130.331 66.6547C130.375 67.0734 130.576 67.2763 130.881 67.5326C131.146 67.5339 131.429 67.5167 131.653 67.3536C132.127 67.0074 131.962 65.9613 132.063 65.4104C132.531 62.8541 134.134 63.286 135.549 62.1971C135.695 62.0841 135.795 61.9335 135.796 61.7457C135.797 61.3415 135.507 61.0816 135.228 60.8301Z" fill="#1E1E1E"/>
<path d="M115.231 18.0186C110.579 17.7997 103.601 18.2837 100.229 21.8729C99.7556 22.3769 99.3306 23.8229 98.6984 24.0618C98.2417 24.2343 96.4824 23.8018 95.8504 23.7921C94.6106 23.7726 93.2998 24.1184 92.178 24.631C88.1265 26.4827 84.7812 31.1019 83.2678 35.1593C81.2987 40.4392 81.5823 45.5404 83.9141 50.6194C84.4204 45.4233 85.5822 40.285 88.8702 36.0859C91.0212 33.339 93.9685 31.3404 97.4814 30.9215C97.7138 30.6109 97.9712 30.2879 98.2949 30.0679C99.2047 29.4495 100.524 29.5993 101.55 29.8064C106.89 30.8833 109.839 37.8415 112.574 41.9575C114.78 45.0215 117.995 48.1237 121.674 49.2973C122.547 49.5758 123.858 49.4161 124.625 49.8798C125.173 50.2112 125.405 51.2366 125.758 51.7651C126.223 52.4612 126.801 53.1042 127.325 53.7587C128.776 55.5731 129.406 57.26 129.781 59.5449C130.992 58.5577 132.712 57.3673 134.182 56.8466C135.246 56.47 136.346 56.4782 137.362 56.9979C138.954 57.8126 139.731 59.3911 140.254 61.0119C143.094 57.6393 144.689 52.8393 145.053 48.4699C145.617 41.6997 143.596 35.0473 139.157 29.8772C133.518 23.3082 123.854 18.6843 115.231 18.0186Z" fill="#313030"/>
<path d="M46.8273 92.7856C45.5464 92.7296 44.6524 92.9117 43.6564 93.8024C40.9681 96.2071 41.0676 100.89 41.0498 104.2C41.0448 105.139 40.9587 106.118 41.0146 107.053C41.0597 107.811 41.3755 108.518 41.3116 109.291C41.1867 110.805 40.2927 111.947 39.168 112.88C39.5372 114.058 39.6648 115.124 39.2736 116.329C38.8004 117.786 37.8494 118.624 36.5182 119.281C36.7347 120.01 36.824 120.773 36.7144 121.529C36.5128 122.922 35.7093 123.852 34.6295 124.67C34.659 124.743 34.6894 124.816 34.7181 124.89C34.9698 125.534 34.9017 126.171 34.6014 126.795C34.0875 127.862 33.1007 128.894 31.9764 129.283C30.601 129.758 25.2712 128.556 23.9886 127.888C23.7388 127.758 23.527 127.55 23.4804 127.259C23.4364 126.986 23.5159 126.877 23.6552 126.664C24.5869 126.132 26.3638 126.896 27.3352 127.147C28.7032 127.5 30.7031 128.259 31.9904 127.455C32.5258 127.121 33.0497 126.562 33.1679 125.922C33.6518 123.302 23.5504 122.495 22.5131 121.037C22.5075 120.842 22.4978 120.695 22.5829 120.512C22.6919 120.278 22.852 120.189 23.0894 120.115C24.1546 119.78 30.6785 122.001 31.9877 122.536C32.5833 122.779 33.133 123.078 33.6864 123.404C34.3513 122.854 34.9168 122.23 35.1117 121.362C36.1058 116.939 25.2758 116.001 24.6276 114.521C24.5417 114.325 24.5771 114.124 24.6896 113.947C24.8043 113.767 25.017 113.658 25.2198 113.612C26.5816 113.303 31.8664 115.67 33.2849 116.412C34.0938 116.836 34.8507 117.326 35.6094 117.831C36.1511 117.638 36.6666 117.418 37.0706 116.995C37.6476 116.392 38.0043 115.347 37.954 114.516C37.9108 113.799 37.5506 113.2 37.0258 112.726C35.4989 111.348 31.7811 110.234 29.7726 109.616C28.9677 109.368 27.6617 109.151 27.0623 108.548C26.9563 108.441 26.8458 108.253 26.8655 108.096C26.8947 107.861 27.1103 107.556 27.3119 107.435C27.9404 107.058 29.9972 107.937 30.684 108.16C33.3119 108.997 36.0117 109.968 38.2647 111.582C38.9337 110.949 39.4882 110.315 39.6755 109.377C39.8369 108.569 39.6455 107.771 39.159 107.109C37.583 104.967 30.58 102.675 27.8475 102.242C26.9439 102.098 25.9925 102.196 25.2466 102.775C23.7741 103.917 23.9537 106.467 23.7036 108.12C23.0169 108.587 22.3373 108.982 21.8959 109.713C21.1157 111.005 21.5426 112.632 21.8739 113.992C21.3058 114.559 20.7828 115.059 20.4202 115.786C19.7368 117.156 19.9328 118.665 20.4016 120.057C19.6918 121.265 19.2404 122.182 19.596 123.627C20.7291 128.233 28.1149 132.95 32.467 134.119C33.0818 134.289 33.7025 134.432 34.3293 134.551C35.0607 134.682 36.8077 134.639 37.3531 135.039C37.5145 135.157 37.5939 135.43 37.5835 135.62C37.5713 135.849 37.4585 136.114 37.2752 136.258C36.6859 136.722 35.0328 136.326 34.322 136.23C34.9846 137.719 35.624 139.225 36.3782 140.671C36.8655 140.495 37.3485 140.307 37.8272 140.109C38.306 139.91 38.7799 139.701 39.2489 139.481C39.7181 139.26 40.1818 139.029 40.6402 138.788C41.0987 138.546 41.5513 138.294 41.9981 138.031C42.4449 137.769 42.8854 137.496 43.3196 137.213C43.7538 136.93 44.1812 136.637 44.6019 136.335C45.0225 136.032 45.436 135.72 45.8423 135.398C46.2486 135.076 46.6473 134.745 47.0383 134.405C47.9466 133.628 48.938 132.76 49.6172 131.77C48.4214 129.957 46.9105 127.959 46.663 125.739C46.479 124.086 47.627 122.187 48.0296 120.582C48.3686 119.231 48.4787 117.902 48.5201 116.516C48.6187 113.22 48.1331 109.969 47.6517 106.72C47.3648 104.783 47.014 102.809 47.0241 100.846C47.0341 98.9105 48.209 95.1526 47.6983 93.5706C47.552 93.1171 47.2273 92.9673 46.8273 92.7856Z" fill="#FED5B6"/>
<path d="M126.101 82.0027C125.26 82.7615 124.521 83.6518 123.695 84.4353C122.053 85.9922 120.151 87.3118 118.179 88.4151C112.447 91.6221 106.014 93.0115 99.5893 91.1894C99.6352 94.9087 99.2798 98.4706 98.5027 102.111C98.9547 102.771 99.5185 103.253 100.141 103.744C102.189 105.16 104.634 105.84 107.112 105.871C112.676 105.941 118.313 103.196 122.22 99.3336C123.303 98.2623 124.654 96.8903 125.314 95.5216C125.647 94.8311 125.783 94.0095 125.923 93.2632C126.145 92.0815 126.367 90.8616 126.398 89.6583C126.426 88.5826 126.274 87.4799 126.207 86.4056C126.117 84.9393 126.082 83.4716 126.101 82.0027Z" fill="#FED5B6"/>
<path d="M33.5306 138.456C32.4811 139.394 31.7898 140.393 31.208 141.668L32.2948 141.61C33.0914 141.53 33.8708 141.408 34.6587 141.266C34.3572 140.331 33.9663 139.337 33.5306 138.456Z" fill="#778EEE"/>
<path d="M42.9147 26.7214C41.0288 26.4062 38.3244 26.7186 36.47 27.1805C36.3197 27.2181 36.1698 27.2576 36.0204 27.2991C35.8709 27.3404 35.722 27.3836 35.5737 27.4287C35.4254 27.4738 35.2777 27.5206 35.1306 27.5693C34.9833 27.6182 34.8367 27.6688 34.6908 27.7212C34.545 27.7736 34.3997 27.8278 34.2551 27.8838C34.1105 27.9398 33.9667 27.9975 33.8236 28.0571C33.6805 28.1167 33.5382 28.1781 33.3965 28.2413C33.255 28.3044 33.1142 28.3692 32.9742 28.4358C32.8342 28.5025 32.695 28.5709 32.5568 28.641C32.4185 28.711 32.2811 28.7828 32.1446 28.8564C32.0081 28.9298 31.8725 29.005 31.738 29.0819C31.6033 29.1588 31.4696 29.2373 31.3369 29.3175C31.2043 29.3978 31.0726 29.4796 30.9419 29.5631C30.8113 29.6467 30.6818 29.7317 30.5533 29.8183C30.4247 29.905 30.2973 29.9933 30.1711 30.0832C30.0447 30.1731 29.9195 30.2645 29.7954 30.3575C29.6714 30.4506 29.5485 30.5451 29.4269 30.6411C29.3052 30.7372 29.1847 30.8347 29.0654 30.9338C28.9461 31.0327 28.8281 31.1332 28.7113 31.2352C28.5945 31.3372 28.479 31.4407 28.3649 31.5455C28.2507 31.6503 28.1377 31.7566 28.0262 31.8643C27.9146 31.9719 27.8044 32.081 27.6957 32.1914C27.5868 32.3018 27.4793 32.4135 27.3734 32.5265C27.2673 32.6396 27.1626 32.754 27.0593 32.8696C26.9561 32.9854 26.8544 33.1024 26.754 33.2206C26.6537 33.3388 26.5549 33.4583 26.4576 33.5789C26.3603 33.6995 26.2644 33.8213 26.1701 33.9444C26.0758 34.0675 25.9831 34.1916 25.8918 34.317C25.8006 34.4423 25.711 34.5688 25.6228 34.6965C25.5349 34.824 25.4484 34.9527 25.3635 35.0825C25.2786 35.2121 25.1953 35.3429 25.1137 35.4748C25.0321 35.6066 24.9521 35.7394 24.8738 35.8732C24.6638 36.2307 24.4659 36.5948 24.2799 36.9653C24.094 37.336 23.9206 37.7124 23.7597 38.0946C23.5988 38.4766 23.4507 38.8636 23.3154 39.2556C23.1799 39.6476 23.0577 40.0436 22.9487 40.4436C22.8397 40.8436 22.744 41.2468 22.6616 41.6532C22.5792 42.0596 22.5104 42.4682 22.455 42.8791C22.3997 43.29 22.358 43.7024 22.3301 44.116C22.3021 44.5297 22.2878 44.9438 22.2873 45.3585C22.206 57.9619 31.5075 59.2232 33.955 68.6823C33.5313 69.4013 33.4573 69.9818 33.4441 70.8028C33.4191 72.3626 33.2353 75.7565 33.5627 77.1514C33.6377 77.4709 33.7592 77.6904 33.9977 77.9196C34.6021 78.4999 35.4156 78.4285 36.1904 78.4303C36.2551 78.6219 36.3302 78.8092 36.4079 78.9959C36.9985 80.4178 38.0849 81.2932 39.4661 81.8651C40.7822 82.271 42.1232 82.2742 43.3986 81.7155C44.924 81.0474 45.7448 79.9306 46.3375 78.4329C47.0011 78.432 47.6973 78.4737 48.2589 78.055C48.7095 77.7187 48.8453 77.2991 48.9323 76.7631C49.124 75.5811 49.1324 70.6457 48.8518 69.4906C48.7734 69.1681 48.5882 68.9174 48.3941 68.6544C48.9903 66.3905 49.9304 64.3923 51.3257 62.505C52.4031 61.0479 53.6959 59.7966 54.8973 58.447C57.6495 55.3551 59.4304 51.7437 59.8378 47.5972C59.8548 47.4399 59.8699 47.2824 59.883 47.1247C59.8961 46.9671 59.9072 46.8094 59.9163 46.6515C59.9254 46.4935 59.9326 46.3355 59.9379 46.1773C59.9431 46.0194 59.9463 45.8612 59.9476 45.703C59.9489 45.5449 59.9482 45.3867 59.9455 45.2284C59.9428 45.0703 59.9382 44.9123 59.9316 44.7543C59.9249 44.5962 59.9164 44.4382 59.9059 44.2805C59.8954 44.1226 59.8828 43.9649 59.8683 43.8073C59.8538 43.6498 59.8375 43.4925 59.8191 43.3354C59.8006 43.1783 59.7802 43.0215 59.7579 42.8649C59.7356 42.7083 59.7114 42.552 59.6852 42.3959C59.6589 42.24 59.6308 42.0843 59.6007 41.929C59.5707 41.7737 59.5387 41.6188 59.5046 41.4644C59.4707 41.3099 59.4349 41.1558 59.3971 41.0023C59.3594 40.8487 59.3197 40.6955 59.278 40.5429C59.2364 40.3902 59.1929 40.2382 59.1475 40.0867C59.1021 39.9352 59.0549 39.7842 59.0058 39.6338C58.9566 39.4834 58.9056 39.3337 58.8528 39.1847C58.7999 39.0356 58.7451 38.8872 58.6885 38.7396C58.6319 38.5918 58.5735 38.4448 58.5133 38.2985C58.4531 38.1522 58.3911 38.0067 58.3272 37.862C58.2633 37.7174 58.1976 37.5735 58.1302 37.4303C58.0627 37.2872 57.9935 37.1451 57.9225 37.0038C57.8514 36.8624 57.7787 36.7219 57.7042 36.5824C57.6296 36.4429 57.5534 36.3043 57.4754 36.1666C57.3975 36.029 57.3179 35.8924 57.2366 35.7567C57.1552 35.621 57.0721 35.4864 56.9873 35.3529C56.9027 35.2193 56.8163 35.0868 56.7283 34.9555C56.6402 34.824 56.5506 34.6937 56.4594 34.5645C56.3681 34.4352 56.2752 34.3071 56.1807 34.1802C56.0862 34.0534 55.9902 33.9277 55.8927 33.8032C55.7951 33.6788 55.696 33.5555 55.5953 33.4335C55.4981 33.3147 55.3995 33.197 55.2995 33.0806C55.1994 32.9642 55.098 32.8491 54.995 32.7352C54.8921 32.6212 54.7878 32.5086 54.6821 32.3974C54.5764 32.2861 54.4693 32.1761 54.3608 32.0675C54.2524 31.9588 54.1426 31.8516 54.0314 31.7457C53.9202 31.6399 53.8078 31.5355 53.694 31.4324C53.5803 31.3293 53.4653 31.2276 53.349 31.1274C53.2327 31.0273 53.1152 30.9286 52.9964 30.8313C52.8777 30.734 52.7578 30.6382 52.6367 30.5438C52.5155 30.4496 52.3932 30.3569 52.2698 30.2657C52.1464 30.1744 52.0218 30.0847 51.8961 29.9966C51.7705 29.9084 51.6437 29.8219 51.5158 29.737C51.3881 29.652 51.2592 29.5686 51.1293 29.4868C50.9993 29.4051 50.8684 29.325 50.7364 29.2466C50.6045 29.168 50.4717 29.0912 50.3378 29.0161C50.204 28.9409 50.0693 28.8674 49.9336 28.7956C49.7979 28.7238 49.6614 28.6536 49.5239 28.5852C49.3865 28.5168 49.2482 28.4501 49.1092 28.3851C48.9701 28.3202 48.8302 28.257 48.6896 28.1956C48.549 28.1341 48.4075 28.0743 48.2654 28.0163C48.1233 27.9584 47.9805 27.9023 47.8369 27.8478C47.6933 27.7935 47.5491 27.741 47.4043 27.6902C47.2594 27.6393 47.1139 27.5904 46.9678 27.5433C46.8218 27.4961 46.6751 27.4508 46.5279 27.4073C46.3807 27.3637 46.233 27.322 46.0847 27.2822C45.9365 27.2424 45.7878 27.2045 45.6386 27.1684C45.4894 27.1323 45.3398 27.0981 45.1897 27.0657C45.0396 27.0333 44.8892 27.0028 44.7385 26.9741C44.5877 26.9455 44.4365 26.9188 44.285 26.894C44.1335 26.8691 43.9818 26.8461 43.8298 26.8251C43.6777 26.8041 43.5253 26.7849 43.3728 26.7675C43.2203 26.7503 43.0676 26.7349 42.9147 26.7214Z" fill="#1E1E1E"/>
<path d="M42.3018 28.3471C40.3967 28.162 38.3905 28.3766 36.5528 28.8905C36.4163 28.9286 36.2803 28.9684 36.1448 29.0099C36.0092 29.0513 35.8743 29.0944 35.7399 29.1392C35.6055 29.1839 35.4716 29.2303 35.3382 29.2784C35.2049 29.3264 35.0723 29.376 34.9402 29.4274C34.808 29.4787 34.6766 29.5316 34.5459 29.5862C34.4151 29.6407 34.285 29.6969 34.1556 29.7547C34.0263 29.8124 33.8976 29.8718 33.7696 29.9328C33.6417 29.9937 33.5145 30.0563 33.3882 30.1204C33.2618 30.1844 33.1362 30.25 33.0114 30.3172C32.8867 30.3844 32.7627 30.4531 32.6395 30.5232C32.5165 30.5935 32.3943 30.6652 32.2731 30.7384C32.1517 30.8116 32.0312 30.8863 31.9118 30.9626C31.7924 31.0387 31.6739 31.1163 31.5564 31.1955C31.4388 31.2746 31.3222 31.3551 31.2065 31.4371C31.091 31.5191 30.9765 31.6025 30.863 31.6873C30.7494 31.7721 30.6369 31.8583 30.5254 31.9459C30.4141 32.0335 30.3038 32.1224 30.1945 32.2127C30.0854 32.303 29.9773 32.3946 29.8703 32.4876C29.7635 32.5805 29.6577 32.6748 29.553 32.7703C29.4483 32.8659 29.3449 32.9627 29.2428 33.0608C29.1405 33.1589 29.0394 33.2582 28.9396 33.3588C28.8397 33.4594 28.7412 33.5612 28.6439 33.6643C28.5466 33.7673 28.4506 33.8715 28.356 33.977C28.2613 34.0823 28.1678 34.1889 28.0756 34.2966C27.9836 34.4042 27.8928 34.513 27.8034 34.6229C27.714 34.7328 27.626 34.8438 27.5393 34.9559C27.4526 35.068 27.3673 35.1812 27.2834 35.2954C27.1995 35.4097 27.117 35.5249 27.0359 35.6411C26.9549 35.7572 26.8753 35.8744 26.7972 35.9926C26.719 36.1108 26.6422 36.23 26.5669 36.3501C26.4916 36.4702 26.4179 36.5912 26.3458 36.7129C26.2735 36.8348 26.2027 36.9576 26.1335 37.0813C24.7508 39.5506 24.0559 42.2573 23.9593 45.0803C23.7998 49.7337 25.5684 53.8246 28.5823 57.2974C30.2542 59.2237 32.055 61.0319 33.4285 63.1969C34.5069 64.8969 35.1639 66.6327 35.7039 68.5579L38.1912 68.542C38.0342 66.8563 38.0516 65.1192 38.0022 63.4257C37.8811 59.757 37.8262 56.0873 37.8377 52.4167C36.5258 52.4102 35.0806 52.3379 33.9955 51.5177C33.1632 50.8886 32.6684 49.9696 32.5491 48.9377C32.4221 47.8415 32.6459 46.7306 33.3631 45.8702C33.9168 45.2061 34.703 44.7574 35.5692 44.6794C36.486 44.5968 37.5233 44.9081 38.2101 45.5288C39.5926 46.778 39.4773 48.9063 39.5536 50.5988L39.669 50.7364C40.6469 50.7215 41.6278 50.7461 42.6059 50.7547C42.592 49.0997 42.5158 47.1106 43.6466 45.7603C44.2338 45.0594 45.1357 44.6559 46.0438 44.6157C46.9204 44.5769 47.7653 44.9122 48.4102 45.5003C48.4601 45.5462 48.5087 45.5935 48.5562 45.6421C48.6035 45.6905 48.6496 45.7401 48.6945 45.7909C48.7394 45.8417 48.7829 45.8937 48.8251 45.9467C48.8673 45.9999 48.9081 46.0541 48.9473 46.1091C48.9867 46.1644 49.0247 46.2205 49.0613 46.2776C49.0978 46.3348 49.1328 46.3929 49.1663 46.4519C49.1997 46.5108 49.2317 46.5705 49.2622 46.6311C49.2926 46.6917 49.3215 46.753 49.3486 46.8151C49.3759 46.8772 49.4016 46.94 49.4257 47.0033C49.4497 47.0667 49.472 47.1307 49.4928 47.1952C49.5136 47.2597 49.5327 47.3247 49.55 47.3903C49.5675 47.4558 49.5832 47.5217 49.5973 47.588C49.6113 47.6545 49.6235 47.7212 49.634 47.7881C49.6446 47.8551 49.6534 47.9223 49.6606 47.9897C49.6677 48.057 49.6731 48.1246 49.6766 48.1923C49.6803 48.26 49.6823 48.3278 49.6824 48.3956C49.6904 49.4204 49.3306 50.4047 48.5985 51.1313C47.4346 52.2864 45.8683 52.405 44.3276 52.4159L44.1939 68.5424L46.72 68.5506C48.4101 59.2493 57.2887 57.6263 58.2024 47.137C58.2151 46.9946 58.2262 46.852 58.2355 46.7092C58.2446 46.5663 58.2521 46.4235 58.2578 46.2805C58.2634 46.1376 58.2673 45.9946 58.2695 45.8517C58.2717 45.7086 58.2721 45.5655 58.2707 45.4225C58.2694 45.2794 58.2663 45.1364 58.2613 44.9935C58.2564 44.8505 58.2497 44.7076 58.2412 44.5648C58.2328 44.422 58.2226 44.2793 58.2106 44.1367C58.1986 43.9942 58.1849 43.8518 58.1695 43.7096C58.1539 43.5675 58.1366 43.4255 58.1176 43.2837C58.0986 43.1419 58.0779 43.0003 58.0553 42.8591C58.0328 42.7178 58.0086 42.5768 57.9826 42.4362C57.9566 42.2954 57.9289 42.155 57.8994 42.0152C57.8699 41.8752 57.8388 41.7355 57.8059 41.5963C57.7728 41.457 57.7382 41.3182 57.7018 41.1799C57.6655 41.0415 57.6274 40.9037 57.5876 40.7664C57.5478 40.6289 57.5064 40.4919 57.4633 40.3555C57.4201 40.2192 57.3752 40.0834 57.3288 39.9481C57.2823 39.8128 57.2341 39.6781 57.1842 39.5439C57.1344 39.4099 57.0829 39.2765 57.0297 39.1436C56.9765 39.0109 56.9218 38.8788 56.8654 38.7473C56.8089 38.6158 56.7509 38.4851 56.6913 38.355C56.6316 38.2249 56.5704 38.0956 56.5075 37.9671C56.4447 37.8387 56.3802 37.711 56.3141 37.584C56.2482 37.4571 56.1807 37.3311 56.1116 37.2058C56.0423 37.0806 55.9716 36.9562 55.8995 36.8327C55.8273 36.7092 55.7536 36.5866 55.6784 36.4649C55.6031 36.3432 55.5264 36.2225 55.4483 36.1028C55.37 35.983 55.2903 35.8643 55.2092 35.7464C55.1279 35.6286 55.0453 35.5118 54.9613 35.396C54.8772 35.2803 54.7918 35.1656 54.7048 35.0519C54.6179 34.9383 54.5297 34.8258 54.4401 34.7143C54.3504 34.6028 54.2594 34.4924 54.1669 34.3833C51.1345 30.7918 46.9537 28.7505 42.3018 28.3471Z" fill="#FED033"/>
<path d="M42.6245 52.4138L39.5418 52.4136C39.5502 57.7835 39.6322 63.1522 39.7878 68.5199C40.7095 68.5984 41.6582 68.5463 42.5836 68.5379C42.4145 63.182 42.6067 57.7753 42.6245 52.4138Z" fill="#FED033"/>
<path d="M47.2834 70.1975L35.1748 70.1979L35.1602 72.5987L47.2876 72.598L47.2834 70.1975Z" fill="#A3A2A2"/>
<path d="M47.2871 74.2976L35.1687 74.3032C35.1765 75.0824 35.18 75.8616 35.1791 76.6407C39.2 76.7772 43.2591 76.6659 47.2841 76.6598L47.2871 74.2976Z" fill="#A3A2A2"/>
<path d="M46.4073 46.2949C45.8737 46.2834 45.4441 46.3773 45.0554 46.7702C44.137 47.698 44.315 49.5216 44.3198 50.7394L45.8477 50.6792C46.0875 50.6155 46.3327 50.5598 46.5653 50.4724C47.1137 50.2666 47.5774 49.8062 47.8103 49.2712C48.0437 48.7357 48.0645 48.1087 47.8379 47.567C47.559 46.9004 47.0519 46.5624 46.4073 46.2949Z" fill="#FED033"/>
<path d="M36.3635 46.3891C36.1212 46.3614 35.8649 46.3413 35.6242 46.3968C35.1365 46.5092 34.6809 46.8463 34.4426 47.2868C34.1367 47.8518 34.1078 48.5514 34.3179 49.153C34.5776 49.8974 35.0145 50.2061 35.6988 50.5454L35.8721 50.576C36.5316 50.6971 37.1753 50.7065 37.8441 50.7191C37.846 49.81 37.9271 48.7888 37.6645 47.913C37.4361 47.1506 37.0423 46.7684 36.3635 46.3891Z" fill="#FED033"/>
<path d="M44.501 78.4576C42.3421 78.3477 40.1385 78.4261 37.9756 78.4439C38.255 78.8268 38.5488 79.1672 38.8726 79.5117C39.1278 79.7179 39.4181 79.9101 39.7205 80.0391C40.7104 80.4608 41.8798 80.4241 42.8639 80.0092C43.5293 79.7288 44.2148 79.1282 44.501 78.4576Z" fill="#A3A2A2"/>
<path d="M41.34 12.2295C40.9642 12.2781 40.5302 12.3778 40.3104 12.7224C40.0183 13.1804 40.0095 20.93 40.2016 21.7835C40.2842 22.1507 40.5826 22.3083 40.8737 22.5011C40.9066 22.5019 40.9393 22.504 40.972 22.5031C41.3033 22.4939 41.7826 22.4168 41.9758 22.1077C42.2153 21.7246 42.2594 13.6156 42.0896 12.9589C41.9938 12.5884 41.6413 12.4114 41.34 12.2295Z" fill="#1E1E1E"/>
<path d="M59.0644 17.2064C58.6857 17.1992 58.3717 17.1733 58.0744 17.4532C57.6246 17.8769 53.7052 23.9124 53.3889 24.6203C53.3152 24.785 53.2902 24.9436 53.3158 25.123C53.3711 25.5105 53.7111 25.7106 54.0003 25.9236C54.2966 25.9412 54.6512 25.9481 54.8827 25.7285C55.5101 25.1331 59.184 19.3982 59.608 18.4991C59.6754 18.3561 59.7052 18.2143 59.6882 18.0552C59.6453 17.654 59.3515 17.4427 59.0644 17.2064Z" fill="#1E1E1E"/>
<path d="M24.2705 17.7762C23.8547 17.764 23.4318 17.7603 23.1091 18.0704C22.9177 18.2544 22.8483 18.4232 22.8571 18.6896C22.8748 19.2266 27.0708 25.4569 27.6547 25.973C27.7656 25.9931 27.8536 26.0131 27.9695 26.0139C28.2928 26.016 28.6602 25.8609 28.8572 25.5979C29.006 25.3994 29.0328 25.1492 29.0089 24.9097C28.9573 24.3898 24.888 18.3422 24.2705 17.7762Z" fill="#1E1E1E"/>
</svg>
