<svg width="400" height="400" viewBox="0 0 400 400" fill="none" xmlns="http://www.w3.org/2000/svg">
<circle cx="160" cy="240" r="160" fill="#D7F4EC"/>
<path d="M244.678 50.5901C246.43 47.6305 247.381 44.7672 248.607 41.5789C248.748 41.6005 249.026 41.6483 249.161 41.6472C249.609 41.6437 249.928 41.3095 250.21 40.9965C252.112 38.8863 252.76 34.8527 252.65 32.0953C252.425 26.4316 249.314 21.2484 245.238 17.4777C241.872 14.3645 238.609 13.3635 234.618 11.419C233.366 10.8092 232.283 9.70407 231.145 8.89727C227.326 6.18873 223.142 5.4597 218.528 5.6494C211.816 5.9254 200.174 9.3814 195.589 14.3998C195.079 14.4641 194.856 14.3886 194.393 14.1739C193.524 13.5154 192.816 13.3429 191.727 13.4857C186.444 14.1795 180.847 18.959 177.821 23.1128C172.936 29.8174 171.097 38.848 172.422 46.9893C173.138 51.3823 175.256 57.4809 178.692 60.5005L180.058 61.9509C180.849 66.9372 183.205 70.8696 187.354 73.8444C190.082 75.8009 193.098 76.5854 196.426 76.5623C196.738 78.9722 197.119 81.3908 197.187 83.8223C193.563 84.6232 190.731 87.4113 188.698 90.3944C188.511 89.8291 188.52 89.5924 187.94 89.2919C185.474 88.0141 168.834 92.025 165.659 92.991C163.933 93.5164 162.277 94.1978 160.646 94.9672C146.644 101.573 122.51 117.537 113.423 130.035C111.9 132.129 110.64 134.574 109.78 137.016C108.98 139.287 108.497 141.69 108.199 144.075C107.428 150.264 105.465 185.659 106.74 188.158C107.336 189.326 109.733 190.079 110.936 190.413C110.549 197.749 108.493 209.909 113.764 215.836C117.205 219.707 122.408 220.034 127.231 220.277C129.493 220.391 131.251 220.404 133.431 219.606C134.682 220.08 136.391 220.101 137.614 219.497C138.409 219.104 138.889 218.428 139.142 217.589C139.406 216.713 139.289 215.458 139.669 214.672C139.915 214.162 140.761 213.805 141.17 213.391C142.854 211.688 143.448 208.582 143.812 206.296C151.137 211.463 158.452 216.628 167.132 219.221C169.924 227.245 176.138 233.794 183.076 238.461C182.475 243.694 182.003 249.211 180.821 254.345C177.678 252.594 169.388 248.354 165.984 248.239C165.369 248.44 165.099 248.837 164.705 249.317C163.185 248.468 161.547 247.675 160.165 246.614C159.883 245.888 159.611 244.992 159.094 244.4C156.834 241.813 149.479 237.667 146.304 236.282C145.901 236.11 145.487 235.966 145.063 235.851C143.658 236.197 142.512 236.592 141.322 237.461C137.1 240.541 130.587 251.29 127.772 255.957C123.882 262.407 117.935 272.798 116.778 280.123C116.426 282.349 116.512 284.759 117.065 286.946C117.603 289.076 118.679 290.904 120.613 292.038C122.411 293.092 124.526 293.435 126.544 292.888C131.117 291.648 133.595 287.529 136.801 284.453C139.098 282.25 141.622 280.118 144.083 278.094C146.43 276.165 149.165 274.737 151.567 272.883C152.215 272.383 153.704 270.565 154.452 270.653C155.038 271.081 155.253 271.476 155.352 272.178C155.526 273.416 155.259 274.759 155.312 276.02C162.213 283.092 183.656 292.651 193.507 292.772C197.024 292.815 199.925 291.34 202.377 288.903C209.068 282.251 214.975 268.165 217.689 259.112C220.308 260.762 222.913 262.441 225.555 264.055C229.341 275.178 234.253 285.994 238.745 296.853C240.771 301.86 242.865 306.839 245.028 311.788C246.061 314.19 246.986 316.694 248.262 318.981C248.719 319.8 249.177 320.45 250.039 320.867C251.054 321.358 252.366 321.45 253.482 321.6C254.662 325.426 256.873 328.948 258.162 332.775C256.786 334.482 256.634 336.309 256.87 338.427C257.541 344.462 261.619 354.744 266.468 358.667C267.839 359.776 269.379 360.161 271.118 359.941C273.292 359.667 275.694 358.579 277.583 357.5C280.634 355.757 283.489 353.518 286.327 351.454L296.966 343.845C301.558 340.59 306.617 337.797 310.988 334.261C313.698 332.07 316.29 329.696 318.384 326.896C320.618 323.908 322.162 320.37 321.605 316.572C321.264 314.244 320.246 312.002 318.288 310.601C315.361 308.508 311.187 308.7 307.819 309.343C303.082 310.246 298.548 312.479 293.99 314.055C288.379 315.995 282.685 317.364 276.869 318.547C275.988 316.433 274.988 314.305 274.237 312.144C275.978 310.968 277.495 309.593 277.902 307.423C278.03 306.742 278.029 306.151 277.911 305.468C277.535 303.296 276.647 301.101 276.012 298.987L272.623 287.568C268.454 273.886 264.663 259.788 259.027 246.624C258.021 244.276 256.562 242.194 255.071 240.132C251.029 234.542 246.16 229.874 241.014 225.319C239.34 223.838 237.673 222.257 235.815 221.01C238.055 219.963 239.488 218.504 240.357 216.14C242.823 209.434 239.392 198.685 238.217 191.751C237.652 188.412 237.447 184.969 236.799 181.656L236.677 180.88C236.576 178.636 236.83 176.376 237.074 174.148C239.54 178.705 242.556 183.052 247.319 185.428C250.461 186.996 253.718 187.35 257.067 186.201C259.701 185.297 262.237 183.846 264.559 182.324C270.613 178.355 285.744 166.028 288.741 159.829C288.737 156.8 287.883 154.855 286.396 152.302C290.946 143.459 294.113 135.927 295.061 125.869C295.256 123.802 295.512 121.584 295.191 119.522C294.66 116.108 292.715 114.789 290.108 112.88L290.278 112.584C290.531 112.371 290.754 112.171 290.936 111.892C292.167 110.011 295.247 98.7 295.685 96.2188C295.836 95.3655 295.894 94.4835 295.725 93.6287C295.526 92.6184 295.007 91.7147 294.118 91.1691C293.193 90.6016 292.008 90.2658 290.94 90.0974C287.937 89.6243 275.529 89.4095 272.929 90.0742C271.241 90.5052 270.182 91.3759 269.354 92.9193C267.807 95.8026 265.748 105.204 264.69 108.912C263.075 114.576 260.995 120.168 259.733 125.929C259.501 126.986 259.224 128.586 259.583 129.619C259.843 130.364 260.643 131.005 261.286 131.41C262.414 132.121 263.791 132.578 265.01 133.126C266.526 133.809 268.002 134.594 269.48 135.355C269.278 138.011 269.585 139.907 270.511 142.403C267.298 142.878 264.687 145.108 262.266 147.137C261.64 144.285 260.557 141.541 259.642 138.773C258.302 134.616 256.923 130.471 255.505 126.34C253.17 119.726 250.131 111.516 245.101 106.494C240.373 101.772 230.611 97.5493 224.52 94.6402L225.008 92.2345C225.529 92.2137 226.05 92.1821 226.57 92.1396C231.277 91.7337 236.065 89.7514 239.14 86.0872C247.228 76.45 245.744 62.2555 244.678 50.5901Z" fill="#201D17"/>
<path d="M196.951 85.71C190.285 88.9158 186.406 97.3029 183.333 103.717C185.731 104.891 192.412 109.17 193.915 111.117L194.001 111.573C192.095 113.145 186.886 115.53 184.456 116.944C187.033 121.62 202.267 151.072 201.409 154.674C201.349 154.924 201.335 154.924 201.225 155.115C200.821 155.295 200.814 155.274 200.383 155.16C200.061 154.866 199.854 154.619 199.671 154.219C199.073 152.916 198.752 151.452 198.221 150.109C196.89 146.748 195.455 143.406 194 140.096C191.63 134.705 188.843 129.37 186.101 124.156C184.997 122.058 183.53 119.9 182.665 117.703C182.595 117.525 182.496 117.275 182.492 117.081C182.477 116.497 182.779 116.225 183.19 115.856C185.324 113.941 188.668 112.487 191.188 111.098C188.559 108.876 183.056 106.748 181.76 103.63L181.626 103.314C182.52 99.9435 186.547 93.3372 188.698 90.3943C188.598 90.4557 188.5 90.5206 188.398 90.5787C187.107 91.3143 183.258 91.2335 181.614 91.4657C176.299 92.2165 170.87 93.2951 165.743 94.9044C162.574 95.8988 159.632 97.5662 156.716 99.1293C153.893 100.633 151.113 102.212 148.376 103.869C145.64 105.525 142.951 107.254 140.309 109.058C137.668 110.861 135.077 112.736 132.539 114.681C130 116.627 127.516 118.64 125.088 120.722C122.679 122.81 120.253 124.893 118.107 127.258C115.149 130.52 112.563 134.149 111.206 138.376C109.621 143.316 109.491 148.813 109.174 153.963C108.516 164.672 108.579 175.349 108.156 186.054C116.264 183.822 125.178 184.007 133.469 185.058C133.545 180.877 133.725 176.699 134.008 172.527C134.183 169.943 136.099 148.056 136.999 147.153C138.144 146.005 140.771 145.238 142.266 144.483C145.4 142.901 160.611 134.547 163.108 134.689C163.599 134.717 163.9 134.856 164.312 135.132L164.486 135.544C164.249 136.116 163.778 136.32 163.236 136.54C162.437 136.864 161.613 137.13 160.835 137.503C160.611 142.601 160.548 147.702 160.646 152.804C160.698 155.502 161.333 159.455 160.869 161.965C160.646 163.174 156.086 169.353 155.083 170.85C149.753 178.807 144.7 186.813 140.021 195.17C142.384 198.062 143.586 200.957 143.827 204.692C147.119 205.804 150.404 208.618 153.329 210.516C156.42 212.521 159.727 214.381 163.116 215.83C167.507 217.38 171.815 218.585 176.259 216.451C186.938 211.324 197.755 185.845 201.533 174.839C207.173 158.405 207.418 140.928 204.285 123.96C203.224 118.21 201.712 112.472 200.332 106.79C199.172 102.014 196.952 94.9974 196.688 90.2713C196.603 88.7508 196.805 87.2218 196.951 85.71Z" fill="#778EEE"/>
<path d="M158.424 174.324L157.719 174.492C156.431 175.767 154.521 180.48 154.387 182.355C154.328 183.181 154.458 184.168 155.065 184.787C156.396 186.146 171.155 192.043 173.858 192.782C175.23 193.157 176.441 193.239 177.855 193.213C179.233 192.384 180.189 191.226 180.975 189.839C181.805 188.372 183.653 185.652 183.098 183.979C183.032 183.78 182.916 183.546 182.738 183.423C181.358 182.466 177.82 181.728 176.126 181.145C171.992 179.721 167.758 178.323 163.785 176.5C163.102 176.217 162.417 175.939 161.731 175.665C160.908 175.338 160.383 175.046 159.523 175.418C159.427 175.685 159.294 175.805 159.444 176.077C160.78 178.502 177.933 183.841 181.332 184.719C180.323 186.93 179.146 190.077 177.023 191.389C174.307 191.808 159.27 184.786 155.907 183.025C156.596 180.502 158.369 178.19 158.834 175.655C158.95 175.022 158.778 174.839 158.424 174.324Z" fill="#3B3937"/>
<path d="M163.802 98.8608C163.315 98.9841 163.106 99.0479 162.775 99.4341C162.602 100.749 163.638 101.993 164.259 103.091C167.987 109.681 168.422 117.373 166.203 124.549C165.63 126.401 164.591 128.094 164.079 129.947C164.288 130.545 164.538 130.678 165.013 131.082C167.676 128.723 168.92 122.117 169.302 118.773C170.105 111.749 168.23 104.419 163.802 98.8608Z" fill="#3B3937"/>
<path d="M130.068 134.91C129.945 134.911 129.822 134.893 129.701 134.912C129.221 134.986 129.083 135.138 128.825 135.5C128.85 135.662 128.834 135.837 128.9 135.987C129.359 137.031 131.891 139.523 132.744 140.604C133.893 142.06 134.909 143.577 135.898 145.145C136.067 145.129 136.398 145.105 136.553 145.051C136.988 144.899 137.02 144.659 137.149 144.272C136.664 141.614 132.268 136.625 130.068 134.91Z" fill="#3B3937"/>
<path d="M223.636 200.515C221.202 200.973 218.773 201.431 216.308 201.7C210.264 202.359 197.226 202.977 191.721 201.227C187.922 207.609 181.838 217.237 174.213 219.142C172.378 219.601 170.671 219.616 168.804 219.391C171.642 224.184 174.279 228.894 178.449 232.712C182.882 236.771 188.395 239.579 193.565 242.572L209.585 251.964C212.765 253.837 215.904 255.776 219.003 257.781C221.657 259.483 224.352 261.335 227.161 262.77C228.387 267.043 230.082 271.068 231.761 275.174C233.717 279.988 235.71 284.786 237.74 289.569C241.664 298.873 245.305 308.299 249.537 317.471C250.988 315.88 252.432 314.354 254.153 313.047C258.618 309.654 266.898 305.632 272.473 305.383C273.585 305.333 274.815 305.353 275.885 305.672L276.101 305.451C275.448 304.169 275.1 302.462 274.69 301.073L272.085 292.208C269.427 283.093 266.653 274.013 263.762 264.969C261.814 258.91 259.863 252.452 257.063 246.747C256.028 244.638 254.696 242.686 253.327 240.781C248.233 233.691 241.314 227.554 234.473 222.165C230.591 219.108 226.503 216.062 222.36 213.374L214.611 208.288C213.562 207.606 212.398 207.066 211.386 206.334C210.942 206.013 210.6 205.737 210.319 205.265C210.234 204.753 210.216 204.513 210.42 204.031L210.835 203.893C212.94 204.404 225.233 213.315 228.21 215.134L228.375 215.233L228.409 215.068C227.894 214.121 225.752 212.98 224.817 212.317L224.789 211.962C224.262 211.78 223.898 211.757 223.603 211.23C222.841 209.87 223.599 202.578 223.636 200.515Z" fill="#4A6B8D"/>
<path d="M228.464 247.351C228.207 247.457 228.12 247.463 227.92 247.646C226.618 248.833 225.628 254.643 225.414 256.47C225.272 257.674 225.153 258.524 225.944 259.536L226.608 259.358C227.092 258.746 227.964 253.166 228.291 251.926C228.537 250.989 229.113 249.611 229.135 248.668C229.15 248.057 228.817 247.798 228.464 247.351Z" fill="#3B3937"/>
<path d="M236.812 111.531C233.369 106.193 228.455 100.239 223.832 95.9155C226.823 111.744 227.912 126.547 227.79 142.653C227.715 152.655 226.713 162.922 227.926 172.875C228.324 175.97 228.874 179.039 229.574 182.08C230.274 185.122 231.122 188.121 232.118 191.079C233.968 196.515 236.23 201.879 237.644 207.45C237.812 208.11 238.13 209.009 237.683 209.619C237.508 209.858 237.335 210.008 237.106 210.19C236.654 210.116 236.489 210.159 236.201 209.774C235.28 208.543 233.014 199.811 232.075 197.406C231.339 195.52 229.876 193.986 229.192 192.135L228.887 192.115L229.159 192.419C229.141 192.477 229.122 192.534 229.104 192.592C228.568 194.398 229.519 198.492 227.643 199.426C226.878 199.806 226.315 199.804 226.015 200.713C225.23 203.098 226.106 209.934 225.518 211.518C225.389 211.865 225.117 212.12 224.816 212.316C225.752 212.98 227.893 214.121 228.409 215.067L228.375 215.233C230.503 216.797 232.64 218.351 234.784 219.894C235.215 219.619 235.658 219.345 236.065 219.036C241.782 214.705 238.74 203.972 237.59 198.172C236.853 194.456 236.086 190.72 235.585 186.964C235.391 185.51 235.027 183.766 235.228 182.314C235.677 181.774 236.123 181.809 236.799 181.656L236.677 180.88C236.279 181.178 235.917 181.441 235.459 181.645C235.113 181.463 235.047 181.454 234.943 181.05C234.461 179.17 235.024 175.892 235.239 173.948C236.049 166.633 237.434 159.365 238.453 152.077C239.179 146.889 240.014 141.712 240.703 136.522C241.129 133.319 241.351 130.038 241.889 126.857C241.985 126.292 242.115 125.718 242.434 125.232C242.65 124.902 242.715 124.932 243.056 124.792C243.423 124.982 243.642 125.062 243.784 125.493C244.467 127.552 238.238 164.669 237.506 170.94C240.162 176.41 243.622 182.346 249.733 184.417C253.309 185.629 256.367 184.689 259.601 183.062C268.49 178.59 278.501 169.099 285.274 161.728C280.139 161.003 275.073 157.558 271.995 153.451C270.215 151.074 268.82 147.848 269.297 144.832C269.329 144.625 269.364 144.419 269.401 144.213C266.685 146.071 251.289 158.184 250.216 158.407C249.762 158.249 249.708 158.198 249.399 157.827C249.411 157.092 249.896 156.559 250.41 156.077C253.552 153.129 257.696 151.183 260.821 148.178C257.063 137.39 251.712 116.031 244.125 108.283C240.629 104.714 235.344 101.934 230.876 99.7766C230.381 99.535 229.882 99.2988 229.382 99.0679C231.161 100.708 238.495 109.517 238.608 111.755C238.639 112.383 238.161 112.892 237.735 113.299C236.256 114.714 234.233 115.815 232.522 116.954C234.538 117.92 238.414 119.265 239.14 121.579C239.372 122.317 239.296 123.095 239.176 123.846C238.691 126.885 237.75 129.938 237.012 132.926C235.311 139.816 233.654 146.697 231.662 153.509C231.142 155.289 230.914 157.502 229.952 159.091C229.773 159.386 229.581 159.552 229.276 159.718C228.851 159.684 228.868 159.708 228.586 159.391C228.409 157.898 233.874 137.872 234.696 134.558C235.736 130.366 236.774 126.133 237.517 121.877C237.452 121.83 237.387 121.781 237.321 121.735C235.782 120.645 230.727 118.75 230.109 117.377C230.25 116.334 231.109 115.762 231.902 115.154C233.516 113.919 235.168 112.725 236.812 111.531Z" fill="#778EEE"/>
<path d="M230.117 10.5606C229.661 10.2611 229.195 9.97952 228.718 9.71576C221.313 5.60907 210.425 8.07442 203.325 11.6652C201.73 12.4719 198.86 14.7554 197.348 15.0743C196.752 15.1998 196.083 14.6884 195.589 14.3999C195.079 14.4642 194.856 14.3887 194.393 14.174C193.524 13.5155 192.816 13.3429 191.728 13.4858C186.444 14.1795 180.847 18.9591 177.821 23.1128C172.936 29.8175 171.097 38.8481 172.423 46.9894C173.138 51.3823 175.256 57.481 178.692 60.5006L180.059 61.951L180.288 60.6174C180.344 60.2858 180.392 59.9531 180.464 59.6246C180.909 57.6203 182.269 55.7172 184.004 54.6288C185.581 53.6389 187.476 53.2618 189.297 53.6928C192.131 54.3636 194.055 56.4669 195.546 58.8203C196.264 55.7946 197.048 52.5869 198.136 49.6781C198.505 48.6944 199.384 48.0323 199.558 46.9814C198.823 46.923 198.048 46.942 197.499 46.3941C197.44 45.9472 197.415 45.8243 197.7 45.4278C198.741 43.979 201.428 42.7251 202.86 40.4931C203.891 38.8879 204.855 36.9796 205.357 35.1331C205.756 33.666 205.499 31.1731 206.287 30.0175C206.805 29.7709 206.824 29.6988 207.368 29.8452C207.862 30.475 207.893 31.2823 207.849 32.0551C207.549 37.3328 205.259 41.4761 201.326 44.9179C203.467 44.9585 205.459 44.8276 207.518 44.1929C214.014 42.1917 219.535 35.5641 219.519 28.624C219.515 26.9015 218.012 24.1743 218.803 22.6834C221.207 23.1108 223.155 24.425 225.69 24.6671C226.51 23.9747 227.453 23.0104 228.56 22.8801C230.019 22.7084 231.391 23.4161 232.521 24.2735C237.24 27.8515 241.45 34.6308 243.103 40.2674C243.783 42.5877 244.064 44.9991 244.406 47.3866C246.098 44.2787 246.804 40.4063 246.557 36.8874C246.485 35.8585 246.124 34.9267 246.179 33.8838C246.522 33.4118 246.565 33.2203 247.137 33.0488C249.291 34.1706 247.709 37.6272 248.683 39.3944L249.008 39.2074C250.047 37.4535 250.419 35.8862 250.547 33.8717C250.865 28.8573 248.833 24.3757 245.534 20.6804C241.557 16.2256 235.207 13.1327 229.287 12.542C227.462 12.36 225.638 12.5877 223.813 12.4603C223.119 12.4119 222.449 12.367 221.966 11.8167C221.975 11.3701 222.027 11.2196 222.353 10.8698C223.37 9.7789 228.645 10.4597 230.117 10.5606Z" fill="#31302F"/>
<path d="M194.393 14.1738C193.524 13.5154 192.815 13.3428 191.727 13.4857C186.444 14.1794 180.846 18.9589 177.82 23.1127C172.935 29.8174 171.097 38.848 172.422 46.9893C173.138 51.3822 175.255 57.4809 178.692 60.5004C179.104 60.5342 178.912 60.5672 179.269 60.42C179.403 59.3243 176.178 53.4882 175.576 51.8174C174.284 48.228 173.808 44.4887 173.873 40.6876C174.041 30.8542 179.305 21.0406 188.362 16.7483C189.509 16.2045 193.558 15.1019 194.198 14.4039C194.265 14.3298 194.328 14.2505 194.393 14.1738Z" fill="#3B3937"/>
<path d="M290.278 112.584C289.817 112.207 289.612 112.126 289.508 111.511C289.066 108.911 295.433 95.4236 293.556 93.1132C292.04 91.2481 278.599 91.4351 275.842 91.5436C274.539 91.5948 272.759 91.6878 271.841 92.7042C271.278 93.3283 270.889 94.0711 270.582 94.8489C269.916 96.5402 269.515 98.4572 269.02 100.215C267.697 104.907 266.55 109.626 264.987 114.252C268.061 113.56 270.84 113.882 273.934 114.215C272.586 113.133 269.986 111.741 269.81 109.886C269.73 109.036 270.077 108.125 270.667 107.515C271.726 106.421 273.443 106.269 274.882 106.3C280.439 106.419 285.904 109.472 290.108 112.88L290.278 112.584Z" fill="#688398"/>
<path d="M288.413 95.0292C288.378 95.0233 288.344 95.0183 288.31 95.014C288.275 95.0097 288.241 95.0063 288.206 95.0037C288.172 95.0012 288.137 94.9994 288.102 94.9984C288.068 94.9974 288.033 94.9973 287.998 94.998C287.964 94.9988 287.929 95.0003 287.894 95.0026C287.86 95.0049 287.825 95.008 287.791 95.0121C287.756 95.0159 287.722 95.0206 287.688 95.0261C287.653 95.0319 287.619 95.0384 287.586 95.0455C287.552 95.0528 287.518 95.0608 287.484 95.0694C287.451 95.0782 287.417 95.0878 287.384 95.0982C287.351 95.1086 287.318 95.1197 287.286 95.1316C287.253 95.1437 287.221 95.1565 287.189 95.1699C287.157 95.1833 287.125 95.1975 287.094 95.2124C287.063 95.2273 287.032 95.243 287.001 95.2594C286.971 95.2759 286.941 95.2931 286.911 95.311C286.881 95.329 286.852 95.3476 286.823 95.3668C286.794 95.386 286.766 95.4059 286.738 95.4264C286.71 95.4471 286.682 95.4684 286.656 95.4901C286.629 95.5121 286.603 95.5346 286.577 95.5576C286.551 95.5809 286.525 95.6047 286.501 95.629C286.476 95.6533 286.452 95.6782 286.428 95.7037C286.405 95.7293 286.382 95.7553 286.36 95.7819C286.338 95.8084 286.316 95.8355 286.295 95.8631C286.274 95.8906 286.253 95.9187 286.233 95.9473C286.214 95.9759 286.195 96.0048 286.177 96.0342C286.158 96.0635 286.141 96.0933 286.124 96.1237C286.107 96.154 286.091 96.1848 286.075 96.2159C286.06 96.247 286.045 96.2784 286.031 96.31C286.017 96.3418 286.004 96.374 285.992 96.4063C285.979 96.4387 285.967 96.4713 285.956 96.5042C285.946 96.5371 285.935 96.5702 285.926 96.6036C285.917 96.637 285.909 96.6706 285.901 96.7045C285.893 96.7384 285.886 96.7724 285.88 96.8066C285.874 96.8407 285.868 96.875 285.864 96.9094C285.86 96.9438 285.856 96.9782 285.853 97.0126C285.85 97.0473 285.848 97.0819 285.847 97.1166C285.846 97.1512 285.845 97.1859 285.846 97.2205C285.846 97.2552 285.847 97.2898 285.849 97.3245C285.852 97.3591 285.854 97.3936 285.858 97.428C285.862 97.4627 285.866 97.4971 285.871 97.5312C285.877 97.5654 285.883 97.5995 285.89 97.6337C285.897 97.6676 285.905 97.7013 285.913 97.735C285.922 97.7686 285.931 97.802 285.941 97.8351C285.951 97.8683 285.962 97.9011 285.974 97.9338C285.986 97.9664 285.998 97.9988 286.011 98.0309C286.025 98.063 286.039 98.0947 286.053 98.1261C286.068 98.1575 286.083 98.1885 286.1 98.2191C286.116 98.2499 286.133 98.2803 286.15 98.3101C286.168 98.34 286.186 98.3694 286.205 98.3985C286.224 98.4273 286.244 98.4558 286.265 98.4839C286.285 98.5119 286.306 98.5395 286.328 98.5666C286.349 98.5936 286.372 98.6202 286.394 98.6462C286.417 98.6723 286.441 98.6977 286.465 98.7225C286.489 98.7475 286.514 98.7718 286.539 98.7954C286.565 98.8191 286.59 98.8423 286.617 98.8648C286.643 98.8873 286.67 98.9092 286.697 98.9304C286.725 98.9517 286.753 98.9723 286.781 98.9922C286.81 99.012 286.838 99.0312 286.868 99.0499C286.897 99.0684 286.927 99.0862 286.957 99.1034C286.987 99.1204 287.018 99.1367 287.049 99.1523C287.08 99.168 287.111 99.1831 287.142 99.1975C287.174 99.2117 287.206 99.2251 287.238 99.2377C287.271 99.2504 287.303 99.2622 287.336 99.2734C287.369 99.2845 287.402 99.2949 287.435 99.3045C287.483 99.3181 287.531 99.3302 287.579 99.3405C287.628 99.3511 287.677 99.36 287.726 99.3671C287.775 99.3742 287.824 99.3796 287.874 99.3834C287.923 99.3872 287.973 99.3893 288.022 99.3898C288.072 99.3904 288.121 99.3891 288.171 99.3861C288.221 99.3833 288.27 99.3787 288.319 99.3724C288.368 99.3661 288.417 99.3581 288.466 99.3485C288.515 99.3389 288.563 99.3276 288.611 99.3147C288.659 99.3021 288.706 99.2877 288.753 99.2715C288.8 99.2555 288.846 99.238 288.892 99.2187C288.938 99.1995 288.983 99.1788 289.027 99.1565C289.072 99.1343 289.115 99.1105 289.158 99.0852C289.2 99.0599 289.242 99.0333 289.283 99.0055C289.324 98.9775 289.364 98.948 289.403 98.9171C289.442 98.8865 289.48 98.8545 289.517 98.8211C289.553 98.7878 289.589 98.7532 289.623 98.7176C289.658 98.6819 289.691 98.6451 289.723 98.6072C289.755 98.569 289.785 98.5299 289.814 98.4899C289.844 98.45 289.872 98.409 289.898 98.367C289.925 98.325 289.95 98.2823 289.973 98.2388C289.997 98.195 290.019 98.1506 290.04 98.1056C290.06 98.0603 290.079 98.0144 290.097 97.9679C290.114 97.9216 290.13 97.8747 290.145 97.8272C290.159 97.7796 290.172 97.7317 290.182 97.6834C290.194 97.6351 290.203 97.5864 290.211 97.5373C290.219 97.4882 290.225 97.439 290.229 97.3897C290.233 97.3401 290.236 97.2906 290.237 97.241C290.238 97.1914 290.238 97.1418 290.236 97.0923C290.233 97.0427 290.229 96.9933 290.223 96.9439C290.218 96.8949 290.211 96.8459 290.201 96.7971C290.193 96.7483 290.182 96.6999 290.17 96.6518C290.158 96.6035 290.144 96.5558 290.128 96.5088C290.113 96.4617 290.096 96.4152 290.077 96.3692C290.059 96.3231 290.038 96.2778 290.017 96.2333C289.995 96.1886 289.972 96.1447 289.947 96.1017C289.922 96.0587 289.896 96.0166 289.869 95.9754C289.841 95.9341 289.812 95.8938 289.782 95.8543C289.752 95.8151 289.72 95.7769 289.687 95.7397C289.654 95.7026 289.62 95.6665 289.585 95.6316C289.55 95.5967 289.513 95.5631 289.476 95.5307C289.438 95.4983 289.4 95.4672 289.36 95.4374C289.32 95.4075 289.28 95.3791 289.238 95.352C289.197 95.3252 289.154 95.2997 289.111 95.2754C289.067 95.2514 289.023 95.2287 288.978 95.2075C288.934 95.1862 288.888 95.1666 288.842 95.1487C288.796 95.1305 288.749 95.1139 288.702 95.099C288.654 95.084 288.607 95.0708 288.558 95.0591C288.51 95.0475 288.461 95.0375 288.413 95.0292Z" fill="#3B3937"/>
<path d="M229.222 187.83C228.837 191.493 228.678 195.298 228.058 198.917L225.728 199.725C225.496 202.074 225.268 204.44 225.217 206.801C225.187 208.179 225.363 209.667 225.219 211.025C225.181 211.382 224.994 211.677 224.789 211.962L224.817 212.316C225.117 212.12 225.389 211.865 225.518 211.518C226.106 209.934 225.23 203.098 226.015 200.713C226.315 199.804 226.879 199.806 227.643 199.426C229.519 198.492 228.568 194.398 229.104 192.592C229.122 192.534 229.141 192.477 229.159 192.42L228.887 192.115L229.192 192.135C229.876 193.986 231.339 195.52 232.075 197.406C233.014 199.811 235.28 208.544 236.201 209.774C236.489 210.159 236.654 210.116 237.106 210.19C236.72 209.849 236.422 209.531 236.222 209.048C235.314 206.85 234.804 204.39 234.04 202.126C232.433 197.359 230.627 192.665 229.222 187.83Z" fill="#4A6B8D"/>
<path d="M273.42 310.76C273.956 310.254 274.475 309.741 274.946 309.173C275.989 307.915 276.25 307.054 276.1 305.45L275.885 305.672C275.828 305.927 275.812 306.326 275.622 306.519C274.913 307.243 272.636 307.113 271.632 307.189C272.157 308.425 272.718 309.614 273.42 310.76Z" fill="#5E5A55"/>
<path d="M229.115 24.7554C227.916 24.9739 227.327 25.9992 226.623 26.8963C224.887 26.3978 223.052 26.1306 221.278 25.7887C221.411 26.7885 221.475 27.7926 221.47 28.801C221.447 33.5502 219.135 38.2516 215.794 41.5594C211.588 45.724 206.812 46.7806 201.093 46.7559C199.85 50.2152 198.403 54.0398 197.739 57.6512C197.454 59.204 198.07 61.3241 197.418 62.7013C197.241 63.075 197.156 63.0992 196.795 63.2434C195.421 62.7794 194.243 60.2015 193.347 59.039C192.088 57.408 190.264 55.7452 188.13 55.5486C186.654 55.4128 185.271 56.0373 184.186 57.0055C182.891 58.1604 182.169 59.4727 182.078 61.2224C181.909 64.4381 183.7 67.3833 185.788 69.6831C189.341 73.5977 192.507 74.5719 197.633 74.8026C199.974 80.2385 198.367 85.2703 198.598 90.6933C198.729 93.7576 199.948 98.1468 200.902 101.091C204.16 103.77 208.729 106.09 212.656 107.524C213.375 107.765 214.103 107.97 214.841 108.139C216.998 108.629 219.86 108.733 221.749 107.436C222.463 106.947 222.899 106.236 222.975 105.368C223.116 103.765 221.891 102.748 221.694 101.273C221.328 98.5269 222.521 94.7843 223.054 92.0895C218.024 90.8447 213.045 89.496 208.272 87.4511C207.219 86.9996 205.808 86.4404 205.359 85.3109C205.454 84.8264 205.499 84.8223 205.875 84.4922C207.278 84.2145 210.097 86.0412 211.533 86.5868C218.286 89.1515 225.379 91.951 232.395 88.741C237.037 86.6172 239.784 82.645 241.528 77.9584C241.944 76.8217 242.291 75.6642 242.568 74.4858C242.845 73.3072 243.051 72.1163 243.184 70.9131C244.168 62.2813 243.205 44.3373 239.629 36.7188C237.633 32.4651 233.748 26.4099 229.115 24.7554Z" fill="#FFD6B6"/>
<path d="M232.992 72.0742C232.961 72.0803 232.929 72.0867 232.898 72.0924C231.255 72.3857 230.054 73.7492 228.307 74.0967C226.053 74.5448 223.279 74.1127 221.149 73.2867C220.378 72.9878 219.703 72.5374 218.862 72.4737C218.328 72.6645 218.276 72.6979 217.931 73.1479C217.879 73.6878 217.91 73.7887 218.13 74.2876C218.25 74.3672 218.369 74.4481 218.494 74.519C221.866 76.4402 226.857 76.6891 230.528 75.6052C231.547 75.304 232.479 74.8559 232.983 73.8657C233.326 73.1908 233.211 72.7465 232.992 72.0742Z" fill="#3B3937"/>
<path d="M229.103 53.5015C228.933 53.5212 228.585 53.5546 228.429 53.6054C228.071 53.7219 227.864 53.9886 227.781 54.3494C227.306 56.4125 230.454 61.3707 231.528 63.2806C230.711 64.5925 229.433 65.4879 228.788 66.9015C228.826 67.491 228.986 67.6208 229.325 68.0905C231.491 67.4724 232.635 65.566 233.682 63.7184C233.108 62.0654 232.153 60.4902 231.393 58.9085C230.545 57.144 229.824 55.321 229.103 53.5015Z" fill="#3B3937"/>
<path d="M215.926 44.7568C215.799 44.7443 215.672 44.7249 215.545 44.7193C213.563 44.6278 211.193 45.0827 209.729 46.4967C209.202 47.0055 208.892 47.5119 208.882 48.2563C209.048 48.5014 209.055 48.6376 209.362 48.7131C210.197 48.9176 211.009 48.1751 211.664 47.7308C215.137 45.8722 216.387 47.6857 219.479 47.5089C219.576 47.3719 219.75 47.1401 219.802 46.9857C219.95 46.5468 219.804 46.2205 219.526 45.8832C218.832 45.041 216.957 44.8854 215.926 44.7568Z" fill="#3B3937"/>
<path d="M214.917 53.0283C214.676 53.0515 214.414 53.1201 214.177 53.1664C213.88 53.4301 213.662 53.6388 213.511 54.014C212.982 55.335 213.302 57.076 213.879 58.3257C214.309 59.2545 214.845 59.5523 215.774 59.8789C216.606 59.3922 217.094 58.935 217.371 57.9839C217.718 56.796 217.629 55.5934 217.014 54.5083C216.493 53.5891 215.898 53.3277 214.917 53.0283Z" fill="#3B3937"/>
<path d="M235.724 50.1523C235.065 50.2237 234.422 50.4475 233.995 50.9809C233.526 51.5675 233.44 52.374 233.528 53.0968C233.711 54.5946 234.418 55.8792 235.62 56.767C235.833 56.7461 235.99 56.7381 236.193 56.6983C236.736 56.5917 237.151 56.199 237.437 55.743C237.972 54.8894 237.95 53.7876 237.716 52.8414C237.398 51.5622 236.845 50.8227 235.724 50.1523Z" fill="#3B3937"/>
<path d="M238.738 41.1215C236.281 41.018 233.934 41.1174 231.861 42.6349C231.314 43.0359 230.833 43.5443 230.798 44.2617C230.767 44.8927 231.14 45.2315 231.507 45.6757C232.876 45.0649 233.85 43.4419 235.364 43.1505C236.266 42.9768 237.244 43.1729 238.156 43.0796C238.71 43.0227 238.838 42.8417 239.154 42.4111C239.192 41.8283 239.026 41.6041 238.738 41.1215Z" fill="#3B3937"/>
<path d="M201.901 104.06C201.587 104.275 202.243 106.871 202.363 107.396C204.465 116.581 206.811 125.484 207.713 134.902C209.998 158.772 203.907 179.056 192.502 199.851C195.31 199.789 198.182 200.12 200.991 200.243C205.612 200.444 210.031 200.386 214.642 199.995C218.594 199.542 222.374 198.795 226.208 197.737C226.752 195.355 227.861 184.889 227.663 182.501C227.476 180.243 226.871 177.945 226.503 175.701C225.971 172.447 225.751 169.165 225.672 165.872C225.391 154.163 226.158 142.445 225.88 130.72C225.699 123.054 224.783 115.401 223.859 107.795C222.557 109.02 221.291 109.851 219.497 110.219C213.46 111.458 206.743 107.218 201.901 104.06Z" fill="#F8FBFA"/>
<path d="M218.404 183.445C218.151 183.467 217.958 183.478 217.711 183.518C216.536 183.708 213.661 185.723 212.387 186.358C210.199 187.45 208.019 188.405 205.647 189.029C204.524 189.324 202.053 189.674 201.394 190.669C201.334 191.26 201.537 191.555 201.823 192.042C202.271 192.063 202.695 191.978 203.132 191.89C206.2 191.271 217.383 187.338 218.537 184.876C218.81 184.292 218.597 184.007 218.404 183.445Z" fill="#3B3937"/>
<path d="M184.954 239.895C184.298 240.877 184.108 245.336 183.904 246.73C183.375 250.338 182.893 253.975 182.197 257.555C181.811 259.544 181.276 261.496 180.859 263.477C180.537 265.011 180.441 267.258 179.565 268.534C179.234 269.015 178.897 269.365 178.308 269.476L178.015 269.159C177.698 267.733 180.11 258.409 180.607 256.103C178.634 255.466 176.754 254.418 174.87 253.556C172.127 252.29 169.351 251.1 166.542 249.986C160.24 256.528 157.189 266.314 157.083 275.234C161.912 278.796 166.817 281.865 172.231 284.463C175.235 285.871 178.225 287.278 181.38 288.323C186.119 289.892 193.43 292.307 198.103 289.853C204.286 286.606 210.638 273.16 213.194 266.665C214.31 263.83 215.186 260.904 216.074 257.993C212.94 256.333 209.926 254.36 206.896 252.517C202.489 249.831 198.04 247.217 193.548 244.674C190.712 243.044 187.891 241.338 184.954 239.895Z" fill="#4A6B8D"/>
<path d="M144.693 237.792C143.234 238.456 142.172 239.261 141.053 240.402C138.983 242.514 137.349 245.083 135.674 247.511C129.878 255.914 123.61 265.787 120.055 275.346C118.727 278.918 117.409 284.01 119.096 287.674C119.75 289.095 120.98 290.415 122.501 290.903C122.946 291.046 123.411 291.145 123.867 291.245C124.101 291.32 124.282 291.319 124.53 291.319C129.241 291.323 132.971 285.661 135.991 282.658C135.036 281.904 134.371 280.991 133.687 279.995C133.002 278.997 132.014 277.619 132.253 276.353L132.565 276.183C134.505 276.772 135.991 279.865 137.033 281.512C138.32 280.53 139.55 279.497 140.78 278.445C139.601 277.102 136.047 272.956 136.133 271.271C136.16 270.747 136.266 270.659 136.608 270.302L137.06 270.332C138.805 271.578 140.866 275.53 142.121 277.443C143.105 276.471 144.175 275.588 145.226 274.69C144.317 273.013 140.756 268.965 140.773 267.394C140.778 266.919 140.836 266.648 141.18 266.327C141.242 266.333 141.304 266.33 141.363 266.344C142.796 266.658 146.211 272.383 147.094 273.826C149.065 272.372 151.028 270.922 152.914 269.357C151.838 268.077 151.082 266.017 149.745 265.042C149.417 264.803 149.356 264.73 148.943 264.783C148.925 265.392 148.984 266.084 148.546 266.526C148.306 266.481 148.289 266.493 148.039 266.363C147.155 265.905 145.549 263.414 145.35 262.445C144.826 259.881 147.18 256.206 148.481 254.117C150.508 250.861 153.226 246.201 157.195 245.281C153.991 243.493 151.016 241.372 147.761 239.64C146.758 238.963 145.768 238.345 144.693 237.792Z" fill="#688398"/>
<path d="M144.693 237.792C143.234 238.456 142.172 239.261 141.053 240.402C138.983 242.514 137.348 245.083 135.673 247.511C129.878 255.914 123.61 265.787 120.055 275.346C118.727 278.918 117.409 284.01 119.096 287.674C119.75 289.095 120.98 290.415 122.501 290.903C122.946 291.046 123.411 291.145 123.866 291.245C124.101 291.18 123.959 291.235 124.263 291.022C124.18 290.905 124.098 290.788 124.018 290.669C122.092 287.841 121.336 286.61 122.012 283.1C123.678 274.449 130.46 264.268 135.076 256.734C138.599 250.986 142.093 243.523 147.761 239.64C146.758 238.963 145.768 238.345 144.693 237.792Z" fill="#F8FBFA"/>
<path d="M158.924 138.25C151.842 141.207 145.389 145.46 138.329 148.372C137.691 156.925 136.328 165.414 135.762 173.987C135.609 176.304 135.727 185.336 134.985 186.827C134.311 188.183 132.398 188.525 131.087 188.942L134.101 190.963C135.687 191.9 137.248 192.85 138.78 193.873C141.547 187.802 145.388 182.055 149.034 176.484C152.25 171.571 155.481 166.591 159.047 161.925C159.199 158.859 158.871 155.711 158.793 152.639C158.688 147.841 158.732 143.045 158.924 138.25Z" fill="#F8FBFA"/>
<path d="M275.227 108.316C274.83 108.271 274.453 108.251 274.054 108.286C273.327 108.351 272.365 108.577 271.883 109.155C271.388 112.696 285.324 115.421 286.486 118.657C286.631 119.061 286.651 119.353 286.402 119.718C285.726 120.706 284.553 119.748 283.766 119.39C278.729 117.094 272.699 115.233 267.098 115.754C266.209 115.836 265.118 115.962 264.548 116.732C264.316 117.045 264.278 117.458 264.363 117.834C264.491 118.403 264.745 118.79 265.236 119.119C266.174 119.746 277.245 122.509 279.344 123.171C280.193 123.439 281.341 123.628 282.065 124.132C282.62 124.519 282.965 124.965 283.058 125.642C282.803 125.994 282.71 126.066 282.232 126.086C280.999 126.137 279.168 125.248 277.954 124.853C274.939 123.871 265.773 120.758 263.152 121.671C262.864 121.968 262.65 122.095 262.707 122.553C262.837 123.614 263.872 124.402 264.755 124.851C266.221 125.594 267.998 125.872 269.566 126.359C272.385 127.235 278.743 129.415 280.564 131.626C280.881 132.011 280.989 132.249 280.966 132.74L280.701 132.89C279.078 132.983 272.723 129.564 270.532 128.731C269.055 128.21 266.826 127.163 265.275 127.328C264.786 127.381 264.602 127.52 264.28 127.871C264.219 128.161 264.158 128.436 264.206 128.734C264.652 131.477 272.189 134.466 274.58 136.293C275.488 136.987 276.587 137.924 276.75 139.121C276.529 139.527 276.49 139.521 276.063 139.713C274.537 139.59 273.071 137.546 271.759 136.703L271.514 136.547C271.521 137.793 271.484 139.103 271.884 140.297C272.252 141.398 273.161 142.51 273.287 143.659C273.468 145.312 272.144 146.503 271.186 147.669C272.601 152.229 276.05 155.658 280.195 157.842C281.923 155.985 283.183 153.642 284.428 151.448C288.499 144.269 291.661 136.914 292.825 128.684C293.169 126.254 293.708 121.27 293.143 118.938C292.985 118.283 292.595 117.685 292.185 117.16C291.227 115.935 289.936 115.017 288.693 114.104C284.546 111.059 280.382 108.947 275.227 108.316Z" fill="#FFD6B6"/>
<path d="M313.768 311.235C309.298 309.549 303.265 312.804 299.107 314.32C296.865 315.137 294.505 315.788 292.318 316.73C291.572 318.525 290.889 320.598 289.079 321.592L288.604 321.247C288.717 319.708 289.339 318.586 290.039 317.247C288.825 317.655 287.58 318.026 286.387 318.487C285.866 319.806 284.934 322.901 283.543 323.532C283.056 323.409 283.081 323.335 282.799 322.909C282.672 321.536 283.545 320.113 284.116 318.904L280.772 319.746C279.971 321.644 278.99 325.056 277.142 326.108C276.64 326.066 276.662 326.086 276.324 325.714C276.161 324.06 277.857 321.618 278.599 320.157C275.997 320.727 273.698 321.506 272.148 323.856C270.575 326.244 269.833 328.859 267.617 330.828C266.003 332.263 263.712 333.424 261.764 334.354C261.241 334.603 259.001 335.3 258.794 335.632C258.136 336.688 258.729 339.253 259.005 340.445C259.87 344.175 261.553 347.797 263.288 351.196C264.018 352.519 264.78 353.78 265.637 355.025C266.587 352.852 268.651 350.856 270.344 349.244C272.698 347.003 275.269 344.961 277.736 342.843L289.288 332.862C293.216 329.475 297.169 326.117 301.148 322.79C303.854 320.513 306.642 317.864 309.726 316.12C312.824 314.367 315.374 313.701 318.938 313.792C317.475 311.965 315.982 311.56 313.768 311.235Z" fill="#688398"/>
<path d="M313.768 311.235C311.392 311.514 309.038 312.457 307.023 313.745C304.082 315.625 301.012 317.806 298.355 320.058C296.262 321.832 294.304 323.763 292.223 325.549L277.9 337.745C273.723 341.329 267.424 345.763 264.192 349.882C263.86 350.305 263.555 350.729 263.288 351.197C264.018 352.519 264.78 353.781 265.637 355.025C266.587 352.853 268.651 350.856 270.344 349.244C272.698 347.003 275.269 344.961 277.736 342.844L289.288 332.863C293.216 329.475 297.169 326.118 301.148 322.791C303.854 320.514 306.642 317.865 309.726 316.12C312.824 314.367 315.374 313.701 318.938 313.792C317.475 311.966 315.982 311.56 313.768 311.235Z" fill="#F8FBFA"/>
<path d="M127.74 186.278C125.307 186.19 122.874 186.209 120.442 186.333C118.01 186.458 115.588 186.689 113.177 187.025C112.564 193.265 111.467 202.866 112.663 208.809C113.443 212.69 115.448 214.941 118.669 217.074C117.718 215.783 116.186 214.18 116.113 212.532C116.341 212.101 116.331 212.113 116.787 211.937C118.712 212.472 120.078 216.044 121.611 217.378C122.321 217.996 123.503 218.479 124.446 218.422C125.047 217.64 121.901 213.823 122.026 212.362C122.069 211.87 122.281 211.783 122.645 211.527C123.053 211.494 123.317 211.404 123.642 211.717C124.887 212.914 125.145 216.506 127.286 217.823C128.214 218.395 129.886 218.907 130.961 218.502C131.446 218.319 131.478 218.206 131.679 217.768L131.383 217.05C130.734 215.68 128.288 212.433 128.604 210.997C128.665 210.717 128.831 210.699 129.054 210.56C131.968 210.524 132.493 216.947 135.348 218.207C135.889 218.218 136.303 218.082 136.744 217.768C139.427 215.853 134.502 206.908 135.304 203.61C135.467 202.941 135.779 202.675 136.319 202.323C136.859 202.247 137.07 202.302 137.558 202.542C138.021 203.824 137.571 205.829 137.776 207.243C138.046 209.106 138.692 211.039 139.166 212.867C139.446 212.497 139.731 212.125 139.983 211.735C141.73 209.034 142.143 205.278 141.47 202.149C140.21 196.294 135.666 194.357 131.156 191.349C128.991 189.905 128.255 188.828 127.74 186.278Z" fill="#FFD6B6"/>
<path d="M317.988 315.601C317.916 315.598 317.844 315.593 317.772 315.593C314.927 315.577 312.567 316.598 310.175 318.04C307.034 319.933 304.296 322.683 301.451 324.991C295.034 330.297 288.706 335.708 282.468 341.223C278.985 344.249 275.331 347.13 271.976 350.295C270.083 352.081 268.432 354.098 266.568 355.914C267.311 356.627 268.083 357.251 268.898 357.876C268.997 357.921 269.095 357.969 269.195 358.012C270.419 358.54 272.399 357.769 273.59 357.317C278.191 355.573 282.243 352.072 286.195 349.204C290.119 346.356 294.062 343.51 298.036 340.737C302.693 337.488 307.708 334.791 311.973 330.992C314.753 328.515 317.477 325.513 319.014 322.081C319.612 320.746 320.384 318.078 319.687 316.681C319.315 315.935 318.725 315.819 317.988 315.601Z" fill="#F8DCBE"/>
<path d="M269.75 307.657C264.691 308.748 256.546 312.867 252.69 316.295C255.543 320.973 257.928 326.476 259.725 331.655L260.218 333.129C262.461 331.904 265.119 330.78 266.886 328.882C268.152 327.522 268.442 326.191 269.067 324.526C270.006 322.028 272.944 320.282 275.141 318.996C273.463 315.157 271.604 311.411 269.75 307.657Z" fill="#5E5A55"/>
<path d="M156.913 247.31C156.573 247.408 156.273 247.547 155.987 247.757C152.531 250.299 147.635 258.141 147.047 262.454L148.41 262.626C148.799 262.673 149.196 262.706 149.577 262.802C152.011 263.411 153.202 266.125 154.401 268.086C154.76 268.449 155.024 268.654 155.491 268.886C155.911 268.693 156.326 266.173 156.474 265.564C157.818 260.073 160.295 255.682 163.251 250.923C161.211 249.753 159.177 247.971 156.913 247.31Z" fill="#5E5A55"/>
<path d="M285.355 154.051C284.055 155.058 283.156 157.544 281.807 158.888L283.346 159.56C284.027 159.715 284.887 159.981 285.59 159.844C286.142 159.737 286.339 159.55 286.674 159.116C287.179 157.391 286.072 155.576 285.355 154.051Z" fill="#4E8EC8"/>
<path d="M261.776 125.134C261.335 125.768 261.287 127.209 261.238 128.005C261.185 128.882 261.437 129.177 261.985 129.799L261.989 129.597C261.601 127.857 262.145 127.696 262.94 126.313C262.703 125.703 262.293 125.522 261.776 125.134Z" fill="#688398"/>
<path d="M83.324 283.768C82.7974 283.705 82.269 283.666 81.7386 283.651C81.2084 283.636 80.6787 283.646 80.1493 283.681C79.6199 283.715 79.0934 283.774 78.5695 283.857C78.0457 283.941 77.5268 284.048 77.0129 284.179C73.4387 285.123 70.6578 287.211 68.8356 290.433C66.9625 293.745 66.5456 297.356 67.5764 301.022C69.7495 308.753 77.9591 312.623 84.4004 316.275C83.0934 316.401 81.9366 316.527 80.7734 317.206C79.4558 317.976 78.5088 319.203 78.1382 320.687C77.6324 322.713 78.1795 325.012 79.2847 326.75C80.2832 328.32 81.8346 329.598 83.6818 329.988C85.7665 330.428 91.4285 328.249 93.1604 327.001C94.6651 325.917 95.0562 324.583 95.3184 322.845C99.8843 325.355 104.332 328.177 108.786 330.882C115.025 334.677 121.301 338.41 127.615 342.08C126.772 342.06 125.883 342.011 125.056 342.193C123.66 342.5 122.34 343.343 121.585 344.57C120.637 346.109 120.626 348.021 121.095 349.722C121.66 351.768 122.998 353.692 124.919 354.67C127.494 355.98 130.641 354.412 133.176 353.61C134.044 353.283 134.935 352.882 135.724 352.39C137.469 351.303 137.925 349.882 138.335 347.991C139.055 348.264 139.813 348.487 140.562 348.671C148.207 350.545 156.813 349.14 163.505 344.999C166.599 343.085 169.283 340.174 170.095 336.541C170.517 334.653 170.533 331.699 169.399 330.051C169.08 329.588 168.641 329.18 168.204 328.829C164.383 325.754 158.056 325.586 153.51 323.817C150.655 322.706 147.939 320.811 145.312 319.224L109.452 297.42L97.9802 290.415C95.3279 288.794 92.682 287.064 89.8715 285.728C87.7481 284.719 85.6375 284.144 83.324 283.768Z" fill="#3B3937"/>
<path d="M82.918 285.672C81.4771 285.439 79.7873 285.526 78.3548 285.811C75.3037 286.417 72.5057 288.087 70.7753 290.707C69.0544 293.311 68.4224 296.381 69.0711 299.447C70.0203 303.933 73.2319 307.054 76.948 309.442C81.4714 312.348 86.196 314.975 90.8063 317.743C100.287 323.501 109.806 329.195 119.365 334.823L130.633 341.602C133.378 343.257 136.18 345.205 139.214 346.27C143.585 347.804 148.77 348.026 153.279 347.034C156.659 346.266 160.341 344.975 163.228 343.017C165.797 341.275 167.993 338.611 168.515 335.48C168.746 334.096 168.664 332.111 167.774 330.952C167.601 330.729 167.412 330.521 167.206 330.329C167 330.137 166.78 329.963 166.545 329.807C162.599 327.223 155.524 327.157 150.773 324.63C145.02 321.569 139.44 317.824 133.875 314.424L105.004 296.892C100.131 293.936 93.8592 289.681 88.8293 287.335C86.9069 286.438 85.0085 285.979 82.918 285.672Z" fill="#36C99F"/>
<path d="M83.7744 318.632C83.392 318.61 83.0016 318.589 82.6237 318.665C81.7094 318.847 80.7829 319.415 80.3216 320.24C79.6808 321.386 79.7787 322.856 80.1702 324.066C80.7768 325.942 81.9169 327.183 83.6465 328.065C84.2554 328.127 84.9713 328.21 85.5567 328.001C85.6559 327.964 85.7529 327.923 85.8477 327.877C85.9426 327.831 86.0349 327.78 86.1247 327.724C86.2145 327.669 86.3012 327.609 86.3849 327.544C86.4684 327.48 86.5486 327.411 86.6255 327.339C86.7021 327.266 86.7748 327.19 86.8436 327.11C86.9127 327.03 86.9774 326.947 87.0379 326.86C87.0986 326.774 87.1546 326.685 87.2059 326.593C87.2573 326.5 87.3039 326.406 87.3459 326.309C87.915 325.005 87.6806 323.307 87.1517 322.031C86.4654 320.374 85.4152 319.319 83.7744 318.632Z" fill="#688398"/>
<path d="M83.7261 321.551C83.4135 321.668 83.0959 321.791 82.8501 322.029C82.5007 322.368 82.3937 322.889 82.4635 323.356C82.6205 324.41 83.396 325.188 84.2182 325.781C84.5107 325.621 84.9276 325.419 85.1405 325.147C85.477 324.718 85.5805 324.271 85.5161 323.735C85.395 322.726 84.5156 322.045 83.7261 321.551Z" fill="#3B3937"/>
<path d="M126.65 344.237C126.116 344.186 125.589 344.146 125.06 344.269C124.234 344.462 123.488 345.027 123.091 345.777C122.473 346.948 122.638 348.428 123.071 349.63C123.675 351.306 124.65 352.356 126.24 353.103C126.797 353.206 127.33 353.26 127.894 353.151C128.585 353.018 129.253 352.605 129.622 351.997C130.217 351.016 130.137 349.603 129.89 348.531C129.423 346.505 128.356 345.299 126.65 344.237Z" fill="#688398"/>
<path d="M126.398 346.983C126.15 347.057 125.896 347.18 125.656 347.278C125.342 347.664 125.137 347.863 125.14 348.397C125.146 349.422 126.023 350.327 126.706 350.979C127.079 350.9 127.44 350.781 127.719 350.502C128.068 350.153 128.172 349.71 128.123 349.233C128.016 348.182 127.208 347.523 126.398 346.983Z" fill="#3B3937"/>
<path d="M129.739 343.485C129.796 343.786 130.069 344.062 130.23 344.329C132.134 347.478 132.261 348.917 131.465 352.426C132.481 352.02 133.456 351.559 134.439 351.081C135.003 350.703 135.552 350.29 135.918 349.706C136.252 349.174 136.379 348.697 136.215 348.072C135.809 346.524 131.182 344.403 129.739 343.485Z" fill="#688398"/>
<path d="M87.7047 318.42L87.5127 318.533C87.7778 318.931 88.0365 319.334 88.289 319.741C89.8528 322.278 89.7413 324.458 89.0777 327.271C89.9268 326.954 90.7353 326.579 91.5521 326.19C91.7319 326.077 91.9038 325.952 92.0677 325.817C92.2313 325.681 92.3856 325.536 92.5305 325.38C92.6755 325.225 92.8096 325.06 92.9331 324.887C93.0567 324.714 93.1687 324.534 93.2688 324.347C93.5621 323.806 93.6433 323.226 93.443 322.634C92.762 320.621 89.4632 319.358 87.7047 318.42Z" fill="#688398"/>
<path d="M97.2143 14.6142C97.0271 14.6023 96.8399 14.5923 96.6528 14.5841C94.0228 14.4858 91.3671 14.5266 88.7342 14.5229C82.5938 14.5142 76.7747 14.4757 72.0339 18.985C67.6254 23.1782 68.1899 31.0745 68.0469 36.7198C67.9084 42.1936 68.0108 48.8693 72.1359 53.0479C76.5892 57.5581 88.7406 56.6354 94.7152 56.5402C98.2658 56.4737 101.816 56.4573 105.367 56.4912C105.887 56.813 106.355 57.1867 106.834 57.5649C108.308 59.1682 114.51 65.2304 116.609 65.2691C117.155 65.279 117.232 65.1796 117.602 64.8287C118.35 62.662 117.389 58.2247 117.125 55.8668C119.53 55.3242 121.836 54.8375 123.759 53.1712C126.65 50.6657 127.834 46.4352 128.104 42.7437C128.301 40.0694 128.189 37.3701 128.12 34.692C127.979 29.239 128.057 24.2159 124.221 19.8837C117.86 12.6983 105.769 15.1237 97.2143 14.6142Z" fill="#3B3937"/>
<path d="M107.923 16.5134C107.718 16.4979 107.513 16.485 107.308 16.4747C103.86 16.3304 100.363 16.4466 96.9085 16.4402C91.3337 16.4298 84.4224 15.8061 79.0844 17.24C77.0164 17.7955 74.8914 18.9959 73.3401 20.471C70.264 23.3962 70.3555 28.2755 70.1715 32.1843C70.0804 34.1131 69.9495 36.048 69.9309 37.9787C69.89 42.2654 70.1643 48.2499 73.4532 51.4599C74.6012 52.5806 76.0406 53.2711 77.5729 53.693C82.1988 54.9666 91.5287 54.7029 96.6668 54.7416C99.8062 54.6012 104.901 53.8022 107.581 55.5478C108.814 56.3502 109.835 57.694 110.909 58.71C112.415 60.1342 114.09 61.3976 115.713 62.6849C115.539 60.0739 115.344 57.4645 115.127 54.8566C117.501 53.3379 120.48 53.4976 122.62 51.5437C125.19 49.198 126.046 45.4246 126.181 42.0871C126.274 39.8134 126.189 37.5083 126.16 35.2323C126.099 30.2877 126.296 24.9392 122.692 21.0683C118.87 16.9617 113.162 16.7229 107.923 16.5134Z" fill="#D5DDFD"/>
<path d="M114.928 34.959C110.792 35.0576 80.8757 34.9594 79.5653 35.7022C79.2621 36.1928 79.2879 36.2618 79.3183 36.8453C79.3926 36.8624 79.4666 36.8825 79.5414 36.8973C82.6823 37.5153 88.5583 37.1295 91.9853 37.1276C96.9745 37.1486 101.963 37.1161 106.952 37.0301C109.051 36.9849 111.236 37.0483 113.321 36.8381C113.847 36.785 114.263 36.7539 114.707 36.4428C115.024 35.9549 114.953 35.5129 114.928 34.959Z" fill="#3B3937"/>
<path d="M114.797 26.272L97.3086 26.4461C93.5659 26.4667 89.7193 26.2912 85.9922 26.5299C85.4819 26.5626 85.0498 26.541 84.645 26.8886C84.472 27.4552 84.6249 27.8296 84.7934 28.3695C91.5796 28.4332 98.3651 28.3923 105.15 28.2466C108.02 28.2048 111.045 28.4617 113.886 28.1866C114.429 28.1339 114.584 28.0079 114.979 27.638C115.128 27.1227 114.96 26.7571 114.797 26.272Z" fill="#3B3937"/>
<path d="M113.708 43.3367C111.703 43.3389 100.758 43.0134 99.7194 43.9941C99.5335 44.537 99.6727 44.7142 99.8431 45.2503C103.409 45.149 106.975 45.3034 110.541 45.2803C111.502 45.2742 113.094 45.4146 113.805 44.6987C113.957 44.1269 113.851 43.9016 113.708 43.3367Z" fill="#3B3937"/>
<path d="M319.678 17.8223C318.587 17.7122 317.465 17.7111 316.37 17.7456C311.197 17.9086 305.937 20.5803 302.434 24.3299C295.928 31.2947 294.402 41.5272 299.141 49.8711C300.638 52.5056 303.584 54.9633 303.898 58.0985C304.345 62.5628 300.294 66.3419 301.301 71.0076C301.762 73.1428 303.177 75.0052 304.378 76.7823C304.569 77.0646 305.018 77.5737 305.121 77.8757C305.162 77.9975 305.147 78.4789 305.149 78.6337C305.152 78.9592 305.105 79.3667 305.187 79.682C305.389 80.4578 306.124 81.0747 306.801 81.4435C308.478 82.3563 310.217 82.4485 312.021 81.9568C314.345 80.8694 313.613 80.2332 315.065 79.1417C316.197 78.2904 317.547 77.7277 318.688 76.8582C322.104 74.2548 321.748 70.19 322.33 66.4049C323.318 59.9883 326.443 59.9207 330.747 56.7111C335.269 53.3391 338.105 48.4674 338.894 42.8904C339.714 37.0922 338.38 31.1354 334.827 26.4393C331.022 21.4101 325.888 18.6803 319.678 17.8223Z" fill="#3B3937"/>
<path d="M319.664 19.7202C316.017 19.1152 311.638 20.191 308.458 21.9872C303.705 24.6719 300.321 29.3337 298.873 34.5587C297.505 39.4926 298.352 45.1239 301.09 49.4421C302.185 51.1691 303.618 52.7022 304.599 54.4994C306.093 57.2389 305.809 60.0456 304.972 62.918C308.435 63.8558 311.944 64.579 315.453 65.3138C317.128 65.6302 318.794 65.988 320.451 66.3871C321.25 62.7484 322.233 59.5904 325.665 57.5713C326.979 56.7981 328.387 56.1292 329.607 55.2084C333.759 52.0766 336.345 47.5554 337.044 42.4189C337.749 37.2372 336.455 31.6746 333.251 27.4952C329.915 23.1435 325.065 20.4686 319.664 19.7202Z" fill="#FFCF32"/>
<path d="M313.7 37.5076C313.286 37.4894 312.874 37.5095 312.468 37.5979C311.184 37.8775 309.971 38.7372 309.307 39.8697C308.479 41.2814 308.264 43.1355 308.678 44.7111C309.263 46.9426 310.76 48.4158 312.71 49.5024C312.452 50.7475 310.604 57.2673 310.701 57.7537C310.807 58.2897 310.891 58.3284 311.329 58.5815C313.74 57.836 313.56 51.5344 314.755 50.5347C315.321 50.5476 315.562 50.5662 316.059 50.8807C316.369 52.3724 314.954 57.3227 315.343 59.9693C315.427 60.5426 315.545 60.8575 316.009 61.2046C316.477 61.1371 316.575 61.0278 316.954 60.7323C317.335 59.8824 317.246 58.7056 317.285 57.7791C317.392 55.4064 317.817 53.0568 318.181 50.7134C319.993 50.3199 321.434 49.8381 322.825 48.5546C324.367 47.1316 325.592 44.8215 325.627 42.695C325.644 41.6293 325.299 40.6524 324.542 39.8921C323.825 39.172 322.558 38.4356 321.499 38.5365C317.129 38.9531 317.409 47.2799 316.213 48.6153C315.7 48.6715 315.589 48.6962 315.123 48.4882C315.114 48.0922 315.082 48.1904 315.17 47.885C315.822 45.6208 317.04 42.256 316.194 39.974C315.695 38.6298 314.965 38.0907 313.7 37.5076Z" fill="#3B3937"/>
<path d="M322.455 40.6699C322.153 40.695 321.763 40.7014 321.477 40.8164C320.521 41.2018 319.934 42.3419 319.575 43.2429C319.11 44.4077 318.205 47.4173 318.669 48.5635L319.097 48.6284C319.957 48.2501 320.76 47.8707 321.444 47.2102C322.585 46.11 323.627 44.5606 323.608 42.9174C323.596 41.9041 323.177 41.3323 322.455 40.6699Z" fill="#FEC273"/>
<path d="M313.209 39.1592C312.705 39.2806 312.317 39.4149 311.898 39.7313C310.966 40.4358 310.431 41.4598 310.335 42.6173C310.192 44.3549 310.916 45.6448 312.043 46.8888C312.39 47.1628 312.614 47.4052 313.073 47.4299C314.059 45.9392 314.432 43.1037 314.357 41.3353C314.315 40.3364 313.928 39.8121 313.209 39.1592Z" fill="#FEC273"/>
<path d="M303.757 69.95C303.541 69.9079 303.422 69.9473 303.21 69.9948C303.037 70.8435 303.573 71.8291 303.944 72.5814C305.057 74.8399 306.54 76.9626 309.06 77.7544C311.684 78.5792 314.024 77.5196 316.319 76.3427C317.15 75.8487 318.558 74.9158 318.918 74.0045C319.046 73.6805 319.035 73.8141 318.882 73.4927C316.725 73.3493 314.523 72.4418 312.42 71.9156C309.549 71.1974 306.633 70.6587 303.757 69.95Z" fill="#688398"/>
<path d="M304.708 64.8287L304.501 64.8237C303.623 65.3556 303.441 66.9768 303.201 67.9283C308.507 69.3817 313.975 69.928 319.129 71.9862L319.335 72.1031L319.611 71.9122C320.027 70.7077 320.181 69.3718 320.401 68.1161C315.821 67.8292 309.355 65.9403 304.708 64.8287Z" fill="#688398"/>
<path d="M88.8998 211.232C87.2472 211.243 84.9766 211.784 83.3968 212.294C82.3576 212.629 81.3845 213.136 80.8921 214.16C80.3306 215.327 80.8507 216.477 81.2844 217.584C79.1222 218.295 76.9544 218.991 74.8234 219.792C73.2997 217.908 71.9643 216.306 69.6883 215.31C69.6333 215.315 69.5779 215.319 69.5229 215.324L69.2475 215.354C66.992 215.581 59.6892 218.113 58.0479 219.53C56.7603 220.642 57.0228 224.434 56.9443 226.053C55.4616 226.674 53.5393 227.264 52.7274 228.78C51.8647 230.391 52.496 232.867 52.9565 234.546C53.9164 238.046 57.1135 248.713 58.8025 251.501C59.405 252.495 60.4275 253.224 61.4177 253.789C61.5038 253.818 61.5895 253.848 61.676 253.875C62.607 254.167 63.5255 254.217 64.4759 254.014C66.6601 253.547 68.7899 252.722 70.9092 252.027L79.1473 249.406L91.4467 245.559C94.1282 244.74 97.5392 244.073 99.9639 242.68C101.167 241.989 102.154 241.092 102.486 239.705C102.741 238.64 102.686 237.511 102.476 236.445C102.003 234.04 97.0965 219.773 95.9318 218.059C94.6475 216.17 93.0663 215.544 90.936 215.104C90.5361 213.386 90.3813 212.312 88.8998 211.232Z" fill="#3B3937"/>
<path d="M91.3339 216.955C88.0792 217.119 84.7056 218.621 81.644 219.658C78.9893 220.569 76.3118 221.407 73.6115 222.173C72.5857 219.862 71.3659 218.291 69.1716 217.016C65.9016 217.992 62.4795 219.345 59.3534 220.719C59.07 222.007 59.1079 226.771 58.8958 227.228C58.4197 228.254 55.0481 228.361 54.3067 230.071C53.4664 232.009 59.0665 247.937 60.2787 250.593C60.6824 251.165 61.0724 251.622 61.7196 251.926C62.4769 252.282 63.4633 252.302 64.2737 252.143C65.7336 251.855 67.2682 251.216 68.6844 250.737C70.9534 249.965 73.2343 249.23 75.5271 248.531L90.0664 244.019C92.6443 243.22 95.3392 242.533 97.8591 241.574C98.8952 241.18 100.174 240.638 100.609 239.521C100.947 238.656 100.843 237.656 100.65 236.771C100.061 234.067 98.7627 231.321 97.8499 228.696C96.9792 226.195 96.3422 223.6 95.3539 221.137C94.4935 218.992 93.4536 217.847 91.3339 216.955Z" fill="#688398"/>
<path d="M78.683 222.995C78.5017 222.972 78.3198 222.955 78.1375 222.942C77.9551 222.929 77.7725 222.92 77.5896 222.916C77.407 222.912 77.2244 222.913 77.0418 222.917C76.8589 222.922 76.6765 222.932 76.4943 222.946C76.312 222.959 76.1301 222.977 75.9488 223C75.7674 223.023 75.5867 223.05 75.4066 223.081C75.2266 223.113 75.0475 223.149 74.8694 223.189C74.6911 223.23 74.5139 223.274 74.3379 223.323C74.1619 223.373 73.9871 223.426 73.8136 223.483C73.6401 223.541 73.4681 223.603 73.2976 223.669C73.1271 223.735 72.9584 223.805 72.7915 223.879C72.6246 223.953 72.4594 224.032 72.296 224.114C72.1329 224.197 71.9719 224.283 71.8131 224.373C71.654 224.463 71.4973 224.557 71.343 224.655C71.1887 224.753 71.037 224.855 70.8877 224.96C70.7383 225.066 70.5916 225.175 70.4477 225.287C70.3037 225.4 70.1626 225.516 70.0243 225.635C69.8859 225.754 69.7506 225.877 69.6183 226.003C69.486 226.129 69.3569 226.259 69.2309 226.391C69.105 226.524 68.9823 226.659 68.863 226.797C68.7436 226.936 68.6277 227.077 68.5154 227.221C68.4029 227.365 68.294 227.512 68.1888 227.662C68.0835 227.811 67.982 227.963 67.8841 228.117C67.7865 228.272 67.6927 228.429 67.6026 228.587C67.5126 228.747 67.4263 228.908 67.3439 229.071C67.2617 229.234 67.1835 229.399 67.1094 229.567C67.0353 229.734 66.9654 229.902 66.8996 230.073C66.8338 230.243 66.7723 230.415 66.7148 230.589C66.6574 230.762 66.6043 230.937 66.5555 231.113C66.5067 231.289 66.4622 231.467 66.422 231.645C66.3817 231.823 66.3459 232.002 66.3146 232.183C66.2832 232.363 66.2563 232.543 66.2338 232.725C66.2113 232.906 66.1932 233.088 66.1795 233.27C66.1659 233.452 66.1568 233.635 66.1522 233.818C66.1474 234 66.1471 234.183 66.1514 234.366C66.1557 234.548 66.1645 234.731 66.1776 234.913C66.191 235.095 66.2087 235.277 66.2307 235.459C66.253 235.64 66.2796 235.821 66.3104 236.001C66.3415 236.181 66.3769 236.36 66.4167 236.539C66.4564 236.717 66.5005 236.895 66.5491 237.071C66.5974 237.247 66.6501 237.422 66.7073 237.596C66.7642 237.769 66.8254 237.941 66.8909 238.112C66.9564 238.283 67.0261 238.452 67.0999 238.619C67.1735 238.786 67.2513 238.951 67.3332 239.115C67.4149 239.278 67.5007 239.439 67.5905 239.599C67.6803 239.758 67.7738 239.915 67.8712 240.07C67.9686 240.224 68.0698 240.376 68.1747 240.526C68.2797 240.676 68.3882 240.823 68.5002 240.967C68.6123 241.111 68.7279 241.253 68.847 241.391C68.9661 241.53 69.0885 241.666 69.2143 241.799C69.3397 241.931 69.4684 242.061 69.6005 242.187C69.7325 242.314 69.8676 242.437 70.0057 242.557C70.1438 242.676 70.2846 242.793 70.4283 242.906C70.5722 243.018 70.7187 243.128 70.8676 243.233C71.0169 243.339 71.1685 243.441 71.3225 243.539C71.4765 243.638 71.633 243.732 71.7918 243.823C71.9507 243.913 72.1115 244 72.2744 244.082C72.4373 244.165 72.6022 244.244 72.7691 244.318C72.9361 244.393 73.1046 244.464 73.2749 244.53C73.4451 244.596 73.6169 244.658 73.7904 244.716C73.9637 244.774 74.1383 244.828 74.3144 244.878C74.4902 244.927 74.6672 244.972 74.8455 245.013C75.0236 245.053 75.2027 245.09 75.3827 245.122C75.5626 245.154 75.7432 245.181 75.9245 245.204C76.1066 245.228 76.2891 245.246 76.472 245.26C76.6548 245.275 76.8381 245.284 77.0217 245.29C77.2051 245.295 77.3884 245.295 77.5718 245.292C77.7554 245.288 77.9387 245.279 78.1215 245.266C78.3047 245.254 78.4873 245.237 78.6694 245.215C78.8517 245.193 79.0333 245.166 79.2142 245.136C79.395 245.105 79.5751 245.07 79.7544 245.03C79.9335 244.991 80.1116 244.947 80.2886 244.898C80.4657 244.85 80.6414 244.797 80.816 244.74C80.9902 244.683 81.1631 244.622 81.3346 244.556C81.5061 244.491 81.6758 244.421 81.8437 244.347C82.0117 244.273 82.1777 244.195 82.3419 244.114C82.506 244.031 82.668 243.945 82.8279 243.855C82.988 243.765 83.1457 243.672 83.301 243.574C83.4562 243.476 83.609 243.374 83.7593 243.269C83.9095 243.164 84.0571 243.055 84.202 242.942C84.3469 242.83 84.4891 242.714 84.6284 242.594C84.7676 242.475 84.9037 242.352 85.037 242.226C85.1701 242.099 85.3001 241.97 85.427 241.837C85.5538 241.705 85.6772 241.569 85.7973 241.431C85.9175 241.292 86.0342 241.15 86.1475 241.006C86.2606 240.861 86.3701 240.714 86.4761 240.564C86.582 240.414 86.6842 240.262 86.7826 240.107C86.881 239.952 86.9756 239.795 87.0664 239.636C87.1572 239.476 87.2439 239.314 87.3267 239.151C87.4094 238.987 87.488 238.821 87.5626 238.653C87.6373 238.486 87.7077 238.316 87.7739 238.145C87.8402 237.974 87.9023 237.802 87.9602 237.628C88.0179 237.453 88.0713 237.278 88.1203 237.101C88.1696 236.924 88.2144 236.746 88.2546 236.567C88.2951 236.388 88.3311 236.208 88.3627 236.028C88.3944 235.847 88.4214 235.665 88.444 235.483C88.4665 235.301 88.4845 235.118 88.4982 234.935C88.5118 234.753 88.5211 234.569 88.5259 234.386C88.5304 234.202 88.5304 234.019 88.5259 233.836C88.5216 233.652 88.5128 233.469 88.4993 233.286C88.4859 233.103 88.468 232.92 88.4455 232.738C88.4232 232.556 88.3964 232.374 88.365 232.194C88.3337 232.013 88.2979 231.833 88.2577 231.654C88.2175 231.475 88.1729 231.297 88.1241 231.12C88.0753 230.943 88.0221 230.768 87.9644 230.593C87.9067 230.419 87.8449 230.246 87.7789 230.075C87.7129 229.904 87.6427 229.734 87.5683 229.567C87.494 229.399 87.4154 229.233 87.3327 229.069C87.2503 228.905 87.1638 228.744 87.0732 228.584C86.9827 228.424 86.8883 228.267 86.7902 228.112C86.6918 227.957 86.5898 227.805 86.484 227.655C86.3783 227.505 86.2689 227.357 86.1559 227.213C86.0428 227.068 85.9263 226.926 85.8064 226.788C85.6863 226.649 85.563 226.513 85.4365 226.38C85.3098 226.247 85.1799 226.118 85.0469 225.991C84.9139 225.865 84.7778 225.742 84.6387 225.622C84.4996 225.503 84.3577 225.386 84.213 225.273C84.0681 225.161 83.9205 225.052 83.7703 224.946C83.6203 224.841 83.4676 224.739 83.3123 224.641C83.157 224.543 82.9996 224.449 82.84 224.359C82.6801 224.269 82.5182 224.182 82.354 224.1C82.1901 224.018 82.0242 223.94 81.8562 223.866C81.6883 223.791 81.5187 223.722 81.3475 223.656C81.176 223.59 81.0031 223.529 80.8289 223.471C80.6543 223.414 80.4787 223.361 80.3019 223.313C80.1248 223.264 79.9468 223.22 79.7677 223.18C79.5886 223.14 79.4086 223.105 79.2275 223.074C79.0466 223.043 78.8651 223.017 78.683 222.995Z" fill="#3B3937"/>
<path d="M78.0335 224.97C77.8845 224.96 77.7353 224.954 77.5858 224.951C77.4366 224.948 77.2873 224.949 77.1378 224.953C76.9886 224.958 76.8395 224.966 76.6905 224.978C76.5415 224.99 76.3929 225.005 76.2447 225.024C76.0967 225.043 75.9492 225.066 75.802 225.092C75.655 225.119 75.5087 225.148 75.363 225.182C75.2176 225.215 75.0729 225.252 74.929 225.293C74.7853 225.333 74.6427 225.377 74.501 225.425C74.3594 225.472 74.2189 225.523 74.0795 225.578C73.9404 225.632 73.8027 225.69 73.6664 225.751C73.53 225.812 73.3954 225.877 73.2623 225.944C73.129 226.012 72.9976 226.083 72.8681 226.157C72.7384 226.231 72.6105 226.308 72.4846 226.389C72.3586 226.469 72.2348 226.553 72.1132 226.639C71.9912 226.726 71.8716 226.815 71.7543 226.907C71.6366 227 71.5214 227.095 71.4086 227.193C71.2958 227.29 71.1855 227.391 71.0778 227.495C70.9698 227.598 70.8645 227.704 70.7618 227.812C70.6591 227.921 70.559 228.032 70.4617 228.145C70.3645 228.258 70.2702 228.374 70.1787 228.492C70.0868 228.61 69.9982 228.73 69.9127 228.853C69.827 228.975 69.7443 229.099 69.6646 229.226C69.5849 229.352 69.5084 229.48 69.435 229.61C69.3617 229.741 69.2915 229.873 69.2245 230.006C69.1577 230.14 69.0941 230.275 69.0337 230.411C68.9735 230.548 68.9165 230.686 68.8629 230.826C68.8093 230.965 68.7592 231.106 68.7127 231.248C68.6659 231.39 68.6227 231.533 68.5829 231.677C68.5435 231.821 68.5074 231.965 68.4748 232.111C68.4422 232.257 68.4131 232.404 68.3876 232.551C68.3623 232.698 68.3405 232.846 68.3223 232.994C68.3041 233.142 68.2896 233.291 68.2787 233.44C68.2678 233.589 68.2606 233.738 68.257 233.888C68.2533 234.037 68.2533 234.186 68.257 234.335C68.2608 234.485 68.2682 234.634 68.279 234.783C68.2902 234.932 68.3049 235.081 68.3231 235.229C68.3413 235.377 68.3631 235.525 68.3887 235.672C68.414 235.819 68.4431 235.966 68.4759 236.112C68.5086 236.257 68.5447 236.402 68.5845 236.546C68.6242 236.69 68.6674 236.833 68.7142 236.975C68.761 237.117 68.8112 237.258 68.8648 237.397C68.9184 237.536 68.9754 237.674 69.0356 237.811C69.096 237.948 69.1597 238.083 69.2268 238.217C69.2938 238.35 69.364 238.482 69.4373 238.612C69.5107 238.742 69.5872 238.87 69.6669 238.997C69.7468 239.123 69.8296 239.247 69.9153 239.369C70.0011 239.492 70.0898 239.612 70.1813 239.73C70.2731 239.848 70.3677 239.963 70.4651 240.077C70.5622 240.19 70.6623 240.301 70.7652 240.409C70.8679 240.518 70.9732 240.624 71.0812 240.727C71.189 240.83 71.2992 240.931 71.412 241.029C71.5251 241.126 71.6403 241.222 71.7577 241.314C71.8753 241.406 71.995 241.495 72.117 241.582C72.2389 241.668 72.3628 241.752 72.4887 241.832C72.6145 241.912 72.7422 241.989 72.8719 242.064C73.0017 242.138 73.1332 242.208 73.2665 242.276C73.3998 242.344 73.5346 242.408 73.6709 242.469C73.8073 242.53 73.945 242.588 74.0841 242.642C74.2232 242.696 74.3636 242.747 74.5052 242.795C74.6468 242.842 74.7896 242.886 74.9335 242.927C75.0772 242.967 75.2219 243.004 75.3676 243.037C75.5132 243.071 75.6595 243.101 75.8065 243.127C75.9537 243.153 76.1013 243.176 76.2492 243.194C76.3975 243.214 76.546 243.229 76.695 243.241C76.845 243.253 76.9951 243.261 77.1454 243.265C77.2958 243.269 77.4463 243.27 77.5968 243.267C77.7471 243.264 77.8973 243.258 78.0475 243.247C78.1975 243.237 78.3471 243.223 78.4964 243.205C78.6459 243.187 78.7948 243.166 78.9433 243.141C79.0915 243.116 79.2391 243.087 79.386 243.054C79.533 243.022 79.6789 242.986 79.8238 242.946C79.969 242.907 80.1132 242.864 80.2563 242.817C80.3993 242.77 80.541 242.72 80.6817 242.666C80.822 242.613 80.9611 242.556 81.099 242.495C81.2366 242.435 81.3726 242.371 81.5072 242.304C81.642 242.236 81.7749 242.166 81.9059 242.092C82.037 242.018 82.1662 241.941 82.2937 241.861C82.4209 241.781 82.5461 241.698 82.6693 241.612C82.7924 241.525 82.9135 241.436 83.0323 241.344C83.1512 241.251 83.2677 241.156 83.3817 241.059C83.4958 240.96 83.6075 240.86 83.7168 240.756C83.8258 240.653 83.9323 240.547 84.0362 240.438C84.1402 240.329 84.2413 240.218 84.3397 240.104C84.4383 239.99 84.5339 239.874 84.6265 239.756C84.7193 239.637 84.8091 239.517 84.8959 239.394C84.9826 239.271 85.0664 239.146 85.147 239.019C85.2277 238.892 85.3053 238.763 85.3796 238.632C85.4537 238.502 85.5247 238.369 85.5925 238.235C85.6602 238.1 85.7246 237.964 85.7855 237.827C85.8468 237.69 85.9044 237.551 85.9586 237.41C86.013 237.27 86.0637 237.128 86.1107 236.985C86.158 236.843 86.2017 236.699 86.242 236.554C86.2822 236.409 86.3187 236.263 86.3516 236.116C86.3845 235.97 86.4138 235.822 86.4396 235.674C86.4652 235.526 86.4872 235.377 86.5056 235.227C86.5241 235.078 86.5388 234.928 86.5497 234.778C86.5605 234.628 86.5679 234.478 86.5717 234.328C86.5752 234.178 86.5751 234.027 86.5713 233.877C86.5675 233.726 86.5599 233.576 86.5485 233.426C86.5374 233.276 86.5225 233.126 86.5037 232.977C86.4853 232.828 86.4631 232.679 86.4373 232.531C86.4113 232.383 86.3817 232.235 86.3486 232.089C86.3154 231.942 86.2786 231.796 86.2382 231.651C86.1977 231.506 86.1538 231.362 86.1065 231.22C86.059 231.077 86.008 230.935 85.9536 230.795C85.8993 230.655 85.8415 230.516 85.7802 230.379C85.7188 230.241 85.6542 230.106 85.5864 229.971C85.5183 229.837 85.4472 229.705 85.3728 229.574C85.2982 229.443 85.2205 229.315 85.1398 229.188C85.0589 229.061 84.9749 228.936 84.8879 228.813C84.8009 228.69 84.711 228.57 84.6182 228.452C84.5254 228.333 84.4296 228.217 84.331 228.104C84.2323 227.99 84.1309 227.879 84.0267 227.77C83.9225 227.662 83.8158 227.556 83.7065 227.452C83.5972 227.349 83.4855 227.249 83.3711 227.151C83.2568 227.053 83.1402 226.958 83.0213 226.866C82.9025 226.774 82.7813 226.685 82.6579 226.598C82.5345 226.512 82.409 226.43 82.2815 226.35C82.1543 226.27 82.0251 226.193 81.8938 226.119C81.7625 226.046 81.6296 225.975 81.4951 225.908C81.3602 225.841 81.2239 225.778 81.0861 225.718C80.9482 225.657 80.809 225.6 80.6684 225.547C80.5277 225.493 80.386 225.444 80.2431 225.397C80.0999 225.35 79.9558 225.308 79.8106 225.268C79.6654 225.229 79.5193 225.193 79.3724 225.161C79.2254 225.129 79.0777 225.1 78.9293 225.075C78.781 225.05 78.6322 225.029 78.4827 225.012C78.3332 224.994 78.1835 224.98 78.0335 224.97Z" fill="#F8FBFA"/>
<path d="M78.2004 227.775C78.0957 227.761 77.9907 227.75 77.8855 227.742C77.7803 227.733 77.6749 227.727 77.5695 227.724C77.464 227.721 77.3584 227.72 77.2527 227.722C77.1472 227.724 77.0417 227.728 76.9363 227.735C76.8311 227.742 76.726 227.752 76.621 227.764C76.5163 227.776 76.4118 227.791 76.3076 227.808C76.2034 227.825 76.0997 227.845 75.9965 227.867C75.8933 227.889 75.7908 227.914 75.6888 227.942C75.5869 227.969 75.4857 227.999 75.3853 228.031C75.2847 228.064 75.185 228.098 75.0864 228.136C74.9875 228.173 74.8896 228.212 74.7927 228.254C74.6958 228.296 74.6001 228.341 74.5055 228.387C74.4109 228.434 74.3175 228.483 74.2252 228.534C74.1328 228.586 74.0418 228.639 73.952 228.695C73.8625 228.751 73.7743 228.809 73.6876 228.869C73.6006 228.929 73.5152 228.991 73.4315 229.055C73.3478 229.119 73.2657 229.186 73.1852 229.254C73.1046 229.322 73.0257 229.392 72.9485 229.465C72.8716 229.537 72.7964 229.61 72.7228 229.686C72.6494 229.762 72.5779 229.84 72.508 229.919C72.4385 229.998 72.3708 230.079 72.3051 230.162C72.2393 230.245 72.1757 230.329 72.1142 230.415C72.0528 230.5 71.9933 230.588 71.9359 230.676C71.8785 230.765 71.8234 230.855 71.7705 230.946C71.7177 231.038 71.6671 231.13 71.6188 231.224C71.5705 231.318 71.5244 231.413 71.4807 231.509C71.4372 231.605 71.3959 231.702 71.357 231.8C71.318 231.899 71.2815 231.998 71.2473 232.098C71.2132 232.197 71.1816 232.298 71.1525 232.4C71.1234 232.501 71.0967 232.603 71.0724 232.706C71.0484 232.809 71.0269 232.912 71.008 233.016C70.9887 233.12 70.9721 233.224 70.9582 233.329C70.9443 233.433 70.933 233.538 70.9241 233.644C70.9153 233.749 70.9091 233.854 70.9055 233.96C70.9017 234.065 70.9006 234.17 70.9021 234.276C70.9036 234.382 70.9078 234.487 70.9146 234.592C70.9212 234.698 70.9304 234.803 70.9423 234.908C70.9542 235.013 70.9686 235.117 70.9856 235.221C71.0025 235.326 71.022 235.429 71.044 235.532C71.066 235.636 71.0905 235.739 71.1176 235.841C71.1447 235.942 71.1743 236.044 71.2064 236.144C71.2382 236.245 71.2726 236.345 71.3096 236.444C71.3465 236.543 71.3858 236.641 71.4275 236.737C71.4693 236.835 71.5134 236.931 71.5599 237.025C71.6062 237.12 71.6549 237.214 71.706 237.306C71.7571 237.398 71.8104 237.49 71.8657 237.58C71.9211 237.669 71.9788 237.758 72.0387 237.845C72.0984 237.932 72.1604 238.017 72.2246 238.101C72.2884 238.185 72.3544 238.267 72.4227 238.348C72.4905 238.429 72.5604 238.508 72.6325 238.585C72.7043 238.662 72.7781 238.738 72.8537 238.812C72.9293 238.885 73.0067 238.957 73.0859 239.027C73.165 239.097 73.2458 239.165 73.3283 239.231C73.4107 239.297 73.4947 239.361 73.5802 239.422C73.6657 239.484 73.7527 239.544 73.8412 239.601C73.9297 239.659 74.0197 239.714 74.111 239.768C74.202 239.821 74.2945 239.872 74.3883 239.92C74.4821 239.969 74.577 240.015 74.6728 240.059C74.7687 240.103 74.8657 240.145 74.9638 240.184C75.062 240.223 75.1609 240.26 75.2605 240.294C75.3604 240.328 75.4611 240.36 75.5625 240.39C75.6639 240.419 75.766 240.446 75.8687 240.471C75.9714 240.495 76.0746 240.517 76.1783 240.536C76.282 240.556 76.3862 240.573 76.4909 240.587C76.5958 240.601 76.7011 240.613 76.8065 240.622C76.9123 240.631 77.018 240.638 77.1237 240.641C77.2297 240.645 77.3357 240.647 77.4416 240.646C77.5476 240.644 77.6534 240.64 77.7592 240.634C77.8649 240.627 77.9704 240.618 78.0756 240.607C78.181 240.595 78.286 240.581 78.3905 240.564C78.4952 240.547 78.5994 240.528 78.7031 240.506C78.8068 240.484 78.9098 240.459 79.0123 240.432C79.1147 240.405 79.2164 240.376 79.3173 240.344C79.4182 240.312 79.5184 240.277 79.6178 240.24C79.7172 240.203 79.8156 240.164 79.913 240.122C80.0103 240.08 80.1066 240.036 80.2017 239.99C80.2968 239.943 80.3907 239.894 80.4835 239.843C80.5764 239.792 80.6679 239.739 80.7582 239.683C80.8483 239.627 80.9369 239.569 81.0242 239.509C81.1117 239.449 81.1976 239.387 81.2818 239.323C81.366 239.259 81.4486 239.192 81.5295 239.124C81.6107 239.056 81.69 238.986 81.7674 238.914C81.8451 238.841 81.9208 238.767 81.9947 238.691C82.0685 238.615 82.1406 238.538 82.2109 238.458C82.281 238.379 82.349 238.297 82.415 238.215C82.481 238.132 82.545 238.048 82.607 237.962C82.669 237.876 82.7288 237.788 82.7864 237.699C82.8441 237.61 82.8995 237.52 82.9526 237.428C83.006 237.337 83.0569 237.244 83.1055 237.15C83.1541 237.056 83.2004 236.961 83.2444 236.864C83.2884 236.768 83.33 236.67 83.3692 236.572C83.4081 236.473 83.4448 236.374 83.4792 236.274C83.5134 236.173 83.5451 236.072 83.5744 235.971C83.6038 235.869 83.6306 235.766 83.6549 235.663C83.6791 235.56 83.7009 235.456 83.7201 235.352C83.7393 235.248 83.7559 235.143 83.7698 235.038C83.7837 234.933 83.7951 234.828 83.804 234.722C83.8128 234.617 83.8191 234.511 83.8229 234.405C83.8265 234.299 83.8275 234.193 83.826 234.087C83.8242 233.981 83.82 233.876 83.8135 233.77C83.8066 233.664 83.7971 233.559 83.785 233.453C83.7731 233.348 83.7586 233.243 83.7414 233.139C83.7244 233.034 83.7048 232.93 83.6826 232.826C83.6603 232.723 83.6355 232.62 83.6082 232.517C83.5809 232.415 83.551 232.313 83.5187 232.212C83.4863 232.112 83.4515 232.011 83.4143 231.912C83.3772 231.813 83.3374 231.715 83.2952 231.618C83.2532 231.52 83.2088 231.424 83.1621 231.329C83.1153 231.234 83.0662 231.14 83.0148 231.047C82.9633 230.955 82.9095 230.863 82.8536 230.773C82.7977 230.683 82.7397 230.595 82.6795 230.508C82.6193 230.421 82.5569 230.335 82.4924 230.251C82.4279 230.167 82.3614 230.084 82.2929 230.004C82.2243 229.923 82.1539 229.844 82.0815 229.766C82.009 229.689 81.9346 229.613 81.8585 229.54C81.7823 229.466 81.7044 229.394 81.6248 229.324C81.5451 229.254 81.4638 229.187 81.3808 229.121C81.2979 229.055 81.2133 228.991 81.127 228.93C81.041 228.868 80.9535 228.808 80.8645 228.751C80.7752 228.694 80.6847 228.638 80.5932 228.585C80.5014 228.532 80.4083 228.482 80.314 228.433C80.2196 228.385 80.1243 228.339 80.0279 228.295C79.9313 228.252 79.8337 228.21 79.735 228.172C79.6364 228.133 79.537 228.096 79.4368 228.062C79.3364 228.028 79.2352 227.997 79.1333 227.968C79.0314 227.939 78.9288 227.912 78.8256 227.888C78.7224 227.864 78.6187 227.843 78.5145 227.824C78.4101 227.805 78.3054 227.789 78.2004 227.775Z" fill="#3B3937"/>
<path d="M79.8815 237.804C80.2768 237.516 80.6589 237.147 80.9605 236.762C81.7705 235.728 82.1047 234.314 81.9393 233.022C81.7705 231.703 81.1024 230.439 80.0215 229.645C79.9061 229.56 79.7868 229.48 79.6633 229.407C79.5399 229.334 79.4131 229.267 79.2828 229.207C79.1526 229.147 79.0195 229.094 78.8837 229.048C78.7479 229.001 78.61 228.962 78.4702 228.93C78.3303 228.898 78.1892 228.873 78.0468 228.855C77.9044 228.838 77.7615 228.828 77.6181 228.825C77.4744 228.822 77.3311 228.826 77.1882 228.838C77.0451 228.85 76.903 228.87 76.7622 228.896C75.3326 229.166 74.1933 230.132 73.3947 231.302C72.719 232.286 72.3893 233.274 72.609 234.477C72.8681 235.895 73.872 237.208 75.0849 237.959C76.1312 238.607 77.2793 238.831 78.4755 238.497C79.0123 238.348 79.4247 238.115 79.8815 237.804Z" fill="#4A6B8D"/>
<path d="M79.8815 237.804C80.2768 237.516 80.6589 237.147 80.9605 236.762C81.7705 235.728 82.1047 234.314 81.9393 233.022C81.7705 231.703 81.1024 230.439 80.0215 229.645C79.9061 229.56 79.7868 229.48 79.6633 229.407C79.5399 229.334 79.4131 229.267 79.2828 229.207C79.1526 229.147 79.0195 229.094 78.8837 229.048C78.7479 229.001 78.61 228.962 78.4702 228.93C78.3303 228.898 78.1892 228.873 78.0468 228.855C77.9044 228.838 77.7615 228.828 77.6181 228.825C77.4744 228.822 77.3311 228.826 77.1882 228.838C77.0451 228.85 76.903 228.87 76.7622 228.896C75.3326 229.166 74.1933 230.132 73.3947 231.302C73.4622 231.333 73.5271 231.371 73.5977 231.393C75.3831 231.952 77.4709 230.479 78.8196 232.655C80.0211 234.594 79.2483 236.44 79.8815 237.804Z" fill="#688398"/>
<path d="M88.5957 213.263C86.8187 213.735 84.3815 213.926 83.0035 215.216C82.807 215.829 82.9671 216.189 83.0999 216.811C84.8121 216.576 87.1153 215.949 88.6428 215.142C88.8776 214.513 88.7023 213.904 88.5957 213.263Z" fill="#688398"/>
<path d="M342.92 143.494C340.862 143.157 338.586 143.291 336.839 144.531C335.461 145.509 334.694 147.356 334.107 148.901C332.424 153.326 331.191 159.34 329.892 164.063C328.719 168.328 326.431 175.026 325.87 179.141C325.645 180.785 325.732 182.574 326.814 183.924C327.53 184.818 328.569 185.44 329.639 185.819C332.55 186.849 339.383 187.177 342.818 187.553C345.001 187.843 347.174 187.847 349.048 186.515C350.187 185.705 350.597 184.7 351.1 183.44C352.015 181.148 352.565 178.621 353.222 176.244C354.463 171.736 355.681 167.221 356.875 162.7C357.81 159.198 359.484 154.658 359.95 151.19C359.975 151 359.991 150.809 359.997 150.617C360.003 150.426 360 150.234 359.987 150.043C359.975 149.852 359.953 149.662 359.921 149.473C359.89 149.283 359.849 149.096 359.8 148.911C359.75 148.726 359.691 148.544 359.624 148.365C359.556 148.186 359.479 148.01 359.394 147.838C359.309 147.666 359.216 147.499 359.115 147.336C359.013 147.174 358.904 147.016 358.787 146.865C356.695 144.136 351.926 144.369 348.831 144.104C346.858 143.926 344.888 143.723 342.92 143.494Z" fill="#3B3937"/>
<path d="M342.285 145.393C340.858 145.182 339.276 145.181 338.021 145.973C336.794 146.747 336.251 148.499 335.767 149.805C335.03 151.793 334.584 153.913 334.044 155.962C333.303 158.731 332.547 161.496 331.774 164.257C330.47 168.965 328.489 174.654 327.597 179.363C327.389 180.461 327.524 181.697 328.208 182.613C330.062 185.095 340.288 185.311 343.576 185.691C345.19 185.884 346.855 186.037 348.214 184.969C348.998 184.353 349.264 183.387 349.572 182.478C350.404 180.02 351.013 177.448 351.696 174.944L355.71 159.944C356.485 157.047 357.829 153.832 358.201 150.88C358.326 149.886 358.149 148.913 357.505 148.123C355.604 145.796 345.549 145.672 342.285 145.393Z" fill="#87DEC5"/>
<path d="M354.337 149.558L353.371 149.733C352.753 150.343 346.034 173.051 345.076 175.765C344.614 177.074 343.693 178.941 344.319 180.253C344.539 180.22 344.872 180.194 345.085 180.099C345.442 179.94 345.626 179.692 345.783 179.351C347.109 176.446 348.252 171.645 349.256 168.426C350.617 164.059 352.083 159.737 353.32 155.33C353.735 153.849 354.27 152.297 354.533 150.783C354.616 150.307 354.509 150.001 354.337 149.558Z" fill="#3B3937"/>
<path d="M332.888 180.104C332.286 179.995 331.513 179.948 330.902 179.968C330.369 179.984 330.192 180.052 329.843 180.445C329.801 180.707 329.699 180.879 329.862 181.114C330.629 182.219 334.097 182.14 335.421 182.284C336.004 182.354 336.595 182.442 337.181 182.48C337.89 182.524 337.995 182.512 338.544 182.042C338.615 181.782 338.746 181.64 338.565 181.401C337.719 180.282 334.271 180.237 332.888 180.104Z" fill="#3B3937"/>
<path d="M94.7039 128.995C95.4173 129.145 96.1893 129.305 96.9177 129.167C97.4462 129.067 97.9659 128.754 98.1906 128.245C98.6017 127.312 98.1321 125.696 97.8692 124.737C97.0244 121.653 95.7506 118.61 94.6217 115.621C94.0557 114.122 93.5807 112.428 92.8284 111.02C91.2197 108.01 85.5641 101.469 83.2655 98.5548C79.9714 94.3368 76.6436 90.1453 73.2823 85.9804C71.7033 84.0204 70.1805 81.9057 68.4447 80.0856C67.467 79.0602 66.3556 78.3957 65.1408 77.697C63.805 77.9418 62.6352 78.3576 61.3904 78.8816C59.1328 79.8442 56.6977 81.7377 55.7792 84.0784C55.3304 85.2223 55.3029 86.174 55.8045 87.2936C57.6726 91.4645 60.9782 95.192 63.7784 98.775L71.6049 108.864C73.6194 111.491 75.6522 114.104 77.7033 116.702C78.6204 117.875 79.4938 119.247 80.5838 120.257C82.3539 121.897 92.4159 128.138 94.7039 128.995Z" fill="#3B3937"/>
<path d="M81.1903 117.91C82.4163 117.708 84.4241 115.83 85.473 115.06C79.1083 106.969 72.5088 99.0222 66.4807 90.6733C65.021 91.1967 63.3408 92.4646 62.1737 93.4755C68.3486 101.69 74.5662 110.056 81.1903 117.91Z" fill="#FE7164"/>
<path d="M86.8503 113.876C88.1001 113.466 89.5482 112.228 90.6671 111.479C84.4745 103.227 78.0124 95.1912 71.6775 87.0514C70.3865 87.4832 68.929 88.749 67.7996 89.5456C71.1333 92.9267 73.9326 97.4457 76.8604 101.2C80.1636 105.434 83.8748 109.399 86.8503 113.876Z" fill="#FE7164"/>
<path d="M60.7859 91.8759C62.3486 91.3869 68.2752 86.673 70.353 85.3799C69.0906 83.6898 67.8853 82.1229 66.2582 80.7685C65.8131 80.3974 65.2672 80.1421 64.7617 79.8628C64.1693 80.0769 63.5784 80.2953 62.989 80.5179C60.0667 81.6263 58.5866 82.9178 57.2999 85.7763C57.8447 87.929 59.561 90.0308 60.7859 91.8759Z" fill="#FE7164"/>
<path d="M90.8514 124.493C91.0923 123.442 91.0464 122.265 91.7543 121.371C92.3211 120.656 93.2812 120.462 94.119 120.277L91.524 113.45C90.5228 114.011 89.5881 114.707 88.6421 115.356C86.7767 116.851 84.7203 118.077 82.8573 119.58C85.5336 121.198 88.1983 122.836 90.8514 124.493Z" fill="#F8DCBE"/>
<path d="M308.339 221.869C308.132 221.9 307.958 222.061 307.786 222.175C307.646 222.479 307.576 222.68 307.595 223.022C307.65 224.032 308.508 225.433 308.776 226.488C309.941 231.079 310.081 237.349 314.283 240.466C316.528 242.132 319.151 242.23 321.792 241.79C323.234 244.206 324.731 246.601 326.433 248.844C331.47 255.484 345.664 271.727 352.368 275.663C353.921 276.575 355.076 276.901 356.843 276.444C356.973 276.318 357.105 276.194 357.227 276.06C357.957 275.251 358.168 274.405 358.087 273.328C357.626 267.241 342.898 250.376 338.291 245.67C334.976 242.284 331.345 239.125 327.786 235.999C328.312 233.229 328.306 230.358 326.82 227.858C323.02 221.465 314.383 223.453 308.339 221.869Z" fill="#3B3937"/>
<path d="M337.793 247.798C335.964 247.753 334.713 248.587 333.426 249.861C332.73 250.55 332.028 251.47 332.103 252.505C332.198 253.792 334.634 255.979 335.516 256.961C340.619 262.642 345.841 268.214 351.787 273.031C352.57 273.655 353.614 274.5 354.641 274.604C355.154 274.655 355.513 274.6 355.932 274.283C356.165 273.884 356.242 273.602 356.196 273.134C355.745 268.591 341.692 251.1 337.793 247.798Z" fill="#CF896C"/>
<path d="M310.676 224.438L310.54 224.682C310.897 228.395 311.442 232.805 313.232 236.138C314.177 237.896 315.698 239.4 317.66 239.942C319.668 240.498 321.475 239.925 323.216 238.93C322.016 237.028 320.676 235.23 319.195 233.538C318.115 232.328 316.251 230.889 315.476 229.514C315.182 228.992 315.337 228.725 315.469 228.195C315.669 228.175 315.976 228.125 316.182 228.177C318.615 228.787 323.256 235.547 324.707 237.76C325.688 236.438 326.233 234.921 326.304 233.267C326.391 231.247 325.655 229.175 324.269 227.695C321.004 224.206 315.036 224.575 310.676 224.438Z" fill="#87DEC5"/>
<path d="M327.177 237.943C325.959 238.968 324.866 240.11 323.619 241.122C324.857 243.601 328.213 248.84 330.273 250.572C330.768 250.394 330.884 249.984 331.154 249.547C332.562 247.747 333.914 246.729 336.014 245.852C333.079 243.212 330.209 240.471 327.177 237.943Z" fill="#C5E0EB"/>
<path d="M318.602 0C318.209 0.11302 317.891 0.248272 317.532 0.443733C317.401 0.69485 317.336 0.901806 317.317 1.18616C317.217 2.66327 317.557 10.1132 318.057 11.131C318.16 11.3405 318.356 11.4891 318.506 11.6682C318.757 11.5509 319.073 11.432 319.292 11.2661C319.619 11.0185 319.678 10.9494 319.717 10.5502C319.887 8.808 319.487 2.40305 319.069 0.791177C318.986 0.47177 318.806 0.250624 318.602 0Z" fill="#3B3937"/>
<path d="M349.254 42.6867C348.371 42.626 347.517 42.5414 346.636 42.6632C346.244 42.9454 346.09 43.1021 345.9 43.5487C345.963 43.8146 345.926 43.8207 346.192 44.0278C347.425 44.9892 352.166 44.8629 353.88 44.9099C354.581 44.9949 355.417 45.1755 356.116 45.0962C356.617 45.0397 356.635 44.9072 356.911 44.5229C356.93 44.2335 357.013 44.0771 356.822 43.8324C355.867 42.6093 350.899 42.7823 349.254 42.6867Z" fill="#3B3937"/>
<path d="M349.669 15.189C347.703 15.6927 342.664 19.8786 341.349 21.4873C341.24 22.0391 341.401 22.1921 341.638 22.6893C341.707 22.6787 341.775 22.6671 341.843 22.6574C342.057 22.6271 342.265 22.6024 342.475 22.5446C343.545 22.2501 349.461 17.5834 350.102 16.537C350.127 15.933 349.946 15.7164 349.669 15.189Z" fill="#3B3937"/>
<path d="M282.242 36.4303C281.865 36.3917 281.465 36.3321 281.086 36.3457C280.599 36.3632 280.428 36.5248 280.117 36.8704C280.055 37.4319 280.043 37.4054 280.376 37.8606C282.362 38.9085 285.975 38.6179 288.226 38.7886C288.532 38.8061 288.838 38.811 289.145 38.8034C289.847 38.7807 290.306 38.2901 290.737 37.795L290.7 37.5067C289.16 36.1652 284.323 36.5874 282.242 36.4303Z" fill="#3B3937"/>
<path d="M293.528 9.52881L292.733 9.61838C292.325 9.90831 292.344 9.93077 292.209 10.4189C292.639 12.8122 295.738 16.1238 297.438 17.866L297.959 17.9187C298.428 17.6996 298.441 17.7235 298.649 17.2559C298.475 15.7811 294.595 11.1502 293.528 9.52881Z" fill="#3B3937"/>
</svg>
