<svg width="164" height="164" viewBox="0 0 164 164" fill="none" xmlns="http://www.w3.org/2000/svg">
<path d="M32.7122 17.093C33.2283 17.0533 33.7576 17.0697 34.276 17.0635C45.1163 16.934 55.9726 17.0426 66.8147 17.0433L75.7648 17.045C77.3796 17.0456 79.2046 16.8917 80.7911 17.1715C82.6973 17.5076 85.1153 19.0433 86.4619 20.3765C87.9559 21.8554 89.1779 23.8886 89.7351 25.9143C90.5746 28.9667 90.2242 37.7612 90.2223 41.3668C94.3624 41.5628 98.5935 41.3768 102.746 41.3768L124.474 41.4486L131.748 41.4317C133.159 41.4266 134.714 41.2778 136.098 41.5386C138.168 41.9283 140.47 43.212 141.991 44.6371C144.673 47.15 145.697 50.281 145.797 53.8611C145.924 58.4582 145.864 63.1039 145.867 67.7043C145.871 71.8968 146.216 78.2504 145.154 82.2441C144.668 84.0747 143.649 85.7032 142.347 87.0655C139.913 89.6119 136.437 90.8079 132.967 90.8792C132.755 93.0404 133.349 95.6298 132.936 97.6828C132.797 98.3793 132.424 98.9747 131.827 99.3708C131.538 99.5625 131.016 99.8397 130.665 99.8411C128.884 99.8473 121.835 94.1519 120.165 92.8902C119.385 92.3005 118.168 91.103 117.24 90.9104C115.81 90.6129 114.177 90.7475 112.713 90.7475L105.544 90.7593L91.492 90.7862C89.533 90.7975 87.5555 90.7413 85.5997 90.8164C85.4576 90.8221 85.3688 90.8622 85.2517 90.9392C84.7135 92.2825 85.1417 98.1956 85.0166 100.166C89.558 100.36 94.1504 100.245 98.6974 100.245L120.655 100.267L128.702 100.28C130.454 100.272 132.396 100.104 134.126 100.379C135.634 100.619 137.11 101.44 138.333 102.324C140.732 104.06 142.689 106.498 143.145 109.489C143.54 112.077 143.295 115.884 143.301 118.597L143.306 125.078C143.303 126.655 143.39 128.334 143.1 129.887C142.817 131.408 142.17 132.785 141.236 134.016C139.589 136.187 137.199 138.051 134.51 138.684C133.63 138.89 132.675 138.928 131.779 139.058C131.277 140.057 131.499 141.25 131.544 142.333C131.619 144.16 131.743 145.382 130.435 146.804C130.018 147.076 129.503 147.155 129.025 147.267C126.688 146.738 121.503 142.445 119.377 140.893C118.644 140.357 117.857 139.683 117.037 139.294C115.212 138.429 92.6153 139.03 88.6302 138.878C85.7442 138.768 82.9707 137.379 81.03 135.252C80.071 134.201 79.2664 132.901 78.8632 131.53C77.891 128.224 78.239 120.2 78.4033 116.518C75.5551 117.518 62.4645 117.173 58.5261 117.172C54.0088 117.17 49.5057 117.176 44.9898 117.312C42.6198 118.636 33.9621 125.949 32.0724 126.122C31.3573 126.188 30.5312 125.332 30.0263 124.904C29.1949 122.559 29.6823 119.775 29.5774 117.314C26.2829 117.093 23.1859 116.021 20.9711 113.459C19.8022 112.107 18.8383 110.415 18.4458 108.662C17.7525 105.566 18.0749 98.9992 18.0746 95.482C18.0742 91.8878 17.8937 88.1954 18.1688 84.6125C18.4095 81.4777 20.0188 79.0281 22.3762 77.0298C23.8248 75.8017 25.1943 75.22 27.0445 74.906C30.1006 74.3871 33.3029 74.4706 36.3951 74.4692L47.1646 74.4687C52.3485 74.413 57.5325 74.3971 62.7167 74.4211C65.6843 74.4229 68.6954 74.3205 71.6531 74.5651C71.5586 68.6827 71.8453 62.7531 71.5549 56.8802C66.9993 57.2414 62.3729 57.0473 57.8042 57.0539C55.9872 57.0568 52.8369 56.7881 51.2121 57.3018C50.3329 57.5799 49.4934 58.4327 48.795 59.0069C47.896 59.7458 46.9394 60.3998 46.0243 61.1161C43.9497 62.7404 40.5454 65.6872 38.2274 66.6368C37.6489 66.48 37.0572 66.2921 36.5831 65.9115C34.9313 64.5856 35.2972 62.0869 35.2844 60.218C35.2771 59.141 35.2216 58.0861 35.1117 57.0147C31.9642 57.0558 29.2234 56.4222 26.785 54.303C24.3973 52.2274 22.9305 49.7092 22.7194 46.5301C22.4502 42.4748 22.5691 38.304 22.5953 34.2381C22.6133 31.4397 22.3351 28.1809 22.9807 25.4542C23.3544 23.8759 24.2055 22.4195 25.272 21.2112C27.2592 18.9598 29.6304 17.268 32.7122 17.093Z" fill="black"/>
<path d="M85.1421 43.8948C87.9322 43.7276 90.7874 43.8301 93.5841 43.8282L108.477 43.8249L124.65 43.8324C128.172 43.8357 131.726 43.7644 135.243 43.959C137.497 44.0841 139.297 45.1139 140.785 46.792C141.785 47.9201 142.745 49.432 143.045 50.9297C143.351 52.4648 143.251 54.1807 143.255 55.7407L143.268 61.9786L143.262 73.2537C143.257 75.5537 143.321 77.8768 143.171 80.1711C143.071 81.7024 142.466 83.0655 141.566 84.3026C137.712 89.5981 133.058 86.995 131.159 88.8133C130.424 89.5169 130.777 94.9554 130.791 96.1217L130.716 97.5359C126.111 94.8581 122.238 90.9821 117.702 88.1943C114.232 88.3388 110.71 88.2075 107.237 88.1684L92.3139 88.0376C89.5182 88.0064 83.1655 88.2888 80.7376 87.7854C79.4169 87.5116 77.99 86.4501 77.0145 85.5492C74.3996 83.135 74.1224 80.3142 74.0015 76.9528C73.7711 70.5619 73.9822 64.0713 74.1928 57.6776C74.2745 55.1925 74.1059 52.2886 74.7216 49.8876C75.0606 48.566 75.7552 47.5924 76.6868 46.6069C79.1903 43.958 81.7698 43.9783 85.1421 43.8948Z" fill="#FEFEFE"/>
<path d="M89.8742 55.1076C92.9192 54.9763 95.9992 55.0382 99.0476 55.0368L114.1 55.0335L124.495 55.042C126.572 55.0514 128.743 54.9726 130.807 55.219C131.497 55.3017 132.037 55.6567 132.625 56.0024C132.228 56.5369 131.855 57.0931 131.473 57.6394L129.527 57.6021C119.814 57.476 110.087 57.5771 100.371 57.5813L92.5802 57.5908C90.8114 57.5988 89.0195 57.6843 87.2569 57.5129C87.1714 57.1408 87.0572 56.7413 87.035 56.3598C87.0189 56.0737 87.1129 55.7573 87.3168 55.5505C87.8155 55.0458 89.198 55.1402 89.8742 55.1076Z" fill="black"/>
<path d="M89.8428 65.9692C95.1926 65.8252 100.578 65.9257 105.93 65.9328C111.111 65.9394 116.326 65.8417 121.501 66.0792C121.579 66.7327 121.624 67.3404 121.579 67.9977C120.81 68.1148 120.051 68.1317 119.275 68.1478L97.4312 68.1705L90.3934 68.1521C89.6318 68.1535 88.8682 68.2758 88.109 68.2427C87.8247 68.2304 87.5589 68.1757 87.3375 67.9877C87.1415 67.8211 87.0428 67.5703 87.0211 67.3154C86.9909 66.9678 87.0334 66.5226 87.295 66.2615C87.7497 65.8096 89.1983 65.981 89.8428 65.9692Z" fill="black"/>
<path d="M87.9526 76.4426C92.0676 76.1645 96.2946 76.4077 100.425 76.4138C104.95 76.4204 109.611 76.1607 114.111 76.5829C114.349 76.7972 114.591 77.0229 114.783 77.2812C114.929 77.4781 114.999 77.709 114.949 77.9494C114.844 78.4602 114.224 78.7634 113.821 79.0287C113.583 79.1359 88.736 79.1142 87.6934 78.7865C87.4469 78.7091 87.2189 78.5297 87.1084 78.2931C86.9271 77.9045 87.0494 77.3917 87.2184 77.0206C87.3709 76.6853 87.6268 76.5748 87.9526 76.4426Z" fill="black"/>
<path d="M55.3669 77.0663C60.7605 76.9355 66.1618 77.1385 71.5549 76.9629C71.6489 79.5433 71.9152 82.0496 73.2132 84.3496C75.4981 88.398 78.6947 89.6394 82.882 90.7868C82.8187 94.2928 82.8017 97.7992 82.831 101.306C82.8324 103.308 82.9556 105.403 82.6596 107.388C82.2068 110.426 79.9672 113.173 77.0884 114.279C74.4872 115.279 65.912 114.92 62.8187 114.924L49.7333 114.938C48.1459 114.93 45.6325 114.613 44.1475 115.065C43.1632 115.364 42.1651 116.304 41.3396 116.921C39.4311 118.351 37.5136 119.769 35.5869 121.174C34.4095 122.036 33.27 122.952 31.9964 123.671C31.8122 121.445 32.0636 119.199 31.9358 116.975C31.9128 116.575 31.8441 115.79 31.601 115.466C31.098 114.793 27.7141 114.804 26.7571 114.54C25.5429 114.204 24.4536 113.569 23.528 112.718C21.629 110.974 20.56 108.834 20.4786 106.257C20.3399 101.863 20.3925 97.452 20.3875 93.057C20.3843 90.3203 20.1209 85.7307 20.73 83.2013C21.0453 81.8915 21.7902 80.763 22.7136 79.7974C23.6781 78.7888 24.944 77.8208 26.3161 77.4634C28.3291 76.9388 32.7451 77.139 34.9392 77.1258C41.7443 77.0861 48.5652 77.2434 55.3669 77.0663Z" fill="#36C99F"/>
<path d="M35.9876 19.3409L36.9287 19.3273C46.8548 19.1996 56.7922 19.2887 66.7192 19.2933L75.4044 19.3296C76.9881 19.3402 78.815 19.2042 80.3627 19.5125C81.9969 19.8379 83.6774 21.056 84.8394 22.2036C85.9514 23.3016 86.7758 24.5681 87.2272 26.0697C88.1239 29.0534 87.7495 37.7089 87.766 41.1873C83.4385 41.0626 79.018 41.343 75.6887 44.4323C72.6998 47.2054 71.7191 50.6688 71.5765 54.6063C70.1474 54.6009 68.7183 54.6049 67.2891 54.6181C64.8296 54.662 51.5633 54.4127 50.3187 54.9C48.7883 55.4987 46.2476 57.9026 44.8494 58.9697C43.7469 59.7954 42.6519 60.6308 41.5643 61.476C40.4242 62.3793 39.277 63.4728 37.9806 64.1409L37.8403 64.2122C37.8133 61.824 37.9493 59.413 37.8444 57.0286C37.8207 56.4889 37.7909 55.7457 37.3869 55.341C36.0583 54.0109 31.5495 55.6191 27.8766 52.2029C25.7681 50.242 24.9475 47.8273 24.8358 45.014C24.7279 42.291 24.7566 39.5544 24.7421 36.8293C24.7236 33.3595 24.3728 29.3989 25.3032 26.0368C25.7116 24.5612 26.485 23.2752 27.528 22.1597C30.0201 19.495 32.6086 19.4431 35.9876 19.3409Z" fill="#778EEE"/>
<path d="M85.067 102.5L117.005 102.508L127.12 102.539C129.082 102.557 131.139 102.474 133.082 102.754C133.466 102.807 133.846 102.883 134.221 102.984C134.596 103.084 134.963 103.207 135.323 103.354C135.682 103.501 136.031 103.67 136.368 103.861C136.706 104.052 137.031 104.263 137.343 104.495C139.184 105.85 140.517 107.773 140.855 110.056C141.267 112.852 141.011 115.943 141.02 118.777C141.028 121.646 141.325 126.665 140.817 129.337C140.756 129.657 140.675 129.971 140.577 130.281C140.478 130.591 140.362 130.895 140.229 131.192C140.095 131.488 139.945 131.776 139.778 132.055C139.61 132.335 139.427 132.603 139.229 132.861C136.466 136.517 133.534 136.245 129.486 136.789L129.331 137.677C129.199 140.137 129.277 142.584 129.32 145.045C127.11 143.608 119.194 137.354 117.398 136.793C115.898 136.324 113.022 136.607 111.328 136.616L97.9692 136.584C94.9147 136.586 89.5484 136.893 86.7885 136.189C85.4263 135.841 84.167 134.991 83.1674 134.022C82.2561 133.139 81.4369 132.019 81.061 130.793C80.1965 127.974 80.5624 124.065 80.5501 121.081C80.5426 119.228 80.4741 117.376 80.459 115.524C81.1672 114.459 82.1244 113.526 82.911 112.512C85.4145 109.288 85.0745 106.326 85.067 102.5Z" fill="#D7F4EC"/>
</svg>
