<svg width="164" height="164" viewBox="0 0 164 164" fill="none" xmlns="http://www.w3.org/2000/svg">
<path d="M54.5293 48.7589C52.5349 47.2142 50.9936 45.3573 49.9985 43.1745C47.3636 37.3962 48.9366 29.4922 51.6385 23.9021C55.0624 16.8177 61.5537 10.723 69.6861 7.85045C75.1413 5.92335 82.0512 5.35699 87.7215 6.84386C89.7159 7.36694 91.6097 8.31886 93.6192 8.76057C96.1397 9.31456 98.4718 9.17582 100.955 10.1465C107.625 12.755 111.571 18.4876 114.077 24.2933C117.794 32.9066 118.217 41.4774 113.928 49.9673C114.122 50.5412 114.259 51.1256 114.34 51.7205C114.819 55.0254 113.348 58.9528 111.032 61.5338C109.197 63.5781 107.111 64.5291 104.221 64.8152C104.008 65.6426 103.754 66.4602 103.46 67.2681C103.166 68.0759 102.833 68.8708 102.461 69.653C102.089 70.4352 101.68 71.2015 101.233 71.9521C100.786 72.7026 100.303 73.4345 99.7837 74.1477L99.9425 79.8153C102.551 81.1213 104.258 83.3192 106.645 84.8608C114.318 89.8148 124.587 93.0749 128.575 101.357C133.285 111.138 132.197 144.242 127.456 154.638C125.427 159.09 122.547 161.308 117.647 163.158C117.473 163.403 117.302 163.68 117.063 163.879C116.532 164.321 114.457 163.409 113.535 163.409L113.281 163.41C107.68 163.868 101.89 163.609 96.2594 163.606L67.2954 163.599C62.3434 163.6 57.3091 163.429 52.3652 163.623C51.5579 163.949 51.2746 163.871 50.4628 163.625C47.3658 163.389 41.2842 163.375 38.2094 163.707C38.0359 163.751 37.855 163.804 37.6742 163.821C37.1228 163.874 36.9774 163.841 36.5325 163.554C35.7952 161.835 36.4963 157.527 36.6115 155.606C37.4867 141.017 39.434 122.056 45.9775 108.708C45.2044 105.291 43.4486 101.289 43.3439 97.8667C43.311 96.7894 43.5965 95.652 44.497 94.8774C46.5007 93.154 51.5824 94.0728 54.2422 94.0506C58.3601 91.0734 63.0704 88.9736 67.6127 86.5885C69.9571 85.3574 72.1994 83.9108 74.4539 82.5526C72.2253 81.7453 70.0531 80.8859 68.0821 79.6419C61.9206 75.7531 59.7423 70.1815 58.5124 63.9143C56.7033 62.3579 55.2128 60.6286 54.3401 58.5124C53.0417 55.3643 52.8952 51.8177 54.5293 48.7589Z" fill="#32271E"/>
<path d="M52.8946 129.711C57.2003 134.974 63.0229 139.785 69.9546 142.149C71.147 142.556 72.3894 142.922 73.6544 143.096C75.7482 143.386 79.5106 143.04 80.9944 144.568C81.1456 145.076 81.1152 145.148 80.9207 145.65C80.105 145.639 79.1277 144.351 78.3282 144.002C77.657 143.709 76.711 143.827 76.0424 144.054C75.0124 144.405 74.205 145.115 73.7462 145.997C73.1862 147.073 73.0466 148.297 73.5509 149.413C73.6017 149.525 73.6589 149.635 73.7225 149.741C73.7862 149.848 73.8558 149.952 73.9315 150.053C74.0073 150.153 74.0886 150.25 74.1754 150.343C74.2625 150.436 74.3547 150.525 74.452 150.609C74.5493 150.694 74.6512 150.774 74.7578 150.849C74.8646 150.925 74.9754 150.995 75.0902 151.06C75.205 151.125 75.3233 151.185 75.4452 151.239C75.567 151.293 75.6917 151.342 75.8191 151.385C76.7453 151.691 77.7357 151.632 78.6229 151.255C79.9956 150.671 80.506 149.636 81.0047 148.453C91.522 154.111 100.775 161.581 113.281 163.411C107.68 163.869 101.89 163.61 96.2594 163.606L67.2954 163.6C62.3434 163.6 57.3091 163.429 52.3652 163.624C52.7635 152.326 52.4492 141 52.8946 129.711Z" fill="#778EEE"/>
<path d="M38.209 163.707C38.7054 159.597 38.6159 155.41 38.944 151.283C39.9774 138.283 41.7751 123.839 46.8295 111.553C47.9637 115.938 49.8853 121.615 50.4116 125.986C50.7853 129.091 50.6432 132.346 50.6441 135.466C50.6307 141.588 50.575 147.709 50.4772 153.83C50.4412 157.07 50.247 160.394 50.4624 163.625C47.3653 163.389 41.2837 163.375 38.209 163.707Z" fill="#778EEE"/>
<path d="M106.549 87.4531C109.139 88.3731 111.74 90.0279 114.105 91.3677C120.812 95.1667 126.203 98.6331 128.006 105.974C130.484 116.072 130.194 148.184 123.937 156.662C122.251 158.948 119.776 160.626 116.724 161.171C108.623 162.617 99.3886 156.741 92.9889 153.048C89.9274 151.292 86.8785 149.518 83.8423 147.727C88.4376 143.87 90.3729 136.814 91.3254 131.488L104.257 136.978C105.854 137.674 107.498 138.318 109.07 139.054C110.679 139.807 112.43 140.912 114.164 141.379C114.85 141.563 115.173 141.581 115.789 141.282C115.96 140.828 115.944 140.741 115.844 140.291C114.372 138.795 111.032 137.772 108.997 136.896C109.812 129.905 111.057 122.833 113.377 116.097C113.796 114.881 114.262 113.667 114.835 112.501C115.445 111.258 116.419 109.944 116.709 108.616C116.839 108.022 116.826 107.706 116.447 107.218C116.026 107.215 115.909 107.208 115.58 107.456C114.638 108.169 113.974 109.626 113.461 110.625C109.41 118.511 108.097 127.5 107.032 136.035C101.602 133.683 96.2031 131.237 90.6651 129.091C93.5579 125.455 96.66 121.926 99.6526 118.352C101.685 115.925 103.807 113.509 105.386 110.821C104.114 108.618 102.082 106.627 100.347 104.694C102.84 103.781 105.462 103.173 108.007 102.382C108.285 97.5513 107.171 92.2506 106.549 87.4531Z" fill="#778EEE"/>
<path d="M80.0644 26.2529C80.9763 32.0834 83.311 37.1566 88.2245 41.252C87.0368 41.4459 85.5625 41.5705 84.7228 42.4329C84.3142 42.8528 84.2802 43.0769 84.2833 43.5955C84.6508 43.9138 84.8299 44.0375 85.3741 43.9796C86.2119 43.8903 86.9854 43.4852 87.8533 43.4343C90.5773 43.274 91.6092 45.2298 93.8858 45.836C94.4613 45.9891 94.7004 45.9624 95.234 45.7566C95.3411 45.0597 94.7741 44.6427 94.8031 43.9613C94.9954 43.9606 95.1377 43.9579 95.3233 44.0098C101.082 45.6213 100.031 49.0301 102.031 53.0591L102.146 53.2847C103.849 51.4521 104.45 49.1387 107.249 48.3007C108.166 48.0262 109.218 47.8845 110.104 48.3195C111.056 48.7867 111.549 49.7379 111.837 50.6278C112.681 53.2327 111.892 56.5794 110.406 58.8948C108.251 62.2526 106.692 61.8658 103.159 62.9518C101.785 63.3742 101.153 67.3459 100.554 68.6161C98.0196 73.9948 93.8948 78.0738 87.7233 80.3184C85.5742 80.9392 83.3891 81.3923 81.1178 81.4219C76.1042 81.4875 70.9172 79.5532 67.3349 76.4662C60.9945 71.0027 60.5277 63.5758 59.7854 56.2606C59.441 52.8677 59.0277 49.4446 58.9741 46.0371C60.7392 43.4355 62.8888 41.0116 64.7703 38.4701C66.6802 35.8904 68.3074 33.1803 69.9589 30.4672C70.1548 33.6781 70.4138 36.8401 72.3047 39.684C73.0881 40.8622 74.9388 42.93 76.5521 43.1843C77.0095 43.2562 77.1936 43.1469 77.5453 42.912C78.124 41.4073 76.4871 39.4317 76.184 37.9251C75.3362 33.7108 77.3393 29.5774 80.0644 26.2529Z" fill="#FECFAA"/>
<path d="M88.1289 66.3904L88.7746 66.3892C89.2769 66.6444 89.3981 66.7559 89.5225 67.2748C90.0536 69.4942 88.6047 73.1483 87.0905 74.9134C86.0272 76.1527 84.5315 77.0859 82.7569 77.2654C80.3865 77.5051 78.3547 76.4344 76.5678 75.185C76.0413 74.7268 75.5511 74.24 75.0972 73.7246C73.9876 72.4635 72.2289 70.1855 72.4625 68.5564C72.7307 68.1775 72.8518 68.0106 73.3781 67.9433C74.6325 67.7828 76.2918 68.0536 77.6026 68.0487C81.2792 68.0355 84.6551 67.4131 88.1289 66.3904Z" fill="#32271E"/>
<path d="M86.4587 69.0278L87.0578 68.9893L87.252 69.2608C87.2691 70.4267 86.6906 71.757 86.0097 72.7463C84.9274 74.3187 83.9468 74.9276 81.9303 75.3488C80.4468 75.026 79.3587 74.517 78.1381 73.7029C76.9013 72.6505 76.0574 71.4639 75.2593 70.1272C79.1397 70.1517 82.6654 69.755 86.4587 69.0278Z" fill="#FE997F"/>
<path d="M66.5296 41.3943C66.5792 41.3938 66.6286 41.3919 66.6783 41.3929C67.8325 41.4154 69.7184 41.5435 70.4948 42.4061C70.833 42.782 70.8888 42.9878 70.8366 43.4488C69.6439 44.3189 67.3324 43.3551 65.8118 43.6281L65.5623 43.6744C64.6559 43.9889 63.1967 45.0363 62.2702 44.9174C61.8229 44.5827 61.7143 44.5051 61.5176 44.0228C61.5617 43.8329 61.5974 43.6583 61.7132 43.4896C62.5398 42.2881 65.0628 41.6048 66.5296 41.3943Z" fill="#32271E"/>
<path d="M87.5066 51.4717C88.3125 51.6475 88.8156 51.8246 89.2769 52.4652C89.9525 53.403 90.0778 54.5097 89.8211 55.5796C89.599 56.5048 89.2183 56.879 88.3515 57.3912C87.7058 57.2557 87.1876 57.1417 86.7506 56.6713C86.0359 55.9019 85.814 54.9052 85.9491 53.935C86.1056 52.8094 86.5036 52.1716 87.5066 51.4717Z" fill="#32271E"/>
<path d="M67.8336 52.0522C68.752 52.1588 69.4123 52.3107 69.976 53.0049C70.5096 53.6618 70.6201 54.4327 70.423 55.2117C70.1646 56.2324 69.6294 56.6835 68.7021 57.2375C68.6393 57.2328 68.5765 57.2291 68.5137 57.2236C67.7161 57.1534 67.2172 56.988 66.7204 56.4105C66.1405 55.736 66.042 54.8959 66.2192 54.0817C66.4327 53.1011 66.9426 52.5909 67.8336 52.0522Z" fill="#32271E"/>
<path d="M74.3245 59.9845C74.3694 59.9826 74.4141 59.9783 74.459 59.9791C75.0609 59.9877 75.3311 60.0775 75.7416 60.4539C75.9163 61.1308 75.5504 61.8565 75.3313 62.5067C75.9018 62.9063 76.4306 63.2509 76.8394 63.794C76.9139 64.4041 76.7694 64.6403 76.5104 65.1933C75.7717 65.0887 74.9861 64.8663 74.3878 64.4545C73.7379 64.0069 73.2744 63.3401 73.2121 62.6039C73.1214 61.535 73.6023 60.7762 74.3245 59.9845Z" fill="#32271E"/>
<path d="M56.076 110.354C60.8753 110.449 68.7284 115.293 72.8748 117.74C74.3125 118.589 75.813 119.674 77.3769 120.314C77.8153 120.494 77.9532 120.42 78.3885 120.26C78.6829 119.924 78.6748 119.867 78.7106 119.437C78.0841 117.912 74.833 116.517 73.3037 115.585L72.6526 113.232C82.7801 118.657 80.7812 121.771 85.3679 129.687C85.9495 130.691 86.4875 131.679 87.4977 132.402C87.964 132.493 88.4641 132.531 88.8241 132.83C88.7395 136.555 86.3226 141.212 84.0993 144.329C79.0758 140.432 78.362 142.186 72.8519 140.815C65.9414 139.095 57.6772 133.384 54.1887 127.833C54.0472 127.607 53.9562 127.583 54.041 127.319L54.965 127.826C56.7625 129.053 60.8516 132.217 63.0768 132.496C63.6082 132.563 63.8409 132.332 64.2168 132.063L64.2545 131.672C63.506 130.3 56.0913 126.187 54.1368 124.882C53.1162 124.201 51.6026 122.981 51.4706 121.777C51.4232 121.345 51.491 121.3 51.796 120.964C55.7704 120.204 63.0118 127.265 66.4862 127.895C67.0211 127.992 67.1944 127.924 67.6326 127.666C67.7609 127.327 67.9616 126.933 67.7177 126.584C67.1919 125.832 65.5309 125.134 64.6753 124.641C62.4166 123.338 60.2583 121.965 57.9312 120.747C56.1284 119.804 54.0879 119.044 52.3963 117.955C51.8777 117.621 51.5197 117.293 51.2939 116.751C51.3459 116.262 51.3699 116.031 51.8113 115.677C55.4701 112.74 67.3253 122.923 70.066 122.792C70.6118 122.766 70.7793 122.632 71.1267 122.284C71.0782 121.752 70.9911 121.556 70.5677 121.157C68.9308 119.614 62.4032 116.322 60.1001 115.222C58.6074 114.51 56.2462 113.722 55.0688 112.68C54.6388 112.3 54.6765 112.062 54.6929 111.57C55.0451 110.99 55.4841 110.719 56.076 110.354Z" fill="#FECFAA"/>
<path d="M99.9167 82.2153C101.284 82.7043 102.86 84.5114 103.898 85.4446C105.243 88.9997 105.482 96.8847 105.862 100.941C103.69 101.541 100.577 102.068 98.7359 103.19C98.2763 103.47 97.9652 103.803 97.8806 104.293C97.6548 105.599 101.97 109.642 102.947 110.903C99.4154 115.616 95.4941 120.116 91.6865 124.655C90.3524 126.279 89.0303 127.91 87.7202 129.55C86.8771 128.209 86.1669 126.855 85.4888 125.444L92.7073 106.444C95.5136 98.9797 99.2145 90.0169 99.9167 82.2153Z" fill="#778EEE"/>
<path d="M83.572 97.8564C84.7091 98.2339 89.8785 104.061 90.9925 105.232C90.0549 107.486 85.1855 121.296 84.3818 122.112L84.17 121.705C82.4155 117.685 80.0454 115.415 76.2518 112.846C75.9771 110.214 75.7627 107.578 75.6089 104.938C78.1729 102.515 80.9225 100.209 83.572 97.8564Z" fill="#FEFEFE"/>
<path d="M97.4595 76.7202C98.0631 78.1947 97.7503 80.6229 97.7509 82.1909C95.978 83.8687 94.3111 85.6308 92.5148 87.2918C89.7228 89.873 86.7658 92.3328 83.8688 94.8221L80.4724 91.3686C79.3053 90.1332 78.136 88.9072 77.0697 87.6012C76.8342 86.0851 76.8375 84.5448 76.7915 83.0172C78.3456 83.3807 79.8696 83.5348 81.4792 83.4982C87.8436 83.3533 93.1801 80.7515 97.4595 76.7202Z" fill="#FECFAA"/>
<path d="M73.3886 85.6421C73.8033 85.9577 73.3208 89.3454 73.2946 90.0629C73.0398 97.0068 73.1252 104.988 74.2111 111.85L72.1351 110.719L71.5773 108.406C70.6773 105.364 69.4485 98.165 68.0887 95.8348C67.7577 95.2679 67.2225 94.9098 66.666 94.527C68.4291 90.2494 69.0665 88.3767 73.3886 85.6421Z" fill="#778EEE"/>
<path d="M96.9693 85.9961C97.5752 87.5814 92.6957 100.49 91.8069 102.848L89.0127 100.043C87.7911 98.8092 86.5908 97.5599 85.4116 96.2946C89.369 92.9408 93.3164 89.6153 96.9693 85.9961Z" fill="#FEFEFE"/>
<path d="M75.4005 89.1484C76.8553 90.1516 80.569 94.582 82.3182 96.2319C81.1799 97.1652 80.0874 98.1473 78.9803 99.1101C77.8161 100.153 76.6442 101.189 75.4647 102.219C75.1661 97.903 75.2085 93.4681 75.4005 89.1484Z" fill="#FEFEFE"/>
<path d="M66.5009 89.3926C66.6215 90.1162 64.8198 93.4075 64.4233 94.2632C62.3353 94.2664 60.2451 94.2269 58.1572 94.2066L58.144 94.1158C58.7304 93.0044 65.009 90.09 66.5009 89.3926Z" fill="#778EEE"/>
<path d="M56.3442 49.9531C56.4723 50.013 56.5329 50.0338 56.6478 50.128C57.2545 50.6263 57.8101 58.4821 57.8718 59.758L57.6229 59.7931C57.0134 58.8004 56.5097 57.8131 56.1609 56.7229C55.4825 54.6042 55.0731 51.9579 56.3442 49.9531Z" fill="#FECFAA"/>
<path d="M76.2663 146.11C76.3078 146.095 76.3498 146.081 76.3924 146.068C76.4349 146.056 76.4777 146.044 76.5211 146.034C76.5646 146.024 76.6084 146.015 76.6523 146.007C76.6964 146 76.7407 145.993 76.7854 145.988C76.8298 145.983 76.8745 145.979 76.9193 145.977C76.9642 145.974 77.009 145.973 77.0538 145.974C77.0987 145.974 77.1435 145.975 77.1884 145.978C77.2332 145.981 77.2778 145.985 77.3223 145.991C77.3668 145.996 77.4109 146.003 77.4548 146.011C77.4989 146.019 77.5426 146.028 77.5857 146.039C77.6291 146.05 77.672 146.061 77.7144 146.075C77.7566 146.088 77.7984 146.102 77.8397 146.118C77.881 146.133 77.9217 146.15 77.9619 146.168C78.0019 146.186 78.0412 146.205 78.0799 146.225C78.1185 146.246 78.1562 146.267 78.1932 146.29C78.2305 146.312 78.2667 146.336 78.3018 146.36C78.3372 146.385 78.3715 146.41 78.4048 146.437C78.4381 146.464 78.4704 146.491 78.5016 146.52C78.5329 146.549 78.5631 146.578 78.5923 146.608C78.6213 146.639 78.6492 146.67 78.676 146.702C78.7028 146.734 78.7283 146.767 78.7525 146.8C78.7769 146.833 78.7999 146.868 78.8217 146.902C78.8435 146.937 78.8639 146.973 78.8831 147.008C78.9023 147.045 78.92 147.081 78.9364 147.118C78.9528 147.155 78.9678 147.193 78.9813 147.231C78.9949 147.268 79.007 147.307 79.0176 147.346C79.0284 147.384 79.0377 147.423 79.0455 147.462C79.0533 147.502 79.0596 147.541 79.0645 147.581C79.0693 147.62 79.0727 147.66 79.0745 147.699C79.0766 147.739 79.077 147.779 79.0759 147.819C79.0748 147.859 79.0722 147.898 79.0681 147.938C79.0642 147.978 79.0587 148.017 79.0516 148.056C79.0446 148.096 79.0361 148.135 79.0263 148.174C79.0164 148.212 79.0051 148.251 78.9922 148.289C78.9794 148.327 78.9652 148.365 78.9498 148.402C78.9342 148.44 78.9171 148.476 78.8987 148.513C78.8803 148.549 78.8606 148.585 78.8396 148.62C78.8185 148.655 78.7962 148.69 78.7726 148.723C78.7491 148.757 78.7243 148.79 78.6981 148.823C78.672 148.855 78.6448 148.887 78.6163 148.918C78.5878 148.948 78.5584 148.978 78.5279 149.007C78.4972 149.036 78.4653 149.065 78.4324 149.092C78.3997 149.119 78.3659 149.145 78.3311 149.17C78.2965 149.195 78.2609 149.22 78.2242 149.243C78.1878 149.266 78.1505 149.288 78.1123 149.309C78.074 149.33 78.035 149.35 77.9954 149.368C77.9558 149.387 77.9155 149.404 77.8746 149.421C77.8334 149.437 77.7919 149.452 77.7498 149.466C77.7189 149.476 77.6879 149.485 77.6566 149.494C77.6252 149.503 77.5935 149.511 77.5617 149.518C77.5301 149.526 77.4982 149.533 77.466 149.539C77.4338 149.545 77.4015 149.55 77.3689 149.555C77.3365 149.559 77.304 149.563 77.2712 149.567C77.2387 149.57 77.2059 149.573 77.173 149.574C77.1402 149.576 77.1074 149.577 77.0745 149.578C77.0416 149.578 77.0087 149.578 76.976 149.577C76.943 149.576 76.9102 149.574 76.8775 149.572C76.8447 149.57 76.8121 149.567 76.7795 149.563C76.7468 149.559 76.7142 149.555 76.6818 149.549C76.6497 149.544 76.6175 149.538 76.5853 149.532C76.5533 149.525 76.5215 149.518 76.4898 149.51C76.4582 149.502 76.4268 149.494 76.3955 149.484C76.3645 149.475 76.3336 149.465 76.3029 149.454C76.2724 149.444 76.242 149.432 76.2119 149.421C76.1819 149.409 76.1524 149.396 76.1232 149.383C76.0938 149.37 76.0647 149.356 76.0361 149.341C76.0076 149.327 75.9795 149.312 75.9518 149.296C75.9241 149.281 75.8967 149.265 75.8698 149.248C75.843 149.231 75.8166 149.213 75.7908 149.195C75.7649 149.178 75.7395 149.159 75.7146 149.14C75.6897 149.121 75.6653 149.101 75.6415 149.081C75.6177 149.061 75.5944 149.041 75.5717 149.019C75.549 148.998 75.5269 148.977 75.5053 148.955C75.4839 148.933 75.4631 148.91 75.4428 148.887C75.4225 148.864 75.4029 148.841 75.3839 148.817C75.3649 148.793 75.3466 148.769 75.3289 148.744C75.3113 148.72 75.2943 148.695 75.2779 148.67C75.2615 148.644 75.2459 148.619 75.231 148.593C75.2161 148.567 75.202 148.54 75.1886 148.514C75.175 148.487 75.1622 148.46 75.1503 148.433C75.1384 148.406 75.1272 148.379 75.1166 148.351C75.1062 148.323 75.0964 148.296 75.0873 148.268C75.0783 148.24 75.0702 148.211 75.0627 148.183C75.0553 148.155 75.0487 148.126 75.0429 148.097C75.0369 148.069 75.0318 148.04 75.0275 148.011C75.0233 147.982 75.0198 147.953 75.0172 147.924C75.0144 147.895 75.0125 147.866 75.0114 147.837C75.0103 147.808 75.01 147.779 75.0105 147.749C75.0109 147.72 75.0121 147.691 75.0142 147.662C75.0164 147.633 75.0193 147.604 75.0228 147.575C75.0265 147.546 75.031 147.517 75.0362 147.489C75.0414 147.46 75.0475 147.431 75.0543 147.403C75.0612 147.374 75.0689 147.346 75.0772 147.318C75.0854 147.289 75.0945 147.261 75.1046 147.234C75.1144 147.206 75.125 147.178 75.1364 147.151C75.1477 147.124 75.1599 147.097 75.1729 147.07C75.1858 147.043 75.1994 147.016 75.2137 146.99C75.228 146.964 75.2431 146.938 75.2589 146.913C75.2745 146.887 75.2909 146.862 75.308 146.837C75.3251 146.812 75.343 146.787 75.3616 146.763C75.38 146.739 75.3991 146.715 75.4188 146.692C75.4385 146.669 75.4589 146.646 75.4799 146.624C75.5009 146.601 75.5226 146.579 75.5449 146.558C75.5671 146.536 75.5899 146.515 75.6133 146.495C75.6366 146.474 75.6605 146.454 75.685 146.435C75.7094 146.415 75.7343 146.397 75.7598 146.378C75.7855 146.36 75.8115 146.342 75.8379 146.325C75.8644 146.307 75.8912 146.291 75.9186 146.274C75.9461 146.258 75.9739 146.243 76.002 146.228C76.0303 146.213 76.059 146.199 76.088 146.185C76.117 146.171 76.1464 146.158 76.1762 146.146C76.2059 146.133 76.236 146.122 76.2663 146.11Z" fill="#FEDD35"/>
<path d="M48.838 99.2777C48.8648 99.2691 48.8918 99.2611 48.9189 99.2535C48.9461 99.2461 48.9734 99.2392 49.001 99.2327C49.0285 99.2265 49.0562 99.2208 49.0841 99.2157C49.112 99.2104 49.14 99.2058 49.1681 99.2018C49.1962 99.1979 49.2244 99.1945 49.2527 99.1919C49.2811 99.1891 49.3095 99.187 49.3378 99.1855C49.3663 99.184 49.3947 99.1831 49.4232 99.1828C49.4516 99.1824 49.4801 99.1827 49.5086 99.1835C49.537 99.1845 49.5654 99.186 49.5937 99.1882C49.6222 99.1902 49.6505 99.1929 49.6788 99.1964C49.7069 99.1997 49.735 99.2035 49.7631 99.208C49.7912 99.2126 49.819 99.2177 49.8465 99.2233C49.8744 99.2291 49.9021 99.2354 49.9294 99.2424C49.9568 99.2493 49.9839 99.2567 50.0109 99.2646C50.0379 99.2727 50.0646 99.2813 50.091 99.2906C50.1176 99.2998 50.1439 99.3096 50.17 99.3198C50.1958 99.3302 50.2215 99.341 50.247 99.3524C50.2723 99.364 50.2973 99.3759 50.322 99.3883C50.3468 99.4008 50.3712 99.4138 50.3952 99.4274C50.4193 99.4409 50.4431 99.4549 50.4663 99.4694C50.4896 99.4841 50.5124 99.4992 50.5347 99.5147C50.5572 99.5302 50.5793 99.5462 50.6008 99.5626C50.6224 99.5791 50.6435 99.596 50.6642 99.6133C50.6848 99.6306 50.705 99.6484 50.7247 99.6668C50.7444 99.6849 50.7636 99.7035 50.7822 99.7226C50.801 99.7416 50.8191 99.761 50.8366 99.7808C50.8543 99.8007 50.8714 99.8209 50.888 99.8414C50.9045 99.862 50.9205 99.8829 50.936 99.9042C50.9512 99.9255 50.966 99.947 50.9804 99.9687C50.9945 99.9907 51.0081 100.013 51.0211 100.035C51.0341 100.058 51.0465 100.08 51.0582 100.103C51.0699 100.126 51.0811 100.15 51.0917 100.173C51.1023 100.196 51.1122 100.22 51.1213 100.244C51.1306 100.268 51.1391 100.292 51.147 100.316C51.155 100.34 51.1622 100.365 51.1687 100.389C51.1754 100.414 51.1814 100.439 51.1866 100.463C51.1918 100.488 51.1964 100.513 51.2003 100.538C51.2042 100.563 51.2074 100.588 51.21 100.613C51.2124 100.638 51.2143 100.664 51.2156 100.689C51.2167 100.714 51.2172 100.739 51.217 100.765C51.2168 100.79 51.2159 100.815 51.2142 100.84C51.2127 100.865 51.2105 100.89 51.2075 100.915C51.2045 100.941 51.2009 100.966 51.1966 100.991C51.1924 101.016 51.1873 101.04 51.1816 101.065C51.176 101.09 51.1697 101.114 51.1626 101.139C51.1557 101.163 51.1481 101.188 51.1397 101.212C51.1313 101.236 51.1223 101.26 51.1126 101.284C51.1031 101.307 51.0929 101.331 51.0819 101.354C51.0711 101.378 51.0596 101.401 51.0473 101.423C51.0352 101.446 51.0225 101.469 51.0091 101.491C50.9957 101.513 50.9818 101.535 50.9672 101.557C50.9525 101.579 50.9374 101.6 50.9218 101.621C50.9059 101.642 50.8897 101.663 50.8729 101.683C50.856 101.703 50.8386 101.723 50.8207 101.743C50.8027 101.763 50.7842 101.782 50.7652 101.801C50.7462 101.819 50.7267 101.838 50.7066 101.856C50.6867 101.874 50.6662 101.891 50.6452 101.908C50.6244 101.925 50.603 101.942 50.581 101.958C50.5593 101.974 50.537 101.99 50.5143 102.005C50.4916 102.021 50.4686 102.035 50.4451 102.05C50.4215 102.064 50.3976 102.078 50.3734 102.091C50.3492 102.104 50.3247 102.117 50.2997 102.129C50.2748 102.141 50.2495 102.153 50.2238 102.164C50.1983 102.175 50.1725 102.185 50.1462 102.195C50.1101 102.209 50.0735 102.222 50.0363 102.233C49.9993 102.245 49.9618 102.256 49.9238 102.265C49.8859 102.274 49.8476 102.283 49.8091 102.29C49.7706 102.297 49.7319 102.303 49.693 102.308C49.654 102.313 49.6148 102.317 49.5756 102.319C49.5363 102.322 49.497 102.323 49.4578 102.323C49.4183 102.324 49.379 102.323 49.3397 102.321C49.3003 102.319 49.2611 102.315 49.2223 102.311C49.1832 102.307 49.1443 102.301 49.1056 102.294C49.0669 102.288 49.0286 102.28 48.9906 102.271C48.9525 102.262 48.9148 102.252 48.8776 102.241C48.8402 102.229 48.8034 102.217 48.7671 102.204C48.7306 102.19 48.6948 102.176 48.6597 102.161C48.6243 102.145 48.5896 102.129 48.5556 102.111C48.5215 102.094 48.4882 102.075 48.4557 102.056C48.4229 102.036 48.391 102.016 48.3599 101.994C48.3289 101.973 48.2987 101.951 48.2693 101.927C48.2397 101.904 48.2111 101.88 48.1836 101.856C48.1559 101.831 48.1292 101.805 48.1035 101.779C48.0778 101.752 48.0532 101.725 48.0295 101.697C48.0059 101.669 47.9833 101.641 47.9617 101.611C47.9401 101.582 47.9198 101.552 47.9006 101.522C47.8813 101.492 47.8631 101.461 47.8462 101.429C47.8293 101.397 47.8136 101.365 47.799 101.333C47.7845 101.301 47.7712 101.268 47.7591 101.235C47.747 101.201 47.7362 101.168 47.7268 101.134C47.7171 101.1 47.7088 101.066 47.7019 101.032C47.6949 100.997 47.6892 100.963 47.6849 100.928C47.6804 100.894 47.6774 100.859 47.6757 100.824C47.6738 100.789 47.6734 100.754 47.6743 100.719C47.675 100.685 47.6772 100.65 47.6807 100.615C47.6841 100.58 47.6888 100.546 47.6949 100.511C47.7011 100.477 47.7084 100.442 47.717 100.408C47.7256 100.374 47.7355 100.341 47.7469 100.307C47.758 100.274 47.7704 100.241 47.784 100.208C47.7975 100.175 47.8124 100.143 47.8286 100.111C47.8448 100.079 47.8621 100.048 47.8805 100.017C47.8989 99.9861 47.9185 99.9559 47.9391 99.9262C47.96 99.8965 47.9818 99.8675 48.0047 99.8391C48.0276 99.8108 48.0515 99.7831 48.0764 99.756C48.1015 99.7292 48.1276 99.7029 48.1546 99.6774C48.1814 99.652 48.2092 99.6274 48.238 99.6037C48.2668 99.58 48.2965 99.557 48.327 99.5349C48.3575 99.5128 48.3889 99.4917 48.4211 99.4716C48.4532 99.4515 48.4861 99.4323 48.5196 99.414C48.5531 99.3957 48.5873 99.3785 48.6223 99.3623C48.6571 99.3462 48.6925 99.331 48.7286 99.3168C48.7645 99.3028 48.801 99.2898 48.838 99.2777Z" fill="#FEFEFE"/>
<path d="M56.3008 80.9673L57.2742 81.0588C57.6983 81.3358 57.9487 81.4664 58.0276 81.9753C58.2701 83.5381 56.8193 87.8251 55.8473 89.1713C55.4829 89.1975 55.1307 89.1409 54.771 89.0966C54.4272 88.8248 54.2352 88.7328 54.1336 88.3032C53.7605 86.7236 55.2897 82.3011 56.3008 80.9673Z" fill="#32271E"/>
<path d="M43.9151 80.9619C44.4202 80.9686 44.7592 80.9775 45.2122 81.186C46.2221 82.1683 46.4267 84.3279 46.6228 85.6404C46.8235 86.9841 47.2306 88.0651 46.2486 89.2055C45.8599 89.1674 45.5309 89.0358 45.1731 88.9055C44.2742 88.0631 44.0395 86.3942 43.8294 85.2835C43.5796 83.9634 42.9953 82.109 43.9151 80.9619Z" fill="#32271E"/>
<path d="M34.099 85.4209C34.3448 85.5037 34.5842 85.5878 34.8053 85.7169C35.991 86.4097 39.4243 89.9851 39.6925 91.1221C39.5452 91.7559 39.1053 92.0253 38.5838 92.4326C38.2503 92.2785 37.9369 92.1096 37.657 91.8855C36.3153 90.8122 33.1867 88.081 33.0645 86.4391C33.3483 85.8824 33.5336 85.7879 34.099 85.4209Z" fill="#32271E"/>
</svg>
