<svg width="164" height="164" viewBox="0 0 164 164" fill="none" xmlns="http://www.w3.org/2000/svg">
<path d="M52.3598 58.8496C52.144 54.6381 52.2318 50.3998 52.2361 46.184C52.239 43.8485 51.9849 40.0253 52.5423 37.8283C52.7945 36.8335 53.4516 35.9675 54.1227 35.2137C55.982 33.1254 56.9367 32.2867 59.8444 32.1375C63.7431 31.9375 67.6953 32.0409 71.6002 32.032C77.9854 31.9943 84.3709 31.9899 90.7565 32.0188L99.3777 32.0574C100.927 32.0657 102.687 31.951 104.213 32.1992C105.673 32.4368 107.192 33.2956 108.285 34.2727C109.832 35.6551 110.951 37.8698 111.047 39.9412C111.248 44.2851 111.12 48.6747 111.124 53.0229C111.127 55.8723 111.318 58.756 111.164 61.5997C111.203 61.582 111.243 61.5648 111.282 61.5472C112.113 61.1675 112.723 60.506 113.49 60.0341C114.737 59.2661 117.135 59.2976 118.486 59.7714C119.84 60.2471 121.012 61.3256 121.615 62.6261C122.384 64.2843 122.337 66.1709 121.708 67.8625C121.07 69.581 119.764 71.298 118.567 72.6821C117.958 73.3865 111.779 79.4593 111.743 79.5897C113.125 79.8017 114.657 77.3125 118.026 79.21C118.846 79.6718 119.576 80.2311 120.138 80.9919C121.073 82.2552 121.318 84.0195 121.069 85.5435C120.931 86.3941 120.65 87.2366 120.282 88.0151C119.878 88.8696 118.461 90.5216 118.609 91.3923C120.296 93.7727 122.073 94.1051 121.458 97.6585C120.966 100.507 119.048 103.101 116.712 104.732C114.88 106.012 113.419 106.157 111.231 106C111.147 107.53 111.149 109.061 111.237 110.592C113.395 109.697 115.346 108.704 117.684 109.669C119.281 110.328 120.166 111.857 122.143 111.04C124.138 110.216 125.221 109.631 127.419 110.523C128.878 111.115 129.866 112.676 131.311 113.1C132.225 113.368 133.323 112.524 134.255 112.441C139.27 111.991 142.8 117.428 144.457 121.465C146.885 127.381 148.913 136.146 149.981 142.5L151.058 148.922C151.389 150.904 151.631 152.778 152.338 154.675C153.429 157.6 155.635 159.93 157.066 162.662C157.268 163.049 157.449 163.383 157.297 163.812C156.972 164.011 156.699 164.011 156.336 163.925C155.951 163.835 155.421 163.751 155.14 163.46C154.272 163.85 153.086 163.782 152.144 163.804C148.813 163.884 145.469 163.8 142.138 163.794L123.881 163.796C122.578 163.798 115.593 164.021 114.941 163.833C114.868 163.812 114.754 163.749 114.693 163.718C114.141 163.967 112.984 163.901 112.388 163.831C110.265 163.581 108.123 161.419 106.466 160.141C102.86 157.359 98.9923 154 96.3693 150.248C94.3118 147.306 92.0455 142.531 90.4283 139.224C89.3174 136.953 88.4243 134.214 86.8625 132.228C85.702 132.099 84.4845 132.198 83.3173 132.23C82.0913 133.101 80.9761 134.372 79.8704 135.403C77.7799 137.351 75.4196 139.394 73.0277 140.96C72.0391 141.607 71.0337 142.255 69.9835 142.798C68.128 143.756 66.005 144.334 64.6706 146.044C63.0381 148.137 61.7233 150.579 60.4084 152.882C59.3462 154.742 58.2473 156.585 57.2233 158.467C56.3493 160.072 55.6013 161.856 54.5105 163.326C54.3271 163.573 54.1222 163.782 53.8299 163.894C53.2085 164.132 52.4616 163.93 51.8727 163.68C51.6568 163.789 51.4395 163.82 51.2002 163.831C49.1522 163.927 47.0426 163.806 44.9894 163.799L32.5926 163.794L18.2879 163.796C15.5237 163.798 12.7326 163.875 9.97185 163.754C9.58613 163.737 9.26991 163.739 8.96515 163.471C8.5387 163.882 8.2208 163.865 7.62699 163.861C7.16128 163.857 6.6843 163.858 6.2832 163.6C6.66615 163.236 6.87897 162.755 7.20154 162.341C8.47546 160.707 9.70926 159.06 10.9613 157.41C14.2024 153.141 17.3343 148.795 20.516 144.481C24.2648 139.4 28.3964 134.072 31.1406 128.358C32.2652 126.018 32.8763 123.694 32.947 121.09C33.0093 118.797 32.7588 116.498 32.6748 114.208C32.5722 111.41 32.6101 108.595 32.6079 105.795C32.6067 104.22 32.5181 102.558 32.7013 100.995C33.4028 95.013 35.5655 89.4623 37.539 83.8198C39.1872 79.1073 40.7453 74.252 41.7395 69.3536C42.2152 67.0091 43.0096 60.2314 44.4755 58.8874C45.4694 57.9761 46.7661 57.3681 48.1302 57.4393C49.6733 57.5195 50.8941 58.4991 52.3598 58.8496ZM100.18 129.298C100.736 129.154 101.362 129.044 101.855 128.745C102.038 128.152 101.756 127.295 101.565 126.724C100.641 123.967 99.2459 121.228 98.0681 118.564L91.4848 103.748C90.9317 102.514 90.2206 101.268 89.7855 99.993C84.5404 99.9075 79.2796 100.007 74.0321 100.014C71.6718 100.016 69.0722 100.234 66.7381 99.8822C65.5632 99.705 64.6214 99.4022 63.6729 98.6724C62.0958 97.4598 61.0055 95.7757 60.7729 93.7855C60.5317 91.7213 60.7318 89.4284 62.0872 87.7644C63.4914 86.0417 65.4644 85.1552 67.6446 84.9427C69.3979 84.7717 71.2372 84.904 72.9996 84.9083L82.8846 84.9121L91.6429 84.9011C93.4354 84.8925 95.3529 84.7464 97.1225 85.0072C98.5047 85.2106 99.8864 85.7909 100.955 86.6969C102.421 87.9392 103.522 90.1701 103.676 92.0795C103.834 94.0444 103.008 95.8192 101.755 97.273C102.216 98.7364 104.784 102.818 105.664 104.439C106.253 105.524 106.794 107.012 107.54 107.965C107.96 108.502 108.634 108.861 109.203 109.216C108.556 107.784 108.668 106.541 108.355 105.051C107.979 103.263 106.84 101.506 107.17 99.6109C107.575 97.2802 108.594 96.6287 108.419 93.7067C108.271 91.2332 106.601 90.2895 106.747 87.4028C106.786 86.6272 106.9 85.843 107.169 85.1113C107.519 84.1599 108.186 83.2004 108.293 82.1888C108.544 79.8213 108.358 77.2451 108.357 74.8537L108.349 60.5112L108.302 46.8971C108.311 44.0773 108.559 41.012 108.184 38.2218C107.109 36.8364 105.701 34.9794 103.834 34.7276C102.868 34.5974 101.822 34.6747 100.846 34.675C98.1149 34.676 94.1594 34.8944 91.5545 34.5538C91.311 36.2699 90.9294 37.7046 89.4808 38.7988C89.2014 39.0102 88.9277 39.1145 88.5814 39.1627C86.4494 39.4593 84.1588 39.2936 82.0043 39.2989C79.6493 39.3046 77.0874 39.5095 74.7653 39.1546C74.0245 39.0413 73.3468 38.3036 72.9289 37.7204C72.3997 36.9826 71.7688 34.7232 71.0743 34.6049C69.9099 34.4064 68.5168 34.6527 67.3223 34.6678C64.7642 34.7004 61.8962 34.3592 59.3888 34.8691C59.1655 34.9154 58.9455 34.974 58.7287 35.045C58.5119 35.1159 58.2998 35.1988 58.0925 35.2935C57.8853 35.3882 57.6837 35.4942 57.4879 35.6115C57.2924 35.7288 57.104 35.8566 56.9229 35.995C55.9667 36.7382 54.8076 38.532 54.6662 39.7545C54.532 40.916 54.6041 42.1463 54.6022 43.3155L54.586 49.6481L54.607 73.9076L54.5931 107.866L54.6137 118.255C54.6175 120.129 54.5172 122.056 54.6681 123.924C54.7665 125.142 55.1615 125.944 55.9333 126.892C57.0069 128.212 57.9626 128.928 59.6677 129.099C62.0562 129.339 64.5058 129.259 66.9044 129.258L77.7207 129.256C79.2127 129.258 80.7046 129.267 82.1963 129.284C83.0398 129.298 84.0041 129.43 84.827 129.289C84.9564 129.046 84.8757 128.841 84.7945 128.583C84.2567 126.874 83.4462 125.404 84.3193 123.63C84.9994 122.248 86.4466 121.239 87.8851 120.773C89.5882 120.221 91.2217 120.843 92.728 121.648C94.8844 122.801 96.6367 124.993 98.1188 126.891C98.7229 127.665 99.2898 128.505 100.024 129.161C100.056 129.19 100.088 129.22 100.12 129.248C100.14 129.265 100.16 129.282 100.18 129.298ZM105.526 137.263L105.767 137.186C105.792 136.988 103.863 131.808 103.65 131.523C103.491 131.311 103.383 131.223 103.114 131.184C102.87 131.149 102.609 131.179 102.363 131.194C102.09 131.394 101.971 131.483 101.891 131.836C101.672 132.814 102.882 134.462 103.437 135.198C104.069 136.037 104.658 136.663 105.526 137.263Z" fill="black"/>
<path d="M106.558 140.419C106.881 140.254 107.248 140.067 107.51 139.813C107.93 139.407 108.06 138.88 108.009 138.312C107.831 136.294 105.815 131.579 104.947 129.475C101.904 122.298 98.7915 115.152 95.6103 108.036C93.975 104.347 92.1061 100.641 90.7927 96.8261C90.3958 95.6736 90.0696 94.4987 90.0682 93.2693C90.0672 92.2879 90.2869 91.5266 90.999 90.8231C91.6022 90.227 92.3191 89.7351 93.2084 89.7709C94.2572 89.8134 95.126 90.5833 95.7708 91.3432C97.3836 93.2455 98.4927 95.7295 99.6972 97.9098C102.235 102.532 104.799 107.14 107.388 111.735C109.014 114.658 110.678 118.397 112.874 120.853C113.136 120.816 113.44 120.795 113.691 120.715C114.007 120.615 114.09 120.501 114.251 120.222C114.175 119.024 111.44 114.915 110.674 113.645C112.031 112.615 113.701 111.351 115.468 111.296C119.518 111.169 121.941 117.601 124.597 119.997C124.864 120.237 125.14 120.502 125.525 120.47C125.799 120.447 125.815 120.395 125.984 120.198C126.157 118.717 123.082 114.764 122.081 113.482C122.529 113.126 122.99 112.773 123.515 112.538C126.948 110.998 129.146 114.177 131.009 116.524C131.769 117.482 132.591 118.404 133.399 119.323C133.744 119.715 134.265 120.422 134.774 120.568C135.147 120.675 135.583 120.588 135.91 120.401C136.241 119.463 133.925 117 133.385 116.203C133.088 115.766 132.875 115.288 132.668 114.804C133.619 114.57 134.731 114.415 135.703 114.588C143.579 115.994 147.133 138.458 148.32 145.164C148.84 148.099 149.134 151.297 150.031 154.135C151.083 157.462 153.153 160.624 155.14 163.46C154.271 163.85 153.086 163.782 152.143 163.804C148.813 163.884 145.469 163.8 142.137 163.795L123.881 163.796C122.577 163.798 115.592 164.021 114.941 163.833C114.867 163.812 114.754 163.749 114.693 163.718C113.995 163.454 112.7 162.226 112.055 161.729C107.937 158.558 103.438 155.477 99.9942 151.553C95.3643 146.277 92.2804 137.851 89.0595 131.579C88.2155 129.935 86.893 128.464 86.2511 126.731C85.9493 125.915 85.977 125.22 86.0314 124.363C86.6509 123.732 87.3172 123.155 88.1682 122.869C93.6344 121.036 99.0963 133.076 101.862 136.527C103.173 138.163 104.66 139.491 106.558 140.419Z" fill="#FED1B1"/>
<path d="M8.96533 163.471C9.81203 162.569 10.5276 161.478 11.2694 160.484L15.1848 155.229C18.6484 150.589 22.0671 145.917 25.441 141.211C28.4415 136.989 31.8304 132.553 33.7007 127.692C34.9632 124.411 35.0466 121.5 34.9361 118.038C34.7455 112.063 34.1571 105.771 35.0286 99.8308C35.8175 94.4539 37.931 89.2962 39.6933 84.183C41.0296 80.2892 42.2216 76.3517 43.2693 72.3704C43.8376 70.266 44.2044 68.0819 44.5502 65.9318C44.7398 64.753 44.8487 63.4649 45.1969 62.3263C45.4089 61.6333 45.7466 60.9718 46.2452 60.4403C46.7118 59.9435 47.3289 59.583 48.0248 59.5787C49.0989 59.572 50.0245 60.3896 50.7161 61.1271C51.2754 61.7226 51.9526 62.5221 52.1317 63.3446C52.4493 64.8017 52.2301 66.7308 52.2253 68.2319C52.2143 71.7466 52.242 75.2776 52.1011 78.7899C52.009 81.0957 51.2983 83.2431 50.8078 85.4787C50.1912 88.289 49.7633 92.7536 50.4281 95.508C50.7366 96.7846 51.4134 98.1405 52.2057 99.1927L52.2124 115.981C52.2129 118.67 51.9378 123.305 52.5434 125.779C52.8715 127.119 53.7537 128.458 54.717 129.427C55.7386 130.455 57.0281 131.264 58.4294 131.655C60.8471 132.329 63.8063 132.072 66.3018 132.07L74.4378 132.052C76.404 132.046 78.3698 132.019 80.3353 131.971C78.2162 134.617 72.8856 138.68 69.9488 140.358C67.8335 141.567 65.2706 142.2 63.6 144.07C62.0678 145.785 60.9025 147.948 59.7371 149.924C57.8308 153.18 55.9709 156.462 54.1572 159.77C53.6304 160.714 52.5797 163.035 51.8729 163.68C51.657 163.789 51.4397 163.82 51.2004 163.831C49.1524 163.927 47.0428 163.807 44.9896 163.799L32.5928 163.794L18.2881 163.797C15.5239 163.798 12.7328 163.875 9.97203 163.754C9.58631 163.737 9.27009 163.739 8.96533 163.471Z" fill="#FED1B1"/>
<path d="M67.6799 64.4482C67.71 64.4429 67.7401 64.4362 67.7707 64.4324C68.9413 64.2767 70.3197 64.4142 71.5151 64.4147L79.803 64.4171L90.8113 64.4123C93.144 64.4047 95.6528 64.2132 97.9606 64.579C98.8427 64.719 99.6819 65.2429 100.379 65.7783C102.169 67.1524 103.344 68.9515 103.628 71.2168C103.869 73.1377 103.117 75.1866 101.927 76.6815C100.797 78.1 98.7267 79.2807 96.9237 79.4841C94.7072 79.6179 92.4524 79.5481 90.232 79.5491L79.0952 79.5486L72.0901 79.5539C70.3316 79.5577 68.5148 79.6537 66.7734 79.3853C65.6463 79.2119 64.6653 78.7424 63.7621 78.0485C62.1793 76.8325 61.0608 75.2043 60.8029 73.2036C60.5397 71.1633 60.7456 69.0403 62.0485 67.3783C63.5439 65.4698 65.3244 64.717 67.6799 64.4482Z" fill="#778EEE"/>
<path d="M68.4611 43.7991C70.0902 43.7102 71.7805 43.8234 73.4163 43.8273L84.2154 43.8349L92.5186 43.8301C94.1214 43.8301 95.8236 43.7122 97.4074 43.9414C98.5923 44.1129 99.7658 44.5733 100.699 45.3308C102.357 46.6767 103.469 48.7213 103.653 50.8538C103.824 52.8492 103.12 54.6297 101.841 56.1299C100.304 57.9343 98.6114 58.5877 96.3151 58.7706C90.0274 58.9277 83.7163 58.8475 77.4267 58.826C74.2339 58.815 70.415 59.0118 67.3063 58.7453C66.5125 58.6774 65.7798 58.506 65.0548 58.1726C63.2103 57.3234 61.7918 55.8452 61.1103 53.9219C60.4894 52.1677 60.4971 49.7486 61.3276 48.0612C62.2183 46.2516 63.9607 44.7591 65.8587 44.1024C66.6897 43.8148 67.5905 43.832 68.4611 43.7991Z" fill="#87DEC5"/>
<path d="M89.7854 99.9934C84.5403 99.9079 79.2795 100.008 74.032 100.014C71.6717 100.017 69.0721 100.235 66.738 99.8826C65.5631 99.7054 64.6213 99.4026 63.6728 98.6728C62.0957 97.4602 61.0054 95.7762 60.7728 93.786C60.5316 91.7218 60.7317 89.4288 62.0871 87.7648C63.4913 86.0421 65.4643 85.1556 67.6445 84.9431C69.3978 84.7721 71.2371 84.9044 72.9995 84.9087L82.8845 84.9125L91.6428 84.9016C93.4353 84.893 95.3528 84.7468 97.1224 85.0076C98.5046 85.2111 99.8863 85.7913 100.955 86.6974C102.42 87.9396 103.522 90.1705 103.676 92.08C103.834 94.0448 103.008 95.8196 101.755 97.2735C100.067 94.3983 97.6196 88.7262 94.2171 87.8116C93.0154 87.4888 91.7646 87.7543 90.7043 88.3737C89.5428 89.052 88.5202 90.1547 88.1854 91.4825C87.4461 94.4116 88.6936 97.3427 89.7854 99.9934Z" fill="#778EEE"/>
<path d="M115.524 61.6716C115.793 61.6506 116.063 61.6356 116.333 61.6267C117.282 61.5957 118.028 61.8297 118.719 62.4864C119.466 63.1976 119.963 64.0104 119.986 65.0688C120.062 68.4894 115.315 72.9197 113.086 75.281C112.404 76.0471 111.731 76.7845 110.96 77.4632C111.706 73.2177 110.619 68.6705 111.236 64.4097C112.627 63.3609 113.918 62.3809 115.524 61.6716Z" fill="#FED1B1"/>
<path d="M115.009 80.5453C115.976 80.509 116.68 80.6351 117.493 81.1877C118.369 81.7837 118.887 82.7514 119.082 83.7777C119.371 85.3099 118.752 86.8497 117.875 88.0848C116.64 89.8247 114.978 90.9509 112.877 91.311C111.861 91.4199 110.915 91.3172 110.052 90.724C109.299 90.2058 108.893 89.403 108.727 88.5232C108.443 87.0178 109.088 85.4489 109.928 84.2272C111.09 82.5384 112.949 80.9336 115.009 80.5453Z" fill="#FED1B1"/>
<path d="M115.885 93.0908C116.265 93.0607 116.699 93.0488 117.061 93.182C118.299 93.6377 119.042 94.9721 119.544 96.1059C119.419 97.3974 119.122 98.6506 118.481 99.7887C118.334 100.049 118.174 100.302 118.002 100.546C117.83 100.791 117.646 101.027 117.451 101.254C117.256 101.48 117.05 101.697 116.834 101.903C116.617 102.109 116.391 102.305 116.156 102.489C115.92 102.673 115.675 102.845 115.423 103.005C115.17 103.166 114.91 103.313 114.643 103.448C114.376 103.582 114.103 103.704 113.824 103.811C113.545 103.919 113.261 104.013 112.973 104.092C112.056 104.11 111.298 103.975 110.515 103.47C109.827 103.027 109.42 102.321 109.26 101.534C108.93 99.921 109.656 98.2265 110.552 96.9174C111.829 95.0504 113.619 93.5015 115.885 93.0908Z" fill="#FED1B1"/>
</svg>
