<svg width="164" height="164" viewBox="0 0 164 164" fill="none" xmlns="http://www.w3.org/2000/svg">
<g clip-path="url(#clip0_2274_5844)">
<path d="M105.433 39.3787C104.052 37.9851 103.229 36.3441 103.249 34.3466C103.267 32.4937 103.915 30.591 105.266 29.2868C107.37 27.2546 109.997 27.5165 112.596 26.7471C116.813 25.499 119.652 23.8682 124.267 24.0085C129.205 24.1587 134.266 26.3534 137.659 29.9629C138.633 30.9994 139.233 32.221 140.052 33.3573C140.672 34.2177 141.462 34.9514 142.094 35.8059C144.063 38.4693 144.826 41.7334 144.705 45.0036C144.605 47.6673 144.007 50.3532 142.74 52.714C142.214 53.6916 141.512 54.6172 141.067 55.6303C140.218 57.5626 140.04 59.4928 138.377 61.018C137.428 61.8898 136.248 62.334 134.976 62.4539C135.194 64.813 135.56 67.1511 136.44 69.3667C141.392 70.9401 151.984 75.2374 155.768 78.4401C156.959 79.4481 157.84 80.6921 158.56 82.0687C162.586 89.768 158.558 109.347 157.185 118.109C158.021 118.115 161.332 117.99 161.847 118.094C162.099 118.144 162.405 118.278 162.586 118.465C162.764 118.648 162.791 118.768 162.781 119.014C162.435 119.402 161.809 119.43 161.314 119.454C159.843 119.526 158.361 119.378 156.89 119.472C156.29 121.985 155.407 124.066 153.115 125.484C148.56 128.302 134.055 130.914 128.453 131.304C127.707 130.951 127.003 130.562 126.293 130.143C125.527 130.992 124.689 131.545 123.619 131.949C121.353 132.804 118.972 132.663 116.678 133.266C114.217 133.914 111.872 135.483 109.289 135.624C108.814 135.65 108.28 135.618 107.928 135.258C107.593 134.915 107.573 134.375 107.09 134.224C106.449 134.363 105.726 134.632 105.134 134.225C104.642 133.886 104.465 133.251 104.012 132.921C103.473 132.529 102.79 132.703 102.358 132.065C101.976 131.501 102.24 130.542 101.556 130.23C100.154 130.625 95.3673 134.733 93.5161 135.815L85.6756 134.556C84.3377 134.337 82.8608 134.219 81.5682 133.84C80.8073 134.912 78.001 139.415 76.8864 139.632C75.3561 139.931 72.4636 138.911 70.81 138.677C67.95 138.253 65.08 137.914 62.2 137.659C60.3322 137.507 58.382 137.389 56.509 137.524C54.9949 137.633 53.4202 138.06 51.9044 137.921C50.7522 137.816 49.7246 137.146 48.6155 136.867C46.3892 136.307 43.9534 136.147 41.6647 136.067C38.9612 135.963 36.2572 135.949 33.5528 136.028C32.3208 136.054 29.6205 136.342 28.5434 136.096C28.4121 136.066 28.3119 136.015 28.1944 135.951C27.792 135.508 27.7488 134.998 27.7786 134.419C27.8042 133.921 27.8538 133.413 27.9584 132.925C29.8374 131.401 32.0025 130.169 34.0065 128.813C36.4022 127.17 38.8216 125.563 41.2645 123.991C42.4389 123.227 43.6039 122.406 44.8214 121.715C45.2404 121.478 45.6659 121.259 46.137 121.147C48.1329 120.674 56.3451 121.17 58.6892 121.416C60.0949 121.562 61.475 121.739 62.8645 122C63.8537 122.186 64.877 122.477 65.8773 122.567C66.9241 122.663 68.0088 122.379 69.0612 122.364C71.1766 122.334 77.2683 122.93 79.0273 123.538C80.7659 122.564 82.2565 121.225 84.0377 120.301C83.7919 120.017 83.5538 119.707 83.2649 119.465L51.2711 119.42C45.6731 119.42 39.9164 119.579 34.3409 119.425C33.3553 121.067 33.1237 121.621 31.1612 122.116C26.6019 123.222 21.9939 124.06 17.3373 124.631C15.9604 124.788 14.5659 124.992 13.1783 124.992C11.0831 124.991 8.57648 124.753 6.76013 123.665C5.1033 122.673 4.36329 121.203 3.80199 119.411C0.883758 119.544 -2.07678 119.421 -5 119.419V118.139C-2.12788 118.138 0.750913 118.173 3.61833 117.985C3.47784 111.622 4.85195 105.127 5.96306 98.8786C6.81919 94.0649 7.54884 89.0963 9.179 84.4739C9.87279 82.5066 10.7474 80.541 12.2104 79.0201C15.2162 75.8955 25.0773 72.304 29.2904 70.2458C30.377 69.715 31.3123 68.8956 32.3636 68.3042C32.7943 68.0618 33.4785 68.1245 33.8485 67.8761C34.1553 67.6704 34.4716 66.5626 34.6105 66.1926C34.0102 65.1437 33.5598 64.2552 33.2961 63.0603C31.744 63.0795 30.5246 62.7535 29.3932 61.6376C27.6481 59.9161 27.4907 57.8515 26.6984 55.6935C26.3248 54.6761 25.7563 53.733 25.3306 52.7362C24.2615 50.2337 23.7323 47.3613 23.7324 44.643C23.7326 39.4418 26.0309 34.1796 29.7164 30.5284C33.5949 26.6861 39.1333 24.0629 44.6379 24.1308C47.4689 24.1658 50.3921 24.8211 52.8616 26.2273C53.7987 26.7608 54.7017 27.4648 55.679 27.9087C56.4522 28.2598 57.3317 28.4011 58.1379 28.6651C60.1286 29.3169 61.8953 30.7233 63.3343 32.2143C66.0458 35.0237 67.8569 38.567 67.7494 42.5383C67.6568 45.9539 66.2195 49.3943 63.7188 51.7478C63.6337 51.8286 63.5467 51.9071 63.4576 51.9834C63.3023 54.0074 63.0608 56.0421 62.8209 58.0576C62.2295 63.0296 61.4801 68.4646 57.4299 71.9276C57.1047 72.2063 56.7595 72.4704 56.4096 72.7171C58.9739 74.0972 65.695 77.6827 67.3465 79.58C68.3473 80.7301 68.9584 82.1912 69.3898 83.6379C70.8646 88.5825 71.2273 95.1113 71.751 100.327L73.6581 118C76.5621 117.997 79.469 117.964 82.3726 117.993C81.9813 116.381 82.1182 114.361 82.6973 112.805C82.9056 112.245 83.2218 111.721 83.4143 111.163C83.6217 110.561 83.6823 109.887 84.0211 109.34C85.0931 107.611 87.2823 106.558 89.2111 106.156C89.1787 104.863 88.6815 100.764 89.5675 99.8678C89.9174 99.5144 90.4662 99.432 90.9403 99.4645C91.3709 99.4939 91.7763 99.6318 92.069 99.9608C93.4419 101.505 91.6094 106.533 93.5118 107.18C94.7447 107.148 95.978 106.405 97.1951 106.162L99.9608 96.2648C101.33 91.3662 103.284 83.1548 106.376 79.2808C107.564 77.7906 109.373 76.7336 111.021 75.8131C112.354 75.068 113.867 74.168 115.341 73.7554C111.64 72.3902 109.107 70.5872 107.414 66.8938C105.962 63.7278 105.589 60.1628 105.325 56.7309C103.932 55.6005 103.427 53.9468 103.242 52.2061C103.149 51.333 103.182 50.328 103.786 49.6269C104.103 49.2582 104.52 49.1357 104.975 49.0197C104.579 45.8673 104.572 42.4521 105.433 39.3787Z" fill="#26201C"/>
<path d="M137.255 71.2988C140.232 71.7947 151.453 77.0782 154.028 78.9047C156.798 80.869 158.087 83.6876 158.616 86.9889C158.985 89.2877 158.97 91.7731 158.859 94.095C158.558 100.394 157.574 106.724 156.564 112.945C156.162 115.424 155.889 118.056 155.158 120.457C155.024 120.912 154.851 121.352 154.64 121.777C154.429 122.201 154.182 122.605 153.901 122.986C151.066 126.823 135.017 129.021 129.934 129.789C130.272 127.125 129.911 123.995 128.608 121.612C127.911 120.338 126.974 119.722 125.607 119.31C127.127 118.889 128.609 118.296 130.115 117.822C132.666 117.019 135.246 116.286 137.808 115.515C140.082 114.831 143.28 113.568 145.642 113.77C147.133 113.898 147.292 114.54 148.469 114.942C148.702 114.889 148.766 114.89 148.92 114.691C149.061 114.509 149.158 114.221 149.123 113.99C149.087 113.751 148.939 113.571 148.753 113.428C147.109 112.159 144.766 112.359 142.854 112.592C143.453 106.101 143.614 96.6422 145.796 90.6401C146.382 89.0266 147.267 87.684 148.004 86.1576C148.134 85.8892 148.216 85.7291 148.149 85.4321C147.991 85.1889 147.96 85.1539 147.701 85.025C147.392 85.06 147.237 85.1343 147.017 85.3583C145.487 86.9227 144.403 90.2018 143.871 92.3074C142.627 97.2273 142.199 102.649 141.846 107.714C141.724 109.463 141.553 111.23 141.564 112.983L139.055 113.689C136.185 114.528 133.321 115.387 130.463 116.266C128.626 116.846 126.706 117.662 124.805 117.938C123.516 118.126 122.125 118.047 120.823 118.051C118.63 118.073 116.437 118.062 114.245 118.018C113.932 115.826 113.177 113.618 112.693 111.451C111.591 106.647 110.678 101.807 109.954 96.932C109.831 96.0747 109.153 90.239 108.902 89.924C108.755 89.7409 108.602 89.7576 108.39 89.7256C108.179 89.8216 108.088 89.8417 107.974 90.0572C107.201 91.5205 111.148 111.205 111.789 113.572C110.625 115.055 109.421 116.522 108.328 118.058C105.543 118.158 102.75 118.035 99.9647 118.083C100.33 116.595 100.369 115.204 99.9954 113.715C99.3549 111.166 98.3576 109.282 96.0732 107.93C101.399 106.365 104.356 110.007 106.138 109.823C106.401 109.635 106.396 109.607 106.49 109.314C106.468 109.164 106.447 109.046 106.361 108.917C105.326 107.367 100.498 106.32 98.7101 106.001C99.404 103.956 99.919 101.842 100.487 99.7592C101.389 96.3609 102.353 92.9802 103.379 89.6172C104.172 87.0491 105.019 84.437 106.263 82.0459C106.752 81.1079 107.308 80.2668 108.074 79.5328C110.364 77.3398 115.545 74.8459 118.533 73.905C119.622 75.2057 119.886 76.5525 120.195 78.1754C120.782 78.8163 121.435 79.3399 122.218 79.724C124.113 80.6543 126.262 80.5536 128.221 79.8789C131.983 78.5833 135.503 74.8382 137.255 71.2988Z" fill="#525252"/>
<path d="M28.054 72.334C28.62 73.3552 26.0441 81.619 26.7578 82.9377C27.2308 83.8112 30.7073 84.8798 31.6525 85.2109C30.534 86.253 29.1779 87.3101 28.3777 88.6185C29.1518 90.3668 30.3661 92.0597 31.3517 93.7061C33.0771 96.5888 34.7513 99.5017 36.4961 102.372C35.0089 103.854 33.8698 105.85 32.7212 107.6C32.2021 107.798 31.899 107.966 31.3441 107.796C30.9059 107.661 30.4563 107.514 29.9939 107.515C29.0432 107.518 27.9892 107.775 27.0416 107.895C24.9562 108.158 22.869 108.405 20.7799 108.635C21.0499 107.257 21.2211 105.879 21.4642 104.501C21.7043 103.14 22.5427 100.464 22.3116 99.1898C22.252 98.8612 22.1322 98.7306 21.8673 98.5411C21.5915 98.5407 21.5537 98.533 21.3261 98.6828C20.693 99.7513 19.7442 106.886 19.3868 108.796C18.0775 108.87 14.5765 109.193 13.5151 109.761C13.294 109.88 13.306 109.927 13.242 110.157C13.2973 110.333 13.3491 110.52 13.4915 110.649C13.6674 110.808 13.8893 110.845 14.1162 110.837C15.4134 110.789 16.7662 110.488 18.0588 110.334C21.1749 109.964 24.2852 109.612 27.3937 109.176L29.7913 108.864C29.1167 112.879 29.0058 117.06 30.8584 120.802C24.8399 121.659 14.6697 125.01 8.91034 123.035C7.47201 122.542 6.41625 121.925 5.73325 120.521C5.05485 119.127 4.98811 117.577 5.00834 116.055C5.038 113.826 5.37389 111.604 5.68178 109.399C6.17805 105.772 6.7737 102.16 7.46872 98.5654C8.2943 94.0834 8.95498 89.4353 10.4712 85.126C11.0588 83.4562 11.8133 81.5994 12.9978 80.2697C15.496 77.466 24.285 74.1434 28.054 72.334Z" fill="#778EEE"/>
<path d="M16.8131 81.3585C17.1935 81.3496 17.4396 81.4383 17.7265 81.6846C20.3132 83.9083 22.6886 91.6366 22.9495 94.8782C22.9909 95.3924 22.9137 95.5311 22.5977 95.904L22.1139 95.7637C21.5165 95.2831 21.1698 92.8533 20.9719 92.0604C20.3439 89.5443 19.5435 87.0897 18.2031 84.8561C17.6718 83.971 16.773 83.0523 16.4053 82.1181C16.4183 81.7874 16.6116 81.606 16.8131 81.3585Z" fill="#26201C"/>
<path d="M48.5539 38.7852C51.1796 41.4403 49.9045 47.6153 50.6184 48.4014C50.8984 48.4671 51.0712 48.4722 51.3298 48.3241C54.3482 46.6005 55.6975 43.5617 56.6368 40.3889C57.3187 41.1468 57.9268 41.9964 58.479 42.8524C59.9283 45.1009 61.7978 48.957 61.9101 51.6229C61.9775 53.2274 61.6229 54.9041 61.4551 56.4984C61.2204 58.7247 60.9759 60.9818 60.5005 63.1705C59.79 66.4415 58.3186 69.7091 55.3975 71.5594C55.2294 71.6638 55.0587 71.7641 54.8854 71.8603C54.7125 71.9564 54.5372 72.0483 54.3597 72.136C54.1825 72.2236 54.0031 72.3069 53.8216 72.386C53.6401 72.4651 53.4567 72.5398 53.2715 72.6101C53.0866 72.6803 52.9 72.7461 52.7116 72.8072C52.5233 72.8684 52.3337 72.9251 52.1428 72.9775C51.9519 73.0296 51.7598 73.0771 51.5667 73.12C51.3732 73.1627 51.179 73.2008 50.9842 73.2344C50.789 73.268 50.5931 73.2968 50.3965 73.321C50.2 73.3449 50.0031 73.3643 49.8059 73.3791C49.6085 73.3936 49.4108 73.4034 49.2128 73.4085C49.0147 73.4136 48.8169 73.414 48.6192 73.4098C48.4211 73.4052 48.2234 73.396 48.026 73.382C47.8285 73.3681 47.6315 73.3495 47.4349 73.3261C47.2384 73.3025 47.0425 73.2744 46.8473 73.2416C46.6522 73.2086 46.4578 73.1711 46.2644 73.129C45.7587 73.0112 45.2611 72.8776 44.7699 72.7086C40.5763 71.2671 37.2176 68.3985 35.2516 64.4076C34.8982 63.6903 34.9985 62.6623 34.596 62.0179C34.2516 61.4665 32.4661 61.6116 31.8378 61.461C30.8366 61.2216 30.0463 60.2298 29.5435 59.3836C28.7096 57.9805 27.9793 55.8075 28.4126 54.1735C28.6041 53.4519 28.973 52.4354 29.6741 52.0756C30.0827 51.8657 30.518 51.9318 30.9383 52.0722C33.0162 52.7678 33.95 55.3022 35.4616 55.6146C35.7058 55.665 35.9609 55.633 36.1519 55.4601C36.6751 54.986 36.6005 52.7682 36.6562 52.0189C43.4492 46.7311 45.186 47.9145 48.5539 38.7852Z" fill="#FED0B4"/>
<path d="M45.5682 64.2778C47.6426 65.2696 49.8766 66.2498 52.2194 65.5542C52.8523 65.3665 53.5095 64.897 54.1641 64.8505C54.4914 64.827 54.6544 64.8795 54.9023 65.0793C54.9352 65.1885 54.971 65.2952 54.9728 65.4108C54.9783 65.7663 54.7628 65.9822 54.5242 66.2127C53.5351 66.7307 52.487 67.0192 51.3774 67.14C49.6811 67.3243 46.8045 67.0777 45.4598 65.9097C45.2336 65.7138 45.0706 65.474 45.0565 65.168C45.0382 64.7729 45.3122 64.5411 45.5682 64.2778Z" fill="#26201C"/>
<path d="M53.0715 58.3203C53.3783 58.4786 53.5755 58.6651 53.7794 58.9455C54.2006 59.5233 54.7349 60.5957 54.5843 61.3246C54.4392 62.0266 53.208 62.6756 52.6345 63.0614C52.5342 63.0725 52.5043 63.0811 52.3917 63.0631C52.0763 63.0123 51.9176 62.9125 51.7251 62.6739C51.717 62.5553 51.7025 62.4281 51.7323 62.3108C51.8975 61.6638 52.5363 61.3259 53.0625 61.0169C52.8312 60.4762 52.1975 59.5634 52.3763 58.9749C52.4774 58.6438 52.7954 58.494 53.0715 58.3203Z" fill="#26201C"/>
<path d="M44.5242 48.6747C45.0845 48.6264 45.6944 48.6218 46.2534 48.6824C46.7535 48.737 47.1611 48.842 47.4867 49.2405C47.5818 49.5141 47.5639 49.6272 47.4965 49.9092C47.0676 50.3782 45.5331 50.0189 44.8503 50.1141L44.7274 50.1324C44.0296 50.2101 43.3481 50.5045 42.6487 50.5408C42.3338 50.557 42.1178 50.508 41.8853 50.3061C41.8972 50.1909 41.8878 50.0782 41.9497 49.9784C42.539 49.0323 43.5278 48.9 44.5242 48.6747Z" fill="#26201C"/>
<path d="M44.702 54.5229C44.8821 54.5002 45.069 54.4742 45.2512 54.4798C45.5914 54.4896 45.9464 54.6936 46.1623 54.95C46.4521 55.2948 46.5251 55.7429 46.4768 56.1803C46.3966 56.9113 46.0505 57.3709 45.5133 57.8293C45.3187 57.8869 45.0801 57.9389 44.8766 57.9257C44.5539 57.9044 44.2326 57.6837 44.0483 57.4273C43.7512 57.0146 43.7205 56.4441 43.7952 55.9584C43.8968 55.2978 44.1801 54.9185 44.702 54.5229Z" fill="#26201C"/>
<path d="M57.6124 48.7695C58.0344 48.7443 58.4356 48.7345 58.8546 48.8024C59.5046 48.9082 60.2458 49.1574 60.6179 49.7416C60.7792 49.9951 60.7967 50.1901 60.7451 50.4782C60.5816 50.6702 60.5373 50.7509 60.2829 50.8149C59.8993 50.9113 59.5767 50.7176 59.2511 50.5383C58.2329 50.1914 57.4344 50.4479 56.4102 50.4457C56.0817 50.4449 56.0112 50.4735 55.7714 50.2358C55.7202 50.0262 55.6703 49.9456 55.7693 49.7429C56.0458 49.1753 57.0585 48.9321 57.6124 48.7695Z" fill="#26201C"/>
<path d="M57.1222 54.271C57.2703 54.271 57.4244 54.271 57.5707 54.2992C57.916 54.3657 58.2407 54.5906 58.4293 54.8859C58.6969 55.305 58.7101 55.8068 58.603 56.2792C58.4622 56.8997 58.1579 57.2667 57.6352 57.6081C57.4239 57.6218 57.1935 57.6461 56.9835 57.6141C56.7258 57.5753 56.477 57.3534 56.3311 57.149C56.002 56.6876 55.9922 56.1103 56.1164 55.5768C56.2709 54.9137 56.5641 54.6192 57.1222 54.271Z" fill="#26201C"/>
<path d="M43.6083 25.6505C46.6458 25.4073 50.0491 26.3001 52.6484 27.8523C53.373 28.2852 53.9726 28.9476 54.7578 29.2802C56.6542 30.0835 58.5793 30.2557 60.3054 31.5524C63.1147 33.6626 65.6056 37.0782 66.1027 40.6118C66.6208 44.292 65.3935 47.1115 63.2295 49.9822C62.6448 47.5566 61.5852 45.0597 60.3673 42.8842C59.5859 41.4883 57.3579 38.1262 55.8251 37.6953C55.3586 37.784 55.3544 38.029 55.284 38.4499C54.704 41.9206 54.1569 43.4923 51.8841 46.2644C51.6703 42.7289 51.261 39.8236 48.9511 36.9626C48.7087 36.7197 48.5094 36.5705 48.1932 36.4346C47.6837 36.4851 47.6141 36.8114 47.4485 37.2423C46.0288 40.9357 45.4599 43.6545 42.2832 46.4347C42.0195 46.0848 41.7925 45.7387 41.4105 45.5091C40.9484 45.5607 40.3795 46.579 40.0923 46.9737C39.2751 48.0969 38.4174 49.0366 37.2201 49.7582C36.676 50.0863 36.059 50.394 35.5794 50.8097C34.9407 51.3636 35.0349 52.7168 35.0085 53.5058C34.4077 52.6148 33.6294 51.7669 32.696 51.2193C31.113 50.2908 29.2124 50.2673 27.8799 51.6423C27.58 51.9516 27.3561 52.6238 26.941 52.7287C25.9166 50.5818 25.3975 47.9377 25.2716 45.5727C25.021 40.8683 26.8296 35.9534 29.9911 32.4702C33.4266 28.6851 38.4656 25.9005 43.6083 25.6505Z" fill="#483730"/>
<path d="M136.392 51.0112C136.791 51.042 137.204 51.1017 137.575 51.2558C138.402 51.5984 139.022 52.294 139.333 53.1249C139.897 54.6309 139.421 56.4838 138.762 57.8826C138.118 59.2486 136.981 60.6974 135.371 60.8707C134.851 60.9266 134.374 60.732 133.864 60.9181C133.609 61.1536 133.546 61.3529 133.498 61.6952C133.179 63.9774 134.381 69.1964 135.741 70.9841C135.277 71.7484 134.797 72.4943 134.266 73.2138C132.341 75.8152 129.298 78.5541 126.001 79.0171C124.294 79.2569 122.839 78.6932 121.487 77.6818C121.282 76.1481 120.995 75.1055 120.262 73.7267C122.432 73.3316 124.649 72.4691 126.478 71.232C127.2 70.7434 129.268 69.4376 129.372 68.5772C129.41 68.2632 129.292 68.1001 129.095 67.8753C128.842 67.8074 128.812 67.7656 128.578 67.9026C127.779 68.3707 127.041 69.0748 126.296 69.6326C125.182 70.4669 123.947 71.0656 122.668 71.5964C121.672 71.9754 120.602 72.2242 119.546 72.3522C116.819 72.6821 114.101 72.0855 111.926 70.3614C107.911 67.1805 107.455 62.2661 106.902 57.5754C107.619 57.8225 108.391 58.003 109.152 57.9983C109.292 57.9986 109.431 57.9919 109.57 57.9782C109.71 57.9643 109.848 57.9434 109.985 57.9155C110.122 57.8873 110.258 57.8523 110.391 57.8105C110.524 57.7687 110.655 57.7202 110.784 57.665C110.913 57.6098 111.038 57.5482 111.16 57.4802C111.283 57.4119 111.401 57.3378 111.516 57.2579C111.631 57.1777 111.741 57.0917 111.847 57.0001C111.952 56.9088 112.053 56.8122 112.15 56.7104C113.319 55.492 113.562 53.957 113.53 52.3333C114.381 52.4485 115.224 52.5142 116.081 52.5659C116.085 53.8981 116.366 55.2923 117.18 56.3771C117.991 57.4585 119.152 58.0051 120.474 58.1728C121.957 58.3614 123.628 58.3162 124.846 57.3415C126.49 56.0267 126.777 53.8845 126.982 51.9283C128.265 51.8694 129.548 51.7996 130.829 51.7188C131.035 52.7139 131.164 54.2216 131.875 54.9748C132.025 55.0192 132.114 55.0824 132.268 55.0286C133.292 54.671 134.174 51.6927 136.29 51.0411C136.324 51.0309 136.358 51.021 136.392 51.0112Z" fill="#FED0B4"/>
<path d="M120.64 64.2104C120.668 64.2057 120.696 64.1997 120.725 64.1967C121.069 64.163 121.224 64.2466 121.48 64.4506C121.537 64.69 121.581 64.7771 121.479 65.0126C121.185 65.686 120.223 66.1721 119.571 66.4286C117.273 67.332 115.123 66.9586 112.919 66.0172C112.881 65.9963 112.844 65.9758 112.808 65.954C112.455 65.7449 112.199 65.5277 112.11 65.1087C112.053 64.8445 112.057 64.7425 112.201 64.5219C112.405 64.4378 112.596 64.3589 112.821 64.4045C113.143 64.4702 113.472 64.6926 113.778 64.8189C114.298 65.0336 114.862 65.1906 115.408 65.3216C117.425 65.8077 118.922 65.2542 120.64 64.2104Z" fill="#26201C"/>
<path d="M112.999 57.4497C113.365 57.5291 113.618 57.7032 113.842 57.9964C114.043 58.7402 113.514 59.5706 113.21 60.2436C113.695 60.4753 114.379 60.7245 114.716 61.1602C114.886 61.3796 114.872 61.4875 114.834 61.7517C114.648 61.9885 114.508 62.1089 114.243 62.251C113.578 62.0555 112.597 61.7931 112.065 61.3373C111.807 61.1154 111.659 60.8218 111.658 60.4796C111.654 59.6461 112.42 58.0096 112.999 57.4497Z" fill="#26201C"/>
<path d="M122.469 25.5413C125.54 25.1686 129.202 26.2076 131.953 27.5971C133.996 28.629 135.916 30.0789 137.27 31.9401C137.824 32.7004 138.27 33.5395 138.849 34.2808C140.351 36.2027 141.791 37.6208 142.567 40.0233C144.033 44.5625 142.951 49.0856 140.853 53.2002C140.611 52.2994 140.146 51.4135 139.443 50.7866C137.623 49.1654 135.926 49.8256 133.828 50.2664C133.157 50.4076 132.448 50.4324 131.765 50.4772C131.245 48.7066 130.738 46.9446 130.329 45.1446C130.206 44.3372 130.187 43.4987 130.036 42.6998C129.871 41.8331 129.373 41.7273 128.597 41.5156C124.216 40.3216 121.138 39.5807 117.286 37.0465C115.772 36.0507 114.365 34.9065 112.839 33.9249C112.277 33.9494 111.692 34.042 111.148 34.1835C108.987 34.7451 107.238 36.1536 106.108 38.0599C105.464 37.0986 104.958 36.0767 104.825 34.9129C104.658 33.449 105.138 31.8679 106.075 30.733C106.2 30.5802 106.334 30.4358 106.478 30.2997C106.621 30.1637 106.772 30.037 106.931 29.9197C107.09 29.8024 107.255 29.6954 107.428 29.5988C107.6 29.5021 107.777 29.4165 107.96 29.3419C109.409 28.7548 111.064 28.7612 112.572 28.3525C115.936 27.4402 118.929 25.8856 122.469 25.5413Z" fill="#525252"/>
<path d="M56.6621 74.4751C59.0113 75.8577 65.0207 78.8829 66.4964 80.7815C67.4604 82.0216 67.9358 83.5912 68.3224 85.092C69.0948 88.0907 69.382 91.2192 69.726 94.2905C70.3635 99.9798 70.777 105.694 71.4227 111.38C71.6634 113.499 71.782 116.061 72.2805 118.092L62.0433 118.081C63.2715 110.756 64.2593 103.398 65.0066 96.009C65.2418 93.8044 65.7906 90.5727 65.7594 88.4902C65.7551 88.2008 65.6617 87.8185 65.4987 87.5761C65.4393 87.4878 65.3621 87.428 65.2806 87.3623C65.0651 87.3418 65.0301 87.3324 64.8526 87.4797C64.5598 87.7216 64.445 88.1159 64.3921 88.4774C64.1915 89.8515 64.1305 91.2687 63.9935 92.6526L63.1016 101.281C62.4649 106.908 61.659 112.511 60.6837 118.089L43.4437 118.086C42.6184 117.954 41.2597 118.262 40.5615 117.822C41.7918 117.61 42.9812 117.355 44.1718 116.977C45.2177 116.645 46.3051 116.17 47.3877 116C48.6235 115.806 49.9644 115.938 51.2139 115.968C51.9026 115.984 52.5748 115.984 53.2413 115.783C53.6971 115.646 53.9915 115.519 54.2779 115.125C54.6398 114.627 54.9363 114.051 55.1668 113.481C56.2127 110.898 57.0376 108.172 57.9603 105.539C58.8675 102.95 59.9203 100.335 60.6718 97.7018C60.784 97.3101 61.0571 96.4054 60.9389 96.0128C60.7716 95.455 60.3334 94.9878 59.811 94.7458C58.8684 94.3088 57.673 94.4112 56.6574 94.4164C57.4469 92.1504 58.3058 89.9109 59.2341 87.6981C58.5671 86.662 57.5433 85.9195 56.5469 85.2166C57.6257 84.6482 58.9418 84.0896 59.8366 83.2481C59.4445 80.2711 57.8617 77.2148 56.6621 74.4751Z" fill="#778EEE"/>
<path d="M112.201 35.5343C112.979 35.5108 116.055 38.0941 116.844 38.611C119.623 40.4298 122.573 41.5799 125.768 42.4385C126.667 42.6804 127.616 42.9625 128.546 43.0449C128.708 45.5119 129.335 47.8585 130.076 50.2082C128.963 50.2982 127.852 50.3413 126.736 50.3797C126.498 50.1045 126.257 49.8224 125.954 49.6154C124.272 48.4671 119.519 48.683 117.555 49.0982C116.265 49.583 116.649 50.3166 116.008 50.8005C115.523 51.1671 114.038 50.8078 113.419 50.7245C113.214 50.4058 112.996 50.0861 112.715 49.8288C111.176 48.4167 108.376 48.7261 106.454 48.7961C106.416 48.3907 106.295 47.8709 106.453 47.4894C106.567 47.4331 106.667 47.393 106.796 47.3861C107.569 47.3443 108.185 47.2154 108.92 46.9931C109.452 47.1706 110.138 47.5018 110.693 47.2632C110.958 47.1489 111.011 47.0324 111.113 46.775C111.069 46.5066 111.007 46.3449 110.819 46.1422C110.379 45.6693 109.676 45.5085 109.053 45.4816C107.988 45.4346 107.072 45.7257 106.284 46.449C106.237 43.8984 106.178 40.9829 107.525 38.725C108.594 36.9315 110.227 36.0286 112.201 35.5343Z" fill="#FED0B4"/>
<path d="M120.822 45.5967C121.163 45.5971 121.515 45.6193 121.852 45.6641C122.702 45.7768 123.869 46.1019 124.375 46.8475C124.545 47.098 124.568 47.2785 124.523 47.5704C124.437 47.666 124.37 47.779 124.25 47.8268C123.641 48.0688 123.201 47.8157 122.644 47.5691C121.089 47.0246 120.372 47.5772 119.214 47.3092C118.899 47.2362 118.792 47.0916 118.64 46.8206C118.624 46.521 118.634 46.4071 118.78 46.145C119.399 45.6658 120.073 45.6551 120.822 45.5967Z" fill="#26201C"/>
<path d="M46.3252 122.486C50.4245 122.345 54.514 122.487 58.5937 122.913C60.5328 123.121 62.4518 123.456 64.3841 123.715C60.2561 127.164 56.1622 130.654 52.1025 134.183C51.3634 133.819 50.6319 133.495 49.8629 133.199C45.3924 131.748 35.8543 131.961 31.0674 132.498C34.6591 130.056 38.2338 127.607 41.8769 125.241C43.3022 124.315 44.7732 123.169 46.3252 122.486Z" fill="#FEFEFE"/>
<path d="M42.2143 100.329C42.6235 100.268 43.0921 100.286 43.5082 100.269C43.2453 101.04 42.9919 101.814 42.7481 102.591C42.0047 102.723 40.6285 102.829 40.0814 103.365C39.8685 103.575 39.883 103.715 39.8932 103.996C39.9504 104.092 39.9756 104.216 40.0648 104.284C40.7813 104.825 50.0403 102.089 51.9649 103.296C52.1945 103.441 52.2786 103.508 52.3375 103.767C51.7631 104.416 44.5981 105.371 43.084 106.295C42.8535 106.435 42.8629 106.491 42.7993 106.74C42.8642 107.047 42.9197 107.168 43.1258 107.405C43.8594 107.697 50.5533 105.657 51.8621 105.429C52.1958 105.372 52.3891 105.393 52.6652 105.586C52.7322 105.788 52.7821 105.857 52.6981 106.064C52.0968 107.548 45.769 108.803 44.1397 109.481C43.7262 109.653 43.4493 109.793 43.279 110.211C43.3494 110.368 43.3609 110.468 43.5086 110.568C44.6006 111.308 50.22 108.963 51.7695 108.602L51.9312 108.565C51.6163 111.338 46.0225 111.505 44.2964 113.259C44.2341 113.536 44.2515 113.546 44.3732 113.807C44.6194 113.982 44.6749 114.021 44.9864 114.057C45.5817 113.782 46.2146 113.612 46.8257 113.379C47.9663 112.942 49.0848 112.473 50.237 112.061C49.7634 112.787 49.2671 113.384 48.5484 113.882C46.4762 115.316 41.7146 116.484 39.2092 116.62C37.9622 116.687 36.7184 116.339 35.4724 116.521C34.0943 116.723 32.568 117.417 31.2412 117.854C30.5777 114.983 30.6717 112.333 31.1316 109.452C32.0203 109.228 32.8838 109.034 33.7082 108.621C35.0787 106.631 36.2405 104.682 37.8961 102.887C39.1661 101.511 40.2602 100.406 42.2143 100.329Z" fill="#FED0B4"/>
<path d="M84.8543 121.502C85.2268 121.45 85.4875 121.71 85.782 121.906C86.7934 122.578 87.8765 122.891 89.0581 123.086C89.3235 123.75 89.5779 124.454 89.9419 125.071C90.1553 125.432 90.4647 125.856 90.8969 125.948C91.1022 125.991 91.2959 125.949 91.4632 125.82C92.3095 125.168 92.7665 122.934 92.8988 121.895C97.3639 122.436 101.82 123.04 106.268 123.709C104.937 124.545 103.472 125.658 102.418 126.827C101.775 127.538 101.246 128.34 100.54 128.995C99.7715 129.708 98.8245 130.286 97.9647 130.884L95.2984 132.822C88.9873 131.136 80.5305 129.645 74.0005 129.371C76.6314 126.873 81.6895 123.304 84.8543 121.502Z" fill="#FEFEFE"/>
<path d="M115.407 121.024C117.874 120.743 120.336 121.204 122.793 121.228C123.799 121.239 124.866 120.959 125.859 121.042C126.22 121.072 126.472 121.142 126.751 121.381C128.185 122.608 128.6 125.785 128.675 127.543C127.993 127.609 127.043 127.737 126.444 128.069C126.402 128.093 126.361 128.119 126.319 128.144C125.283 128.753 124.803 129.869 123.64 130.424C121.289 131.547 118.691 131.278 116.237 131.925C114.162 132.472 112.22 133.719 110.133 134.201C109.666 134.308 109.143 134.242 108.734 133.995C108.68 133.885 108.608 133.83 108.667 133.707C108.994 133.024 113.027 131.416 113.895 131.095C114.479 130.879 115.156 130.755 115.71 130.481C116.137 130.27 116.431 130.016 116.581 129.56C116.545 129.408 116.569 129.336 116.427 129.248C115.03 128.386 108.188 132.475 106.394 132.906C106.089 132.98 105.792 133.064 105.521 132.895C105.527 132.865 105.528 132.834 105.537 132.805C105.847 131.849 108.807 130.31 109.709 129.805C110.49 129.397 114.452 127.67 114.691 127.318C114.803 127.155 114.845 126.939 114.791 126.745C114.717 126.48 114.553 126.386 114.332 126.259C113.199 126.256 108.886 128.629 107.69 129.353C106.768 129.911 105.897 130.554 104.97 131.104C104.551 131.351 104.215 131.561 103.72 131.436C103.624 131.28 103.572 131.244 103.571 131.052C103.564 129.496 108.751 126.675 110.201 125.943C110.782 125.649 113.143 124.597 113.493 124.195C113.633 124.035 113.582 123.946 113.556 123.752C113.385 123.545 113.285 123.426 113.01 123.37C111.177 122.995 104.822 127.811 103.138 129.007C102.885 129.187 102.758 129.302 102.447 129.252L102.342 129.043C102.413 128.77 102.531 128.594 102.709 128.376C104.38 126.325 109.518 122.771 112.006 121.773C113.126 121.323 114.21 121.126 115.407 121.024Z" fill="#FED0B4"/>
<path d="M33.0685 69.6597C34.2895 70.9531 39.3808 95.5194 40.245 99.0772C39.2148 99.7088 38.3012 100.54 37.3822 101.319C36.6265 100.095 35.9452 98.8143 35.2379 97.5605C33.3985 94.6459 31.8566 91.5277 29.9073 88.68C30.8613 87.8257 32.8011 86.3748 33.3278 85.2447C33.477 84.9243 33.4351 84.739 33.3285 84.4258C32.785 83.8309 29.0165 82.68 27.9087 82.1773C28.702 78.7117 29.2377 75.1416 29.8813 71.6427C30.89 70.8954 31.9524 70.2343 33.0685 69.6597Z" fill="#778EEE"/>
<path d="M68.6691 123.907C71.6721 123.82 74.6785 124.383 77.6764 124.529C75.6605 126 73.4734 127.609 71.6918 129.352C71.6525 130.239 71.4686 131.36 71.9056 132.163C72.8423 132.972 77.3201 133.237 78.7505 133.416C77.9209 134.281 77.1848 135.253 76.3689 136.138C74.8232 135.625 73.1495 135.363 71.5539 135.051C66.0212 134.12 60.1531 133 54.5542 133.937C58.3252 130.675 62.1125 127.431 65.9162 124.207C66.8337 124.036 67.738 123.954 68.6691 123.907Z" fill="#FEFEFE"/>
<path d="M45.5914 82.3374C46.5289 82.8311 49.7141 86.3347 50.7596 87.3798C50.3466 89.6377 50.0329 91.9686 49.4628 94.1893C48.3456 94.1774 46.9889 94.0302 45.981 94.6045C44.6803 95.3454 44.3687 97.2794 43.9834 98.5967C43.5046 98.9641 42.1958 98.8737 41.5719 98.8989C41.3466 97.3033 40.8942 95.674 40.5528 94.0925C40.103 92.0074 39.7352 89.8459 39.1143 87.8061C41.0512 86.7751 43.8545 83.8814 45.5914 82.3374Z" fill="#FEFEFE"/>
<path d="M54.7686 73.6323C55.3682 74.083 57.8578 81.297 58.3793 82.6306C57.4225 83.1052 55.9528 83.6352 55.2201 84.411C55.02 84.6231 54.8868 84.8702 54.9201 85.1685C55.0246 86.115 56.9134 87.3389 57.6218 87.9099C56.8746 89.4918 56.3386 91.1941 55.7514 92.8409L55.2145 94.3951C53.8063 94.2773 52.3387 94.2628 50.9258 94.2687C51.9956 89.4926 53.8409 78.6517 53.1487 74.0975L54.7686 73.6323Z" fill="#778EEE"/>
<path d="M35.6717 67.79C36.2982 68.2522 36.8771 69.1838 37.4092 69.7799C38.0559 70.5046 38.8714 71.1366 39.6605 71.7011C43.0018 74.0926 47.128 75.2755 51.206 74.5923C50.3004 75.9105 49.3616 77.0542 48.2341 78.1885C47.4208 78.9664 46.5596 79.7013 45.7181 80.4489C42.2999 78.1129 36.1982 73.4388 34.7646 69.4893C35.018 68.9047 35.3613 68.3469 35.6717 67.79Z" fill="#FED0B4"/>
<path d="M39.2634 133.516C42.4606 133.467 46.0431 133.333 49.1067 134.327C50.2649 134.703 51.368 135.28 52.4609 135.813C53.8555 135.591 55.2036 135.238 56.6152 135.091C61.0401 134.632 65.8179 135.332 70.1643 136.153C72.3121 136.558 74.5039 137.187 76.6692 137.436L76.8002 137.45C77.4253 137.036 77.905 136.409 78.4965 135.937C77.9306 136.817 77.2546 137.676 76.5369 138.436C74.5679 138.214 72.6185 137.626 70.6474 137.337C66.4956 136.627 61.0798 135.93 56.8922 136.117C55.6034 136.175 54.3334 136.477 53.0502 136.599C51.3369 136.763 49.9516 135.839 48.345 135.445C47.3114 135.192 46.1955 135.097 45.1376 134.99C40.134 134.482 35.1642 134.697 30.1545 134.822C29.8049 134.831 29.4104 134.914 29.1373 134.689C29.1029 134.403 29.116 134.379 29.2483 134.121C29.9653 133.637 37.7831 133.536 39.2634 133.516Z" fill="#36C99F"/>
<path d="M118.661 50.4875C119.994 50.4213 121.374 50.4153 122.707 50.4802C123.312 50.5096 124.748 50.56 125.164 51.07C125.458 51.431 125.386 52.2674 125.355 52.7155C125.247 54.253 124.936 55.3131 123.747 56.3517C123.554 56.4572 123.353 56.5399 123.144 56.6074C122.034 56.9637 120.34 56.9279 119.3 56.368C118.405 55.8862 117.869 55.0195 117.616 54.0606C117.37 53.1294 117.246 51.8654 117.775 51.0094C117.999 50.6466 118.262 50.5775 118.661 50.4875Z" fill="#FED0B4"/>
<path d="M120.965 52.2708C121.043 52.2688 121.121 52.2685 121.198 52.2699C121.59 52.2797 121.851 52.3894 122.116 52.6856C122.491 53.1055 122.59 53.6667 122.534 54.2108C122.455 54.9665 122.185 55.3344 121.622 55.7918C121.587 55.791 121.553 55.7923 121.518 55.7897C121.151 55.762 120.809 55.6617 120.562 55.3749C120.238 55.0002 120.12 54.4681 120.155 53.9837C120.205 53.2762 120.427 52.7453 120.965 52.2708Z" fill="#26201C"/>
<path d="M96.4686 119.438C97.9532 119.332 99.4882 119.406 100.978 119.407L109.593 119.415L119.449 119.363C120.507 119.365 121.58 119.295 122.636 119.341C123.073 119.359 123.459 119.417 123.868 119.578L123.905 119.737C122.782 120.147 119.448 119.663 118.075 119.658C116.627 119.65 115.182 119.717 113.741 119.857C111.586 120.188 109.806 121.313 108 122.455C105.289 122.123 102.584 121.672 99.8804 121.28C98.345 121.057 96.7856 120.773 95.2314 120.756C95.6552 120.33 96.058 119.878 96.4686 119.438Z" fill="#FEFEFE"/>
<path d="M96.4688 119.438C97.9534 119.332 99.4884 119.406 100.978 119.407L109.594 119.415L119.449 119.363C120.507 119.365 121.58 119.295 122.637 119.341C123.073 119.359 123.459 119.417 123.868 119.578L123.905 119.737C122.783 120.147 119.448 119.663 118.075 119.658C116.627 119.65 115.182 119.717 113.741 119.857L113.702 119.65C113.031 119.19 98.8158 119.792 96.4688 119.438Z" fill="#C2C6CA"/>
<path d="M36.0605 74.4229C36.6958 74.7271 38.3708 76.5182 38.9845 77.0657C40.7068 78.6024 42.5222 80.1207 44.521 81.2879C43.6274 82.0577 42.7456 82.8409 41.8756 83.6375C40.8852 84.5179 39.8985 85.3944 38.8552 86.212C37.9624 82.2732 37.0309 78.3435 36.0605 74.4229Z" fill="#FEFEFE"/>
<path d="M92.631 108.435C93.7017 108.899 94.591 109.659 95.7184 110.104C95.7475 110.142 95.7769 110.18 95.8055 110.218C96.8032 111.548 97.3153 113.237 97.0439 114.892C96.743 116.727 95.2793 119.108 93.7405 120.148C93.4379 120.353 93.2613 120.427 92.9066 120.37C92.6856 120.068 92.6689 119.617 92.7218 119.253C92.7965 118.736 93.3031 118.487 93.6953 118.21C94.3817 117.664 95.0358 117.082 95.6574 116.463C95.9058 116.216 96.1106 115.982 96.0743 115.609C96.0496 115.359 95.9847 115.258 95.7859 115.12C94.4689 115.155 93.5224 116.957 92.1223 117.253C92.0015 117.217 91.8889 117.221 91.8231 117.101C91.0768 115.744 93.598 113.391 93.8617 112.291C93.9095 112.092 93.8523 112.039 93.7571 111.873C93.4209 111.642 93.0705 111.639 92.6762 111.598C92.6271 110.547 92.6399 109.487 92.631 108.435Z" fill="#FED0B4"/>
<path d="M106.516 50.3909C108.36 50.3568 110.305 50.1536 111.959 51.0959C112.217 52.8464 112.275 54.1134 111.203 55.5985C110.875 55.9172 110.527 56.2044 110.093 56.3649C108.953 56.7861 107.886 56.3602 106.858 55.8737C106.629 54.0703 106.606 52.2071 106.516 50.3909Z" fill="#FED0B4"/>
<path d="M109.235 51.8516C109.423 51.8793 109.615 51.9066 109.797 51.9578C110.159 52.0594 110.441 52.2979 110.618 52.6265C110.866 53.0866 110.898 53.5986 110.742 54.0941C110.55 54.706 110.238 55.0026 109.677 55.2851C109.536 55.251 109.396 55.2164 109.259 55.1725C108.836 55.0385 108.541 54.7334 108.349 54.3386C108.108 53.8432 108.062 53.2922 108.267 52.7767C108.467 52.2753 108.745 52.0487 109.235 51.8516Z" fill="#26201C"/>
<path d="M89.0224 107.78L89.1167 107.809C89.4001 108.383 89.2136 110.591 89.2098 111.346C88.9879 111.118 88.6921 110.76 88.3908 110.647C88.1352 110.551 87.9889 110.644 87.7597 110.754C87.0377 111.962 90.4934 114.703 90.2988 116.427C90.1495 116.714 90.0739 116.789 89.7876 116.939C89.4513 116.919 89.3254 116.792 89.0472 116.61C87.3394 114.905 85.8133 113.205 84.7559 111.007C84.8894 110.686 85.0418 110.377 85.2321 110.085C86.1129 108.736 87.4994 108.105 89.0224 107.78Z" fill="#FED0B4"/>
<path d="M51.9141 76.2578C52.2576 76.7383 51.1903 84.2759 51.0888 85.5817L49.0225 83.4992C48.3124 82.7866 47.6125 82.0607 46.8555 81.3975C48.7929 79.8719 50.4461 78.2353 51.9141 76.2578Z" fill="#FEFEFE"/>
<path d="M72.9521 130.692C75.7874 130.466 90.3278 132.689 93.0018 133.658C93.3547 133.786 93.4798 133.829 93.6385 134.171C93.3214 134.244 93.0364 134.255 92.7155 134.217C88.5389 133.724 83.9834 132.792 79.7851 132.131C78.5433 131.935 74.0604 131.561 73.2594 131.158C73.0213 131.039 73.0285 130.924 72.9521 130.692Z" fill="#C2C6CA"/>
<path d="M83.9047 113.008C84.4403 113.199 85.913 115.272 86.4136 115.82C87.2585 116.76 88.1682 117.633 89.1426 118.438C89.1294 118.889 89.1268 119.339 89.041 119.784C87.3306 118.736 85.2144 117.173 84.1783 115.424C83.6555 114.541 83.6508 113.977 83.9047 113.008Z" fill="#FED0B4"/>
<path d="M83.6738 117.208C84.3831 117.593 85.3275 118.736 86.0073 119.297C86.9824 120.102 88.243 120.719 89.1028 121.623C88.5822 121.783 87.7966 121.478 87.3169 121.245C85.7986 120.508 84.2341 118.799 83.6738 117.208Z" fill="#FED0B4"/>
<path d="M112.101 115.495C112.57 115.929 112.721 117.437 112.872 118.078L110.621 118.083C110.441 118.091 110.332 118.079 110.164 118.015C110.232 117.398 111.689 116.028 112.101 115.495Z" fill="#FEFEFE"/>
<path d="M90.5426 118.031C90.8222 118.105 91.0513 118.122 91.2297 118.378C91.752 119.127 91.385 120.915 91.2664 121.754L90.7995 121.704C90.6442 121.592 90.5512 121.503 90.4842 121.319C90.2042 120.55 90.2008 118.781 90.5426 118.031Z" fill="#483730"/>
<path d="M98.508 113.271C98.8383 114.558 99.2497 116.31 98.7077 117.597C98.5319 118.014 98.2938 118.054 97.8995 118.202C97.768 118.139 97.6515 118.065 97.5286 117.988C97.4825 117.358 98.153 116.446 98.2912 115.787C98.4623 114.969 98.2439 114.074 98.508 113.271Z" fill="#FED0B4"/>
<path d="M43.4438 118.086C42.6706 118.171 41.8721 118.092 41.0942 118.127C40.0333 118.173 36.0922 118.654 35.3203 118.168L35.3806 117.961C36.2527 117.279 37.5047 118.158 38.4697 118.133C39.1525 118.116 39.8643 117.878 40.5616 117.822C41.2598 118.262 42.6185 117.954 43.4438 118.086Z" fill="#525252"/>
<path d="M47.3855 97.2384C47.416 97.2182 47.4477 97.2001 47.4807 97.1842C47.5137 97.1686 47.5475 97.1551 47.5823 97.1437C47.617 97.1323 47.6522 97.1233 47.6881 97.1168C47.7242 97.11 47.7605 97.1057 47.7969 97.104C47.8333 97.1023 47.8697 97.1028 47.9061 97.1057C47.9426 97.1088 47.9787 97.1144 48.0145 97.1223C48.0501 97.1303 48.0851 97.1405 48.1195 97.1531C48.1537 97.1656 48.1869 97.1804 48.2194 97.1974C48.2518 97.2145 48.2828 97.2336 48.3124 97.2546C48.3423 97.276 48.3706 97.299 48.3973 97.3238C48.4241 97.3488 48.449 97.3754 48.472 97.4036C48.4951 97.4317 48.5162 97.4615 48.5356 97.4928C48.5547 97.5238 48.5717 97.5559 48.5868 97.5892C48.6016 97.6225 48.6141 97.6568 48.6244 97.692C48.6346 97.727 48.6426 97.7626 48.6483 97.7987C48.6539 97.8349 48.6571 97.8711 48.6576 97.9075C48.6582 97.944 48.6565 97.9804 48.6525 98.0168C48.6483 98.0532 48.6417 98.0891 48.6329 98.1243C48.6238 98.1599 48.6125 98.1946 48.5992 98.2285C48.5855 98.2623 48.5697 98.2952 48.5518 98.327C48.5339 98.3589 48.5138 98.3893 48.4916 98.4184C48.4697 98.4477 48.4458 98.4753 48.4199 98.5011C48.3943 98.527 48.367 98.5511 48.338 98.5733C48.309 98.5957 48.2787 98.6161 48.2471 98.6343C48.2244 98.6474 48.2009 98.6595 48.1767 98.6706C48.1528 98.6814 48.1283 98.691 48.1033 98.6996C48.0786 98.7081 48.0534 98.7155 48.0278 98.7218C48.0019 98.7277 47.976 98.7326 47.9501 98.7363C47.9239 98.74 47.8976 98.7424 47.8712 98.7435C47.845 98.7444 47.8187 98.7441 47.7922 98.7427C47.766 98.7413 47.7399 98.7386 47.7137 98.7346C47.6875 98.7306 47.6616 98.7255 47.636 98.7192C47.6107 98.7127 47.5855 98.705 47.5605 98.6962C47.5357 98.6871 47.5114 98.677 47.4875 98.6659C47.4636 98.6545 47.4404 98.6421 47.418 98.6287C47.3952 98.6154 47.3731 98.6009 47.3518 98.5852C47.3308 98.5696 47.3104 98.5529 47.2908 98.5353C47.2709 98.5179 47.2521 98.4996 47.2345 98.4802C47.2165 98.4609 47.1996 98.4407 47.1837 98.4196C47.1677 98.3986 47.1528 98.3768 47.1389 98.3543C47.1249 98.3319 47.1123 98.3088 47.1009 98.2852C47.0892 98.2616 47.0787 98.2374 47.0693 98.2127C47.0599 98.1879 47.0518 98.1629 47.045 98.1376C47.0382 98.1122 47.0326 98.0865 47.0283 98.0603C47.0238 98.0344 47.0205 98.0083 47.0185 97.9818C47.0168 97.9556 47.0162 97.9293 47.0168 97.9029C47.0174 97.8767 47.0194 97.8505 47.0228 97.8243C47.0259 97.7982 47.0303 97.7721 47.036 97.7462C47.0417 97.7206 47.0485 97.6953 47.0565 97.6703C47.0648 97.6452 47.0741 97.6206 47.0847 97.5965C47.0952 97.5723 47.1069 97.5487 47.1197 97.5256C47.1325 97.5026 47.1463 97.4801 47.1611 97.4582C47.1761 97.4366 47.1922 97.4157 47.2093 97.3955C47.2261 97.3753 47.2438 97.3559 47.2626 97.3374C47.2814 97.3189 47.3012 97.3014 47.3219 97.2849C47.3424 97.2684 47.3636 97.2529 47.3855 97.2384Z" fill="#FEFEFE"/>
</g>
<defs>
<clipPath id="clip0_2274_5844">
<rect width="164" height="164" fill="white"/>
</clipPath>
</defs>
</svg>
