<svg id="Capa_1" enable-background="new 0 0 512 512" height="512" viewBox="0 0 512 512" width="512" xmlns="http://www.w3.org/2000/svg"><g><circle cx="176.376" cy="93.87" r="15"/><path d="m221.716 228.04 108.4-99.05 121.04 102.76.73-231.75h-390.77l-.75 239.14 84.97-55.55zm-90.34-134.17c0-24.81 20.19-45 45-45s45 20.19 45 45-20.19 45-45 45-45-20.19-45-45z"/><path d="m451.038 270.997-120.195-102.035-105.161 96.101-79.431-46.233-85.996 56.227-.139 44.574h390.77z"/><path d="m451.837 482v-129.087h-30v29.901c-14.186 6.21-29.672 9.464-45.278 9.464s-31.093-3.253-45.28-9.465v-29.9h-30v29.901c-14.187 6.211-29.673 9.465-45.277 9.465-15.606 0-31.093-3.254-45.28-9.466v-29.9h-30v29.901c-14.188 6.211-29.674 9.465-45.278 9.465-15.606 0-31.092-3.254-45.279-9.466v-29.901h-30v129.088h-20v30h70v-30h-20v-67.078c14.535 4.845 29.865 7.358 45.279 7.358s30.743-2.512 45.278-7.358v67.078h-20v30h70v-30h-20v-67.079c14.535 4.846 29.866 7.358 45.28 7.358 15.413 0 30.743-2.512 45.277-7.357v67.078h-20v30h70v-30h-20v-67.079c14.535 4.846 29.866 7.357 45.28 7.357 15.415 0 30.745-2.512 45.278-7.357v67.079h-20v30h70v-30z"/></g></svg>