<svg width="124" height="48" viewBox="0 0 124 48" fill="none" xmlns="http://www.w3.org/2000/svg">
<path d="M118.557 43.1016L120.618 38.293H122.709L119.916 44.879C119.657 45.4963 119.373 46.039 119.064 46.5069C118.766 46.9847 118.412 47.3535 118.004 47.6124C117.596 47.871 117.103 48.0001 116.525 48.0001C116.217 48 115.943 47.9803 115.704 47.9405C115.465 47.9106 115.231 47.8504 115.002 47.7608V46.3428C115.171 46.4026 115.326 46.4421 115.466 46.462C115.615 46.4818 115.764 46.4922 115.913 46.4922C116.321 46.4922 116.635 46.3972 116.854 46.2081C117.083 46.0189 117.312 45.7 117.541 45.252L114.375 38.293H116.48L118.557 43.1016ZM77.8584 38.1436C79.1825 38.1436 80.1532 38.4672 80.7705 39.1143C81.3977 39.7515 81.7119 40.6573 81.7119 41.8321C81.7119 43.0069 81.4034 43.9183 80.7861 44.5655C80.1688 45.2027 79.1925 45.5206 77.8584 45.5206C76.5344 45.5205 75.5635 45.2026 74.9463 44.5655C74.329 43.9183 74.0205 43.0069 74.0205 41.8321C74.0205 40.6574 74.3292 39.7515 74.9463 39.1143C75.5735 38.4672 76.5443 38.1437 77.8584 38.1436ZM110.376 38.1436C111.441 38.1437 112.262 38.3628 112.84 38.8008C113.427 39.2289 113.721 39.9205 113.721 40.876V45.3721H111.974L111.869 44.7296C111.59 44.9784 111.247 45.1722 110.839 45.3116C110.431 45.4509 109.918 45.5205 109.301 45.5206C108.853 45.5206 108.434 45.4416 108.046 45.2823C107.668 45.113 107.359 44.8685 107.12 44.5499C106.891 44.2213 106.776 43.813 106.776 43.3253C106.776 42.6287 107.02 42.0714 107.508 41.6534C108.006 41.2353 108.738 41.0255 109.703 41.0255H111.794V40.8311C111.794 40.3933 111.67 40.0845 111.421 39.9053C111.182 39.7262 110.694 39.6368 109.957 39.6368C109.151 39.6368 108.374 39.761 107.628 40.0098V38.5919C107.956 38.4624 108.354 38.3571 108.822 38.2774C109.3 38.1878 109.818 38.1436 110.376 38.1436ZM87.6533 39.6671C87.3846 39.7069 87.0909 39.7662 86.7725 39.8458C86.454 39.9254 86.15 40.0148 85.8613 40.1143C85.5726 40.2139 85.328 40.3193 85.1289 40.4288V45.3721H83.1133V38.293H84.9795L85.0693 39.0245C85.3879 38.8254 85.7812 38.6457 86.249 38.4864C86.7269 38.3171 87.1953 38.2034 87.6533 38.1436V39.6671ZM99.2363 42.8926L100.416 39.2042V38.293H101.954L103.299 42.8926L104.344 38.293H106.345L104.493 45.3721H102.642L101.282 41.2344L99.8936 45.3721H98.0117L96.1445 38.293H98.1611L99.2363 42.8926ZM65.5088 42.2501L67.0771 37.0079V35.754H68.7197L70.5723 42.2657L72.0654 35.754H74.0371L71.8115 45.3712H69.8994L68.1377 39.2188L66.2412 45.3712H64.3145L62.0742 35.754H64.0605L65.5088 42.2501ZM90.7002 40.8467L93.3438 38.293H95.6436L92.791 41.1895L95.8086 45.3712H93.6729L91.5225 42.2501L90.7002 43.0421V45.3712H88.6846V35.3057H90.7002V40.8467ZM109.748 42.2803C108.962 42.2804 108.568 42.604 108.568 43.251C108.568 43.8781 108.997 44.1914 109.853 44.1915C110.3 44.1915 110.689 44.1171 111.018 43.9678C111.346 43.8186 111.605 43.6293 111.794 43.4005V42.2803H109.748ZM77.8584 39.8604C77.2214 39.8605 76.7631 40.01 76.4844 40.3087C76.2057 40.5974 76.0664 41.1054 76.0664 41.8321C76.0664 42.5586 76.2058 43.0714 76.4844 43.3702C76.7631 43.6589 77.2214 43.8037 77.8584 43.8038C78.5056 43.8038 78.9693 43.6589 79.248 43.3702C79.5266 43.0714 79.666 42.5586 79.666 41.8321C79.666 41.1054 79.5267 40.5974 79.248 40.3087C78.9693 40.01 78.5056 39.8604 77.8584 39.8604Z" fill="#141A1F"/>
<path d="M42.7607 3.48926C49.5655 3.48926 55.082 9.00574 55.082 15.8105V29.46L55.0811 29.6289C55.036 32.9585 53.6689 35.971 51.4844 38.1611V45.0322H50.0664C49.5156 45.0322 48.934 44.874 48.416 44.6855C47.8727 44.4878 47.2832 44.2132 46.6836 43.8926C45.6257 43.3269 44.4702 42.582 43.3779 41.7646C43.2232 41.7724 43.0674 41.7774 42.9111 41.7793L42.7607 41.7803H34.8018C31.926 41.7803 29.282 40.7929 27.1855 39.1416C28.0225 38.5569 28.7249 37.8816 29.2959 37.1826C30.8485 38.2914 32.7485 38.9453 34.8018 38.9453H42.877C43.1456 38.942 43.412 38.9266 43.6758 38.9014L44.2373 38.8486L44.6816 39.1943C45.7869 40.0552 46.9781 40.8357 48.0195 41.3926C48.2402 41.5106 48.4514 41.6155 48.6494 41.709V36.9238L49.1162 36.502C49.9017 35.7926 50.5651 34.9531 51.0781 34.0195H38.1816V31.0752H52.1094C52.1923 30.5916 52.2393 30.0956 52.2461 29.5898L52.2471 29.46V27.2598H41.4531V24.3154H52.2471V20.499H44.3965V17.5547H52.2471V15.8105C52.2471 10.5714 47.9998 6.32422 42.7607 6.32422H34.8018C34.7386 6.32422 34.6752 6.32787 34.6123 6.3291C34.3158 5.35513 33.9071 4.43055 33.4043 3.56738C33.8628 3.51563 34.3294 3.48926 34.8018 3.48926H42.7607Z" fill="#141A1F"/>
<path d="M21.6084 0C27.0685 0.000163082 31.6273 3.85952 32.7061 8.99902C34.287 14.3042 36.0976 23.7574 36.1104 23.8242H30.5488V26.7686H25.3154C25.3154 28.5676 27.1263 31.0378 29.5137 31.0381C29.5135 33.0009 26.754 38.0537 20.7354 38.0537H12.3398C6.0771 38.0537 1 32.9767 1 26.7139V11.3398C1.00002 5.07707 6.07711 6.06327e-05 12.3398 0H21.6084ZM25.2061 12.6484C24.0018 12.6485 23.0254 13.6248 23.0254 14.8291C23.0254 16.0334 24.0017 17.0097 25.2061 17.0098C26.4104 17.0098 27.3867 16.0335 27.3867 14.8291C27.3867 13.6247 26.4104 12.6484 25.2061 12.6484Z" fill="#4A69E8"/>
<path d="M101.713 3.37695C102.06 4.02979 102.386 4.74374 102.692 5.51758L102.803 5.80176C103.054 6.45319 103.251 7.02051 103.394 7.50293L103.422 7.59863L103.33 7.63184L101.531 8.28027H107.11V11.1973H100.874V14.4854H106.441V14.834C106.441 14.9788 106.431 15.1428 106.411 15.3252V15.8105C106.35 18.2849 106.279 20.3846 106.198 22.1094C106.137 23.8325 106.055 25.2435 105.954 26.3408L105.887 27.1182C105.815 27.8498 105.725 28.4473 105.618 28.9092L105.519 29.3379C105.415 29.7364 105.291 30.0444 105.145 30.2559L105.042 30.3984C104.8 30.7182 104.538 30.9485 104.252 31.082C103.957 31.2499 103.601 31.3638 103.19 31.4258H103.191C102.838 31.4881 102.394 31.5186 101.864 31.5186C101.355 31.5186 100.827 31.5086 100.278 31.4883L100.187 31.4844L100.178 31.3945C100.138 31.0155 100.058 30.5844 99.937 30.1016L99.8901 29.9326C99.7769 29.5449 99.6337 29.2051 99.4614 28.9121L99.3589 28.7373L99.5601 28.7539C100.066 28.7944 100.532 28.8245 100.957 28.8447C101.382 28.865 101.695 28.875 101.895 28.875C102.111 28.8749 102.264 28.8452 102.365 28.7949L102.403 28.7734C102.493 28.7188 102.59 28.6276 102.691 28.4932C102.742 28.4153 102.794 28.2916 102.843 28.1152C102.892 27.9384 102.937 27.7145 102.977 27.4434V27.4414L102.978 27.4404C103.078 26.8982 103.169 26.1212 103.25 25.1084C103.331 24.0761 103.402 22.7486 103.462 21.127L103.485 20.4951C103.517 19.5502 103.546 18.4994 103.572 17.3428H100.835C100.789 18.4736 100.701 19.6383 100.569 20.8369V20.8379C100.386 22.6912 99.989 24.5442 99.3784 26.3965H99.3774C98.7855 28.2536 97.8576 30.0383 96.5942 31.75L96.522 31.8477L96.436 31.7617C96.1769 31.5026 95.8458 31.2221 95.4429 30.9199L95.4409 30.918C95.0585 30.6161 94.6866 30.3553 94.3257 30.1348L94.229 30.0752L94.2954 29.9834L94.4028 29.835C95.4976 28.3078 96.2981 26.7349 96.8052 25.1162C97.3305 23.4189 97.674 21.7523 97.8354 20.1172L97.8647 19.8105C98.007 18.2855 98.0786 16.85 98.0786 15.5039V11.1973H94.9751V8.28027H100.527C100.42 7.82408 100.261 7.30874 100.05 6.73535L99.9409 6.44531C99.6374 5.65627 99.3337 4.93837 99.0308 4.29199L98.981 4.18457L99.0933 4.14746L101.671 3.29883L101.713 3.37695ZM71.3345 7.39453H70.0259V31.8232H67.6265V26.0547C66.8235 26.2363 66.0234 26.4139 65.228 26.5879H65.229C63.9514 26.8718 62.7646 27.1355 61.6694 27.3789L61.5669 27.4014L60.9722 24.7568L61.0825 24.7393C61.5944 24.6574 62.153 24.5619 62.7583 24.4541V7.39453H61.2983V4.59863H71.3345V7.39453ZM83.8677 3.48633L83.8765 4.48535C83.9009 6.8045 83.9491 9.04614 84.02 11.21L84.0591 12.1211C84.0645 12.2406 84.0701 12.3599 84.0757 12.4785H89.4956V15.1523H84.2192C84.2789 16.1439 84.344 17.1 84.4155 18.0205C84.5231 19.2511 84.6414 20.3897 84.77 21.4365C85.6324 19.8572 86.3386 18.1537 86.8872 16.3252L86.9233 16.2051L87.0347 16.2617L89.3364 17.4287L89.3081 17.5137C88.6162 19.5894 87.7301 21.5136 86.6509 23.2852C86.2495 23.9566 85.8277 24.6018 85.3853 25.2207C85.5502 25.9745 85.7217 26.607 85.8999 27.1182L85.9595 27.2744C86.1009 27.6272 86.2464 27.8937 86.3931 28.0781C86.5597 28.2876 86.7189 28.3796 86.8687 28.3887C86.9168 28.3871 86.9936 28.345 87.0854 28.1709C87.1752 28.0008 87.2609 27.7377 87.3413 27.376L87.3716 27.2373C87.5175 26.5278 87.6287 25.5756 87.7046 24.3799L87.7222 24.1035L87.8921 24.3223C88.029 24.4982 88.2064 24.6856 88.4253 24.8848C88.6656 25.0849 88.9055 25.2651 89.145 25.4248C89.3893 25.5877 89.5757 25.7222 89.7017 25.8271L89.7456 25.8643L89.7378 25.9219C89.5473 27.3507 89.3023 28.4822 89.0015 29.3125L88.9409 29.4746C88.6148 30.3102 88.2624 30.899 87.8765 31.2207C87.5211 31.5537 87.1533 31.7313 86.7749 31.7314H86.772C85.9044 31.7107 85.1653 31.2483 84.5552 30.3721L84.4966 30.2861C84.0596 29.6307 83.6771 28.7777 83.3462 27.7305C83.3301 27.7479 83.3145 27.7658 83.2983 27.7832L83.0474 28.0488C81.7245 29.4327 80.3397 30.6138 78.8931 31.5918L78.811 31.6484L78.7505 31.5684C78.572 31.3304 78.322 31.05 77.9995 30.7275C77.6779 30.4262 77.3879 30.1752 77.1284 29.9756L77.0103 29.8857L77.1343 29.8047C77.8544 29.3351 78.5561 28.8113 79.2388 28.2334H77.7866V27.4424H74.3159V29.6328H71.854V16.3721H80.187V27.3848C80.4957 27.0929 80.8004 26.7888 81.1011 26.4736L81.3384 26.2227C81.7874 25.7375 82.2175 25.2282 82.6304 24.6963C82.3907 23.3757 82.1862 21.9069 82.0161 20.291L81.896 19.0703C81.7816 17.8284 81.6833 16.5224 81.6011 15.1523H70.7593V12.4785H72.5347C72.4948 12.1712 72.4417 11.8367 72.3735 11.4766L72.3726 11.4746C72.2514 10.7277 72.1008 10.0314 71.9194 9.38672L71.8872 9.27441L72.0034 9.25488L73.6733 8.97656H71.3374V6.48535H74.6636C74.6233 6.36274 74.582 6.23594 74.5376 6.10645H74.5366C74.2936 5.37732 74.061 4.70874 73.8384 4.10156L73.7954 3.9834L76.2915 3.53613L76.3716 3.52148L76.4058 3.59668C76.6702 4.18671 76.9346 4.82763 77.1987 5.51855L77.2944 5.77246C77.3876 6.02401 77.4704 6.26216 77.5435 6.48535H80.6733V8.97656H78.0747L79.856 9.28516L79.9751 9.30566L79.938 9.4209C79.7151 10.1098 79.4929 10.8193 79.27 11.5488H79.269C79.175 11.878 79.0835 12.1882 78.9937 12.4785H81.4644C81.3443 9.66124 81.2541 6.66465 81.1938 3.48926L81.1919 3.38184H83.8667L83.8677 3.48633ZM113.553 3.92285L113.526 4.03027C113.242 5.14436 112.902 6.22655 112.506 7.27637H122.625V10.1025H111.269C110.56 11.5411 109.783 12.8003 108.934 13.8779H108.94C110.253 13.5949 111.578 13.281 112.912 12.9375C114.247 12.5731 115.502 12.1888 116.675 11.7842L117.108 11.6328C118.099 11.2788 118.965 10.9243 119.707 10.5713L119.77 10.542L119.822 10.5879L122.195 12.7051L122.045 12.7705C120.926 13.259 119.675 13.7167 118.292 14.1436H118.292C117.777 14.3047 117.256 14.4598 116.727 14.6094C116.951 16.053 117.226 17.4538 117.554 18.8115C118.046 18.3765 118.531 17.9277 119.009 17.4658L119.225 17.2559C119.718 16.7697 120.14 16.3153 120.493 15.8926L120.562 15.8096L122.765 17.751L122.685 17.8301C121.872 18.6231 120.977 19.4255 120.001 20.2383L119.142 20.9385C118.864 21.1611 118.593 21.3736 118.33 21.5752C118.774 22.9092 119.298 24.1232 119.904 25.2168C120.749 26.7056 121.794 27.8802 123.037 28.7422L123.158 28.8262L123.039 28.9131C122.823 29.07 122.584 29.2878 122.324 29.5684C122.143 29.7788 121.968 29.9952 121.799 30.2168L121.631 30.4414C121.41 30.7436 121.229 31.0146 121.089 31.2539L121.029 31.3574L120.934 31.2832C119.543 30.1987 118.388 28.8079 117.469 27.1133L117.468 27.1123C116.572 25.4208 115.84 23.4859 115.27 21.3096H115.269C114.792 19.4189 114.4 17.413 114.092 15.293C114.081 15.2957 114.069 15.298 114.057 15.3008V15.3018C113.305 15.4818 112.561 15.6497 111.826 15.8076V27.0967L116.054 25.3242V25.4814C116.054 25.8609 116.084 26.3124 116.144 26.8359C116.225 27.3401 116.306 27.7412 116.385 28.04L116.409 28.127L116.326 28.1631C114.947 28.7714 113.822 29.269 112.95 29.6543C112.079 30.0595 111.399 30.3736 110.913 30.5967C110.43 30.8379 110.069 31.0282 109.83 31.168C109.61 31.3275 109.432 31.4667 109.294 31.585L109.143 31.7139L109.124 31.5312C109.046 31.3398 108.919 31.1073 108.743 30.833C108.562 30.5715 108.371 30.3095 108.169 30.0479L108.168 30.0469C107.988 29.8064 107.831 29.6302 107.698 29.5156L107.608 29.4395L107.695 29.3594C107.948 29.1256 108.205 28.7906 108.465 28.3506C108.717 27.9046 108.847 27.3256 108.847 26.6074V14.0107L108.839 13.9961C108.673 14.204 108.503 14.4055 108.331 14.5996L108.252 14.6875L108.174 14.5996C108.02 14.4262 107.795 14.2391 107.495 14.0391L107.491 14.0371L107.488 14.0342L106.636 13.3652C106.355 13.1444 106.106 12.9754 105.89 12.8574L105.766 12.79L105.867 12.6904C106.972 11.6051 107.919 10.2468 108.706 8.61328L108.851 8.30566C109.569 6.76127 110.137 5.13638 110.554 3.43164L110.578 3.33398L113.553 3.92285ZM97.3716 23.4473C97.2361 24.0103 97.0821 24.5776 96.9058 25.1475C96.3785 26.8307 95.5363 28.4631 94.3804 30.0449C94.7454 30.268 95.121 30.5317 95.5063 30.8359C95.9118 31.1401 96.2467 31.4239 96.5103 31.6875V31.6865C96.2468 31.4232 95.9124 31.1397 95.5073 30.8359C95.122 30.5317 94.7464 30.268 94.3813 30.0449C95.5373 28.4631 96.3794 26.8307 96.9067 25.1475C97.0831 24.5777 97.2361 24.0102 97.3716 23.4473ZM86.6948 31.624L86.7749 31.627L86.6509 31.6191C86.6655 31.6203 86.6801 31.6232 86.6948 31.624ZM86.4976 31.6025C86.5258 31.6066 86.554 31.6103 86.5825 31.6133C86.554 31.6103 86.5258 31.6066 86.4976 31.6025ZM86.3335 31.5732C86.3665 31.5805 86.3997 31.587 86.4331 31.5928C86.3997 31.587 86.3665 31.5805 86.3335 31.5732ZM86.2017 31.5391C86.2312 31.5475 86.2606 31.5563 86.2905 31.5635C86.2606 31.5563 86.2312 31.5475 86.2017 31.5391ZM86.0659 31.4961C86.0838 31.5025 86.1016 31.5087 86.1196 31.5146C86.1016 31.5087 86.0838 31.5025 86.0659 31.4961ZM85.9214 31.4385C85.9415 31.4472 85.9617 31.4557 85.9819 31.4639C85.9617 31.4557 85.9415 31.4473 85.9214 31.4385ZM101.48 31.4121L101.864 31.4141V31.4131C101.641 31.4131 101.414 31.4102 101.183 31.4062C101.283 31.4079 101.382 31.4111 101.48 31.4121ZM99.5522 28.8584C99.755 29.2031 99.9169 29.6088 100.039 30.0752C100.16 30.5619 100.241 30.9985 100.282 31.3838C100.537 31.3933 100.789 31.3993 101.036 31.4043C100.789 31.3993 100.539 31.3932 100.284 31.3838C100.243 30.9984 100.161 30.5619 100.04 30.0752C99.9179 29.6088 99.756 29.2031 99.5532 28.8584H99.5522ZM85.7485 31.3545C85.7793 31.3711 85.8101 31.3873 85.8413 31.4023C85.8101 31.3873 85.7793 31.3711 85.7485 31.3545ZM85.6147 31.2773C85.6499 31.2992 85.6854 31.32 85.7212 31.3398C85.6854 31.32 85.6499 31.2992 85.6147 31.2773ZM85.4956 31.1982C85.5199 31.2153 85.5442 31.232 85.5688 31.248C85.5442 31.232 85.5199 31.2153 85.4956 31.1982ZM109.088 31.2129C109.074 31.1848 109.058 31.1562 109.042 31.127C109.058 31.1562 109.074 31.1848 109.088 31.2129ZM114.806 18.7959C114.979 19.646 115.167 20.4752 115.371 21.2832C115.938 23.4531 116.669 25.3802 117.561 27.0635C118.474 28.7468 119.62 30.1263 121 31.2012V31.2002C119.621 30.1254 118.475 28.7464 117.563 27.0635C116.671 25.3802 115.94 23.4533 115.373 21.2832C115.169 20.4751 114.979 19.6462 114.806 18.7959ZM85.3345 31.0771C85.3693 31.1056 85.4045 31.1329 85.4399 31.1592C85.4045 31.1329 85.3693 31.1056 85.3345 31.0771ZM87.8228 31.127C87.8617 31.0937 87.9005 31.0578 87.939 31.0186C87.9005 31.0578 87.8617 31.0937 87.8228 31.127ZM108.761 27.9316C108.705 28.1008 108.639 28.2583 108.557 28.4023C108.294 28.8484 108.03 29.1932 107.766 29.4365C107.908 29.5582 108.07 29.7412 108.252 29.9844C108.455 30.248 108.648 30.5118 108.831 30.7754C108.906 30.8929 108.973 31.0038 109.031 31.1074C108.973 31.0039 108.907 30.8928 108.832 30.7754C108.649 30.5118 108.456 30.248 108.253 29.9844C108.071 29.7411 107.909 29.5582 107.767 29.4365C108.031 29.1932 108.294 28.8485 108.558 28.4023C108.639 28.2584 108.705 28.1007 108.761 27.9316ZM85.188 30.9492C85.0682 30.838 84.9527 30.7128 84.8403 30.5742C84.9527 30.7128 85.0682 30.838 85.188 30.9492ZM77.1919 29.8926C77.4555 30.0953 77.7494 30.3492 78.0737 30.6533C78.2059 30.7855 78.3264 30.9115 78.4351 31.0303C78.3265 30.9116 78.2068 30.7855 78.0747 30.6533C77.7502 30.3491 77.4555 30.0954 77.1919 29.8926C77.3785 29.7709 77.5634 29.6446 77.7476 29.5156C77.5634 29.6446 77.3786 29.7708 77.1919 29.8926ZM88.02 30.9297C88.0352 30.9124 88.0508 30.8952 88.0659 30.877C88.0508 30.8952 88.0352 30.9124 88.02 30.9297ZM79.7749 30.833C79.8041 30.8111 79.8337 30.7897 79.8628 30.7676C79.8337 30.7897 79.8041 30.8111 79.7749 30.833ZM88.1567 30.7598C88.1691 30.7431 88.1816 30.7263 88.1938 30.709C88.1816 30.7263 88.1691 30.7431 88.1567 30.7598ZM88.27 30.5967C88.2877 30.5697 88.3052 30.542 88.3228 30.5137C88.3052 30.542 88.2877 30.5697 88.27 30.5967ZM80.1372 30.5537C80.2177 30.4907 80.2983 30.4276 80.3784 30.3633C80.2983 30.4276 80.2177 30.4907 80.1372 30.5537ZM84.8101 30.5381C84.773 30.4913 84.7359 30.4433 84.6997 30.3936L84.6958 30.3887C84.7332 30.4402 84.7717 30.4897 84.8101 30.5381ZM88.3892 30.4033C88.4112 30.3652 88.4337 30.3264 88.4556 30.2861C88.4337 30.3264 88.4112 30.3652 88.3892 30.4033ZM88.5044 30.1904C88.5289 30.1431 88.5543 30.095 88.5786 30.0449C88.5543 30.095 88.5289 30.1431 88.5044 30.1904ZM80.6069 30.1768C80.7043 30.0967 80.8022 30.0167 80.8989 29.9346C80.8022 30.0167 80.7043 30.0967 80.6069 30.1768ZM88.6313 29.9346C88.6552 29.8832 88.679 29.8305 88.7026 29.7764C88.679 29.8305 88.6552 29.8832 88.6313 29.9346ZM84.1724 29.5156C84.2213 29.6115 84.2713 29.7041 84.3218 29.7939C84.2713 29.7041 84.2213 29.6115 84.1724 29.5156ZM81.1147 29.7471C81.203 29.6705 81.2917 29.5939 81.3794 29.5156C81.2917 29.5939 81.203 29.6705 81.1147 29.7471ZM88.8433 29.4365C88.8146 29.5099 88.7853 29.5811 88.7563 29.6504C88.7648 29.6301 88.7743 29.6095 88.7827 29.5889L88.8433 29.4365C88.8815 29.3385 88.919 29.2356 88.9556 29.1279C88.919 29.2355 88.8815 29.3385 88.8433 29.4365ZM71.9595 29.5273V29.5283H74.2104V29.5273H71.9595ZM83.9399 29.0283C84.0025 29.1706 84.067 29.3071 84.1323 29.4385C84.067 29.3071 84.0025 29.1706 83.9399 29.0283ZM81.6118 29.3047C81.7015 29.2228 81.7912 29.1403 81.8804 29.0566C81.7912 29.1403 81.7015 29.2228 81.6118 29.3047ZM102.777 28.5537C102.655 28.7159 102.533 28.8278 102.412 28.8887L102.404 28.8916C102.407 28.8903 102.41 28.89 102.413 28.8887C102.534 28.8279 102.656 28.7168 102.778 28.5547C102.804 28.5153 102.829 28.4666 102.853 28.4102C102.829 28.4665 102.803 28.5143 102.777 28.5537ZM82.1187 28.8291C82.1954 28.7553 82.2727 28.6816 82.3491 28.6064C82.2727 28.6816 82.1954 28.7553 82.1187 28.8291ZM83.5796 28.0977C83.6261 28.2322 83.6737 28.363 83.7222 28.4902C83.6737 28.363 83.6261 28.2322 83.5796 28.0977ZM89.1558 28.4551C89.1589 28.4431 89.1624 28.4311 89.1655 28.4189C89.1624 28.4311 89.1589 28.4431 89.1558 28.4551ZM82.9722 27.9766C82.8597 28.0943 82.7457 28.2095 82.6323 28.3242C82.6627 28.2935 82.6939 28.2633 82.7241 28.2324L82.9722 27.9766C83.114 27.8283 83.2535 27.6768 83.3921 27.5244C83.4426 27.6903 83.4954 27.8515 83.5483 28.0078C83.4953 27.8511 83.4427 27.6898 83.3921 27.5234C83.2533 27.676 83.1142 27.8281 82.9722 27.9766ZM89.2349 28.1367C89.2473 28.0846 89.2608 28.0321 89.2729 27.9785C89.2608 28.0321 89.2473 28.0846 89.2349 28.1367ZM77.8911 28.1289H79.519L79.52 28.1279H77.8921V27.3379H77.8911V28.1289ZM86.0444 27.7188C86.0297 27.6899 86.0171 27.6593 86.0024 27.6289C86.0171 27.6593 86.0297 27.6899 86.0444 27.7188ZM89.3267 27.7305C89.3396 27.6692 89.3521 27.607 89.3647 27.5439C89.3521 27.607 89.3396 27.6692 89.3267 27.7305ZM108.844 27.6406C108.858 27.5833 108.869 27.5246 108.879 27.4648C108.869 27.5246 108.858 27.5833 108.844 27.6406ZM103.675 17.3428C103.644 18.7654 103.609 20.0281 103.568 21.1309L103.544 21.7266C103.489 23.0815 103.426 24.2114 103.355 25.1162C103.274 26.1302 103.182 26.9114 103.081 27.459L103.074 27.5029C103.076 27.4884 103.079 27.4738 103.082 27.459C103.183 26.9114 103.275 26.1303 103.356 25.1162C103.437 24.082 103.508 22.7539 103.569 21.1318C103.61 20.029 103.644 18.7656 103.675 17.3428ZM85.9243 27.4619C85.9261 27.4659 85.9284 27.4696 85.9302 27.4736C85.9272 27.4667 85.9234 27.4601 85.9204 27.4531L85.9243 27.4619ZM87.5024 27.1113C87.4918 27.1671 87.4803 27.2213 87.4692 27.2744C87.4999 27.1265 87.5305 26.9685 87.5581 26.7998L87.5024 27.1113ZM89.4282 27.2148C89.4344 27.1812 89.4407 27.1474 89.4468 27.1133C89.4407 27.1474 89.4344 27.1812 89.4282 27.2148ZM89.5044 26.7764C89.5122 26.7289 89.5202 26.6811 89.5278 26.6328C89.5202 26.6811 89.5122 26.7289 89.5044 26.7764ZM110.173 13.71C109.765 13.8032 109.359 13.895 108.953 13.9824V26.6074L108.951 26.6953C108.951 26.6662 108.954 26.6369 108.954 26.6074V13.9824C109.359 13.895 109.766 13.8031 110.173 13.71ZM89.5903 26.2227C89.5919 26.2114 89.5936 26.1998 89.5952 26.1885L89.6343 25.9082L89.6333 25.9072C89.6191 26.014 89.6052 26.1193 89.5903 26.2227ZM89.4937 25.7988C89.4819 25.79 89.47 25.7807 89.4575 25.7715C89.47 25.7807 89.4819 25.79 89.4937 25.7988ZM89.3022 25.6602C89.2876 25.6499 89.2726 25.6385 89.2573 25.6279L89.1841 25.5781C89.2256 25.6063 89.2648 25.634 89.3022 25.6602ZM77.8911 25.3604H77.8921V22.8955H77.8911V25.3604ZM74.3159 25.2549H77.7866V23.001H74.3159V25.2549ZM85.4526 24.9395C85.5263 24.8343 85.5999 24.7287 85.6724 24.6221C85.5999 24.7288 85.5263 24.8343 85.4526 24.9395ZM85.8511 24.3564C85.9265 24.2427 86.0015 24.1282 86.0757 24.0127C86.0016 24.1282 85.9265 24.2426 85.8511 24.3564ZM65.0981 24.0127C65.9263 23.842 66.7694 23.6672 67.6265 23.4893V19.8975H65.0981V24.0127ZM86.562 23.2305C86.4425 23.4304 86.3199 23.6271 86.1968 23.8223C86.3199 23.6272 86.4426 23.4303 86.562 23.2305C86.6929 23.0156 86.8207 22.7984 86.9458 22.5791C86.8206 22.7984 86.6929 23.0156 86.562 23.2305ZM82.5552 23.6221C82.5638 23.6764 82.5728 23.7303 82.5815 23.7842C82.5728 23.7303 82.5638 23.6764 82.5552 23.6221ZM82.3823 22.4463C82.3931 22.5251 82.4035 22.6036 82.4146 22.6816C82.4035 22.6036 82.3931 22.5251 82.3823 22.4463ZM87.2271 22.0703C87.2529 22.0227 87.2796 21.9756 87.3052 21.9277C87.2796 21.9756 87.2529 22.0227 87.2271 22.0703ZM82.2271 21.2275C82.2448 21.3773 82.2624 21.5258 82.2808 21.6729C82.2624 21.5258 82.2447 21.3773 82.2271 21.2275ZM87.5396 21.4746C87.5743 21.4066 87.6098 21.3389 87.644 21.2705C87.6098 21.3389 87.5743 21.4066 87.5396 21.4746ZM118.813 21.0645C118.866 21.0227 118.92 20.981 118.973 20.9385C118.92 20.9811 118.866 21.0227 118.813 21.0645ZM77.8911 20.8877H77.8921V18.5156H77.8911V20.8877ZM87.855 20.8369C87.8994 20.744 87.9443 20.6512 87.9878 20.5576C87.9443 20.6512 87.8994 20.744 87.855 20.8369ZM74.3159 20.7832H77.7866V18.6201H74.3159V20.7832ZM119.511 20.5039C119.534 20.4854 119.558 20.4679 119.581 20.4492L119.822 20.251C119.718 20.337 119.613 20.4205 119.511 20.5039ZM98.1089 17.9639C98.0687 18.6644 98.0132 19.386 97.9399 20.1279L97.9155 20.3496C97.9236 20.2756 97.9336 20.2018 97.9409 20.1279C98.0142 19.3861 98.0687 18.6644 98.1089 17.9639ZM88.1567 20.1826C88.2033 20.0783 88.2509 19.9743 88.2964 19.8691C88.2509 19.9743 88.2033 20.0783 88.1567 20.1826ZM100.554 19.9443C100.558 19.8997 100.563 19.8551 100.567 19.8105C100.563 19.8551 100.558 19.8997 100.554 19.9443ZM88.4614 19.4766C88.5087 19.3627 88.5561 19.2487 88.6021 19.1338C88.5561 19.2487 88.5087 19.3627 88.4614 19.4766ZM81.9761 18.7822C81.9866 18.9 81.9975 19.0172 82.0083 19.1338C81.9975 19.0172 81.9866 18.9 81.9761 18.7822ZM118.81 17.8018C118.377 18.2132 117.938 18.6132 117.494 19.0029H117.495C117.939 18.6134 118.377 18.2131 118.81 17.8018ZM88.7466 18.7627C88.7927 18.6427 88.8386 18.5224 88.8833 18.4014C88.8386 18.5224 88.7927 18.6427 88.7466 18.7627ZM114.64 17.9482C114.687 18.1952 114.736 18.4401 114.785 18.6836C114.736 18.4401 114.687 18.1952 114.64 17.9482ZM81.811 16.7207C81.8483 17.2401 81.8889 17.7495 81.9312 18.249C81.8889 17.7495 81.8483 17.2401 81.811 16.7207ZM89.0181 18.0283C89.0371 17.9745 89.0578 17.9212 89.0767 17.8672L89.2085 17.4814L89.2075 17.4805C89.1462 17.6644 89.0824 17.8468 89.0181 18.0283ZM114.076 15.1885C114.11 15.1801 114.145 15.1723 114.179 15.1641C114.316 16.1153 114.47 17.0433 114.64 17.9482C114.47 17.043 114.317 16.1146 114.18 15.1631C114.145 15.1714 114.111 15.1802 114.076 15.1885ZM120.573 15.96C120.167 16.4466 119.671 16.9743 119.083 17.542L119.03 17.5928C119.048 17.5757 119.066 17.5591 119.083 17.542C119.671 16.9743 120.168 16.4466 120.574 15.96H120.573ZM86.6694 17.3428C86.696 17.2646 86.7245 17.187 86.7505 17.1084L86.7603 17.0781C86.7311 17.1669 86.6994 17.2546 86.6694 17.3428ZM65.0981 17.2852H67.6265V13.6309H65.0981V17.2852ZM81.7886 16.4219C81.7916 16.4649 81.7943 16.5079 81.7974 16.5508C81.7627 16.0584 81.7329 15.557 81.7026 15.0469H81.6997L81.7886 16.4219ZM98.1831 15.5625C98.1831 15.5428 98.1841 15.5226 98.1841 15.5029V11.0928H98.1831V15.5625ZM70.8638 12.583V15.0469H70.8647V12.583H70.8638ZM106.333 14.9629C106.333 14.9567 106.334 14.9505 106.334 14.9443V14.8926C106.334 14.9155 106.333 14.9389 106.333 14.9629ZM105.94 12.7656C106.163 12.8873 106.417 13.0601 106.701 13.2832C106.985 13.5063 107.269 13.7291 107.553 13.9521C107.857 14.1549 108.09 14.3478 108.252 14.5303V14.5293C108.09 14.3471 107.858 14.1545 107.554 13.9521C107.27 13.7291 106.986 13.5053 106.702 13.2822C106.418 13.0594 106.165 12.8872 105.942 12.7656C106.031 12.6781 106.116 12.5852 106.203 12.4941C106.115 12.5854 106.029 12.6779 105.94 12.7656ZM117.413 14.3008C117.632 14.2359 117.849 14.1695 118.066 14.1025C117.849 14.1695 117.632 14.2358 117.413 14.3008ZM112.937 13.0391C112.522 13.146 112.107 13.2485 111.694 13.3496C112.108 13.2484 112.523 13.1461 112.939 13.0391C113.074 13.0022 113.208 12.9631 113.341 12.9258C113.207 12.9632 113.073 13.0021 112.937 13.0391ZM76.9331 11.9736C76.8796 12.1846 76.8255 12.3878 76.77 12.583H76.771C76.8264 12.3879 76.8797 12.1845 76.9331 11.9736ZM81.2983 3.4873C81.3592 6.6916 81.4511 9.71347 81.5728 12.5527C81.5732 12.5628 81.5733 12.5729 81.5737 12.583H81.5747C81.5743 12.5729 81.5732 12.5628 81.5728 12.5527C81.4815 10.4233 81.4071 8.19115 81.3501 5.85645L81.2993 3.4873H81.2983ZM72.5757 12.0322C72.5466 11.8486 72.5148 11.6564 72.4771 11.457C72.3554 10.7068 72.2035 10.0072 72.021 9.3584L74.0278 9.02344L72.02 9.3584C72.2025 10.0073 72.3554 10.7068 72.4771 11.457C72.5148 11.6564 72.5467 11.8486 72.5757 12.0322ZM74.1274 8.99023C74.3317 9.60314 74.5054 10.2869 74.6479 11.04C74.7649 11.5811 74.8505 12.061 74.9048 12.4785H76.6909C76.8187 12.0218 76.9417 11.5214 77.0591 10.9785V10.9766L77.1255 10.6992C77.2734 10.0632 77.3822 9.49002 77.4526 8.97949L77.4536 8.97656H74.1226L74.1274 8.99023ZM74.7856 12.3945C74.7748 12.3163 74.7644 12.2358 74.7515 12.1533C74.7644 12.2358 74.7748 12.3163 74.7856 12.3945ZM74.7153 11.9355C74.7055 11.8782 74.6949 11.82 74.6841 11.7607C74.6949 11.82 74.7055 11.8782 74.7153 11.9355ZM119.083 10.9707C118.383 11.2749 117.592 11.5786 116.709 11.8828L116.681 11.8926C116.691 11.8892 116.701 11.8862 116.71 11.8828C117.886 11.4774 118.9 11.0715 119.751 10.666L119.083 10.9707ZM86.4712 5.29199C86.7768 5.84205 87.0822 6.45316 87.3872 7.12402L87.4995 7.36621C87.7597 7.93115 87.9968 8.48145 88.2104 9.01562L88.2993 9.24121C88.4999 9.76062 88.6545 10.2268 88.7622 10.6396L88.7856 10.7305L86.3628 11.6602L86.3374 11.54C86.2498 11.1193 86.1159 10.6429 85.9351 10.1113L85.854 9.87988C85.6318 9.25383 85.3791 8.61737 85.0962 7.9707V7.96973C84.8134 7.30304 84.5208 6.6868 84.2183 6.12207L84.1606 6.01465L86.3442 5.24414L86.4272 5.21484L86.4712 5.29199ZM85.7798 9.37207C85.8393 9.53037 85.8979 9.68769 85.9536 9.84473C86.1209 10.3161 86.2532 10.748 86.3521 11.1396L86.4399 11.5186L86.353 11.1396C86.2542 10.748 86.1209 10.3162 85.9536 9.84473C85.8421 9.53051 85.7229 9.21381 85.5962 8.89453L85.7798 9.37207ZM74.6392 11.5186C74.6129 11.384 74.584 11.2451 74.5532 11.1016C74.584 11.2451 74.6129 11.384 74.6392 11.5186ZM95.0796 11.0928H95.0815V8.38477H95.0796V11.0928ZM65.0981 11.0488H67.6265V7.39453H65.0981V11.0488ZM110.822 10.7451C110.842 10.7076 110.863 10.6706 110.882 10.6328C110.863 10.6706 110.842 10.7076 110.822 10.7451ZM77.397 9.93652C77.3462 10.1941 77.287 10.4635 77.2212 10.7451C77.3297 10.2803 77.4192 9.84856 77.4868 9.44922L77.397 9.93652ZM88.6138 10.5C88.5983 10.445 88.583 10.3889 88.5659 10.332C88.583 10.3889 88.5983 10.445 88.6138 10.5ZM88.4937 10.1025C88.4788 10.0566 88.4645 10.0099 88.4487 9.96289C88.4645 10.0099 88.4788 10.0566 88.4937 10.1025ZM88.3706 9.73926C88.3512 9.68435 88.3317 9.62857 88.311 9.57227C88.3317 9.62857 88.3512 9.68435 88.3706 9.73926ZM88.2241 9.33887C88.2166 9.31914 88.2093 9.29919 88.2017 9.2793L88.1646 9.18652C88.1847 9.23789 88.2049 9.28854 88.2241 9.33887ZM71.4419 6.58984V8.87207H80.5688V8.87109H71.4429V6.58984H71.4419ZM110.48 4.13672C110.052 5.71369 109.492 7.22098 108.8 8.6582L108.757 8.74414C108.771 8.71539 108.787 8.68713 108.801 8.6582C109.592 7.01554 110.21 5.28122 110.656 3.45605L110.48 4.13672ZM99.1265 4.24707C99.4306 4.896 99.7344 5.61635 100.039 6.40723C100.31 7.11183 100.506 7.73661 100.632 8.28027C100.506 7.73667 100.311 7.11172 100.04 6.40723C99.7354 5.61636 99.4316 4.896 99.1274 4.24707L101.621 3.42578L99.1265 4.24707ZM112.353 7.38086H112.355C112.371 7.3402 112.384 7.29857 112.399 7.25781C112.383 7.29879 112.369 7.33999 112.353 7.38086ZM61.4028 7.29004H61.4038V4.7041H61.4028V7.29004ZM84.3101 6.07324C84.4622 6.3572 84.6122 6.65358 84.7593 6.96289L84.5376 6.50781C84.4629 6.3597 84.387 6.21504 84.311 6.07324L86.3794 5.34277L84.3101 6.07324ZM103.075 6.85254C103.061 6.81108 103.047 6.76897 103.032 6.72656C103.047 6.76898 103.061 6.81108 103.075 6.85254ZM112.629 6.62793C112.646 6.57949 112.663 6.53099 112.68 6.48242C112.663 6.53099 112.646 6.57949 112.629 6.62793ZM77.396 6.37695C77.3685 6.2952 77.3401 6.21145 77.3101 6.12598C77.3402 6.21143 77.3684 6.29522 77.396 6.37695ZM112.899 5.82715C112.916 5.77317 112.934 5.71918 112.951 5.66504C112.934 5.71918 112.916 5.77317 112.899 5.82715ZM77.2017 5.82715C77.1995 5.82142 77.1979 5.81531 77.1958 5.80957L77.146 5.67676C77.1651 5.72741 77.1834 5.77763 77.2017 5.82715ZM74.8081 6.58594C74.7549 6.42136 74.698 6.25046 74.6372 6.07324C74.5156 5.70828 74.3964 5.35799 74.2798 5.02344L73.937 4.06543C74.1601 4.67375 74.3929 5.34329 74.6362 6.07324C74.6975 6.25194 74.7555 6.424 74.8091 6.58984L74.8081 6.58594ZM85.1987 30.959C85.235 30.9923 85.2712 31.0248 85.3081 31.0557C85.2712 31.0248 85.235 30.9923 85.1987 30.959ZM83.7544 28.5762C83.8152 28.7324 83.8763 28.8834 83.9399 29.0283C83.8763 28.8834 83.8152 28.7324 83.7544 28.5762ZM85.7495 19.6904C85.8257 19.52 85.9012 19.3488 85.9741 19.1758C85.9011 19.3487 85.8258 19.52 85.7495 19.6904ZM72.6489 12.5449C72.6312 12.4012 72.6095 12.2519 72.5854 12.0967C72.6093 12.2519 72.6312 12.4012 72.6489 12.5449Z" fill="#141A1F"/>
</svg>
