<svg width="2132" height="326" viewBox="0 0 2132 326" fill="none" xmlns="http://www.w3.org/2000/svg">
<path d="M41 133.572L46.1378 135.451L51.2757 137.338L56.4135 139.23L61.5514 141.129L66.6892 143.033L71.8271 144.942L76.9649 146.855L82.1028 148.772L87.2406 150.693L92.3784 152.617L97.5163 154.544L102.654 156.472L107.792 158.402L112.93 160.333L118.068 162.265L123.206 164.197L128.343 166.129L133.481 168.06L138.619 169.99L143.757 171.918L148.895 173.844L154.033 175.767L159.17 177.687L164.308 179.604L169.446 181.516L174.584 183.424L179.722 185.326L184.86 187.223L189.997 189.115L195.135 190.999L200.273 192.877L205.411 194.748L210.549 196.61L215.687 198.465L220.825 200.31L225.962 202.147L231.1 203.973L236.238 205.79L241.376 207.596L246.514 209.391L251.652 211.175L256.789 212.947L261.927 214.706L267.065 216.453L272.203 218.186L277.341 219.906L282.479 221.612L287.617 223.303L292.754 224.98L297.892 226.641L303.03 228.286L308.168 229.916L313.306 231.529L318.444 233.125L323.581 234.703L328.719 236.264L333.857 237.807L338.995 239.331L344.133 240.837L349.271 242.323L354.409 243.79L359.546 245.237L364.684 246.664L369.822 248.07L374.96 249.455L380.098 250.818L385.236 252.16L390.373 253.48L395.511 254.778L400.649 256.053L405.787 257.305L410.925 258.534L416.063 259.739L421.201 260.92L426.338 262.077L431.476 263.21L436.614 264.318L441.752 265.401L446.89 266.459L452.028 267.491L457.165 268.497L462.303 269.478L467.441 270.432L472.579 271.359L477.717 272.26L482.855 273.134L487.992 273.981L493.13 274.8L498.268 275.592L503.406 276.356L508.544 277.092L513.682 277.8L518.82 278.479L523.957 279.131L529.095 279.753L534.233 280.347L539.371 280.911L544.509 281.447L549.647 281.953L554.784 282.43L559.922 282.878L565.06 283.295L570.198 283.684L575.336 284.042L580.474 284.371L585.612 284.669L590.749 284.938L595.887 285.177L601.025 285.385L606.163 285.563L611.301 285.711L616.439 285.829L621.576 285.916L626.714 285.973L631.852 286L636.99 285.996L642.128 285.962L647.266 285.898L652.404 285.803L657.541 285.678L662.679 285.523L667.817 285.338L672.955 285.122L678.093 284.876L683.231 284.601L688.368 284.295L693.506 283.959L698.644 283.593L703.782 283.198L708.92 282.773L714.058 282.318L719.195 281.834L724.333 281.321L729.471 280.779L734.609 280.207L739.747 279.607L744.885 278.977L750.023 278.319L755.16 277.633L760.298 276.918L765.436 276.176L770.574 275.405L775.712 274.607L780.85 273.781L785.987 272.927L791.125 272.047L796.263 271.14L801.401 270.206L806.539 269.245L811.677 268.259L816.815 267.246L821.952 266.208L827.09 265.144L832.228 264.055L837.366 262.941L842.504 261.802L847.642 260.639L852.779 259.452L857.917 258.241L863.055 257.007L868.193 255.75L873.331 254.469L878.469 253.166L883.607 251.841L888.744 250.494L893.882 249.125L899.02 247.735L904.158 246.324L909.296 244.892L914.434 243.441L919.571 241.969L924.709 240.478L929.847 238.968L934.985 237.439L940.123 235.892L945.261 234.327L950.398 232.744L955.536 231.144L960.674 229.527L965.812 227.894L970.95 226.245L976.088 224.58L981.226 222.9L986.363 221.205L991.501 219.495L996.639 217.772L1001.78 216.036L1006.91 214.286L1012.05 212.524L1017.19 210.749L1022.33 208.962L1027.47 207.165L1032.6 205.356L1037.74 203.537L1042.88 201.708L1048.02 199.869L1053.16 198.021L1058.29 196.165L1063.43 194.3L1068.57 192.428L1073.71 190.549L1078.84 188.662L1083.98 186.77L1089.12 184.871L1094.26 182.967L1099.4 181.058L1104.53 179.145L1109.67 177.228L1114.81 175.307L1119.95 173.383L1125.09 171.456L1130.22 169.528L1135.36 167.598L1140.5 165.667L1145.64 163.735L1150.77 161.803L1155.91 159.871L1161.05 157.94L1166.19 156.01L1171.33 154.082L1176.46 152.156L1181.6 150.233L1186.74 148.313L1191.88 146.397L1197.02 144.484L1202.15 142.577L1207.29 140.674L1212.43 138.777L1217.57 136.885L1222.7 135.001L1227.84 133.123L1232.98 131.252L1238.12 129.39L1243.26 127.535L1248.39 125.69L1253.53 123.853L1258.67 122.027L1263.81 120.21L1268.94 118.404L1274.08 116.609L1279.22 114.825L1284.36 113.053L1289.5 111.294L1294.63 109.547L1299.77 107.814L1304.91 106.094L1310.05 104.388L1315.19 102.697L1320.32 101.02L1325.46 99.3591L1330.6 97.7137L1335.74 96.0843L1340.87 94.4714L1346.01 92.8755L1351.15 91.2968L1356.29 89.7359L1361.43 88.193L1366.56 86.6686L1371.7 85.163L1376.84 83.6766L1381.98 82.2097L1387.12 80.7629L1392.25 79.3363L1397.39 77.9303L1402.53 76.5454L1407.67 75.1817L1412.8 73.8398L1417.94 72.5198L1423.08 71.2222L1428.22 69.9472L1433.36 68.6952L1438.49 67.4664L1443.63 66.2612L1448.77 65.0799L1453.91 63.9228L1459.05 62.7901L1464.18 61.682L1469.32 60.5991L1474.46 59.5414L1479.6 58.5092L1484.73 57.5027L1489.87 56.5224L1495.01 55.5682L1500.15 54.6406L1505.29 53.7397L1510.42 52.8658L1515.56 52.0191L1520.7 51.1998L1525.84 50.408L1530.97 49.644L1536.11 48.908L1541.25 48.2001L1546.39 47.5206L1551.53 46.8695L1556.66 46.2471L1561.8 45.6535L1566.94 45.0888L1572.08 44.5533L1577.22 44.047L1582.35 43.57L1587.49 43.1225L1592.63 42.7046L1597.77 42.3164L1602.9 41.9579L1608.04 41.6293L1613.18 41.3306L1618.32 41.062L1623.46 40.8234L1628.59 40.615L1633.73 40.4368L1638.87 40.2888L1644.01 40.1711L1649.15 40.0838L1654.28 40.0267L1659.42 40L1664.56 40.0036L1669.7 40.0376L1674.83 40.1019L1679.97 40.1966L1685.11 40.3215L1690.25 40.4767L1695.39 40.6622L1700.52 40.8778L1705.66 41.1236L1710.8 41.3994L1715.94 41.7052L1721.08 42.041L1726.21 42.4066L1731.35 42.802L1736.49 43.227L1741.63 43.6815L1746.76 44.1656L1751.9 44.6789L1757.04 45.2214L1762.18 45.793L1767.32 46.3935L1772.45 47.0228L1777.59 47.6807L1782.73 48.367L1787.87 49.0817L1793.01 49.8244L1798.14 50.5951L1803.28 51.3935L1808.42 52.2194L1813.56 53.0726L1818.69 53.953L1823.83 54.8603L1828.97 55.7943L1834.11 56.7547L1839.25 57.7414L1844.38 58.754L1849.52 59.7923L1854.66 60.8561L1859.8 61.9451L1864.93 63.0591L1870.07 64.1977L1875.21 65.3606L1880.35 66.5477L1885.49 67.7586L1890.62 68.9929L1895.76 70.2505L1900.9 71.5309L1906.04 72.8339L1911.18 74.1592L1916.31 75.5064L1921.45 76.8751L1926.59 78.2651L1931.73 79.6761L1936.86 81.1075L1942 82.5592L1947.14 84.0307L1952.28 85.5217L1957.42 87.0319L1962.55 88.5608L1967.69 90.108L1972.83 91.6733L1977.97 93.2561L1983.11 94.8561L1988.24 96.473L1993.38 98.1062L1998.52 99.7555L2003.66 101.42L2008.79 103.1L2013.93 104.795L2019.07 106.505L2024.21 108.228L2029.35 109.964L2034.48 111.714L2039.62 113.477L2044.76 115.251L2049.9 117.038L2055.04 118.835L2060.17 120.644L2065.31 122.463L2070.45 124.292L2075.59 126.131L2080.72 127.979L2085.86 129.835L2091 131.7" stroke="#F3EEEC" stroke-opacity="0.4" stroke-width="80" stroke-miterlimit="10" stroke-linecap="round" stroke-linejoin="round"/>
</svg>
