<svg width="290" height="55" viewBox="0 0 290 55" fill="none" xmlns="http://www.w3.org/2000/svg">
<path d="M14.9494 54.0253L17.3878 21.8799L22.3634 21.4466L19.925 53.5921L14.9494 54.0253ZM0 47.406L0.388778 42.3826L25.2669 40.2165L24.8782 45.2399L0 47.406ZM3.75418 55L6.1926 22.8546L11.1682 22.4214L8.72981 54.5668L3.75418 55ZM0.850648 36.2301L1.25497 31.2054L26.1331 29.0393L25.7288 34.0641L0.850648 36.2301Z" fill="#CBB6AF"/>
<path d="M52.0722 43.6663L64.571 42.5781L64.9819 47.2524L46.0347 48.9021L45.6586 44.6239L56.4341 24.8452L44.0149 25.9265L43.6039 21.2521L62.5512 19.6024L62.9273 23.8807L52.0722 43.6663Z" fill="#CBB6AF"/>
<path d="M83.4429 45.9245C80.8423 46.1509 78.4006 45.7515 76.1178 44.7261C73.835 43.7008 71.9627 42.174 70.5008 40.1458C69.0367 38.0912 68.1851 35.7038 67.9459 32.9837C67.7091 30.29 68.1336 27.8182 69.2193 25.5682C70.3027 23.2917 71.879 21.4514 73.9482 20.0471C76.0174 18.6429 78.3523 17.8275 80.9529 17.6011C83.58 17.3724 86.0217 17.7718 88.278 18.7995C90.5608 19.8248 92.421 21.366 93.8586 23.4229C95.3204 25.4511 96.1698 27.812 96.4066 30.5057C96.6457 33.2258 96.2236 35.7241 95.1402 38.0005C94.081 40.2482 92.5168 42.0742 90.4476 43.4785C88.3784 44.8827 86.0435 45.6981 83.4429 45.9245ZM83.0076 40.9729C84.6794 40.8273 86.1197 40.3294 87.3284 39.479C88.5349 38.6022 89.4348 37.4328 90.0283 35.9708C90.6217 34.5087 90.8372 32.8534 90.6746 31.0048C90.5121 29.1562 90.0123 27.5764 89.175 26.2656C88.3355 24.9283 87.2463 23.9454 85.9076 23.3168C84.5688 22.6883 83.0635 22.4468 81.3917 22.5924C79.7199 22.7379 78.2663 23.237 77.031 24.0897C75.8223 24.94 74.9212 26.0962 74.3278 27.5583C73.732 28.9939 73.5154 30.636 73.6779 32.4847C73.8404 34.3333 74.3414 35.9262 75.181 37.2635C76.0205 38.6008 77.1108 39.5969 78.4519 40.2519C79.8172 40.8781 81.3358 41.1184 83.0076 40.9729Z" fill="#CBB6AF"/>
<path d="M117.087 28.4257C118.678 28.5799 120.034 29.2469 121.154 30.4267C122.273 31.6066 122.905 33.0152 123.049 34.6525C123.179 36.1314 122.923 37.471 122.279 38.6712C121.66 39.8428 120.689 40.8055 119.365 41.5595C118.041 42.3135 116.436 42.7725 114.552 42.9365L102.571 43.9797L100.14 16.3297L111.604 15.3316C113.488 15.1675 115.134 15.3303 116.54 15.8198C117.974 16.3071 119.083 17.0621 119.868 18.0848C120.68 19.1051 121.146 20.302 121.267 21.6752C121.408 23.2861 121.089 24.6711 120.308 25.8301C119.554 26.9868 118.481 27.852 117.087 28.4257ZM106.716 27.2531L111.811 26.8095C113.138 26.6939 114.134 26.3145 114.799 25.6711C115.462 25.0013 115.745 24.1119 115.648 23.0027C115.55 21.8935 115.116 21.0664 114.347 20.5214C113.577 19.9764 112.528 19.7616 111.201 19.8772L106.106 20.3208L106.716 27.2531ZM113.359 38.4899C114.713 38.3721 115.733 37.9639 116.42 37.2654C117.134 36.5646 117.44 35.6332 117.338 34.4712C117.233 33.2828 116.754 32.3932 115.9 31.8022C115.043 31.1849 113.938 30.9352 112.585 31.053L107.092 31.5313L107.747 38.9786L113.359 38.4899Z" fill="#CBB6AF"/>
<path d="M145.518 34.9315L134.453 35.895L133.085 41.3229L127.233 41.8324L134.79 13.2729L141.278 12.708L153.704 39.5277L147.813 40.0406L145.518 34.9315ZM143.616 30.6265L138.578 19.4095L135.575 31.3266L143.616 30.6265Z" fill="#CBB6AF"/>
<path d="M174.808 32.3814L163.742 33.3448L162.374 38.7728L156.523 39.2823L164.079 10.7228L170.568 10.1579L182.993 36.9776L177.102 37.4905L174.808 32.3814ZM172.905 28.0764L167.868 16.8594L164.864 28.7765L172.905 28.0764Z" fill="#CBB6AF"/>
<path d="M204.097 29.8312L193.031 30.7947L191.663 36.2227L185.812 36.7321L193.369 8.17263L199.857 7.60772L212.282 34.4274L206.391 34.9404L204.097 29.8312ZM202.194 25.5263L197.157 14.3092L194.154 26.2263L202.194 25.5263Z" fill="#CBB6AF"/>
<path d="M233.386 27.2811L222.321 28.2446L220.953 33.6725L215.101 34.182L222.658 5.62249L229.146 5.05758L241.572 31.8773L235.681 32.3902L233.386 27.2811ZM231.484 22.9761L226.447 11.7591L223.443 23.6762L231.484 22.9761Z" fill="#CBB6AF"/>
<path d="M262.676 24.731L251.61 25.6944L250.242 31.1224L244.391 31.6319L251.948 3.07236L258.436 2.50745L270.861 29.3272L264.97 29.8401L262.676 24.731ZM260.773 20.426L255.736 9.20897L252.733 21.1261L260.773 20.426Z" fill="#CBB6AF"/>
<path d="M290 1.04266L286.019 19.8466L281.376 19.0318L284.058 0L290 1.04266ZM282.192 28.6235C281.195 28.4486 280.422 28.0033 279.872 27.2878C279.354 26.5507 279.175 25.7253 279.337 24.8116C279.499 23.8979 279.948 23.196 280.684 22.706C281.451 22.1945 282.333 22.0263 283.33 22.2012C284.3 22.3715 285.045 22.8252 285.564 23.5622C286.087 24.2732 286.267 25.0855 286.106 25.9993C285.944 26.913 285.492 27.6279 284.752 28.144C284.016 28.634 283.163 28.7938 282.192 28.6235Z" fill="#A37F71"/>
</svg>
