<svg width="1920" height="798" viewBox="0 0 1920 798" fill="none" xmlns="http://www.w3.org/2000/svg">
<path fill-rule="evenodd" clip-rule="evenodd" d="M1517.71 615.821C1743.69 636.074 2027.35 661.498 2244.01 874L2168.59 950.814C1979.87 765.714 1731.31 743.222 1498.1 722.118C1493.08 721.664 1488.08 721.211 1483.08 720.757C1368.31 710.334 1253.04 698.914 1161.81 659.953C1114.93 639.935 1072.43 611.945 1038.69 571.663C1008.94 536.138 987.739 493.112 975.377 441.879C920.328 409.093 864.73 366.186 810.246 312.77C695.965 200.729 495.005 185.556 303.374 243.108C209.369 271.34 122.664 315.881 56.7809 369.564C-9.63213 423.68 -50.8867 483.656 -62.7682 541.995L-168.279 520.535C-149.729 429.452 -89.0513 349.547 -11.2541 286.155C67.0733 222.331 166.856 171.738 272.394 140.042C479.848 77.7381 730.193 83.5328 885.649 235.941C910.752 260.552 935.659 282.267 960.177 301.305C961.578 230.461 978.474 171.037 1008.32 123.436C1053.94 50.6955 1125.37 12.7613 1198.49 3.10591C1270.67 -6.42543 1346.3 11.1663 1405.76 50.9148C1465.94 91.1438 1511.5 155.763 1515.93 238.67C1519.93 313.63 1499.47 380.364 1456.77 431.013C1414.17 481.543 1353.03 511.793 1283.39 520.551C1234.32 526.722 1180.93 522.403 1125.21 507.131C1145.22 529.422 1171.26 546.954 1204.12 560.99C1276.78 592.02 1373.96 602.784 1492.83 613.581C1501.04 614.326 1509.34 615.07 1517.71 615.821ZM1072.06 372.03C1148.16 409.265 1216.53 420.493 1269.95 413.775C1316.71 407.895 1351.7 388.639 1374.43 361.67C1397.07 334.82 1411.16 296.062 1408.4 244.414C1406.07 200.715 1382.67 164.952 1345.89 140.368C1308.4 115.304 1259.1 103.654 1212.58 109.797C1167 115.816 1125.97 138.472 1099.56 180.583C1075.25 219.355 1059.74 280.481 1072.06 372.03Z" fill="#F3EEEC"/>
</svg>
