<svg width="40" height="40" viewBox="0 0 40 40" fill="none" xmlns="http://www.w3.org/2000/svg">
<path d="M37.5022 20.3883C37.5022 18.9494 37.3831 17.8994 37.1252 16.8105H20.3594V23.3049H30.2006C30.0022 24.9189 28.9308 27.3494 26.5498 28.9827L26.5164 29.2001L31.8175 33.2246L32.1847 33.2605C35.5577 30.2077 37.5022 25.716 37.5022 20.3883Z" fill="#4285F4"/>
<path d="M20.3586 37.5C25.18 37.5 29.2275 35.9443 32.1839 33.261L26.549 28.9831C25.0411 30.0137 23.0173 30.7331 20.3586 30.7331C15.6364 30.7331 11.6285 27.6804 10.1998 23.4609L9.99043 23.4784L4.47833 27.659L4.40625 27.8554C7.34272 33.572 13.3745 37.5 20.3586 37.5Z" fill="#34A853"/>
<path d="M10.1983 23.4614C9.82135 22.3726 9.60318 21.2058 9.60318 20.0003C9.60318 18.7947 9.82135 17.6281 10.1785 16.5392L10.1685 16.3073L4.58732 12.0596L4.40471 12.1447C3.19445 14.5169 2.5 17.1809 2.5 20.0003C2.5 22.8198 3.19445 25.4836 4.40471 27.8558L10.1983 23.4614Z" fill="#FBBC05"/>
<path d="M20.3587 9.26662C23.7118 9.26662 25.9737 10.6861 27.2634 11.8723L32.3031 7.05C29.208 4.23056 25.1801 2.5 20.3587 2.5C13.3745 2.5 7.34273 6.42775 4.40625 12.1444L10.18 16.5389C11.6286 12.3194 15.6365 9.26662 20.3587 9.26662Z" fill="#EB4335"/>
</svg>
