<svg width="66" height="66" viewBox="0 0 66 66" fill="none" xmlns="http://www.w3.org/2000/svg">
<g filter="url(#filter0_f_12008_13886)">
<path d="M26.7724 13.532L25.3662 27.4297C25.3511 27.5787 25.2296 27.6983 25.0729 27.7183L13.7243 29.1696C13.4035 29.2106 13.3186 29.6123 13.5981 29.7669L23.5412 35.2677C23.6928 35.3515 23.7521 35.5308 23.6782 35.6815L17.6019 48.066C17.4639 48.3473 17.784 48.6324 18.0723 48.4855L29.7974 42.4996C29.9665 42.4133 30.1776 42.4765 30.2635 42.6391L35.565 52.6727C35.7153 52.9572 36.1639 52.8854 36.2071 52.57L37.9056 40.1498C37.924 40.0153 38.0294 39.9061 38.1694 39.8767L52.4479 36.874C52.7447 36.8116 52.8128 36.4403 52.5558 36.287L41.0465 29.424C40.9182 29.3475 40.8589 29.1999 40.901 29.062L44.6436 16.8139C44.7332 16.5208 44.3818 16.285 44.119 16.462L33.9835 23.2923C33.8208 23.4019 33.5938 23.3561 33.4926 23.1932L27.4047 13.3994C27.2373 13.1302 26.8038 13.2212 26.7724 13.532Z" stroke="#D4FF00" stroke-width="3"/>
</g>
<g filter="url(#filter1_f_12008_13886)">
<path d="M26.7724 13.532L25.3662 27.4297C25.3511 27.5787 25.2296 27.6983 25.0729 27.7183L13.7243 29.1696C13.4035 29.2106 13.3186 29.6123 13.5981 29.7669L23.5412 35.2677C23.6928 35.3515 23.7521 35.5308 23.6782 35.6815L17.6019 48.066C17.4639 48.3473 17.784 48.6324 18.0723 48.4855L29.7974 42.4996C29.9665 42.4133 30.1776 42.4765 30.2635 42.6391L35.565 52.6727C35.7153 52.9572 36.1639 52.8854 36.2071 52.57L37.9056 40.1498C37.924 40.0153 38.0294 39.9061 38.1694 39.8767L52.4479 36.874C52.7447 36.8116 52.8128 36.4403 52.5558 36.287L41.0465 29.424C40.9182 29.3475 40.8589 29.1999 40.901 29.062L44.6436 16.8139C44.7332 16.5208 44.3818 16.285 44.119 16.462L33.9835 23.2923C33.8208 23.4019 33.5938 23.3561 33.4926 23.1932L27.4047 13.3994C27.2373 13.1302 26.8038 13.2212 26.7724 13.532Z" stroke="#D4FF00" stroke-width="3"/>
</g>
<path d="M26.7724 13.532L25.3662 27.4297C25.3511 27.5787 25.2296 27.6983 25.0729 27.7183L13.7243 29.1696C13.4035 29.2106 13.3186 29.6123 13.5981 29.7669L23.5412 35.2677C23.6928 35.3515 23.7521 35.5308 23.6782 35.6815L17.6019 48.066C17.4639 48.3473 17.784 48.6324 18.0723 48.4855L29.7974 42.4996C29.9665 42.4133 30.1776 42.4765 30.2635 42.6391L35.565 52.6727C35.7153 52.9572 36.1639 52.8854 36.2071 52.57L37.9056 40.1498C37.924 40.0153 38.0294 39.9061 38.1694 39.8767L52.4479 36.874C52.7447 36.8116 52.8128 36.4403 52.5558 36.287L41.0465 29.424C40.9182 29.3475 40.8589 29.1999 40.901 29.062L44.6436 16.8139C44.7332 16.5208 44.3818 16.285 44.119 16.462L33.9835 23.2923C33.8208 23.4019 33.5938 23.3561 33.4926 23.1932L27.4047 13.3994C27.2373 13.1302 26.8038 13.2212 26.7724 13.532Z" stroke="#D4FF00" stroke-width="2"/>
<defs>
<filter id="filter0_f_12008_13886" x="0.918457" y="0.741211" width="64.3027" height="64.6084" filterUnits="userSpaceOnUse" color-interpolation-filters="sRGB">
<feFlood flood-opacity="0" result="BackgroundImageFix"/>
<feBlend mode="normal" in="SourceGraphic" in2="BackgroundImageFix" result="shape"/>
<feGaussianBlur stdDeviation="5.5" result="effect1_foregroundBlur_12008_13886"/>
</filter>
<filter id="filter1_f_12008_13886" x="0.918457" y="0.741211" width="64.3027" height="64.6084" filterUnits="userSpaceOnUse" color-interpolation-filters="sRGB">
<feFlood flood-opacity="0" result="BackgroundImageFix"/>
<feBlend mode="normal" in="SourceGraphic" in2="BackgroundImageFix" result="shape"/>
<feGaussianBlur stdDeviation="5.5" result="effect1_foregroundBlur_12008_13886"/>
</filter>
</defs>
</svg>
