<svg width="240" height="240" viewBox="0 0 240 240" fill="none" xmlns="http://www.w3.org/2000/svg">
<g clip-path="url(#clip0_202_57586)">
<path d="M0.00476074 211.293H89.1201L89.1201 9.39619H0.00476074L0.00476074 211.293Z" fill="#F0F0F0"/>
<path d="M-0.00212097 211.293H87.2324L87.2324 9.39619H-0.00212097L-0.00212097 211.293Z" fill="#909090"/>
<path d="M81.9209 206.712L81.9209 13.9779L5.31736 13.9779L5.31736 206.712H81.9209Z" fill="#F0F0F0"/>
<path d="M74.389 49.8224C74.389 47.0583 73.8488 44.3213 72.7993 41.7676C71.7497 39.214 70.2114 36.8936 68.2722 34.9392C66.3329 32.9847 64.0306 31.4343 61.4968 30.3765C58.9631 29.3187 56.2474 28.7743 53.5048 28.7743H33.726C28.1871 28.7743 22.8752 30.9919 18.9586 34.9392C15.0421 38.8864 12.8418 44.2401 12.8418 49.8224H74.389Z" fill="#FAFAFA"/>
<path d="M74.3945 194.733V148.689H12.8473V194.733H74.3945Z" fill="#909090"/>
<path d="M74.392 62.8049H47.2441V142.748H74.392V62.8049Z" fill="#909090"/>
<path d="M39.9896 62.8049H12.8418V142.748H39.9896V62.8049Z" fill="#909090"/>
<path d="M22.6872 102.416H11.5679C11.1107 102.415 10.6726 102.232 10.3493 101.906C10.026 101.58 9.84389 101.138 9.84277 100.678C9.84427 100.217 10.0265 99.7757 10.3497 99.45C10.6729 99.1242 11.1108 98.9406 11.5679 98.939H22.6872C23.1442 98.9406 23.5822 99.1242 23.9054 99.45C24.2286 99.7757 24.4108 100.217 24.4123 100.678C24.4112 101.138 24.2291 101.58 23.9058 101.906C23.5825 102.232 23.1444 102.415 22.6872 102.416Z" fill="#F9F9F9"/>
<path d="M6.69238 206.712L6.69238 13.9779H5.31397L5.31397 206.712H6.69238Z" fill="#F0F0F0"/>
<path d="M145.484 98.7461L239.99 98.7461V9.39634L145.484 9.39634V98.7461Z" fill="#909090"/>
<path d="M143.099 98.7461L237.604 98.7461V9.39634L143.099 9.39634V98.7461Z" fill="#909090"/>
<path d="M137.585 103.918L239.99 103.918V98.746L137.585 98.746V103.918Z" fill="#909090"/>
<path d="M134.903 103.918L232.034 103.918V98.746L134.903 98.746V103.918Z" fill="#909090"/>
<path d="M233.328 94.0993V14.0449L147.374 14.0449V94.0993H233.328Z" fill="white"/>
<path d="M192.734 94.0993V14.0449H187.969V94.0993H192.734Z" fill="#909090"/>
<path d="M149.181 94.0993V14.0449H147.379V94.0993H149.181Z" fill="#909090"/>
<path d="M194.534 94.0993V14.0449H192.733V94.0993H194.534Z" fill="#909090"/>
<path d="M129.005 227.567L123.149 228.232L120.989 214.847L126.845 214.182L129.005 227.567Z" fill="#FFC3BD"/>
<path d="M155.218 228.856H149.37L147.914 215.207H153.762L155.218 228.856Z" fill="#FFC3BD"/>
<path d="M148.893 228.17H156.022C156.138 228.17 156.25 228.21 156.341 228.283C156.431 228.356 156.494 228.458 156.52 228.572L157.675 233.811C157.702 233.939 157.7 234.071 157.669 234.198C157.638 234.324 157.58 234.443 157.497 234.543C157.415 234.644 157.311 234.725 157.194 234.78C157.076 234.834 156.948 234.862 156.818 234.859C154.524 234.819 152.856 234.684 149.963 234.684C148.186 234.684 142.825 234.869 140.371 234.869C137.965 234.869 137.596 232.423 138.6 232.202C143.106 231.204 146.502 229.839 147.941 228.532C148.203 228.297 148.542 228.167 148.893 228.17Z" fill="#2B211C"/>
<path d="M123.047 227.22L129.393 226.495C129.508 226.482 129.625 226.508 129.723 226.571C129.821 226.633 129.896 226.727 129.933 226.838L131.667 231.911C131.711 232.034 131.726 232.165 131.712 232.295C131.698 232.424 131.654 232.549 131.585 232.659C131.515 232.769 131.422 232.862 131.312 232.93C131.201 232.998 131.077 233.04 130.948 233.052C128.656 233.275 125.333 233.517 122.457 233.847C119.093 234.232 118.533 235.139 114.564 235.046C112.159 234.989 111.556 232.529 112.565 232.336C117.161 231.436 118.05 230.736 121.703 227.846C122.084 227.515 122.55 227.299 123.047 227.22Z" fill="#2B211C"/>
<path d="M128.213 55.6792C126.249 57.3137 124.316 58.7343 122.316 60.1892C120.316 61.644 118.274 62.9947 116.172 64.3055C114.071 65.6163 111.914 66.8729 109.653 68.0139C107.341 69.2211 104.934 70.2334 102.456 71.0405C101.801 71.2516 101.163 71.4256 100.427 71.6111C99.7074 71.7683 98.9798 71.8859 98.2475 71.9634C96.93 72.106 95.6903 72.1702 94.4548 72.2272C91.9923 72.3413 89.5766 72.3385 87.1636 72.3214C82.3378 72.2629 77.553 72.029 72.747 71.6011L72.6748 67.1795C77.3945 66.5676 82.1354 66.0385 86.8268 65.5065C89.1718 65.2497 91.5111 64.9616 93.7967 64.6607C94.9289 64.5052 96.061 64.3226 97.1055 64.1272C97.5544 64.0473 97.9985 63.9421 98.4357 63.812C98.8476 63.6694 99.3528 63.5068 99.8198 63.3171C101.825 62.4964 103.772 61.5366 105.646 60.4445C107.586 59.322 109.528 58.1168 111.436 56.8359C113.343 55.5551 115.243 54.2286 117.125 52.8751C119.007 51.5215 120.888 50.0881 122.654 48.7388L128.213 55.6792Z" fill="#FFC3BD"/>
<path d="M133.937 50.6415C133.097 56.2127 121.458 64.7349 121.458 64.7349L113.108 54.29C116.766 50.3559 120.644 46.6361 124.724 43.1492C128.482 40.0541 134.852 44.5797 133.937 50.6415Z" fill="#CBB6AF"/>
<path d="M74.2961 67.6458L70.976 65.2639L70.6123 72.7891C71.1142 72.7905 71.6087 72.6679 72.0528 72.4322C72.4968 72.1965 72.8769 71.8548 73.1597 71.437L74.2961 67.6458Z" fill="#FFC3BD"/>
<path d="M67.9732 63.0729L67.2939 70.4483L70.6112 72.7889L70.9749 65.2637L67.9732 63.0729Z" fill="#FFC3BD"/>
<path opacity="0.2" d="M120.994 214.851L122.107 221.75L127.964 221.085L126.852 214.186L120.994 214.851Z" fill="black"/>
<path opacity="0.2" d="M153.777 215.209H147.927L148.68 222.244H154.53L153.777 215.209Z" fill="black"/>
<path d="M153.854 43.3274C154.289 43.4258 154.701 43.611 155.064 43.8722C155.428 44.1333 155.736 44.4651 155.97 44.848C156.204 45.2309 156.36 45.6571 156.429 46.1017C156.497 46.5462 156.477 47.0001 156.368 47.4365C155.1 52.7446 154.143 58.1235 153.504 63.5453C152.951 68.1095 152.62 72.4697 152.413 76.422C151.928 85.6859 152.13 92.7475 151.855 95.1409C147.283 94.8214 130.051 93.6133 120.656 92.9515C117.484 67.9283 121.201 51.9594 123.288 45.4711C123.608 44.4601 124.206 43.5614 125.013 42.8796C125.819 42.1978 126.802 41.761 127.845 41.6201C129.042 41.4617 130.475 41.3091 131.986 41.2192C132.515 41.185 133.052 41.1665 133.598 41.1551C138.034 41.208 142.462 41.5185 146.863 42.085C147.698 42.1849 148.541 42.309 149.362 42.4416C151.002 42.7183 152.562 43.0364 153.854 43.3274Z" fill="#4A3830"/>
<path d="M146.596 26.9473C145.464 31.1891 144.08 39.011 146.868 42.0918C139.636 46.994 135.02 53.896 133.688 52.3969C132.99 51.6124 132.687 42.534 133.605 41.159C138.443 40.3489 138.566 36.7817 137.969 33.3813L146.596 26.9473Z" fill="#FFC3BD"/>
<path d="M146.307 40.3334C146.307 40.3334 134.522 45.5893 132.96 57.3421C136.206 53.5538 143.377 49.4318 143.377 49.4318L140.214 48.5161C142.226 47.7467 144.308 47.1819 146.431 46.8302C146.08 45.2071 147.951 41.9693 147.951 41.9693L146.307 40.3334Z" fill="#CBB6AF"/>
<path d="M135.672 40.1438C135.672 40.1438 137.242 46.8561 132.959 57.3423C132.114 53.6823 130.956 50.1031 129.497 46.645L132.383 47.4366C132.383 47.4366 132.241 46.083 129.905 44.283C130.878 42.8577 132.093 41.6156 133.492 40.6131L135.672 40.1438Z" fill="#CBB6AF"/>
<path opacity="0.2" d="M143.074 29.5733L137.968 33.3787C138.119 34.1706 138.201 34.9743 138.213 35.7806C140.052 35.638 142.685 33.808 143.012 31.9039C143.172 31.1372 143.193 30.3476 143.074 29.5733Z" fill="black"/>
<path d="M131.616 14.6638C128.765 14.7879 127.191 19.7429 130.085 23.8236C132.979 27.9043 135.459 14.4969 131.616 14.6638Z" fill="#2B211C"/>
<path d="M145.679 19.0244C146.017 24.8637 146.51 28.2626 143.96 31.5902C140.124 36.5951 132.709 34.8008 130.647 29.1812C128.791 24.1235 128.549 15.4244 133.902 12.4363C135.079 11.7711 136.406 11.4203 137.755 11.4174C139.105 11.4145 140.433 11.7596 141.614 12.4198C142.794 13.08 143.787 14.0333 144.498 15.1893C145.21 16.3453 145.616 17.6655 145.679 19.0244Z" fill="#FFC3BD"/>
<path d="M146.529 23.5114C144.98 22.5961 143.627 21.3793 142.549 19.9319C141.471 18.4844 140.69 16.8353 140.25 15.0805C138.552 15.4856 130.088 19.4108 127.485 15.0805C124.882 10.7502 128.157 8.20998 133.027 10.8757C130.873 7.04468 132.832 5.1705 139.599 5.00505C146.367 4.8396 145.457 8.79334 145.457 8.79334C145.457 8.79334 150.58 6.54547 152.391 10.5049C154.49 15.0548 150.618 22.8239 146.529 23.5114Z" fill="#2B211C"/>
<path d="M144.3 7.74821C144.362 7.74821 146.863 8.35439 149.744 5.43188C149.228 7.92507 144.753 9.5853 144.753 9.5853L144.3 7.74821Z" fill="#2B211C"/>
<path d="M147.658 16.29C144.959 15.3501 141.692 19.3794 142.899 24.2445C144.106 29.1097 151.294 17.5566 147.658 16.29Z" fill="#2B211C"/>
<path d="M149.185 23.8811C148.937 25.3312 148.13 26.6236 146.94 27.4753C145.354 28.5907 143.924 27.3156 143.827 25.47C143.744 23.8097 144.469 21.2281 146.319 20.8473C146.725 20.7708 147.143 20.7978 147.536 20.9258C147.929 21.0538 148.284 21.2787 148.569 21.5802C148.853 21.8816 149.059 22.25 149.166 22.6518C149.274 23.0536 149.28 23.4762 149.185 23.8811Z" fill="#FFC3BD"/>
<path d="M129.447 159.352C130.852 142.113 141.161 94.3934 141.161 94.3934L120.649 92.9514C120.649 92.9514 112.739 140.321 112.134 158.298C111.502 176.99 118.962 218.532 118.962 218.532L128.799 217.404C128.799 217.404 128.036 176.662 129.447 159.352Z" fill="#CBB6AF"/>
<path opacity="0.5" d="M129.447 159.352C130.852 142.113 141.161 94.3934 141.161 94.3934L120.649 92.9514C120.649 92.9514 112.739 140.321 112.134 158.298C111.502 176.99 118.962 218.532 118.962 218.532L128.799 217.404C128.799 217.404 128.036 176.662 129.447 159.352Z" fill="white"/>
<path opacity="0.2" d="M133.436 110.554C129.301 115.882 129.228 134.597 130.827 148.423C132.351 138.449 134.753 125.782 136.857 115.223L133.436 110.554Z" fill="black"/>
<path d="M131.717 93.7287C131.717 93.7287 133.93 144.184 136.4 161.272C139.103 179.983 145.968 220.88 145.968 220.88H156.678C156.678 220.88 154.916 182.361 153.502 163.977C151.893 143.038 151.849 95.1436 151.849 95.1436L131.717 93.7287Z" fill="#CBB6AF"/>
<path opacity="0.5" d="M131.717 93.7287C131.717 93.7287 133.93 144.184 136.4 161.272C139.103 179.983 145.968 220.88 145.968 220.88H156.678C156.678 220.88 154.916 182.361 153.502 163.977C151.893 143.038 151.849 95.1436 151.849 95.1436L131.717 93.7287Z" fill="white"/>
<path d="M144.686 221.11H157.297V217.313L143.2 217.066L144.686 221.11Z" fill="#CBB6AF"/>
<path d="M118.531 219.649L130.255 218.309L129.83 214.491L116.701 215.788L118.531 219.649Z" fill="#CBB6AF"/>
<path d="M137.149 21.7016C137.205 22.1737 137.007 22.5859 136.696 22.623C136.384 22.66 136.096 22.3077 136.041 21.8356C135.985 21.3635 136.182 20.9513 136.493 20.9142C136.805 20.8772 137.093 21.2295 137.149 21.7016Z" fill="#2B211C"/>
<path d="M131.857 22.3422C131.914 22.8143 131.716 23.2265 131.405 23.2636C131.093 23.3007 130.805 22.9484 130.748 22.4763C130.691 22.0042 130.889 21.592 131.201 21.5549C131.512 21.5178 131.801 21.8758 131.857 22.3422Z" fill="#2B211C"/>
<path d="M133.569 22.3737C133.183 23.8838 132.592 25.3331 131.814 26.6812C132.162 26.8729 132.546 26.9859 132.941 27.0122C133.336 27.0386 133.732 26.9777 134.101 26.8338L133.569 22.3737Z" fill="#ED847E"/>
<path d="M138.589 19.7771C138.539 19.7921 138.487 19.7932 138.437 19.7804C138.387 19.7676 138.342 19.7413 138.305 19.7044C138.071 19.445 137.78 19.2452 137.454 19.1212C137.129 18.9973 136.779 18.9527 136.433 18.9913C136.361 19.0035 136.287 18.9872 136.227 18.9457C136.166 18.9043 136.124 18.8408 136.109 18.7688C136.102 18.7326 136.102 18.6954 136.109 18.6593C136.116 18.6231 136.13 18.5888 136.151 18.5584C136.171 18.5279 136.198 18.5019 136.229 18.4819C136.259 18.462 136.294 18.4484 136.33 18.4421C136.766 18.3851 137.21 18.4347 137.624 18.5866C138.037 18.7385 138.408 18.9883 138.706 19.315C138.757 19.3681 138.785 19.4389 138.785 19.5126C138.785 19.5862 138.757 19.657 138.706 19.7101C138.673 19.742 138.633 19.7651 138.589 19.7771Z" fill="#2B211C"/>
<path d="M136.55 28.7166C137.218 28.575 137.842 28.2735 138.37 27.8376C138.898 27.4016 139.314 26.8441 139.583 26.212C139.596 26.1742 139.594 26.1326 139.576 26.0965C139.559 26.0604 139.528 26.0327 139.491 26.0194C139.453 26.0062 139.412 26.0085 139.376 26.0259C139.34 26.0433 139.313 26.0743 139.3 26.1121C139.042 26.6936 138.652 27.2059 138.162 27.6077C137.672 28.0096 137.095 28.2897 136.478 28.4256C136.459 28.43 136.441 28.4382 136.425 28.4496C136.409 28.461 136.395 28.4755 136.385 28.4921C136.375 28.5088 136.368 28.5274 136.364 28.5468C136.361 28.5663 136.362 28.5861 136.366 28.6053C136.37 28.6245 136.379 28.6427 136.39 28.6587C136.401 28.6748 136.416 28.6884 136.432 28.6989C136.449 28.7094 136.467 28.7164 136.486 28.7197C136.506 28.723 136.525 28.7224 136.544 28.718L136.55 28.7166Z" fill="#2B211C"/>
<path d="M129.367 20.7811C129.311 20.7998 129.251 20.7998 129.196 20.7811C129.127 20.7556 129.071 20.7044 129.039 20.6382C129.007 20.5721 129.002 20.496 129.024 20.426C129.157 20.0029 129.389 19.6184 129.701 19.305C130.012 18.9916 130.395 18.7587 130.815 18.626C130.886 18.6098 130.96 18.6218 131.023 18.6595C131.085 18.6972 131.131 18.7578 131.15 18.8285C131.166 18.8999 131.154 18.9748 131.117 19.0377C131.08 19.1007 131.02 19.1468 130.95 19.1666C130.62 19.2776 130.321 19.4661 130.077 19.7165C129.833 19.967 129.652 20.2722 129.548 20.6071C129.533 20.6482 129.509 20.6852 129.478 20.7154C129.446 20.7456 129.408 20.7681 129.367 20.7811Z" fill="#2B211C"/>
<path d="M146.965 229.2C146.565 229.232 146.166 229.126 145.833 228.899C145.729 228.809 145.649 228.694 145.6 228.566C145.551 228.437 145.534 228.298 145.55 228.161C145.55 228.08 145.572 228 145.614 227.93C145.656 227.86 145.716 227.804 145.788 227.766C146.437 227.43 148.321 228.599 148.533 228.733C148.557 228.748 148.575 228.77 148.586 228.795C148.598 228.82 148.601 228.849 148.597 228.876C148.592 228.903 148.58 228.928 148.561 228.949C148.543 228.969 148.519 228.983 148.492 228.99C147.993 229.117 147.48 229.187 146.965 229.2ZM146.096 227.98C146.035 227.977 145.973 227.989 145.917 228.014C145.888 228.03 145.864 228.054 145.849 228.084C145.833 228.113 145.826 228.146 145.829 228.179C145.816 228.272 145.827 228.367 145.86 228.456C145.892 228.544 145.947 228.623 146.017 228.685C146.67 228.985 147.413 229.023 148.093 228.79C147.484 228.392 146.803 228.117 146.089 227.98H146.096Z" fill="#CBB6AF"/>
<path d="M148.459 228.993C148.435 228.993 148.412 228.987 148.392 228.976C147.788 228.645 146.617 227.353 146.74 226.694C146.761 226.591 146.816 226.498 146.896 226.431C146.976 226.365 147.077 226.328 147.181 226.327C147.286 226.314 147.393 226.324 147.494 226.355C147.596 226.385 147.69 226.437 147.771 226.507C148.45 227.067 148.59 228.768 148.594 228.839C148.596 228.864 148.591 228.889 148.58 228.912C148.569 228.934 148.553 228.953 148.532 228.967C148.51 228.983 148.485 228.992 148.459 228.993ZM147.278 226.604H147.215C147.035 226.627 147.019 226.709 147.012 226.747C146.939 227.134 147.684 228.11 148.286 228.571C148.246 227.897 148.005 227.25 147.595 226.717C147.506 226.642 147.394 226.603 147.278 226.604Z" fill="#CBB6AF"/>
<path d="M122.574 228.091L122.551 228.101C121.635 228.396 119.997 228.814 119.296 228.321C119.193 228.249 119.108 228.152 119.05 228.04C118.992 227.928 118.962 227.803 118.962 227.676C118.957 227.6 118.971 227.523 119.003 227.454C119.036 227.385 119.085 227.325 119.148 227.281C119.806 226.815 122.278 227.732 122.558 227.839C122.582 227.849 122.603 227.866 122.618 227.888C122.633 227.909 122.642 227.935 122.643 227.961C122.645 227.987 122.639 228.013 122.627 228.037C122.615 228.06 122.596 228.079 122.574 228.093V228.091ZM119.343 227.486L119.31 227.506C119.285 227.523 119.265 227.547 119.252 227.575C119.24 227.603 119.235 227.634 119.24 227.665C119.238 227.748 119.256 227.831 119.294 227.906C119.331 227.98 119.387 228.045 119.455 228.093C120.315 228.363 121.243 228.313 122.07 227.95C121.213 227.567 120.275 227.408 119.341 227.486H119.343Z" fill="#CBB6AF"/>
<path d="M122.572 228.091C122.539 228.108 122.5 228.111 122.465 228.1C121.729 227.863 120.201 226.755 120.229 226.081C120.236 225.923 120.325 225.716 120.699 225.635C120.834 225.605 120.973 225.602 121.109 225.628C121.245 225.654 121.374 225.708 121.488 225.786C122.088 226.364 122.492 227.118 122.643 227.94C122.648 227.964 122.647 227.989 122.639 228.012C122.632 228.035 122.619 228.056 122.601 228.073C122.592 228.08 122.583 228.086 122.572 228.091ZM120.604 225.966C120.509 226.017 120.506 226.077 120.505 226.1C120.485 226.505 121.541 227.392 122.306 227.743C122.165 227.086 121.827 226.488 121.337 226.032C121.253 225.973 121.159 225.933 121.059 225.914C120.959 225.894 120.856 225.896 120.757 225.919C120.704 225.927 120.652 225.943 120.604 225.966Z" fill="#CBB6AF"/>
<path d="M158.786 51.8281C158.637 54.1302 158.368 56.2739 158.089 58.4875C157.811 60.7012 157.435 62.8706 157.024 65.06C156.209 69.5317 155.006 73.9226 153.428 78.182L152.733 79.8323L152.557 80.2445L152.513 80.3471L152.441 80.504L152.237 80.9105C151.968 81.4045 151.645 81.8666 151.274 82.2884C150.664 82.9803 149.95 83.5722 149.159 84.0427C148.519 84.427 147.847 84.7557 147.151 85.0254C144.833 85.8681 142.409 86.378 139.951 86.5402C135.486 86.8763 130.998 86.7074 126.571 86.0367L126.731 81.6151L129.825 81.2628C130.862 81.1387 131.894 80.9776 132.92 80.8349C134.968 80.5311 136.994 80.1917 138.926 79.7395C140.713 79.3729 142.45 78.7926 144.1 78.0108C144.545 77.8224 144.935 77.5224 145.232 77.1394C145.251 77.0381 145.027 77.4817 145.29 76.7728L145.753 75.4093C146.886 71.5002 147.754 67.5177 148.348 63.4896C148.681 61.4386 148.965 59.369 149.24 57.2937C149.515 55.2184 149.741 53.1004 149.958 51.1107L158.786 51.8281Z" fill="#FFC3BD"/>
<path d="M159.291 47.5549C162.154 52.3944 159.715 67.6046 159.715 67.6046L144.714 64.8104C144.714 64.8104 143.902 56.1099 146.758 49.4148C149.858 42.1278 155.822 41.6914 159.291 47.5549Z" fill="#CBB6AF"/>
<path d="M122.533 95.2947L114.572 57.9768C114.19 56.3832 113.304 54.958 112.048 53.9161C110.792 52.8741 109.234 52.2719 107.609 52.2002H77.1074C78.7328 52.2716 80.2911 52.8737 81.5473 53.9156C82.8035 54.9576 83.6895 56.383 84.0716 57.9768L92.0322 95.2947C92.4143 96.8883 93.3 98.3135 94.556 99.3555C95.8119 100.397 97.3698 101 98.995 101.071H129.495C127.87 101 126.312 100.397 125.056 99.3555C123.8 98.3135 122.915 96.8883 122.533 95.2947Z" fill="#2B211C"/>
<path opacity="0.7" d="M122.533 95.2947L114.572 57.9768C114.19 56.3832 113.304 54.958 112.048 53.9161C110.792 52.8741 109.234 52.2719 107.609 52.2002H77.1074C78.7328 52.2716 80.2911 52.8737 81.5473 53.9156C82.8035 54.9576 83.6895 56.383 84.0716 57.9768L92.0322 95.2947C92.4143 96.8883 93.3 98.3135 94.556 99.3555C95.8119 100.397 97.3698 101 98.995 101.071H129.495C127.87 101 126.312 100.397 125.056 99.3555C123.8 98.3135 122.915 96.8883 122.533 95.2947Z" fill="#CBB6AF"/>
<path d="M77.1052 52.2002H107.606C106.044 52.2297 104.547 52.833 103.396 53.8967C102.244 54.9605 101.518 56.4114 101.353 57.9768L93.4409 144.696C93.276 146.262 92.5497 147.712 91.3984 148.776C90.2471 149.84 88.7501 150.443 87.1885 150.473H68.1512C67.4179 150.487 66.6902 150.342 66.0167 150.05C65.3432 149.757 64.7396 149.322 64.2462 148.775C63.7529 148.229 63.3811 147.582 63.1559 146.878C62.9307 146.175 62.8573 145.431 62.9404 144.696L70.8543 57.9768C71.0189 56.4116 71.7449 54.9609 72.8959 53.8972C74.047 52.8335 75.5438 52.23 77.1052 52.2002Z" fill="#CBB6AF"/>
<path d="M81.9831 144.696C81.8999 145.43 81.9734 146.174 82.1986 146.877C82.4238 147.581 82.7955 148.228 83.2889 148.775C83.7822 149.322 84.3859 149.756 85.0593 150.049C85.7328 150.342 86.4606 150.486 87.1939 150.472H56.6934C55.96 150.486 55.2322 150.342 54.5586 150.049C53.885 149.757 53.2813 149.322 52.7879 148.775C52.2944 148.228 51.9227 147.581 51.6976 146.878C51.4725 146.174 51.3992 145.43 51.4826 144.696H81.9831Z" fill="#2B211C"/>
<path opacity="0.7" d="M81.9831 144.696C81.8999 145.43 81.9734 146.174 82.1986 146.877C82.4238 147.581 82.7955 148.228 83.2889 148.775C83.7822 149.322 84.3859 149.756 85.0593 150.049C85.7328 150.342 86.4606 150.486 87.1939 150.472H56.6934C55.96 150.486 55.2322 150.342 54.5586 150.049C53.885 149.757 53.2813 149.322 52.7879 148.775C52.2944 148.228 51.9227 147.581 51.6976 146.878C51.4725 146.174 51.3992 145.43 51.4826 144.696H81.9831Z" fill="#CBB6AF"/>
<g opacity="0.5">
<path opacity="0.5" d="M96.0655 61.9164H75.4262C75.2668 61.9187 75.1088 61.8867 74.9627 61.8226C74.8165 61.7585 74.6855 61.6639 74.5785 61.5449C74.4714 61.4259 74.3907 61.2854 74.3416 61.1325C74.2926 60.9797 74.2764 60.8181 74.294 60.6584C74.3307 60.3179 74.4891 60.0025 74.7396 59.771C74.9901 59.5395 75.3157 59.4078 75.6555 59.4004H96.292C96.4513 59.3982 96.6093 59.4302 96.7555 59.4943C96.9017 59.5583 97.0326 59.653 97.1397 59.772C97.2468 59.8909 97.3275 60.0315 97.3765 60.1844C97.4256 60.3372 97.4418 60.4988 97.4241 60.6584C97.3875 60.9985 97.2295 61.3136 96.9796 61.545C96.7297 61.7764 96.4048 61.9084 96.0655 61.9164Z" fill="white"/>
<path opacity="0.5" d="M95.4571 68.7213H74.8178C74.6584 68.7235 74.5005 68.6915 74.3543 68.6274C74.2081 68.5634 74.0772 68.4687 73.9701 68.3497C73.863 68.2308 73.7823 68.0902 73.7332 67.9373C73.6842 67.7845 73.668 67.6229 73.6856 67.4633C73.7223 67.1227 73.8807 66.8073 74.1312 66.5758C74.3818 66.3443 74.7073 66.2126 75.0471 66.2053H95.6864C95.8458 66.2031 96.0038 66.235 96.1499 66.2991C96.2961 66.3631 96.4271 66.4578 96.5341 66.5768C96.6412 66.6958 96.7219 66.8363 96.771 66.9892C96.82 67.142 96.8363 67.3036 96.8186 67.4633C96.7822 67.8039 96.6239 68.1195 96.3733 68.3511C96.1227 68.5826 95.797 68.7142 95.4571 68.7213Z" fill="white"/>
<path opacity="0.5" d="M89.7845 75.5259H74.2045C74.0452 75.5281 73.8872 75.4961 73.741 75.432C73.5949 75.368 73.4639 75.2733 73.3568 75.1543C73.2497 75.0354 73.169 74.8948 73.1199 74.7419C73.0709 74.5891 73.0547 74.4275 73.0724 74.2679C73.1091 73.9273 73.2674 73.6119 73.518 73.3804C73.7685 73.1489 74.094 73.0172 74.4338 73.0099H90.0138C90.1731 73.0077 90.3311 73.0396 90.4773 73.1037C90.6235 73.1677 90.7544 73.2624 90.8615 73.3814C90.9686 73.5004 91.0493 73.641 91.0983 73.7938C91.1474 73.9466 91.1636 74.1082 91.1459 74.2679C91.1092 74.6084 90.9509 74.9239 90.7003 75.1553C90.4498 75.3868 90.1243 75.5185 89.7845 75.5259Z" fill="white"/>
<path opacity="0.5" d="M78.8752 82.3298H73.5922C73.4329 82.332 73.2749 82.3 73.1287 82.2359C72.9825 82.1719 72.8516 82.0772 72.7445 81.9582C72.6374 81.8392 72.5567 81.6987 72.5076 81.5458C72.4586 81.393 72.4424 81.2314 72.4601 81.0718C72.4964 80.7313 72.6545 80.4159 72.9048 80.1844C73.1551 79.9529 73.4804 79.8211 73.8201 79.8137H79.1045C79.2638 79.8115 79.4218 79.8435 79.568 79.9076C79.7141 79.9716 79.8451 80.0663 79.9522 80.1853C80.0593 80.3043 80.14 80.4448 80.189 80.5977C80.2381 80.7505 80.2543 80.9121 80.2366 81.0718C80.1999 81.4123 80.0415 81.7277 79.791 81.9592C79.5405 82.1907 79.215 82.3224 78.8752 82.3298Z" fill="white"/>
<path opacity="0.5" d="M93.6093 89.1346H72.9643C72.8049 89.1368 72.6469 89.1048 72.5008 89.0408C72.3546 88.9767 72.2236 88.882 72.1166 88.763C72.0095 88.6441 71.9288 88.5035 71.8797 88.3507C71.8307 88.1978 71.8144 88.0362 71.8321 87.8766C71.8688 87.5361 72.0272 87.2206 72.2777 86.9891C72.5282 86.7576 72.8538 86.6259 73.1936 86.6186H93.8329C93.9923 86.6164 94.1502 86.6484 94.2964 86.7124C94.4426 86.7765 94.5735 86.8711 94.6806 86.9901C94.7877 87.1091 94.8684 87.2497 94.9175 87.4025C94.9665 87.5553 94.9827 87.7169 94.9651 87.8766C94.9285 88.2162 94.7709 88.5308 94.5216 88.7622C94.2723 88.9936 93.9481 89.1259 93.6093 89.1346Z" fill="white"/>
<path opacity="0.5" d="M84.8702 95.9394H72.3598C72.2004 95.9416 72.0424 95.9096 71.8963 95.8456C71.7501 95.7815 71.6191 95.6869 71.5121 95.5679C71.405 95.4489 71.3243 95.3083 71.2752 95.1555C71.2262 95.0027 71.21 94.8411 71.2276 94.6814C71.264 94.341 71.4221 94.0256 71.6724 93.7941C71.9227 93.5626 72.248 93.4308 72.5876 93.4234H85.098C85.2574 93.4212 85.4154 93.4532 85.5616 93.5173C85.7077 93.5813 85.8387 93.676 85.9458 93.795C86.0528 93.9139 86.1336 94.0545 86.1826 94.2073C86.2317 94.3602 86.2479 94.5218 86.2302 94.6814C86.1935 95.0217 86.0354 95.337 85.7851 95.5684C85.5349 95.7999 85.2097 95.9317 84.8702 95.9394Z" fill="white"/>
<path opacity="0.5" d="M92.3937 102.743H71.7543C71.595 102.745 71.437 102.713 71.2908 102.649C71.1446 102.585 71.0137 102.49 70.9066 102.371C70.7995 102.252 70.7188 102.112 70.6697 101.959C70.6207 101.806 70.6045 101.644 70.6222 101.485C70.6589 101.144 70.8173 100.829 71.0678 100.597C71.3183 100.366 71.6438 100.234 71.9836 100.227H92.6243C92.7837 100.225 92.9417 100.257 93.0879 100.321C93.234 100.385 93.365 100.479 93.4721 100.598C93.5791 100.717 93.6599 100.858 93.7089 101.011C93.758 101.164 93.7742 101.325 93.7565 101.485C93.7198 101.826 93.5612 102.141 93.3104 102.373C93.0596 102.604 92.7337 102.736 92.3937 102.743Z" fill="white"/>
<path opacity="0.5" d="M86.7103 109.548H71.1303C70.9709 109.55 70.8129 109.518 70.6668 109.454C70.5206 109.39 70.3897 109.295 70.2826 109.176C70.1755 109.057 70.0948 108.917 70.0457 108.764C69.9967 108.611 69.9805 108.45 69.9981 108.29C70.0348 107.949 70.1932 107.634 70.4437 107.402C70.6943 107.171 71.0198 107.039 71.3596 107.032H86.9395C87.0989 107.03 87.2569 107.062 87.4031 107.126C87.5492 107.19 87.6802 107.284 87.7873 107.403C87.8944 107.522 87.9751 107.663 88.0241 107.816C88.0732 107.969 88.0894 108.13 88.0717 108.29C88.035 108.63 87.8766 108.946 87.6261 109.177C87.3756 109.409 87.0501 109.541 86.7103 109.548Z" fill="white"/>
<path opacity="0.5" d="M75.8013 116.352H70.5141C70.3547 116.354 70.1967 116.322 70.0506 116.258C69.9044 116.194 69.7734 116.099 69.6664 115.98C69.5593 115.861 69.4786 115.721 69.4295 115.568C69.3805 115.415 69.3643 115.253 69.3819 115.094C69.4186 114.753 69.577 114.438 69.8275 114.206C70.078 113.975 70.4036 113.843 70.7434 113.836H76.0334C76.1928 113.834 76.3508 113.866 76.4969 113.93C76.6431 113.994 76.7741 114.088 76.8811 114.207C76.9882 114.326 77.0689 114.467 77.118 114.62C77.167 114.773 77.1832 114.934 77.1656 115.094C77.1288 115.435 76.97 115.751 76.7189 115.982C76.4678 116.214 76.1416 116.345 75.8013 116.352Z" fill="white"/>
<path opacity="0.5" d="M90.544 123.158H69.9047C69.7454 123.16 69.5874 123.128 69.4412 123.064C69.295 123 69.1641 122.905 69.057 122.787C68.9499 122.668 68.8692 122.527 68.8202 122.374C68.7711 122.221 68.7549 122.06 68.7726 121.9C68.8092 121.56 68.9676 121.244 69.2182 121.013C69.4687 120.781 69.7942 120.649 70.134 120.642H90.7733C90.9327 120.64 91.0907 120.672 91.2368 120.736C91.383 120.8 91.514 120.895 91.621 121.014C91.7281 121.133 91.8089 121.273 91.8579 121.426C91.9069 121.579 91.9232 121.74 91.9055 121.9C91.8688 122.241 91.7104 122.556 91.4599 122.788C91.2094 123.019 90.8838 123.151 90.544 123.158Z" fill="white"/>
<path opacity="0.5" d="M81.7989 129.961H69.2885C69.1291 129.964 68.9711 129.932 68.825 129.868C68.6788 129.804 68.5479 129.709 68.4408 129.59C68.3337 129.471 68.253 129.33 68.2039 129.178C68.1549 129.025 68.1387 128.863 68.1563 128.703C68.1927 128.363 68.351 128.047 68.6016 127.816C68.8522 127.584 69.1779 127.452 69.5178 127.445H82.0268C82.1861 127.443 82.3441 127.475 82.4903 127.539C82.6364 127.603 82.7674 127.698 82.8745 127.817C82.9816 127.936 83.0623 128.077 83.1113 128.229C83.1604 128.382 83.1766 128.544 83.1589 128.703C83.1223 129.044 82.9641 129.359 82.7139 129.59C82.4637 129.822 82.1385 129.954 81.7989 129.961Z" fill="white"/>
<path opacity="0.5" d="M89.3194 136.766H68.6801C68.5208 136.768 68.3627 136.736 68.2166 136.672C68.0704 136.608 67.9395 136.513 67.8324 136.395C67.7253 136.276 67.6446 136.135 67.5955 135.982C67.5465 135.829 67.5303 135.668 67.548 135.508C67.5846 135.167 67.743 134.852 67.9935 134.621C68.2441 134.389 68.5696 134.257 68.9094 134.25H89.5459C89.7052 134.248 89.8632 134.28 90.0094 134.344C90.1556 134.408 90.2865 134.503 90.3936 134.622C90.5007 134.741 90.5814 134.881 90.6305 135.034C90.6795 135.187 90.6957 135.348 90.678 135.508C90.6414 135.848 90.4834 136.163 90.2335 136.395C89.9836 136.626 89.6587 136.758 89.3194 136.766Z" fill="white"/>
</g>
<path d="M128.529 82.097L124.048 78.1733L121.948 85.3961C121.948 85.3961 126.5 87.8836 128.076 85.6001L128.529 82.097Z" fill="#FFC3BD"/>
<path d="M119.167 77.891L117.709 83.9442L121.943 85.3991L124.043 78.1748L119.167 77.891Z" fill="#FFC3BD"/>
</g>
<defs>
<clipPath id="clip0_202_57586">
<rect width="240" height="240" fill="white"/>
</clipPath>
</defs>
</svg>
